G04 #@! TF.GenerationSoftware,KiCad,Pcbnew,(5.1.4)-1*
G04 #@! TF.CreationDate,2021-12-08T17:21:41-05:00*
G04 #@! TF.ProjectId,mtg_life_counter,6d74675f-6c69-4666-955f-636f756e7465,2.0*
G04 #@! TF.SameCoordinates,Original*
G04 #@! TF.FileFunction,Legend,Bot*
G04 #@! TF.FilePolarity,Positive*
%FSLAX46Y46*%
G04 Gerber Fmt 4.6, Leading zero omitted, Abs format (unit mm)*
G04 Created by KiCad (PCBNEW (5.1.4)-1) date 2021-12-08 17:21:41*
%MOMM*%
%LPD*%
G04 APERTURE LIST*
%ADD10C,0.150000*%
%ADD11C,0.300000*%
%ADD12C,0.120000*%
G04 APERTURE END LIST*
D10*
X57911904Y-118880000D02*
X58007142Y-118832380D01*
X58150000Y-118832380D01*
X58292857Y-118880000D01*
X58388095Y-118975238D01*
X58435714Y-119070476D01*
X58483333Y-119260952D01*
X58483333Y-119403809D01*
X58435714Y-119594285D01*
X58388095Y-119689523D01*
X58292857Y-119784761D01*
X58150000Y-119832380D01*
X58054761Y-119832380D01*
X57911904Y-119784761D01*
X57864285Y-119737142D01*
X57864285Y-119403809D01*
X58054761Y-119403809D01*
X57435714Y-119832380D02*
X57435714Y-118832380D01*
X56864285Y-119832380D01*
X56864285Y-118832380D01*
X56388095Y-119832380D02*
X56388095Y-118832380D01*
X56150000Y-118832380D01*
X56007142Y-118880000D01*
X55911904Y-118975238D01*
X55864285Y-119070476D01*
X55816666Y-119260952D01*
X55816666Y-119403809D01*
X55864285Y-119594285D01*
X55911904Y-119689523D01*
X56007142Y-119784761D01*
X56150000Y-119832380D01*
X56388095Y-119832380D01*
X57276904Y-116292380D02*
X56705476Y-116292380D01*
X56991190Y-117292380D02*
X56991190Y-116292380D01*
X56467380Y-116292380D02*
X55800714Y-117292380D01*
X55800714Y-116292380D02*
X56467380Y-117292380D01*
X56681666Y-114752380D02*
X57015000Y-114276190D01*
X57253095Y-114752380D02*
X57253095Y-113752380D01*
X56872142Y-113752380D01*
X56776904Y-113800000D01*
X56729285Y-113847619D01*
X56681666Y-113942857D01*
X56681666Y-114085714D01*
X56729285Y-114180952D01*
X56776904Y-114228571D01*
X56872142Y-114276190D01*
X57253095Y-114276190D01*
X56348333Y-113752380D02*
X55681666Y-114752380D01*
X55681666Y-113752380D02*
X56348333Y-114752380D01*
X53887619Y-78279047D02*
X53173333Y-78279047D01*
X53030476Y-78326666D01*
X52935238Y-78421904D01*
X52887619Y-78564761D01*
X52887619Y-78660000D01*
X52887619Y-77326666D02*
X52887619Y-77802857D01*
X53887619Y-77802857D01*
X52982857Y-76421904D02*
X52935238Y-76469523D01*
X52887619Y-76612380D01*
X52887619Y-76707619D01*
X52935238Y-76850476D01*
X53030476Y-76945714D01*
X53125714Y-76993333D01*
X53316190Y-77040952D01*
X53459047Y-77040952D01*
X53649523Y-76993333D01*
X53744761Y-76945714D01*
X53840000Y-76850476D01*
X53887619Y-76707619D01*
X53887619Y-76612380D01*
X53840000Y-76469523D01*
X53792380Y-76421904D01*
X53887619Y-75707619D02*
X53173333Y-75707619D01*
X53030476Y-75755238D01*
X52935238Y-75850476D01*
X52887619Y-75993333D01*
X52887619Y-76088571D01*
X52887619Y-74755238D02*
X52887619Y-75231428D01*
X53887619Y-75231428D01*
X52982857Y-73850476D02*
X52935238Y-73898095D01*
X52887619Y-74040952D01*
X52887619Y-74136190D01*
X52935238Y-74279047D01*
X53030476Y-74374285D01*
X53125714Y-74421904D01*
X53316190Y-74469523D01*
X53459047Y-74469523D01*
X53649523Y-74421904D01*
X53744761Y-74374285D01*
X53840000Y-74279047D01*
X53887619Y-74136190D01*
X53887619Y-74040952D01*
X53840000Y-73898095D01*
X53792380Y-73850476D01*
X53887619Y-73136190D02*
X53173333Y-73136190D01*
X53030476Y-73183809D01*
X52935238Y-73279047D01*
X52887619Y-73421904D01*
X52887619Y-73517142D01*
X52887619Y-72183809D02*
X52887619Y-72660000D01*
X53887619Y-72660000D01*
X52982857Y-71279047D02*
X52935238Y-71326666D01*
X52887619Y-71469523D01*
X52887619Y-71564761D01*
X52935238Y-71707619D01*
X53030476Y-71802857D01*
X53125714Y-71850476D01*
X53316190Y-71898095D01*
X53459047Y-71898095D01*
X53649523Y-71850476D01*
X53744761Y-71802857D01*
X53840000Y-71707619D01*
X53887619Y-71564761D01*
X53887619Y-71469523D01*
X53840000Y-71326666D01*
X53792380Y-71279047D01*
X53887619Y-70564761D02*
X53173333Y-70564761D01*
X53030476Y-70612380D01*
X52935238Y-70707619D01*
X52887619Y-70850476D01*
X52887619Y-70945714D01*
X52887619Y-69612380D02*
X52887619Y-70088571D01*
X53887619Y-70088571D01*
X52982857Y-68707619D02*
X52935238Y-68755238D01*
X52887619Y-68898095D01*
X52887619Y-68993333D01*
X52935238Y-69136190D01*
X53030476Y-69231428D01*
X53125714Y-69279047D01*
X53316190Y-69326666D01*
X53459047Y-69326666D01*
X53649523Y-69279047D01*
X53744761Y-69231428D01*
X53840000Y-69136190D01*
X53887619Y-68993333D01*
X53887619Y-68898095D01*
X53840000Y-68755238D01*
X53792380Y-68707619D01*
D11*
X207672857Y-117764285D02*
X207601428Y-117550000D01*
X207601428Y-117192857D01*
X207672857Y-117050000D01*
X207744285Y-116978571D01*
X207887142Y-116907142D01*
X208030000Y-116907142D01*
X208172857Y-116978571D01*
X208244285Y-117050000D01*
X208315714Y-117192857D01*
X208387142Y-117478571D01*
X208458571Y-117621428D01*
X208530000Y-117692857D01*
X208672857Y-117764285D01*
X208815714Y-117764285D01*
X208958571Y-117692857D01*
X209030000Y-117621428D01*
X209101428Y-117478571D01*
X209101428Y-117121428D01*
X209030000Y-116907142D01*
X208387142Y-116264285D02*
X208387142Y-115764285D01*
X207601428Y-115550000D02*
X207601428Y-116264285D01*
X209101428Y-116264285D01*
X209101428Y-115550000D01*
X207601428Y-114050000D02*
X208315714Y-114550000D01*
X207601428Y-114907142D02*
X209101428Y-114907142D01*
X209101428Y-114335714D01*
X209030000Y-114192857D01*
X208958571Y-114121428D01*
X208815714Y-114050000D01*
X208601428Y-114050000D01*
X208458571Y-114121428D01*
X208387142Y-114192857D01*
X208315714Y-114335714D01*
X208315714Y-114907142D01*
X207601428Y-113407142D02*
X209101428Y-113407142D01*
X208030000Y-112764285D02*
X208030000Y-112050000D01*
X207601428Y-112907142D02*
X209101428Y-112407142D01*
X207601428Y-111907142D01*
X207601428Y-110692857D02*
X207601428Y-111407142D01*
X209101428Y-111407142D01*
X193168571Y-101003571D02*
X193168571Y-99503571D01*
X192668571Y-100575000D01*
X192168571Y-99503571D01*
X192168571Y-101003571D01*
X190811428Y-101003571D02*
X190811428Y-100217857D01*
X190882857Y-100075000D01*
X191025714Y-100003571D01*
X191311428Y-100003571D01*
X191454285Y-100075000D01*
X190811428Y-100932142D02*
X190954285Y-101003571D01*
X191311428Y-101003571D01*
X191454285Y-100932142D01*
X191525714Y-100789285D01*
X191525714Y-100646428D01*
X191454285Y-100503571D01*
X191311428Y-100432142D01*
X190954285Y-100432142D01*
X190811428Y-100360714D01*
X190240000Y-101003571D02*
X189454285Y-100003571D01*
X190240000Y-100003571D02*
X189454285Y-101003571D01*
X187740000Y-101003571D02*
X187740000Y-99503571D01*
X187168571Y-99503571D01*
X187025714Y-99575000D01*
X186954285Y-99646428D01*
X186882857Y-99789285D01*
X186882857Y-100003571D01*
X186954285Y-100146428D01*
X187025714Y-100217857D01*
X187168571Y-100289285D01*
X187740000Y-100289285D01*
X186240000Y-101003571D02*
X186240000Y-100003571D01*
X186240000Y-100289285D02*
X186168571Y-100146428D01*
X186097142Y-100075000D01*
X185954285Y-100003571D01*
X185811428Y-100003571D01*
X185097142Y-101003571D02*
X185240000Y-100932142D01*
X185311428Y-100860714D01*
X185382857Y-100717857D01*
X185382857Y-100289285D01*
X185311428Y-100146428D01*
X185240000Y-100075000D01*
X185097142Y-100003571D01*
X184882857Y-100003571D01*
X184740000Y-100075000D01*
X184668571Y-100146428D01*
X184597142Y-100289285D01*
X184597142Y-100717857D01*
X184668571Y-100860714D01*
X184740000Y-100932142D01*
X184882857Y-101003571D01*
X185097142Y-101003571D01*
X184025714Y-100932142D02*
X183882857Y-101003571D01*
X183597142Y-101003571D01*
X183454285Y-100932142D01*
X183382857Y-100789285D01*
X183382857Y-100717857D01*
X183454285Y-100575000D01*
X183597142Y-100503571D01*
X183811428Y-100503571D01*
X183954285Y-100432142D01*
X184025714Y-100289285D01*
X184025714Y-100217857D01*
X183954285Y-100075000D01*
X183811428Y-100003571D01*
X183597142Y-100003571D01*
X183454285Y-100075000D01*
X182740000Y-101003571D02*
X182740000Y-99503571D01*
X182597142Y-100432142D02*
X182168571Y-101003571D01*
X182168571Y-100003571D02*
X182740000Y-100575000D01*
X180882857Y-101003571D02*
X180882857Y-100217857D01*
X180954285Y-100075000D01*
X181097142Y-100003571D01*
X181382857Y-100003571D01*
X181525714Y-100075000D01*
X180882857Y-100932142D02*
X181025714Y-101003571D01*
X181382857Y-101003571D01*
X181525714Y-100932142D01*
X181597142Y-100789285D01*
X181597142Y-100646428D01*
X181525714Y-100503571D01*
X181382857Y-100432142D01*
X181025714Y-100432142D01*
X180882857Y-100360714D01*
X179525714Y-100003571D02*
X179525714Y-101003571D01*
X180168571Y-100003571D02*
X180168571Y-100789285D01*
X180097142Y-100932142D01*
X179954285Y-101003571D01*
X179740000Y-101003571D01*
X179597142Y-100932142D01*
X179525714Y-100860714D01*
X178240000Y-100932142D02*
X178382857Y-101003571D01*
X178668571Y-101003571D01*
X178811428Y-100932142D01*
X178882857Y-100789285D01*
X178882857Y-100217857D01*
X178811428Y-100075000D01*
X178668571Y-100003571D01*
X178382857Y-100003571D01*
X178240000Y-100075000D01*
X178168571Y-100217857D01*
X178168571Y-100360714D01*
X178882857Y-100503571D01*
X177525714Y-101003571D02*
X177525714Y-100003571D01*
X177525714Y-100289285D02*
X177454285Y-100146428D01*
X177382857Y-100075000D01*
X177240000Y-100003571D01*
X177097142Y-100003571D01*
X173311428Y-100003571D02*
X172954285Y-101003571D01*
X172597142Y-100003571D01*
X172097142Y-99646428D02*
X172025714Y-99575000D01*
X171882857Y-99503571D01*
X171525714Y-99503571D01*
X171382857Y-99575000D01*
X171311428Y-99646428D01*
X171240000Y-99789285D01*
X171240000Y-99932142D01*
X171311428Y-100146428D01*
X172168571Y-101003571D01*
X171240000Y-101003571D01*
X170597142Y-100860714D02*
X170525714Y-100932142D01*
X170597142Y-101003571D01*
X170668571Y-100932142D01*
X170597142Y-100860714D01*
X170597142Y-101003571D01*
X169597142Y-99503571D02*
X169454285Y-99503571D01*
X169311428Y-99575000D01*
X169240000Y-99646428D01*
X169168571Y-99789285D01*
X169097142Y-100075000D01*
X169097142Y-100432142D01*
X169168571Y-100717857D01*
X169240000Y-100860714D01*
X169311428Y-100932142D01*
X169454285Y-101003571D01*
X169597142Y-101003571D01*
X169740000Y-100932142D01*
X169811428Y-100860714D01*
X169882857Y-100717857D01*
X169954285Y-100432142D01*
X169954285Y-100075000D01*
X169882857Y-99789285D01*
X169811428Y-99646428D01*
X169740000Y-99575000D01*
X169597142Y-99503571D01*
X165025714Y-101003571D02*
X165025714Y-99503571D01*
X164668571Y-99503571D01*
X164454285Y-99575000D01*
X164311428Y-99717857D01*
X164240000Y-99860714D01*
X164168571Y-100146428D01*
X164168571Y-100360714D01*
X164240000Y-100646428D01*
X164311428Y-100789285D01*
X164454285Y-100932142D01*
X164668571Y-101003571D01*
X165025714Y-101003571D01*
X162954285Y-100932142D02*
X163097142Y-101003571D01*
X163382857Y-101003571D01*
X163525714Y-100932142D01*
X163597142Y-100789285D01*
X163597142Y-100217857D01*
X163525714Y-100075000D01*
X163382857Y-100003571D01*
X163097142Y-100003571D01*
X162954285Y-100075000D01*
X162882857Y-100217857D01*
X162882857Y-100360714D01*
X163597142Y-100503571D01*
X161597142Y-100932142D02*
X161740000Y-101003571D01*
X162025714Y-101003571D01*
X162168571Y-100932142D01*
X162240000Y-100860714D01*
X162311428Y-100717857D01*
X162311428Y-100289285D01*
X162240000Y-100146428D01*
X162168571Y-100075000D01*
X162025714Y-100003571D01*
X161740000Y-100003571D01*
X161597142Y-100075000D01*
X159882857Y-99646428D02*
X159811428Y-99575000D01*
X159668571Y-99503571D01*
X159311428Y-99503571D01*
X159168571Y-99575000D01*
X159097142Y-99646428D01*
X159025714Y-99789285D01*
X159025714Y-99932142D01*
X159097142Y-100146428D01*
X159954285Y-101003571D01*
X159025714Y-101003571D01*
X158097142Y-99503571D02*
X157954285Y-99503571D01*
X157811428Y-99575000D01*
X157740000Y-99646428D01*
X157668571Y-99789285D01*
X157597142Y-100075000D01*
X157597142Y-100432142D01*
X157668571Y-100717857D01*
X157740000Y-100860714D01*
X157811428Y-100932142D01*
X157954285Y-101003571D01*
X158097142Y-101003571D01*
X158240000Y-100932142D01*
X158311428Y-100860714D01*
X158382857Y-100717857D01*
X158454285Y-100432142D01*
X158454285Y-100075000D01*
X158382857Y-99789285D01*
X158311428Y-99646428D01*
X158240000Y-99575000D01*
X158097142Y-99503571D01*
X157025714Y-99646428D02*
X156954285Y-99575000D01*
X156811428Y-99503571D01*
X156454285Y-99503571D01*
X156311428Y-99575000D01*
X156240000Y-99646428D01*
X156168571Y-99789285D01*
X156168571Y-99932142D01*
X156240000Y-100146428D01*
X157097142Y-101003571D01*
X156168571Y-101003571D01*
X154740000Y-101003571D02*
X155597142Y-101003571D01*
X155168571Y-101003571D02*
X155168571Y-99503571D01*
X155311428Y-99717857D01*
X155454285Y-99860714D01*
X155597142Y-99932142D01*
X194061428Y-102553571D02*
X194061428Y-103767857D01*
X194132857Y-103910714D01*
X194204285Y-103982142D01*
X194347142Y-104053571D01*
X194561428Y-104053571D01*
X194704285Y-103982142D01*
X194061428Y-103482142D02*
X194204285Y-103553571D01*
X194490000Y-103553571D01*
X194632857Y-103482142D01*
X194704285Y-103410714D01*
X194775714Y-103267857D01*
X194775714Y-102839285D01*
X194704285Y-102696428D01*
X194632857Y-102625000D01*
X194490000Y-102553571D01*
X194204285Y-102553571D01*
X194061428Y-102625000D01*
X193347142Y-103553571D02*
X193347142Y-102553571D01*
X193347142Y-102053571D02*
X193418571Y-102125000D01*
X193347142Y-102196428D01*
X193275714Y-102125000D01*
X193347142Y-102053571D01*
X193347142Y-102196428D01*
X192847142Y-102553571D02*
X192275714Y-102553571D01*
X192632857Y-102053571D02*
X192632857Y-103339285D01*
X192561428Y-103482142D01*
X192418571Y-103553571D01*
X192275714Y-103553571D01*
X191775714Y-103553571D02*
X191775714Y-102053571D01*
X191132857Y-103553571D02*
X191132857Y-102767857D01*
X191204285Y-102625000D01*
X191347142Y-102553571D01*
X191561428Y-102553571D01*
X191704285Y-102625000D01*
X191775714Y-102696428D01*
X189775714Y-102553571D02*
X189775714Y-103553571D01*
X190418571Y-102553571D02*
X190418571Y-103339285D01*
X190347142Y-103482142D01*
X190204285Y-103553571D01*
X189990000Y-103553571D01*
X189847142Y-103482142D01*
X189775714Y-103410714D01*
X189061428Y-103553571D02*
X189061428Y-102053571D01*
X189061428Y-102625000D02*
X188918571Y-102553571D01*
X188632857Y-102553571D01*
X188490000Y-102625000D01*
X188418571Y-102696428D01*
X188347142Y-102839285D01*
X188347142Y-103267857D01*
X188418571Y-103410714D01*
X188490000Y-103482142D01*
X188632857Y-103553571D01*
X188918571Y-103553571D01*
X189061428Y-103482142D01*
X187704285Y-103410714D02*
X187632857Y-103482142D01*
X187704285Y-103553571D01*
X187775714Y-103482142D01*
X187704285Y-103410714D01*
X187704285Y-103553571D01*
X186347142Y-103482142D02*
X186490000Y-103553571D01*
X186775714Y-103553571D01*
X186918571Y-103482142D01*
X186990000Y-103410714D01*
X187061428Y-103267857D01*
X187061428Y-102839285D01*
X186990000Y-102696428D01*
X186918571Y-102625000D01*
X186775714Y-102553571D01*
X186490000Y-102553571D01*
X186347142Y-102625000D01*
X185490000Y-103553571D02*
X185632857Y-103482142D01*
X185704285Y-103410714D01*
X185775714Y-103267857D01*
X185775714Y-102839285D01*
X185704285Y-102696428D01*
X185632857Y-102625000D01*
X185490000Y-102553571D01*
X185275714Y-102553571D01*
X185132857Y-102625000D01*
X185061428Y-102696428D01*
X184990000Y-102839285D01*
X184990000Y-103267857D01*
X185061428Y-103410714D01*
X185132857Y-103482142D01*
X185275714Y-103553571D01*
X185490000Y-103553571D01*
X184347142Y-103553571D02*
X184347142Y-102553571D01*
X184347142Y-102696428D02*
X184275714Y-102625000D01*
X184132857Y-102553571D01*
X183918571Y-102553571D01*
X183775714Y-102625000D01*
X183704285Y-102767857D01*
X183704285Y-103553571D01*
X183704285Y-102767857D02*
X183632857Y-102625000D01*
X183490000Y-102553571D01*
X183275714Y-102553571D01*
X183132857Y-102625000D01*
X183061428Y-102767857D01*
X183061428Y-103553571D01*
X181275714Y-101982142D02*
X182561428Y-103910714D01*
X180775714Y-103553571D02*
X180775714Y-102553571D01*
X180775714Y-102696428D02*
X180704285Y-102625000D01*
X180561428Y-102553571D01*
X180347142Y-102553571D01*
X180204285Y-102625000D01*
X180132857Y-102767857D01*
X180132857Y-103553571D01*
X180132857Y-102767857D02*
X180061428Y-102625000D01*
X179918571Y-102553571D01*
X179704285Y-102553571D01*
X179561428Y-102625000D01*
X179490000Y-102767857D01*
X179490000Y-103553571D01*
X178775714Y-102553571D02*
X178775714Y-104053571D01*
X178775714Y-102625000D02*
X178632857Y-102553571D01*
X178347142Y-102553571D01*
X178204285Y-102625000D01*
X178132857Y-102696428D01*
X178061428Y-102839285D01*
X178061428Y-103267857D01*
X178132857Y-103410714D01*
X178204285Y-103482142D01*
X178347142Y-103553571D01*
X178632857Y-103553571D01*
X178775714Y-103482142D01*
X177418571Y-103553571D02*
X177418571Y-102553571D01*
X177418571Y-102839285D02*
X177347142Y-102696428D01*
X177275714Y-102625000D01*
X177132857Y-102553571D01*
X176990000Y-102553571D01*
X176275714Y-103553571D02*
X176418571Y-103482142D01*
X176490000Y-103410714D01*
X176561428Y-103267857D01*
X176561428Y-102839285D01*
X176490000Y-102696428D01*
X176418571Y-102625000D01*
X176275714Y-102553571D01*
X176061428Y-102553571D01*
X175918571Y-102625000D01*
X175847142Y-102696428D01*
X175775714Y-102839285D01*
X175775714Y-103267857D01*
X175847142Y-103410714D01*
X175918571Y-103482142D01*
X176061428Y-103553571D01*
X176275714Y-103553571D01*
X175204285Y-103482142D02*
X175061428Y-103553571D01*
X174775714Y-103553571D01*
X174632857Y-103482142D01*
X174561428Y-103339285D01*
X174561428Y-103267857D01*
X174632857Y-103125000D01*
X174775714Y-103053571D01*
X174990000Y-103053571D01*
X175132857Y-102982142D01*
X175204285Y-102839285D01*
X175204285Y-102767857D01*
X175132857Y-102625000D01*
X174990000Y-102553571D01*
X174775714Y-102553571D01*
X174632857Y-102625000D01*
X173918571Y-103553571D02*
X173918571Y-102053571D01*
X173775714Y-102982142D02*
X173347142Y-103553571D01*
X173347142Y-102553571D02*
X173918571Y-103125000D01*
X171632857Y-101982142D02*
X172918571Y-103910714D01*
X171132857Y-103553571D02*
X171132857Y-102553571D01*
X171132857Y-102696428D02*
X171061428Y-102625000D01*
X170918571Y-102553571D01*
X170704285Y-102553571D01*
X170561428Y-102625000D01*
X170490000Y-102767857D01*
X170490000Y-103553571D01*
X170490000Y-102767857D02*
X170418571Y-102625000D01*
X170275714Y-102553571D01*
X170061428Y-102553571D01*
X169918571Y-102625000D01*
X169847142Y-102767857D01*
X169847142Y-103553571D01*
X169347142Y-102553571D02*
X168775714Y-102553571D01*
X169132857Y-102053571D02*
X169132857Y-103339285D01*
X169061428Y-103482142D01*
X168918571Y-103553571D01*
X168775714Y-103553571D01*
X167632857Y-102553571D02*
X167632857Y-103767857D01*
X167704285Y-103910714D01*
X167775714Y-103982142D01*
X167918571Y-104053571D01*
X168132857Y-104053571D01*
X168275714Y-103982142D01*
X167632857Y-103482142D02*
X167775714Y-103553571D01*
X168061428Y-103553571D01*
X168204285Y-103482142D01*
X168275714Y-103410714D01*
X168347142Y-103267857D01*
X168347142Y-102839285D01*
X168275714Y-102696428D01*
X168204285Y-102625000D01*
X168061428Y-102553571D01*
X167775714Y-102553571D01*
X167632857Y-102625000D01*
X167275714Y-103696428D02*
X166132857Y-103696428D01*
X165561428Y-103553571D02*
X165704285Y-103482142D01*
X165775714Y-103339285D01*
X165775714Y-102053571D01*
X164990000Y-103553571D02*
X164990000Y-102553571D01*
X164990000Y-102053571D02*
X165061428Y-102125000D01*
X164990000Y-102196428D01*
X164918571Y-102125000D01*
X164990000Y-102053571D01*
X164990000Y-102196428D01*
X164490000Y-102553571D02*
X163918571Y-102553571D01*
X164275714Y-103553571D02*
X164275714Y-102267857D01*
X164204285Y-102125000D01*
X164061428Y-102053571D01*
X163918571Y-102053571D01*
X162847142Y-103482142D02*
X162990000Y-103553571D01*
X163275714Y-103553571D01*
X163418571Y-103482142D01*
X163490000Y-103339285D01*
X163490000Y-102767857D01*
X163418571Y-102625000D01*
X163275714Y-102553571D01*
X162990000Y-102553571D01*
X162847142Y-102625000D01*
X162775714Y-102767857D01*
X162775714Y-102910714D01*
X163490000Y-103053571D01*
X162490000Y-103696428D02*
X161347142Y-103696428D01*
X160347142Y-103482142D02*
X160490000Y-103553571D01*
X160775714Y-103553571D01*
X160918571Y-103482142D01*
X160990000Y-103410714D01*
X161061428Y-103267857D01*
X161061428Y-102839285D01*
X160990000Y-102696428D01*
X160918571Y-102625000D01*
X160775714Y-102553571D01*
X160490000Y-102553571D01*
X160347142Y-102625000D01*
X159490000Y-103553571D02*
X159632857Y-103482142D01*
X159704285Y-103410714D01*
X159775714Y-103267857D01*
X159775714Y-102839285D01*
X159704285Y-102696428D01*
X159632857Y-102625000D01*
X159490000Y-102553571D01*
X159275714Y-102553571D01*
X159132857Y-102625000D01*
X159061428Y-102696428D01*
X158990000Y-102839285D01*
X158990000Y-103267857D01*
X159061428Y-103410714D01*
X159132857Y-103482142D01*
X159275714Y-103553571D01*
X159490000Y-103553571D01*
X157704285Y-102553571D02*
X157704285Y-103553571D01*
X158347142Y-102553571D02*
X158347142Y-103339285D01*
X158275714Y-103482142D01*
X158132857Y-103553571D01*
X157918571Y-103553571D01*
X157775714Y-103482142D01*
X157704285Y-103410714D01*
X156990000Y-102553571D02*
X156990000Y-103553571D01*
X156990000Y-102696428D02*
X156918571Y-102625000D01*
X156775714Y-102553571D01*
X156561428Y-102553571D01*
X156418571Y-102625000D01*
X156347142Y-102767857D01*
X156347142Y-103553571D01*
X155847142Y-102553571D02*
X155275714Y-102553571D01*
X155632857Y-102053571D02*
X155632857Y-103339285D01*
X155561428Y-103482142D01*
X155418571Y-103553571D01*
X155275714Y-103553571D01*
X154204285Y-103482142D02*
X154347142Y-103553571D01*
X154632857Y-103553571D01*
X154775714Y-103482142D01*
X154847142Y-103339285D01*
X154847142Y-102767857D01*
X154775714Y-102625000D01*
X154632857Y-102553571D01*
X154347142Y-102553571D01*
X154204285Y-102625000D01*
X154132857Y-102767857D01*
X154132857Y-102910714D01*
X154847142Y-103053571D01*
X153490000Y-103553571D02*
X153490000Y-102553571D01*
X153490000Y-102839285D02*
X153418571Y-102696428D01*
X153347142Y-102625000D01*
X153204285Y-102553571D01*
X153061428Y-102553571D01*
D12*
X139700000Y-101600000D02*
G75*
G03X139700000Y-101600000I-5080000J0D01*
G01*
X218440000Y-55880000D02*
G75*
G02X213360000Y-50800000I-5080000J0D01*
G01*
X55880000Y-50800000D02*
G75*
G02X50800000Y-55880000I0J-5080000D01*
G01*
X50800000Y-147320000D02*
G75*
G02X55880000Y-152400000I5080000J0D01*
G01*
X213360000Y-152400000D02*
G75*
G02X218440000Y-147320000I0J5080000D01*
G01*
X210895000Y-94108748D02*
X210895000Y-94631252D01*
X209475000Y-94108748D02*
X209475000Y-94631252D01*
X111690000Y-101600000D02*
G75*
G03X111690000Y-101600000I-1200000J0D01*
G01*
X95815000Y-98425000D02*
G75*
G03X95815000Y-98425000I-1200000J0D01*
G01*
X79940000Y-120650000D02*
G75*
G03X79940000Y-120650000I-1200000J0D01*
G01*
X95815000Y-106045000D02*
G75*
G03X95815000Y-106045000I-1200000J0D01*
G01*
X95815000Y-93345000D02*
G75*
G03X95815000Y-93345000I-1200000J0D01*
G01*
X95815000Y-111125000D02*
G75*
G03X95815000Y-111125000I-1200000J0D01*
G01*
X87560000Y-120650000D02*
G75*
G03X87560000Y-120650000I-1200000J0D01*
G01*
X207375000Y-95470000D02*
X207375000Y-92670000D01*
X207375000Y-92670000D02*
X205375000Y-92670000D01*
X205375000Y-92670000D02*
X205375000Y-95470000D01*
X205375000Y-95470000D02*
X207375000Y-95470000D01*
D10*
X210351666Y-91892380D02*
X210685000Y-91416190D01*
X210923095Y-91892380D02*
X210923095Y-90892380D01*
X210542142Y-90892380D01*
X210446904Y-90940000D01*
X210399285Y-90987619D01*
X210351666Y-91082857D01*
X210351666Y-91225714D01*
X210399285Y-91320952D01*
X210446904Y-91368571D01*
X210542142Y-91416190D01*
X210923095Y-91416190D01*
X209494523Y-90892380D02*
X209685000Y-90892380D01*
X209780238Y-90940000D01*
X209827857Y-90987619D01*
X209923095Y-91130476D01*
X209970714Y-91320952D01*
X209970714Y-91701904D01*
X209923095Y-91797142D01*
X209875476Y-91844761D01*
X209780238Y-91892380D01*
X209589761Y-91892380D01*
X209494523Y-91844761D01*
X209446904Y-91797142D01*
X209399285Y-91701904D01*
X209399285Y-91463809D01*
X209446904Y-91368571D01*
X209494523Y-91320952D01*
X209589761Y-91273333D01*
X209780238Y-91273333D01*
X209875476Y-91320952D01*
X209923095Y-91368571D01*
X209970714Y-91463809D01*
X111751904Y-99147380D02*
X111180476Y-99147380D01*
X111466190Y-100147380D02*
X111466190Y-99147380D01*
X110847142Y-100147380D02*
X110847142Y-99147380D01*
X110466190Y-99147380D01*
X110370952Y-99195000D01*
X110323333Y-99242619D01*
X110275714Y-99337857D01*
X110275714Y-99480714D01*
X110323333Y-99575952D01*
X110370952Y-99623571D01*
X110466190Y-99671190D01*
X110847142Y-99671190D01*
X109418571Y-99147380D02*
X109609047Y-99147380D01*
X109704285Y-99195000D01*
X109751904Y-99242619D01*
X109847142Y-99385476D01*
X109894761Y-99575952D01*
X109894761Y-99956904D01*
X109847142Y-100052142D01*
X109799523Y-100099761D01*
X109704285Y-100147380D01*
X109513809Y-100147380D01*
X109418571Y-100099761D01*
X109370952Y-100052142D01*
X109323333Y-99956904D01*
X109323333Y-99718809D01*
X109370952Y-99623571D01*
X109418571Y-99575952D01*
X109513809Y-99528333D01*
X109704285Y-99528333D01*
X109799523Y-99575952D01*
X109847142Y-99623571D01*
X109894761Y-99718809D01*
X111251904Y-103640000D02*
X111347142Y-103592380D01*
X111490000Y-103592380D01*
X111632857Y-103640000D01*
X111728095Y-103735238D01*
X111775714Y-103830476D01*
X111823333Y-104020952D01*
X111823333Y-104163809D01*
X111775714Y-104354285D01*
X111728095Y-104449523D01*
X111632857Y-104544761D01*
X111490000Y-104592380D01*
X111394761Y-104592380D01*
X111251904Y-104544761D01*
X111204285Y-104497142D01*
X111204285Y-104163809D01*
X111394761Y-104163809D01*
X110775714Y-104592380D02*
X110775714Y-103592380D01*
X110204285Y-104592380D01*
X110204285Y-103592380D01*
X109728095Y-104592380D02*
X109728095Y-103592380D01*
X109490000Y-103592380D01*
X109347142Y-103640000D01*
X109251904Y-103735238D01*
X109204285Y-103830476D01*
X109156666Y-104020952D01*
X109156666Y-104163809D01*
X109204285Y-104354285D01*
X109251904Y-104449523D01*
X109347142Y-104544761D01*
X109490000Y-104592380D01*
X109728095Y-104592380D01*
X95876904Y-95972380D02*
X95305476Y-95972380D01*
X95591190Y-96972380D02*
X95591190Y-95972380D01*
X94972142Y-96972380D02*
X94972142Y-95972380D01*
X94591190Y-95972380D01*
X94495952Y-96020000D01*
X94448333Y-96067619D01*
X94400714Y-96162857D01*
X94400714Y-96305714D01*
X94448333Y-96400952D01*
X94495952Y-96448571D01*
X94591190Y-96496190D01*
X94972142Y-96496190D01*
X94019761Y-96067619D02*
X93972142Y-96020000D01*
X93876904Y-95972380D01*
X93638809Y-95972380D01*
X93543571Y-96020000D01*
X93495952Y-96067619D01*
X93448333Y-96162857D01*
X93448333Y-96258095D01*
X93495952Y-96400952D01*
X94067380Y-96972380D01*
X93448333Y-96972380D01*
X100282142Y-98877380D02*
X100282142Y-97877380D01*
X100044047Y-97877380D01*
X99901190Y-97925000D01*
X99805952Y-98020238D01*
X99758333Y-98115476D01*
X99710714Y-98305952D01*
X99710714Y-98448809D01*
X99758333Y-98639285D01*
X99805952Y-98734523D01*
X99901190Y-98829761D01*
X100044047Y-98877380D01*
X100282142Y-98877380D01*
X99520238Y-98972619D02*
X98758333Y-98972619D01*
X98044047Y-98877380D02*
X98520238Y-98877380D01*
X98520238Y-97877380D01*
X97758333Y-98591666D02*
X97282142Y-98591666D01*
X97853571Y-98877380D02*
X97520238Y-97877380D01*
X97186904Y-98877380D01*
X96996428Y-97877380D02*
X96425000Y-97877380D01*
X96710714Y-98877380D02*
X96710714Y-97877380D01*
X80001904Y-118197380D02*
X79430476Y-118197380D01*
X79716190Y-119197380D02*
X79716190Y-118197380D01*
X79097142Y-119197380D02*
X79097142Y-118197380D01*
X78716190Y-118197380D01*
X78620952Y-118245000D01*
X78573333Y-118292619D01*
X78525714Y-118387857D01*
X78525714Y-118530714D01*
X78573333Y-118625952D01*
X78620952Y-118673571D01*
X78716190Y-118721190D01*
X79097142Y-118721190D01*
X77620952Y-118197380D02*
X78097142Y-118197380D01*
X78144761Y-118673571D01*
X78097142Y-118625952D01*
X78001904Y-118578333D01*
X77763809Y-118578333D01*
X77668571Y-118625952D01*
X77620952Y-118673571D01*
X77573333Y-118768809D01*
X77573333Y-119006904D01*
X77620952Y-119102142D01*
X77668571Y-119149761D01*
X77763809Y-119197380D01*
X78001904Y-119197380D01*
X78097142Y-119149761D01*
X78144761Y-119102142D01*
X80549523Y-123118571D02*
X80216190Y-123118571D01*
X80073333Y-123642380D02*
X80549523Y-123642380D01*
X80549523Y-122642380D01*
X80073333Y-122642380D01*
X79882857Y-123737619D02*
X79120952Y-123737619D01*
X78406666Y-123642380D02*
X78882857Y-123642380D01*
X78882857Y-122642380D01*
X78120952Y-123356666D02*
X77644761Y-123356666D01*
X78216190Y-123642380D02*
X77882857Y-122642380D01*
X77549523Y-123642380D01*
X77359047Y-122642380D02*
X76787619Y-122642380D01*
X77073333Y-123642380D02*
X77073333Y-122642380D01*
X95876904Y-103592380D02*
X95305476Y-103592380D01*
X95591190Y-104592380D02*
X95591190Y-103592380D01*
X94972142Y-104592380D02*
X94972142Y-103592380D01*
X94591190Y-103592380D01*
X94495952Y-103640000D01*
X94448333Y-103687619D01*
X94400714Y-103782857D01*
X94400714Y-103925714D01*
X94448333Y-104020952D01*
X94495952Y-104068571D01*
X94591190Y-104116190D01*
X94972142Y-104116190D01*
X94067380Y-103592380D02*
X93448333Y-103592380D01*
X93781666Y-103973333D01*
X93638809Y-103973333D01*
X93543571Y-104020952D01*
X93495952Y-104068571D01*
X93448333Y-104163809D01*
X93448333Y-104401904D01*
X93495952Y-104497142D01*
X93543571Y-104544761D01*
X93638809Y-104592380D01*
X93924523Y-104592380D01*
X94019761Y-104544761D01*
X94067380Y-104497142D01*
X99377380Y-106402142D02*
X99425000Y-106449761D01*
X99567857Y-106497380D01*
X99663095Y-106497380D01*
X99805952Y-106449761D01*
X99901190Y-106354523D01*
X99948809Y-106259285D01*
X99996428Y-106068809D01*
X99996428Y-105925952D01*
X99948809Y-105735476D01*
X99901190Y-105640238D01*
X99805952Y-105545000D01*
X99663095Y-105497380D01*
X99567857Y-105497380D01*
X99425000Y-105545000D01*
X99377380Y-105592619D01*
X98758333Y-105497380D02*
X98567857Y-105497380D01*
X98472619Y-105545000D01*
X98377380Y-105640238D01*
X98329761Y-105830714D01*
X98329761Y-106164047D01*
X98377380Y-106354523D01*
X98472619Y-106449761D01*
X98567857Y-106497380D01*
X98758333Y-106497380D01*
X98853571Y-106449761D01*
X98948809Y-106354523D01*
X98996428Y-106164047D01*
X98996428Y-105830714D01*
X98948809Y-105640238D01*
X98853571Y-105545000D01*
X98758333Y-105497380D01*
X97901190Y-106497380D02*
X97901190Y-105497380D01*
X97520238Y-105497380D01*
X97425000Y-105545000D01*
X97377380Y-105592619D01*
X97329761Y-105687857D01*
X97329761Y-105830714D01*
X97377380Y-105925952D01*
X97425000Y-105973571D01*
X97520238Y-106021190D01*
X97901190Y-106021190D01*
X96901190Y-106497380D02*
X96901190Y-105497380D01*
X95876904Y-90892380D02*
X95305476Y-90892380D01*
X95591190Y-91892380D02*
X95591190Y-90892380D01*
X94972142Y-91892380D02*
X94972142Y-90892380D01*
X94591190Y-90892380D01*
X94495952Y-90940000D01*
X94448333Y-90987619D01*
X94400714Y-91082857D01*
X94400714Y-91225714D01*
X94448333Y-91320952D01*
X94495952Y-91368571D01*
X94591190Y-91416190D01*
X94972142Y-91416190D01*
X93448333Y-91892380D02*
X94019761Y-91892380D01*
X93734047Y-91892380D02*
X93734047Y-90892380D01*
X93829285Y-91035238D01*
X93924523Y-91130476D01*
X94019761Y-91178095D01*
X99377380Y-93702142D02*
X99425000Y-93749761D01*
X99567857Y-93797380D01*
X99663095Y-93797380D01*
X99805952Y-93749761D01*
X99901190Y-93654523D01*
X99948809Y-93559285D01*
X99996428Y-93368809D01*
X99996428Y-93225952D01*
X99948809Y-93035476D01*
X99901190Y-92940238D01*
X99805952Y-92845000D01*
X99663095Y-92797380D01*
X99567857Y-92797380D01*
X99425000Y-92845000D01*
X99377380Y-92892619D01*
X98948809Y-93797380D02*
X98948809Y-92797380D01*
X98472619Y-93797380D02*
X98472619Y-92797380D01*
X98091666Y-92797380D01*
X97996428Y-92845000D01*
X97948809Y-92892619D01*
X97901190Y-92987857D01*
X97901190Y-93130714D01*
X97948809Y-93225952D01*
X97996428Y-93273571D01*
X98091666Y-93321190D01*
X98472619Y-93321190D01*
X97282142Y-92797380D02*
X97091666Y-92797380D01*
X96996428Y-92845000D01*
X96901190Y-92940238D01*
X96853571Y-93130714D01*
X96853571Y-93464047D01*
X96901190Y-93654523D01*
X96996428Y-93749761D01*
X97091666Y-93797380D01*
X97282142Y-93797380D01*
X97377380Y-93749761D01*
X97472619Y-93654523D01*
X97520238Y-93464047D01*
X97520238Y-93130714D01*
X97472619Y-92940238D01*
X97377380Y-92845000D01*
X97282142Y-92797380D01*
X95876904Y-108672380D02*
X95305476Y-108672380D01*
X95591190Y-109672380D02*
X95591190Y-108672380D01*
X94972142Y-109672380D02*
X94972142Y-108672380D01*
X94591190Y-108672380D01*
X94495952Y-108720000D01*
X94448333Y-108767619D01*
X94400714Y-108862857D01*
X94400714Y-109005714D01*
X94448333Y-109100952D01*
X94495952Y-109148571D01*
X94591190Y-109196190D01*
X94972142Y-109196190D01*
X93543571Y-109005714D02*
X93543571Y-109672380D01*
X93781666Y-108624761D02*
X94019761Y-109339047D01*
X93400714Y-109339047D01*
X100115476Y-111529761D02*
X99972619Y-111577380D01*
X99734523Y-111577380D01*
X99639285Y-111529761D01*
X99591666Y-111482142D01*
X99544047Y-111386904D01*
X99544047Y-111291666D01*
X99591666Y-111196428D01*
X99639285Y-111148809D01*
X99734523Y-111101190D01*
X99925000Y-111053571D01*
X100020238Y-111005952D01*
X100067857Y-110958333D01*
X100115476Y-110863095D01*
X100115476Y-110767857D01*
X100067857Y-110672619D01*
X100020238Y-110625000D01*
X99925000Y-110577380D01*
X99686904Y-110577380D01*
X99544047Y-110625000D01*
X98544047Y-111482142D02*
X98591666Y-111529761D01*
X98734523Y-111577380D01*
X98829761Y-111577380D01*
X98972619Y-111529761D01*
X99067857Y-111434523D01*
X99115476Y-111339285D01*
X99163095Y-111148809D01*
X99163095Y-111005952D01*
X99115476Y-110815476D01*
X99067857Y-110720238D01*
X98972619Y-110625000D01*
X98829761Y-110577380D01*
X98734523Y-110577380D01*
X98591666Y-110625000D01*
X98544047Y-110672619D01*
X97639285Y-111577380D02*
X98115476Y-111577380D01*
X98115476Y-110577380D01*
X97305952Y-111577380D02*
X97305952Y-110577380D01*
X96734523Y-111577380D02*
X97163095Y-111005952D01*
X96734523Y-110577380D02*
X97305952Y-111148809D01*
X87621904Y-118197380D02*
X87050476Y-118197380D01*
X87336190Y-119197380D02*
X87336190Y-118197380D01*
X86717142Y-119197380D02*
X86717142Y-118197380D01*
X86336190Y-118197380D01*
X86240952Y-118245000D01*
X86193333Y-118292619D01*
X86145714Y-118387857D01*
X86145714Y-118530714D01*
X86193333Y-118625952D01*
X86240952Y-118673571D01*
X86336190Y-118721190D01*
X86717142Y-118721190D01*
X85812380Y-118197380D02*
X85145714Y-118197380D01*
X85574285Y-119197380D01*
X86550476Y-122642380D02*
X87026666Y-122642380D01*
X87074285Y-123118571D01*
X87026666Y-123070952D01*
X86931428Y-123023333D01*
X86693333Y-123023333D01*
X86598095Y-123070952D01*
X86550476Y-123118571D01*
X86502857Y-123213809D01*
X86502857Y-123451904D01*
X86550476Y-123547142D01*
X86598095Y-123594761D01*
X86693333Y-123642380D01*
X86931428Y-123642380D01*
X87026666Y-123594761D01*
X87074285Y-123547142D01*
X86217142Y-122642380D02*
X85883809Y-123642380D01*
X85550476Y-122642380D01*
X204033333Y-94067380D02*
X204033333Y-94781666D01*
X204080952Y-94924523D01*
X204176190Y-95019761D01*
X204319047Y-95067380D01*
X204414285Y-95067380D01*
X203557142Y-95067380D02*
X203557142Y-94067380D01*
X203176190Y-94067380D01*
X203080952Y-94115000D01*
X203033333Y-94162619D01*
X202985714Y-94257857D01*
X202985714Y-94400714D01*
X203033333Y-94495952D01*
X203080952Y-94543571D01*
X203176190Y-94591190D01*
X203557142Y-94591190D01*
X202033333Y-95067380D02*
X202604761Y-95067380D01*
X202319047Y-95067380D02*
X202319047Y-94067380D01*
X202414285Y-94210238D01*
X202509523Y-94305476D01*
X202604761Y-94353095D01*
M02*
