G04 #@! TF.GenerationSoftware,KiCad,Pcbnew,(5.1.4)-1*
G04 #@! TF.CreationDate,2021-12-08T17:21:41-05:00*
G04 #@! TF.ProjectId,mtg_life_counter,6d74675f-6c69-4666-955f-636f756e7465,2.0*
G04 #@! TF.SameCoordinates,Original*
G04 #@! TF.FileFunction,Legend,Top*
G04 #@! TF.FilePolarity,Positive*
%FSLAX46Y46*%
G04 Gerber Fmt 4.6, Leading zero omitted, Abs format (unit mm)*
G04 Created by KiCad (PCBNEW (5.1.4)-1) date 2021-12-08 17:21:41*
%MOMM*%
%LPD*%
G04 APERTURE LIST*
%ADD10C,0.120000*%
%ADD11C,0.400000*%
%ADD12C,0.500000*%
%ADD13C,0.300000*%
%ADD14C,0.150000*%
G04 APERTURE END LIST*
D10*
X79375000Y-103505000D02*
G75*
G03X79375000Y-103505000I-635000J0D01*
G01*
D11*
X162831428Y-99964761D02*
X162831428Y-97964761D01*
X163498095Y-99393333D01*
X164164761Y-97964761D01*
X164164761Y-99964761D01*
X164831428Y-97964761D02*
X165974285Y-97964761D01*
X165402857Y-99964761D02*
X165402857Y-97964761D01*
X167688571Y-98060000D02*
X167498095Y-97964761D01*
X167212380Y-97964761D01*
X166926666Y-98060000D01*
X166736190Y-98250476D01*
X166640952Y-98440952D01*
X166545714Y-98821904D01*
X166545714Y-99107619D01*
X166640952Y-99488571D01*
X166736190Y-99679047D01*
X166926666Y-99869523D01*
X167212380Y-99964761D01*
X167402857Y-99964761D01*
X167688571Y-99869523D01*
X167783809Y-99774285D01*
X167783809Y-99107619D01*
X167402857Y-99107619D01*
X171117142Y-99964761D02*
X170164761Y-99964761D01*
X170164761Y-97964761D01*
X171783809Y-99964761D02*
X171783809Y-98631428D01*
X171783809Y-97964761D02*
X171688571Y-98060000D01*
X171783809Y-98155238D01*
X171879047Y-98060000D01*
X171783809Y-97964761D01*
X171783809Y-98155238D01*
X172450476Y-98631428D02*
X173212380Y-98631428D01*
X172736190Y-99964761D02*
X172736190Y-98250476D01*
X172831428Y-98060000D01*
X173021904Y-97964761D01*
X173212380Y-97964761D01*
X174640952Y-99869523D02*
X174450476Y-99964761D01*
X174069523Y-99964761D01*
X173879047Y-99869523D01*
X173783809Y-99679047D01*
X173783809Y-98917142D01*
X173879047Y-98726666D01*
X174069523Y-98631428D01*
X174450476Y-98631428D01*
X174640952Y-98726666D01*
X174736190Y-98917142D01*
X174736190Y-99107619D01*
X173783809Y-99298095D01*
X178260000Y-99774285D02*
X178164761Y-99869523D01*
X177879047Y-99964761D01*
X177688571Y-99964761D01*
X177402857Y-99869523D01*
X177212380Y-99679047D01*
X177117142Y-99488571D01*
X177021904Y-99107619D01*
X177021904Y-98821904D01*
X177117142Y-98440952D01*
X177212380Y-98250476D01*
X177402857Y-98060000D01*
X177688571Y-97964761D01*
X177879047Y-97964761D01*
X178164761Y-98060000D01*
X178260000Y-98155238D01*
X179402857Y-99964761D02*
X179212380Y-99869523D01*
X179117142Y-99774285D01*
X179021904Y-99583809D01*
X179021904Y-99012380D01*
X179117142Y-98821904D01*
X179212380Y-98726666D01*
X179402857Y-98631428D01*
X179688571Y-98631428D01*
X179879047Y-98726666D01*
X179974285Y-98821904D01*
X180069523Y-99012380D01*
X180069523Y-99583809D01*
X179974285Y-99774285D01*
X179879047Y-99869523D01*
X179688571Y-99964761D01*
X179402857Y-99964761D01*
X181783809Y-98631428D02*
X181783809Y-99964761D01*
X180926666Y-98631428D02*
X180926666Y-99679047D01*
X181021904Y-99869523D01*
X181212380Y-99964761D01*
X181498095Y-99964761D01*
X181688571Y-99869523D01*
X181783809Y-99774285D01*
X182736190Y-98631428D02*
X182736190Y-99964761D01*
X182736190Y-98821904D02*
X182831428Y-98726666D01*
X183021904Y-98631428D01*
X183307619Y-98631428D01*
X183498095Y-98726666D01*
X183593333Y-98917142D01*
X183593333Y-99964761D01*
X184260000Y-98631428D02*
X185021904Y-98631428D01*
X184545714Y-97964761D02*
X184545714Y-99679047D01*
X184640952Y-99869523D01*
X184831428Y-99964761D01*
X185021904Y-99964761D01*
X186450476Y-99869523D02*
X186260000Y-99964761D01*
X185879047Y-99964761D01*
X185688571Y-99869523D01*
X185593333Y-99679047D01*
X185593333Y-98917142D01*
X185688571Y-98726666D01*
X185879047Y-98631428D01*
X186260000Y-98631428D01*
X186450476Y-98726666D01*
X186545714Y-98917142D01*
X186545714Y-99107619D01*
X185593333Y-99298095D01*
X187402857Y-99964761D02*
X187402857Y-98631428D01*
X187402857Y-99012380D02*
X187498095Y-98821904D01*
X187593333Y-98726666D01*
X187783809Y-98631428D01*
X187974285Y-98631428D01*
D12*
X102782857Y-112457142D02*
X102640000Y-112314285D01*
X102497142Y-112028571D01*
X102497142Y-111314285D01*
X102640000Y-111028571D01*
X102782857Y-110885714D01*
X103068571Y-110742857D01*
X103354285Y-110742857D01*
X103782857Y-110885714D01*
X105497142Y-112600000D01*
X105497142Y-110742857D01*
X102497142Y-108885714D02*
X102497142Y-108600000D01*
X102640000Y-108314285D01*
X102782857Y-108171428D01*
X103068571Y-108028571D01*
X103640000Y-107885714D01*
X104354285Y-107885714D01*
X104925714Y-108028571D01*
X105211428Y-108171428D01*
X105354285Y-108314285D01*
X105497142Y-108600000D01*
X105497142Y-108885714D01*
X105354285Y-109171428D01*
X105211428Y-109314285D01*
X104925714Y-109457142D01*
X104354285Y-109600000D01*
X103640000Y-109600000D01*
X103068571Y-109457142D01*
X102782857Y-109314285D01*
X102640000Y-109171428D01*
X102497142Y-108885714D01*
X103497142Y-93885714D02*
X105497142Y-93885714D01*
X102354285Y-94600000D02*
X104497142Y-95314285D01*
X104497142Y-93457142D01*
X102497142Y-91742857D02*
X102497142Y-91457142D01*
X102640000Y-91171428D01*
X102782857Y-91028571D01*
X103068571Y-90885714D01*
X103640000Y-90742857D01*
X104354285Y-90742857D01*
X104925714Y-90885714D01*
X105211428Y-91028571D01*
X105354285Y-91171428D01*
X105497142Y-91457142D01*
X105497142Y-91742857D01*
X105354285Y-92028571D01*
X105211428Y-92171428D01*
X104925714Y-92314285D01*
X104354285Y-92457142D01*
X103640000Y-92457142D01*
X103068571Y-92314285D01*
X102782857Y-92171428D01*
X102640000Y-92028571D01*
X102497142Y-91742857D01*
X64397143Y-113274998D02*
X64397143Y-112703569D01*
X64540000Y-112417855D01*
X64825714Y-112132141D01*
X65397143Y-111989284D01*
X66397142Y-111989284D01*
X66968571Y-112132141D01*
X67254285Y-112417855D01*
X67397142Y-112703569D01*
X67397142Y-113274998D01*
X67254285Y-113560712D01*
X66968571Y-113846426D01*
X66397142Y-113989283D01*
X65397143Y-113989283D01*
X64825714Y-113846426D01*
X64540000Y-113560712D01*
X64397143Y-113274998D01*
X67397142Y-110703570D02*
X64397143Y-110703570D01*
X67397142Y-108989285D01*
X64397143Y-108989285D01*
D13*
X168974285Y-103318571D02*
X169474285Y-104818571D01*
X169974285Y-103318571D01*
X171045714Y-104747142D02*
X170902857Y-104818571D01*
X170617142Y-104818571D01*
X170474285Y-104747142D01*
X170402857Y-104604285D01*
X170402857Y-104032857D01*
X170474285Y-103890000D01*
X170617142Y-103818571D01*
X170902857Y-103818571D01*
X171045714Y-103890000D01*
X171117142Y-104032857D01*
X171117142Y-104175714D01*
X170402857Y-104318571D01*
X171760000Y-104818571D02*
X171760000Y-103818571D01*
X171760000Y-104104285D02*
X171831428Y-103961428D01*
X171902857Y-103890000D01*
X172045714Y-103818571D01*
X172188571Y-103818571D01*
X172617142Y-104747142D02*
X172760000Y-104818571D01*
X173045714Y-104818571D01*
X173188571Y-104747142D01*
X173260000Y-104604285D01*
X173260000Y-104532857D01*
X173188571Y-104390000D01*
X173045714Y-104318571D01*
X172831428Y-104318571D01*
X172688571Y-104247142D01*
X172617142Y-104104285D01*
X172617142Y-104032857D01*
X172688571Y-103890000D01*
X172831428Y-103818571D01*
X173045714Y-103818571D01*
X173188571Y-103890000D01*
X173902857Y-104818571D02*
X173902857Y-103818571D01*
X173902857Y-103318571D02*
X173831428Y-103390000D01*
X173902857Y-103461428D01*
X173974285Y-103390000D01*
X173902857Y-103318571D01*
X173902857Y-103461428D01*
X174831428Y-104818571D02*
X174688571Y-104747142D01*
X174617142Y-104675714D01*
X174545714Y-104532857D01*
X174545714Y-104104285D01*
X174617142Y-103961428D01*
X174688571Y-103890000D01*
X174831428Y-103818571D01*
X175045714Y-103818571D01*
X175188571Y-103890000D01*
X175260000Y-103961428D01*
X175331428Y-104104285D01*
X175331428Y-104532857D01*
X175260000Y-104675714D01*
X175188571Y-104747142D01*
X175045714Y-104818571D01*
X174831428Y-104818571D01*
X175974285Y-103818571D02*
X175974285Y-104818571D01*
X175974285Y-103961428D02*
X176045714Y-103890000D01*
X176188571Y-103818571D01*
X176402857Y-103818571D01*
X176545714Y-103890000D01*
X176617142Y-104032857D01*
X176617142Y-104818571D01*
X178402857Y-103461428D02*
X178474285Y-103390000D01*
X178617142Y-103318571D01*
X178974285Y-103318571D01*
X179117142Y-103390000D01*
X179188571Y-103461428D01*
X179260000Y-103604285D01*
X179260000Y-103747142D01*
X179188571Y-103961428D01*
X178331428Y-104818571D01*
X179260000Y-104818571D01*
X179902857Y-104675714D02*
X179974285Y-104747142D01*
X179902857Y-104818571D01*
X179831428Y-104747142D01*
X179902857Y-104675714D01*
X179902857Y-104818571D01*
X180902857Y-103318571D02*
X181045714Y-103318571D01*
X181188571Y-103390000D01*
X181260000Y-103461428D01*
X181331428Y-103604285D01*
X181402857Y-103890000D01*
X181402857Y-104247142D01*
X181331428Y-104532857D01*
X181260000Y-104675714D01*
X181188571Y-104747142D01*
X181045714Y-104818571D01*
X180902857Y-104818571D01*
X180760000Y-104747142D01*
X180688571Y-104675714D01*
X180617142Y-104532857D01*
X180545714Y-104247142D01*
X180545714Y-103890000D01*
X180617142Y-103604285D01*
X180688571Y-103461428D01*
X180760000Y-103390000D01*
X180902857Y-103318571D01*
D12*
X64397143Y-93639286D02*
X64397143Y-93067857D01*
X64540000Y-92782143D01*
X64825714Y-92496429D01*
X65397143Y-92353572D01*
X66397142Y-92353572D01*
X66968571Y-92496429D01*
X67254285Y-92782143D01*
X67397142Y-93067857D01*
X67397142Y-93639286D01*
X67254285Y-93925000D01*
X66968571Y-94210714D01*
X66397142Y-94353571D01*
X65397143Y-94353571D01*
X64825714Y-94210714D01*
X64540000Y-93925000D01*
X64397143Y-93639286D01*
X65825714Y-90067858D02*
X65825714Y-91067858D01*
X67397142Y-91067858D02*
X64397143Y-91067858D01*
X64397143Y-89639287D01*
X65825714Y-87496431D02*
X65825714Y-88496430D01*
X67397142Y-88496430D02*
X64397143Y-88496430D01*
X64397143Y-87067859D01*
X144248571Y-113117142D02*
X143248571Y-111688571D01*
X142534285Y-113117142D02*
X142534285Y-110117142D01*
X143677142Y-110117142D01*
X143962857Y-110260000D01*
X144105714Y-110402857D01*
X144248571Y-110688571D01*
X144248571Y-111117142D01*
X144105714Y-111402857D01*
X143962857Y-111545714D01*
X143677142Y-111688571D01*
X142534285Y-111688571D01*
X146105714Y-110117142D02*
X146677142Y-110117142D01*
X146962857Y-110260000D01*
X147248571Y-110545714D01*
X147391428Y-111117142D01*
X147391428Y-112117142D01*
X147248571Y-112688571D01*
X146962857Y-112974285D01*
X146677142Y-113117142D01*
X146105714Y-113117142D01*
X145820000Y-112974285D01*
X145534285Y-112688571D01*
X145391428Y-112117142D01*
X145391428Y-111117142D01*
X145534285Y-110545714D01*
X145820000Y-110260000D01*
X146105714Y-110117142D01*
X150105714Y-113117142D02*
X148677142Y-113117142D01*
X148677142Y-110117142D01*
X152534285Y-113117142D02*
X151105714Y-113117142D01*
X151105714Y-110117142D01*
X150391428Y-90082857D02*
X151391428Y-91511428D01*
X152105714Y-90082857D02*
X152105714Y-93082857D01*
X150962857Y-93082857D01*
X150677142Y-92940000D01*
X150534285Y-92797142D01*
X150391428Y-92511428D01*
X150391428Y-92082857D01*
X150534285Y-91797142D01*
X150677142Y-91654285D01*
X150962857Y-91511428D01*
X152105714Y-91511428D01*
X148534285Y-93082857D02*
X147962857Y-93082857D01*
X147677142Y-92940000D01*
X147391428Y-92654285D01*
X147248571Y-92082857D01*
X147248571Y-91082857D01*
X147391428Y-90511428D01*
X147677142Y-90225714D01*
X147962857Y-90082857D01*
X148534285Y-90082857D01*
X148820000Y-90225714D01*
X149105714Y-90511428D01*
X149248571Y-91082857D01*
X149248571Y-92082857D01*
X149105714Y-92654285D01*
X148820000Y-92940000D01*
X148534285Y-93082857D01*
X144534285Y-90082857D02*
X145962857Y-90082857D01*
X145962857Y-93082857D01*
X142105714Y-90082857D02*
X143534285Y-90082857D01*
X143534285Y-93082857D01*
X126277142Y-90082857D02*
X127277142Y-91511428D01*
X127991428Y-90082857D02*
X127991428Y-93082857D01*
X126848571Y-93082857D01*
X126562857Y-92940000D01*
X126420000Y-92797142D01*
X126277142Y-92511428D01*
X126277142Y-92082857D01*
X126420000Y-91797142D01*
X126562857Y-91654285D01*
X126848571Y-91511428D01*
X127991428Y-91511428D01*
X124991428Y-91654285D02*
X123991428Y-91654285D01*
X123562857Y-90082857D02*
X124991428Y-90082857D01*
X124991428Y-93082857D01*
X123562857Y-93082857D01*
X122420000Y-90225714D02*
X121991428Y-90082857D01*
X121277142Y-90082857D01*
X120991428Y-90225714D01*
X120848571Y-90368571D01*
X120705714Y-90654285D01*
X120705714Y-90940000D01*
X120848571Y-91225714D01*
X120991428Y-91368571D01*
X121277142Y-91511428D01*
X121848571Y-91654285D01*
X122134285Y-91797142D01*
X122277142Y-91940000D01*
X122420000Y-92225714D01*
X122420000Y-92511428D01*
X122277142Y-92797142D01*
X122134285Y-92940000D01*
X121848571Y-93082857D01*
X121134285Y-93082857D01*
X120705714Y-92940000D01*
X119420000Y-91654285D02*
X118420000Y-91654285D01*
X117991428Y-90082857D02*
X119420000Y-90082857D01*
X119420000Y-93082857D01*
X117991428Y-93082857D01*
X117134285Y-93082857D02*
X115420000Y-93082857D01*
X116277142Y-90082857D02*
X116277142Y-93082857D01*
X117562857Y-113117142D02*
X116562857Y-111688571D01*
X115848571Y-113117142D02*
X115848571Y-110117142D01*
X116991428Y-110117142D01*
X117277142Y-110260000D01*
X117420000Y-110402857D01*
X117562857Y-110688571D01*
X117562857Y-111117142D01*
X117420000Y-111402857D01*
X117277142Y-111545714D01*
X116991428Y-111688571D01*
X115848571Y-111688571D01*
X118848571Y-111545714D02*
X119848571Y-111545714D01*
X120277142Y-113117142D02*
X118848571Y-113117142D01*
X118848571Y-110117142D01*
X120277142Y-110117142D01*
X121420000Y-112974285D02*
X121848571Y-113117142D01*
X122562857Y-113117142D01*
X122848571Y-112974285D01*
X122991428Y-112831428D01*
X123134285Y-112545714D01*
X123134285Y-112260000D01*
X122991428Y-111974285D01*
X122848571Y-111831428D01*
X122562857Y-111688571D01*
X121991428Y-111545714D01*
X121705714Y-111402857D01*
X121562857Y-111260000D01*
X121420000Y-110974285D01*
X121420000Y-110688571D01*
X121562857Y-110402857D01*
X121705714Y-110260000D01*
X121991428Y-110117142D01*
X122705714Y-110117142D01*
X123134285Y-110260000D01*
X124420000Y-111545714D02*
X125420000Y-111545714D01*
X125848571Y-113117142D02*
X124420000Y-113117142D01*
X124420000Y-110117142D01*
X125848571Y-110117142D01*
X126705714Y-110117142D02*
X128420000Y-110117142D01*
X127562857Y-113117142D02*
X127562857Y-110117142D01*
D13*
X93203333Y-150764761D02*
X93203333Y-148764761D01*
X93965238Y-148764761D01*
X94155714Y-148860000D01*
X94250952Y-148955238D01*
X94346190Y-149145714D01*
X94346190Y-149431428D01*
X94250952Y-149621904D01*
X94155714Y-149717142D01*
X93965238Y-149812380D01*
X93203333Y-149812380D01*
X96155714Y-150764761D02*
X95203333Y-150764761D01*
X95203333Y-148764761D01*
X96727142Y-150193333D02*
X97679523Y-150193333D01*
X96536666Y-150764761D02*
X97203333Y-148764761D01*
X97870000Y-150764761D01*
X98917619Y-149812380D02*
X98917619Y-150764761D01*
X98250952Y-148764761D02*
X98917619Y-149812380D01*
X99584285Y-148764761D01*
X100250952Y-149717142D02*
X100917619Y-149717142D01*
X101203333Y-150764761D02*
X100250952Y-150764761D01*
X100250952Y-148764761D01*
X101203333Y-148764761D01*
X103203333Y-150764761D02*
X102536666Y-149812380D01*
X102060476Y-150764761D02*
X102060476Y-148764761D01*
X102822380Y-148764761D01*
X103012857Y-148860000D01*
X103108095Y-148955238D01*
X103203333Y-149145714D01*
X103203333Y-149431428D01*
X103108095Y-149621904D01*
X103012857Y-149717142D01*
X102822380Y-149812380D01*
X102060476Y-149812380D01*
X106250952Y-149717142D02*
X105584285Y-149717142D01*
X105584285Y-150764761D02*
X105584285Y-148764761D01*
X106536666Y-148764761D01*
X107679523Y-148764761D02*
X108060476Y-148764761D01*
X108250952Y-148860000D01*
X108441428Y-149050476D01*
X108536666Y-149431428D01*
X108536666Y-150098095D01*
X108441428Y-150479047D01*
X108250952Y-150669523D01*
X108060476Y-150764761D01*
X107679523Y-150764761D01*
X107489047Y-150669523D01*
X107298571Y-150479047D01*
X107203333Y-150098095D01*
X107203333Y-149431428D01*
X107298571Y-149050476D01*
X107489047Y-148860000D01*
X107679523Y-148764761D01*
X109393809Y-148764761D02*
X109393809Y-150383809D01*
X109489047Y-150574285D01*
X109584285Y-150669523D01*
X109774761Y-150764761D01*
X110155714Y-150764761D01*
X110346190Y-150669523D01*
X110441428Y-150574285D01*
X110536666Y-150383809D01*
X110536666Y-148764761D01*
X112631904Y-150764761D02*
X111965238Y-149812380D01*
X111489047Y-150764761D02*
X111489047Y-148764761D01*
X112250952Y-148764761D01*
X112441428Y-148860000D01*
X112536666Y-148955238D01*
X112631904Y-149145714D01*
X112631904Y-149431428D01*
X112536666Y-149621904D01*
X112441428Y-149717142D01*
X112250952Y-149812380D01*
X111489047Y-149812380D01*
X156036666Y-150764761D02*
X156036666Y-148764761D01*
X156798571Y-148764761D01*
X156989047Y-148860000D01*
X157084285Y-148955238D01*
X157179523Y-149145714D01*
X157179523Y-149431428D01*
X157084285Y-149621904D01*
X156989047Y-149717142D01*
X156798571Y-149812380D01*
X156036666Y-149812380D01*
X158989047Y-150764761D02*
X158036666Y-150764761D01*
X158036666Y-148764761D01*
X159560476Y-150193333D02*
X160512857Y-150193333D01*
X159370000Y-150764761D02*
X160036666Y-148764761D01*
X160703333Y-150764761D01*
X161750952Y-149812380D02*
X161750952Y-150764761D01*
X161084285Y-148764761D02*
X161750952Y-149812380D01*
X162417619Y-148764761D01*
X163084285Y-149717142D02*
X163750952Y-149717142D01*
X164036666Y-150764761D02*
X163084285Y-150764761D01*
X163084285Y-148764761D01*
X164036666Y-148764761D01*
X166036666Y-150764761D02*
X165370000Y-149812380D01*
X164893809Y-150764761D02*
X164893809Y-148764761D01*
X165655714Y-148764761D01*
X165846190Y-148860000D01*
X165941428Y-148955238D01*
X166036666Y-149145714D01*
X166036666Y-149431428D01*
X165941428Y-149621904D01*
X165846190Y-149717142D01*
X165655714Y-149812380D01*
X164893809Y-149812380D01*
X168131904Y-148764761D02*
X169274761Y-148764761D01*
X168703333Y-150764761D02*
X168703333Y-148764761D01*
X169941428Y-150764761D02*
X169941428Y-148764761D01*
X169941428Y-149717142D02*
X171084285Y-149717142D01*
X171084285Y-150764761D02*
X171084285Y-148764761D01*
X173179523Y-150764761D02*
X172512857Y-149812380D01*
X172036666Y-150764761D02*
X172036666Y-148764761D01*
X172798571Y-148764761D01*
X172989047Y-148860000D01*
X173084285Y-148955238D01*
X173179523Y-149145714D01*
X173179523Y-149431428D01*
X173084285Y-149621904D01*
X172989047Y-149717142D01*
X172798571Y-149812380D01*
X172036666Y-149812380D01*
X174036666Y-149717142D02*
X174703333Y-149717142D01*
X174989047Y-150764761D02*
X174036666Y-150764761D01*
X174036666Y-148764761D01*
X174989047Y-148764761D01*
X175846190Y-149717142D02*
X176512857Y-149717142D01*
X176798571Y-150764761D02*
X175846190Y-150764761D01*
X175846190Y-148764761D01*
X176798571Y-148764761D01*
X175036666Y-53070238D02*
X175036666Y-55070238D01*
X174274761Y-55070238D01*
X174084285Y-54975000D01*
X173989047Y-54879761D01*
X173893809Y-54689285D01*
X173893809Y-54403571D01*
X173989047Y-54213095D01*
X174084285Y-54117857D01*
X174274761Y-54022619D01*
X175036666Y-54022619D01*
X172084285Y-53070238D02*
X173036666Y-53070238D01*
X173036666Y-55070238D01*
X171512857Y-53641666D02*
X170560476Y-53641666D01*
X171703333Y-53070238D02*
X171036666Y-55070238D01*
X170370000Y-53070238D01*
X169322380Y-54022619D02*
X169322380Y-53070238D01*
X169989047Y-55070238D02*
X169322380Y-54022619D01*
X168655714Y-55070238D01*
X167989047Y-54117857D02*
X167322380Y-54117857D01*
X167036666Y-53070238D02*
X167989047Y-53070238D01*
X167989047Y-55070238D01*
X167036666Y-55070238D01*
X165036666Y-53070238D02*
X165703333Y-54022619D01*
X166179523Y-53070238D02*
X166179523Y-55070238D01*
X165417619Y-55070238D01*
X165227142Y-54975000D01*
X165131904Y-54879761D01*
X165036666Y-54689285D01*
X165036666Y-54403571D01*
X165131904Y-54213095D01*
X165227142Y-54117857D01*
X165417619Y-54022619D01*
X166179523Y-54022619D01*
X162941428Y-55070238D02*
X161798571Y-55070238D01*
X162370000Y-53070238D02*
X162370000Y-55070238D01*
X161322380Y-55070238D02*
X160846190Y-53070238D01*
X160465238Y-54498809D01*
X160084285Y-53070238D01*
X159608095Y-55070238D01*
X158465238Y-55070238D02*
X158084285Y-55070238D01*
X157893809Y-54975000D01*
X157703333Y-54784523D01*
X157608095Y-54403571D01*
X157608095Y-53736904D01*
X157703333Y-53355952D01*
X157893809Y-53165476D01*
X158084285Y-53070238D01*
X158465238Y-53070238D01*
X158655714Y-53165476D01*
X158846190Y-53355952D01*
X158941428Y-53736904D01*
X158941428Y-54403571D01*
X158846190Y-54784523D01*
X158655714Y-54975000D01*
X158465238Y-55070238D01*
X111584285Y-53070238D02*
X111584285Y-55070238D01*
X110822380Y-55070238D01*
X110631904Y-54975000D01*
X110536666Y-54879761D01*
X110441428Y-54689285D01*
X110441428Y-54403571D01*
X110536666Y-54213095D01*
X110631904Y-54117857D01*
X110822380Y-54022619D01*
X111584285Y-54022619D01*
X108631904Y-53070238D02*
X109584285Y-53070238D01*
X109584285Y-55070238D01*
X108060476Y-53641666D02*
X107108095Y-53641666D01*
X108250952Y-53070238D02*
X107584285Y-55070238D01*
X106917619Y-53070238D01*
X105870000Y-54022619D02*
X105870000Y-53070238D01*
X106536666Y-55070238D02*
X105870000Y-54022619D01*
X105203333Y-55070238D01*
X104536666Y-54117857D02*
X103870000Y-54117857D01*
X103584285Y-53070238D02*
X104536666Y-53070238D01*
X104536666Y-55070238D01*
X103584285Y-55070238D01*
X101584285Y-53070238D02*
X102250952Y-54022619D01*
X102727142Y-53070238D02*
X102727142Y-55070238D01*
X101965238Y-55070238D01*
X101774761Y-54975000D01*
X101679523Y-54879761D01*
X101584285Y-54689285D01*
X101584285Y-54403571D01*
X101679523Y-54213095D01*
X101774761Y-54117857D01*
X101965238Y-54022619D01*
X102727142Y-54022619D01*
X98822380Y-55070238D02*
X98441428Y-55070238D01*
X98250952Y-54975000D01*
X98060476Y-54784523D01*
X97965238Y-54403571D01*
X97965238Y-53736904D01*
X98060476Y-53355952D01*
X98250952Y-53165476D01*
X98441428Y-53070238D01*
X98822380Y-53070238D01*
X99012857Y-53165476D01*
X99203333Y-53355952D01*
X99298571Y-53736904D01*
X99298571Y-54403571D01*
X99203333Y-54784523D01*
X99012857Y-54975000D01*
X98822380Y-55070238D01*
X97108095Y-53070238D02*
X97108095Y-55070238D01*
X95965238Y-53070238D01*
X95965238Y-55070238D01*
X95012857Y-54117857D02*
X94346190Y-54117857D01*
X94060476Y-53070238D02*
X95012857Y-53070238D01*
X95012857Y-55070238D01*
X94060476Y-55070238D01*
D14*
X127870000Y-59080000D02*
X110870000Y-59080000D01*
X127870000Y-78080000D02*
X127870000Y-59080000D01*
X110870000Y-78080000D02*
X127870000Y-78080000D01*
X77870000Y-59080000D02*
X94870000Y-59080000D01*
X77870000Y-78080000D02*
X77870000Y-59080000D01*
X94870000Y-78080000D02*
X77870000Y-78080000D01*
X141370000Y-144120000D02*
X158370000Y-144120000D01*
X141370000Y-125120000D02*
X141370000Y-144120000D01*
X158370000Y-125120000D02*
X141370000Y-125120000D01*
X191370000Y-144120000D02*
X174370000Y-144120000D01*
X191370000Y-125120000D02*
X191370000Y-144120000D01*
X174370000Y-125120000D02*
X191370000Y-125120000D01*
X77870000Y-144120000D02*
X94870000Y-144120000D01*
X77870000Y-125120000D02*
X77870000Y-144120000D01*
X94870000Y-125120000D02*
X77870000Y-125120000D01*
X127870000Y-144120000D02*
X110870000Y-144120000D01*
X127870000Y-125120000D02*
X127870000Y-144120000D01*
X110870000Y-125120000D02*
X127870000Y-125120000D01*
X191370000Y-59080000D02*
X174370000Y-59080000D01*
X191370000Y-78080000D02*
X191370000Y-59080000D01*
X174370000Y-78080000D02*
X191370000Y-78080000D01*
X141370000Y-59080000D02*
X158370000Y-59080000D01*
X141370000Y-78080000D02*
X141370000Y-59080000D01*
X158370000Y-78080000D02*
X141370000Y-78080000D01*
D10*
X60110000Y-98440000D02*
X60110000Y-95290000D01*
X61810000Y-98440000D02*
X61810000Y-95290000D01*
X60110000Y-98440000D02*
X61810000Y-98440000D01*
X68073748Y-121360000D02*
X68596252Y-121360000D01*
X68073748Y-119940000D02*
X68596252Y-119940000D01*
X66040000Y-69200000D02*
X66040000Y-68200000D01*
X65540000Y-68700000D02*
X66540000Y-68700000D01*
X69540000Y-62600000D02*
X71940000Y-62600000D01*
X64740000Y-62600000D02*
X67340000Y-62600000D01*
X60140000Y-62600000D02*
X62540000Y-62600000D01*
X61940000Y-75900000D02*
X62240000Y-76200000D01*
X61940000Y-76500000D02*
X61940000Y-75900000D01*
X62240000Y-76200000D02*
X61940000Y-76500000D01*
X60140000Y-74800000D02*
X71940000Y-74800000D01*
X60140000Y-70700000D02*
X60140000Y-74800000D01*
X71940000Y-70700000D02*
X71940000Y-74800000D01*
X71940000Y-62600000D02*
X71940000Y-66700000D01*
X60140000Y-66700000D02*
X60140000Y-62600000D01*
X69040000Y-68700000D02*
G75*
G03X69040000Y-68700000I-3000000J0D01*
G01*
X66040000Y-134000000D02*
X66040000Y-135000000D01*
X66540000Y-134500000D02*
X65540000Y-134500000D01*
X62540000Y-140600000D02*
X60140000Y-140600000D01*
X67340000Y-140600000D02*
X64740000Y-140600000D01*
X71940000Y-140600000D02*
X69540000Y-140600000D01*
X70140000Y-127300000D02*
X69840000Y-127000000D01*
X70140000Y-126700000D02*
X70140000Y-127300000D01*
X69840000Y-127000000D02*
X70140000Y-126700000D01*
X71940000Y-128400000D02*
X60140000Y-128400000D01*
X71940000Y-132500000D02*
X71940000Y-128400000D01*
X60140000Y-132500000D02*
X60140000Y-128400000D01*
X60140000Y-140600000D02*
X60140000Y-136500000D01*
X71940000Y-136500000D02*
X71940000Y-140600000D01*
X69040000Y-134500000D02*
G75*
G03X69040000Y-134500000I-3000000J0D01*
G01*
X203200000Y-134000000D02*
X203200000Y-135000000D01*
X203700000Y-134500000D02*
X202700000Y-134500000D01*
X199700000Y-140600000D02*
X197300000Y-140600000D01*
X204500000Y-140600000D02*
X201900000Y-140600000D01*
X209100000Y-140600000D02*
X206700000Y-140600000D01*
X207300000Y-127300000D02*
X207000000Y-127000000D01*
X207300000Y-126700000D02*
X207300000Y-127300000D01*
X207000000Y-127000000D02*
X207300000Y-126700000D01*
X209100000Y-128400000D02*
X197300000Y-128400000D01*
X209100000Y-132500000D02*
X209100000Y-128400000D01*
X197300000Y-132500000D02*
X197300000Y-128400000D01*
X197300000Y-140600000D02*
X197300000Y-136500000D01*
X209100000Y-136500000D02*
X209100000Y-140600000D01*
X206200000Y-134500000D02*
G75*
G03X206200000Y-134500000I-3000000J0D01*
G01*
X203200000Y-69200000D02*
X203200000Y-68200000D01*
X202700000Y-68700000D02*
X203700000Y-68700000D01*
X206700000Y-62600000D02*
X209100000Y-62600000D01*
X201900000Y-62600000D02*
X204500000Y-62600000D01*
X197300000Y-62600000D02*
X199700000Y-62600000D01*
X199100000Y-75900000D02*
X199400000Y-76200000D01*
X199100000Y-76500000D02*
X199100000Y-75900000D01*
X199400000Y-76200000D02*
X199100000Y-76500000D01*
X197300000Y-74800000D02*
X209100000Y-74800000D01*
X197300000Y-70700000D02*
X197300000Y-74800000D01*
X209100000Y-70700000D02*
X209100000Y-74800000D01*
X209100000Y-62600000D02*
X209100000Y-66700000D01*
X197300000Y-66700000D02*
X197300000Y-62600000D01*
X206200000Y-68700000D02*
G75*
G03X206200000Y-68700000I-3000000J0D01*
G01*
X69925000Y-104646252D02*
X69925000Y-104123748D01*
X68505000Y-104646252D02*
X68505000Y-104123748D01*
X68505000Y-98553748D02*
X68505000Y-99076252D01*
X69925000Y-98553748D02*
X69925000Y-99076252D01*
X56008748Y-109930000D02*
X56531252Y-109930000D01*
X56008748Y-108510000D02*
X56531252Y-108510000D01*
X56008748Y-94690000D02*
X56531252Y-94690000D01*
X56008748Y-93270000D02*
X56531252Y-93270000D01*
D14*
X52300000Y-106100000D02*
X51300000Y-106100000D01*
X52300000Y-97100000D02*
X51300000Y-97100000D01*
X56300000Y-97100000D02*
X54300000Y-97100000D01*
X56300000Y-106100000D02*
X54300000Y-106100000D01*
D10*
X89518748Y-85800000D02*
X90041252Y-85800000D01*
X89518748Y-84380000D02*
X90041252Y-84380000D01*
X130760000Y-64210000D02*
X128945000Y-64210000D01*
X130760000Y-63975000D02*
X130760000Y-64210000D01*
X134620000Y-63975000D02*
X130760000Y-63975000D01*
X138480000Y-63975000D02*
X138480000Y-64210000D01*
X134620000Y-63975000D02*
X138480000Y-63975000D01*
X130760000Y-76995000D02*
X130760000Y-76760000D01*
X134620000Y-76995000D02*
X130760000Y-76995000D01*
X138480000Y-76995000D02*
X138480000Y-76760000D01*
X134620000Y-76995000D02*
X138480000Y-76995000D01*
X132063748Y-63575000D02*
X132586252Y-63575000D01*
X132063748Y-62155000D02*
X132586252Y-62155000D01*
X116225000Y-82550000D02*
X116225000Y-86000000D01*
X116225000Y-82550000D02*
X116225000Y-80600000D01*
X126345000Y-82550000D02*
X126345000Y-84500000D01*
X126345000Y-82550000D02*
X126345000Y-80600000D01*
X194870000Y-101338748D02*
X194870000Y-101861252D01*
X196290000Y-101338748D02*
X196290000Y-101861252D01*
X179725000Y-82485000D02*
X179725000Y-85935000D01*
X179725000Y-82485000D02*
X179725000Y-80535000D01*
X189845000Y-82485000D02*
X189845000Y-84435000D01*
X189845000Y-82485000D02*
X189845000Y-80535000D01*
D14*
X125520000Y-101600000D02*
G75*
G03X125520000Y-101600000I-3600000J0D01*
G01*
X117920000Y-107600000D02*
X115920000Y-107600000D01*
X122920000Y-107600000D02*
X120920000Y-107600000D01*
X127920000Y-95600000D02*
X125920000Y-95600000D01*
X120920000Y-95600000D02*
X122920000Y-95600000D01*
X125920000Y-107600000D02*
X127920000Y-107600000D01*
X115920000Y-95600000D02*
X115920000Y-107600000D01*
X117920000Y-95600000D02*
X115920000Y-95600000D01*
X127920000Y-107600000D02*
X127920000Y-95600000D01*
D10*
X125075000Y-120715000D02*
X125075000Y-117265000D01*
X125075000Y-120715000D02*
X125075000Y-122665000D01*
X114955000Y-120715000D02*
X114955000Y-118765000D01*
X114955000Y-120715000D02*
X114955000Y-122665000D01*
X196870000Y-101600000D02*
X196870000Y-105050000D01*
X196870000Y-101600000D02*
X196870000Y-99650000D01*
X206990000Y-101600000D02*
X206990000Y-103550000D01*
X206990000Y-101600000D02*
X206990000Y-99650000D01*
D14*
X77245000Y-105225000D02*
X77245000Y-106650000D01*
X77020000Y-97975000D02*
X77020000Y-98300000D01*
X84270000Y-97975000D02*
X84270000Y-98300000D01*
X84270000Y-105225000D02*
X84270000Y-104900000D01*
X77020000Y-105225000D02*
X77020000Y-104900000D01*
X84270000Y-105225000D02*
X83945000Y-105225000D01*
X84270000Y-97975000D02*
X83945000Y-97975000D01*
X77020000Y-97975000D02*
X77345000Y-97975000D01*
X77020000Y-105225000D02*
X77245000Y-105225000D01*
D10*
X125655000Y-121903748D02*
X125655000Y-122426252D01*
X127075000Y-121903748D02*
X127075000Y-122426252D01*
X179145000Y-81296252D02*
X179145000Y-80773748D01*
X177725000Y-81296252D02*
X177725000Y-80773748D01*
X137176252Y-140260000D02*
X136653748Y-140260000D01*
X137176252Y-141680000D02*
X136653748Y-141680000D01*
X189155000Y-121903748D02*
X189155000Y-122426252D01*
X190575000Y-121903748D02*
X190575000Y-122426252D01*
X115645000Y-81296252D02*
X115645000Y-80773748D01*
X114225000Y-81296252D02*
X114225000Y-80773748D01*
X82625000Y-109871252D02*
X82625000Y-109348748D01*
X81205000Y-109871252D02*
X81205000Y-109348748D01*
X78815000Y-109871252D02*
X78815000Y-109348748D01*
X77395000Y-109871252D02*
X77395000Y-109348748D01*
X80720000Y-109871252D02*
X80720000Y-109348748D01*
X79300000Y-109871252D02*
X79300000Y-109348748D01*
X87425000Y-110470000D02*
X87425000Y-107970000D01*
X84025000Y-110470000D02*
X84025000Y-107970000D01*
X86773961Y-106632210D02*
G75*
G02X87425000Y-107970000I-1048961J-1337790D01*
G01*
X86773961Y-111807790D02*
G75*
G03X87425000Y-110470000I-1048961J1337790D01*
G01*
X84676039Y-106632210D02*
G75*
G03X84025000Y-107970000I1048961J-1337790D01*
G01*
X84676039Y-111807790D02*
G75*
G02X84025000Y-110470000I1048961J1337790D01*
G01*
X138480000Y-139625000D02*
X140295000Y-139625000D01*
X138480000Y-139860000D02*
X138480000Y-139625000D01*
X134620000Y-139860000D02*
X138480000Y-139860000D01*
X130760000Y-139860000D02*
X130760000Y-139625000D01*
X134620000Y-139860000D02*
X130760000Y-139860000D01*
X138480000Y-126840000D02*
X138480000Y-127075000D01*
X134620000Y-126840000D02*
X138480000Y-126840000D01*
X130760000Y-126840000D02*
X130760000Y-127075000D01*
X134620000Y-126840000D02*
X130760000Y-126840000D01*
X63483748Y-125170000D02*
X64006252Y-125170000D01*
X63483748Y-123750000D02*
X64006252Y-123750000D01*
X68596252Y-123750000D02*
X68073748Y-123750000D01*
X68596252Y-125170000D02*
X68073748Y-125170000D01*
X199896252Y-123750000D02*
X199373748Y-123750000D01*
X199896252Y-125170000D02*
X199373748Y-125170000D01*
X206503748Y-125170000D02*
X207026252Y-125170000D01*
X206503748Y-123750000D02*
X207026252Y-123750000D01*
X206503748Y-79450000D02*
X207026252Y-79450000D01*
X206503748Y-78030000D02*
X207026252Y-78030000D01*
X199896252Y-78030000D02*
X199373748Y-78030000D01*
X199896252Y-79450000D02*
X199373748Y-79450000D01*
X68451252Y-78030000D02*
X67928748Y-78030000D01*
X68451252Y-79450000D02*
X67928748Y-79450000D01*
X63483748Y-79450000D02*
X64006252Y-79450000D01*
X63483748Y-78030000D02*
X64006252Y-78030000D01*
X103430000Y-119363748D02*
X103430000Y-119886252D01*
X104850000Y-119363748D02*
X104850000Y-119886252D01*
X111050000Y-119363748D02*
X111050000Y-119886252D01*
X112470000Y-119363748D02*
X112470000Y-119886252D01*
X100890000Y-119363748D02*
X100890000Y-119886252D01*
X102310000Y-119363748D02*
X102310000Y-119886252D01*
X93270000Y-119363748D02*
X93270000Y-119886252D01*
X94690000Y-119363748D02*
X94690000Y-119886252D01*
X95810000Y-119363748D02*
X95810000Y-119886252D01*
X97230000Y-119363748D02*
X97230000Y-119886252D01*
X105970000Y-119363748D02*
X105970000Y-119886252D01*
X107390000Y-119363748D02*
X107390000Y-119886252D01*
X108510000Y-119363748D02*
X108510000Y-119886252D01*
X109930000Y-119363748D02*
X109930000Y-119886252D01*
X98350000Y-119363748D02*
X98350000Y-119886252D01*
X99770000Y-119363748D02*
X99770000Y-119886252D01*
X166930000Y-119363748D02*
X166930000Y-119886252D01*
X168350000Y-119363748D02*
X168350000Y-119886252D01*
X174550000Y-119363748D02*
X174550000Y-119886252D01*
X175970000Y-119363748D02*
X175970000Y-119886252D01*
X164390000Y-119363748D02*
X164390000Y-119886252D01*
X165810000Y-119363748D02*
X165810000Y-119886252D01*
X156770000Y-119363748D02*
X156770000Y-119886252D01*
X158190000Y-119363748D02*
X158190000Y-119886252D01*
X159310000Y-119363748D02*
X159310000Y-119886252D01*
X160730000Y-119363748D02*
X160730000Y-119886252D01*
X169470000Y-119363748D02*
X169470000Y-119886252D01*
X170890000Y-119363748D02*
X170890000Y-119886252D01*
X172010000Y-119363748D02*
X172010000Y-119886252D01*
X173430000Y-119363748D02*
X173430000Y-119886252D01*
X161850000Y-119363748D02*
X161850000Y-119886252D01*
X163270000Y-119363748D02*
X163270000Y-119886252D01*
X165810000Y-83836252D02*
X165810000Y-83313748D01*
X164390000Y-83836252D02*
X164390000Y-83313748D01*
X158190000Y-83836252D02*
X158190000Y-83313748D01*
X156770000Y-83836252D02*
X156770000Y-83313748D01*
X168350000Y-83836252D02*
X168350000Y-83313748D01*
X166930000Y-83836252D02*
X166930000Y-83313748D01*
X175970000Y-83836252D02*
X175970000Y-83313748D01*
X174550000Y-83836252D02*
X174550000Y-83313748D01*
X173430000Y-83836252D02*
X173430000Y-83313748D01*
X172010000Y-83836252D02*
X172010000Y-83313748D01*
X163270000Y-83836252D02*
X163270000Y-83313748D01*
X161850000Y-83836252D02*
X161850000Y-83313748D01*
X160730000Y-83836252D02*
X160730000Y-83313748D01*
X159310000Y-83836252D02*
X159310000Y-83313748D01*
X170890000Y-83836252D02*
X170890000Y-83313748D01*
X169470000Y-83836252D02*
X169470000Y-83313748D01*
X102310000Y-83836252D02*
X102310000Y-83313748D01*
X100890000Y-83836252D02*
X100890000Y-83313748D01*
X97230000Y-83836252D02*
X97230000Y-83313748D01*
X95810000Y-83836252D02*
X95810000Y-83313748D01*
X104850000Y-83836252D02*
X104850000Y-83313748D01*
X103430000Y-83836252D02*
X103430000Y-83313748D01*
X112470000Y-83836252D02*
X112470000Y-83313748D01*
X111050000Y-83836252D02*
X111050000Y-83313748D01*
X109930000Y-83836252D02*
X109930000Y-83313748D01*
X108510000Y-83836252D02*
X108510000Y-83313748D01*
X99770000Y-83836252D02*
X99770000Y-83313748D01*
X98350000Y-83836252D02*
X98350000Y-83313748D01*
X94690000Y-83836252D02*
X94690000Y-83313748D01*
X93270000Y-83836252D02*
X93270000Y-83313748D01*
X107390000Y-83836252D02*
X107390000Y-83313748D01*
X105970000Y-83836252D02*
X105970000Y-83313748D01*
X132063748Y-141680000D02*
X132586252Y-141680000D01*
X132063748Y-140260000D02*
X132586252Y-140260000D01*
X137176252Y-62155000D02*
X136653748Y-62155000D01*
X137176252Y-63575000D02*
X136653748Y-63575000D01*
X79450000Y-86376252D02*
X79450000Y-85853748D01*
X78030000Y-86376252D02*
X78030000Y-85853748D01*
X83820000Y-90170000D02*
X84455000Y-90170000D01*
X84455000Y-90170000D02*
X84455000Y-90805000D01*
X188575000Y-120715000D02*
X188575000Y-117265000D01*
X188575000Y-120715000D02*
X188575000Y-122665000D01*
X178455000Y-120715000D02*
X178455000Y-118765000D01*
X178455000Y-120715000D02*
X178455000Y-122665000D01*
D14*
X150920000Y-101560000D02*
G75*
G03X150920000Y-101560000I-3600000J0D01*
G01*
X143320000Y-107560000D02*
X141320000Y-107560000D01*
X148320000Y-107560000D02*
X146320000Y-107560000D01*
X153320000Y-95560000D02*
X151320000Y-95560000D01*
X146320000Y-95560000D02*
X148320000Y-95560000D01*
X151320000Y-107560000D02*
X153320000Y-107560000D01*
X141320000Y-95560000D02*
X141320000Y-107560000D01*
X143320000Y-95560000D02*
X141320000Y-95560000D01*
X153320000Y-107560000D02*
X153320000Y-95560000D01*
D10*
X101180000Y-103100000D02*
X101180000Y-104100000D01*
X101680000Y-103600000D02*
X101180000Y-103100000D01*
X101180000Y-104100000D02*
X101680000Y-103600000D01*
X106400000Y-97190000D02*
X106090000Y-97190000D01*
X106400000Y-106010000D02*
X106090000Y-106010000D01*
X102190000Y-106010000D02*
X101880000Y-106010000D01*
X106400000Y-97190000D02*
X106400000Y-106010000D01*
X101880000Y-97190000D02*
X102190000Y-97190000D01*
X101880000Y-106010000D02*
X101880000Y-97190000D01*
X61810000Y-103100000D02*
X61810000Y-104100000D01*
X62310000Y-103600000D02*
X61810000Y-103100000D01*
X61810000Y-104100000D02*
X62310000Y-103600000D01*
X67030000Y-97190000D02*
X66720000Y-97190000D01*
X67030000Y-106010000D02*
X66720000Y-106010000D01*
X62820000Y-106010000D02*
X62510000Y-106010000D01*
X67030000Y-97190000D02*
X67030000Y-106010000D01*
X62510000Y-97190000D02*
X62820000Y-97190000D01*
X62510000Y-106010000D02*
X62510000Y-97190000D01*
D14*
X80541904Y-80462380D02*
X80541904Y-79462380D01*
X80780000Y-79462380D01*
X80922857Y-79510000D01*
X81018095Y-79605238D01*
X81065714Y-79700476D01*
X81113333Y-79890952D01*
X81113333Y-80033809D01*
X81065714Y-80224285D01*
X81018095Y-80319523D01*
X80922857Y-80414761D01*
X80780000Y-80462380D01*
X80541904Y-80462380D01*
X82065714Y-80462380D02*
X81494285Y-80462380D01*
X81780000Y-80462380D02*
X81780000Y-79462380D01*
X81684761Y-79605238D01*
X81589523Y-79700476D01*
X81494285Y-79748095D01*
X109505714Y-62682380D02*
X108934285Y-62682380D01*
X109220000Y-62682380D02*
X109220000Y-61682380D01*
X109124761Y-61825238D01*
X109029523Y-61920476D01*
X108934285Y-61968095D01*
X144041904Y-123642380D02*
X144041904Y-122642380D01*
X144280000Y-122642380D01*
X144422857Y-122690000D01*
X144518095Y-122785238D01*
X144565714Y-122880476D01*
X144613333Y-123070952D01*
X144613333Y-123213809D01*
X144565714Y-123404285D01*
X144518095Y-123499523D01*
X144422857Y-123594761D01*
X144280000Y-123642380D01*
X144041904Y-123642380D01*
X144946666Y-122642380D02*
X145565714Y-122642380D01*
X145232380Y-123023333D01*
X145375238Y-123023333D01*
X145470476Y-123070952D01*
X145518095Y-123118571D01*
X145565714Y-123213809D01*
X145565714Y-123451904D01*
X145518095Y-123547142D01*
X145470476Y-123594761D01*
X145375238Y-123642380D01*
X145089523Y-123642380D01*
X144994285Y-123594761D01*
X144946666Y-123547142D01*
X160305714Y-141422380D02*
X159734285Y-141422380D01*
X160020000Y-141422380D02*
X160020000Y-140422380D01*
X159924761Y-140565238D01*
X159829523Y-140660476D01*
X159734285Y-140708095D01*
X80541904Y-123642380D02*
X80541904Y-122642380D01*
X80780000Y-122642380D01*
X80922857Y-122690000D01*
X81018095Y-122785238D01*
X81065714Y-122880476D01*
X81113333Y-123070952D01*
X81113333Y-123213809D01*
X81065714Y-123404285D01*
X81018095Y-123499523D01*
X80922857Y-123594761D01*
X80780000Y-123642380D01*
X80541904Y-123642380D01*
X81970476Y-122975714D02*
X81970476Y-123642380D01*
X81732380Y-122594761D02*
X81494285Y-123309047D01*
X82113333Y-123309047D01*
X96805714Y-141422380D02*
X96234285Y-141422380D01*
X96520000Y-141422380D02*
X96520000Y-140422380D01*
X96424761Y-140565238D01*
X96329523Y-140660476D01*
X96234285Y-140708095D01*
X144041904Y-80462380D02*
X144041904Y-79462380D01*
X144280000Y-79462380D01*
X144422857Y-79510000D01*
X144518095Y-79605238D01*
X144565714Y-79700476D01*
X144613333Y-79890952D01*
X144613333Y-80033809D01*
X144565714Y-80224285D01*
X144518095Y-80319523D01*
X144422857Y-80414761D01*
X144280000Y-80462380D01*
X144041904Y-80462380D01*
X144994285Y-79557619D02*
X145041904Y-79510000D01*
X145137142Y-79462380D01*
X145375238Y-79462380D01*
X145470476Y-79510000D01*
X145518095Y-79557619D01*
X145565714Y-79652857D01*
X145565714Y-79748095D01*
X145518095Y-79890952D01*
X144946666Y-80462380D01*
X145565714Y-80462380D01*
X173005714Y-62682380D02*
X172434285Y-62682380D01*
X172720000Y-62682380D02*
X172720000Y-61682380D01*
X172624761Y-61825238D01*
X172529523Y-61920476D01*
X172434285Y-61968095D01*
X59562380Y-97278095D02*
X58562380Y-97278095D01*
X58562380Y-97040000D01*
X58610000Y-96897142D01*
X58705238Y-96801904D01*
X58800476Y-96754285D01*
X58990952Y-96706666D01*
X59133809Y-96706666D01*
X59324285Y-96754285D01*
X59419523Y-96801904D01*
X59514761Y-96897142D01*
X59562380Y-97040000D01*
X59562380Y-97278095D01*
X58562380Y-95801904D02*
X58562380Y-96278095D01*
X59038571Y-96325714D01*
X58990952Y-96278095D01*
X58943333Y-96182857D01*
X58943333Y-95944761D01*
X58990952Y-95849523D01*
X59038571Y-95801904D01*
X59133809Y-95754285D01*
X59371904Y-95754285D01*
X59467142Y-95801904D01*
X59514761Y-95849523D01*
X59562380Y-95944761D01*
X59562380Y-96182857D01*
X59514761Y-96278095D01*
X59467142Y-96325714D01*
X65238333Y-121102380D02*
X64905000Y-120626190D01*
X64666904Y-121102380D02*
X64666904Y-120102380D01*
X65047857Y-120102380D01*
X65143095Y-120150000D01*
X65190714Y-120197619D01*
X65238333Y-120292857D01*
X65238333Y-120435714D01*
X65190714Y-120530952D01*
X65143095Y-120578571D01*
X65047857Y-120626190D01*
X64666904Y-120626190D01*
X65619285Y-120197619D02*
X65666904Y-120150000D01*
X65762142Y-120102380D01*
X66000238Y-120102380D01*
X66095476Y-120150000D01*
X66143095Y-120197619D01*
X66190714Y-120292857D01*
X66190714Y-120388095D01*
X66143095Y-120530952D01*
X65571666Y-121102380D01*
X66190714Y-121102380D01*
X59594523Y-76248571D02*
X59927857Y-76248571D01*
X60070714Y-76772380D02*
X59594523Y-76772380D01*
X59594523Y-75772380D01*
X60070714Y-75772380D01*
X61023095Y-76772380D02*
X60451666Y-76772380D01*
X60737380Y-76772380D02*
X60737380Y-75772380D01*
X60642142Y-75915238D01*
X60546904Y-76010476D01*
X60451666Y-76058095D01*
X71104523Y-126808571D02*
X71437857Y-126808571D01*
X71580714Y-127332380D02*
X71104523Y-127332380D01*
X71104523Y-126332380D01*
X71580714Y-126332380D01*
X72437857Y-126665714D02*
X72437857Y-127332380D01*
X72199761Y-126284761D02*
X71961666Y-126999047D01*
X72580714Y-126999047D01*
X208264523Y-126808571D02*
X208597857Y-126808571D01*
X208740714Y-127332380D02*
X208264523Y-127332380D01*
X208264523Y-126332380D01*
X208740714Y-126332380D01*
X209074047Y-126332380D02*
X209693095Y-126332380D01*
X209359761Y-126713333D01*
X209502619Y-126713333D01*
X209597857Y-126760952D01*
X209645476Y-126808571D01*
X209693095Y-126903809D01*
X209693095Y-127141904D01*
X209645476Y-127237142D01*
X209597857Y-127284761D01*
X209502619Y-127332380D01*
X209216904Y-127332380D01*
X209121666Y-127284761D01*
X209074047Y-127237142D01*
X196754523Y-76248571D02*
X197087857Y-76248571D01*
X197230714Y-76772380D02*
X196754523Y-76772380D01*
X196754523Y-75772380D01*
X197230714Y-75772380D01*
X197611666Y-75867619D02*
X197659285Y-75820000D01*
X197754523Y-75772380D01*
X197992619Y-75772380D01*
X198087857Y-75820000D01*
X198135476Y-75867619D01*
X198183095Y-75962857D01*
X198183095Y-76058095D01*
X198135476Y-76200952D01*
X197564047Y-76772380D01*
X198183095Y-76772380D01*
X71477142Y-105027857D02*
X71524761Y-105075476D01*
X71572380Y-105218333D01*
X71572380Y-105313571D01*
X71524761Y-105456428D01*
X71429523Y-105551666D01*
X71334285Y-105599285D01*
X71143809Y-105646904D01*
X71000952Y-105646904D01*
X70810476Y-105599285D01*
X70715238Y-105551666D01*
X70620000Y-105456428D01*
X70572380Y-105313571D01*
X70572380Y-105218333D01*
X70620000Y-105075476D01*
X70667619Y-105027857D01*
X71572380Y-104075476D02*
X71572380Y-104646904D01*
X71572380Y-104361190D02*
X70572380Y-104361190D01*
X70715238Y-104456428D01*
X70810476Y-104551666D01*
X70858095Y-104646904D01*
X70667619Y-103694523D02*
X70620000Y-103646904D01*
X70572380Y-103551666D01*
X70572380Y-103313571D01*
X70620000Y-103218333D01*
X70667619Y-103170714D01*
X70762857Y-103123095D01*
X70858095Y-103123095D01*
X71000952Y-103170714D01*
X71572380Y-103742142D01*
X71572380Y-103123095D01*
X71477142Y-99457857D02*
X71524761Y-99505476D01*
X71572380Y-99648333D01*
X71572380Y-99743571D01*
X71524761Y-99886428D01*
X71429523Y-99981666D01*
X71334285Y-100029285D01*
X71143809Y-100076904D01*
X71000952Y-100076904D01*
X70810476Y-100029285D01*
X70715238Y-99981666D01*
X70620000Y-99886428D01*
X70572380Y-99743571D01*
X70572380Y-99648333D01*
X70620000Y-99505476D01*
X70667619Y-99457857D01*
X71572380Y-98505476D02*
X71572380Y-99076904D01*
X71572380Y-98791190D02*
X70572380Y-98791190D01*
X70715238Y-98886428D01*
X70810476Y-98981666D01*
X70858095Y-99076904D01*
X71572380Y-97553095D02*
X71572380Y-98124523D01*
X71572380Y-97838809D02*
X70572380Y-97838809D01*
X70715238Y-97934047D01*
X70810476Y-98029285D01*
X70858095Y-98124523D01*
X59047142Y-109672380D02*
X58713809Y-109196190D01*
X58475714Y-109672380D02*
X58475714Y-108672380D01*
X58856666Y-108672380D01*
X58951904Y-108720000D01*
X58999523Y-108767619D01*
X59047142Y-108862857D01*
X59047142Y-109005714D01*
X58999523Y-109100952D01*
X58951904Y-109148571D01*
X58856666Y-109196190D01*
X58475714Y-109196190D01*
X59904285Y-108672380D02*
X59713809Y-108672380D01*
X59618571Y-108720000D01*
X59570952Y-108767619D01*
X59475714Y-108910476D01*
X59428095Y-109100952D01*
X59428095Y-109481904D01*
X59475714Y-109577142D01*
X59523333Y-109624761D01*
X59618571Y-109672380D01*
X59809047Y-109672380D01*
X59904285Y-109624761D01*
X59951904Y-109577142D01*
X59999523Y-109481904D01*
X59999523Y-109243809D01*
X59951904Y-109148571D01*
X59904285Y-109100952D01*
X59809047Y-109053333D01*
X59618571Y-109053333D01*
X59523333Y-109100952D01*
X59475714Y-109148571D01*
X59428095Y-109243809D01*
X60951904Y-109672380D02*
X60380476Y-109672380D01*
X60666190Y-109672380D02*
X60666190Y-108672380D01*
X60570952Y-108815238D01*
X60475714Y-108910476D01*
X60380476Y-108958095D01*
X59047142Y-94432380D02*
X58713809Y-93956190D01*
X58475714Y-94432380D02*
X58475714Y-93432380D01*
X58856666Y-93432380D01*
X58951904Y-93480000D01*
X58999523Y-93527619D01*
X59047142Y-93622857D01*
X59047142Y-93765714D01*
X58999523Y-93860952D01*
X58951904Y-93908571D01*
X58856666Y-93956190D01*
X58475714Y-93956190D01*
X59904285Y-93432380D02*
X59713809Y-93432380D01*
X59618571Y-93480000D01*
X59570952Y-93527619D01*
X59475714Y-93670476D01*
X59428095Y-93860952D01*
X59428095Y-94241904D01*
X59475714Y-94337142D01*
X59523333Y-94384761D01*
X59618571Y-94432380D01*
X59809047Y-94432380D01*
X59904285Y-94384761D01*
X59951904Y-94337142D01*
X59999523Y-94241904D01*
X59999523Y-94003809D01*
X59951904Y-93908571D01*
X59904285Y-93860952D01*
X59809047Y-93813333D01*
X59618571Y-93813333D01*
X59523333Y-93860952D01*
X59475714Y-93908571D01*
X59428095Y-94003809D01*
X60618571Y-93432380D02*
X60713809Y-93432380D01*
X60809047Y-93480000D01*
X60856666Y-93527619D01*
X60904285Y-93622857D01*
X60951904Y-93813333D01*
X60951904Y-94051428D01*
X60904285Y-94241904D01*
X60856666Y-94337142D01*
X60809047Y-94384761D01*
X60713809Y-94432380D01*
X60618571Y-94432380D01*
X60523333Y-94384761D01*
X60475714Y-94337142D01*
X60428095Y-94241904D01*
X60380476Y-94051428D01*
X60380476Y-93813333D01*
X60428095Y-93622857D01*
X60475714Y-93527619D01*
X60523333Y-93480000D01*
X60618571Y-93432380D01*
X59142380Y-101933333D02*
X59856666Y-101933333D01*
X59999523Y-101980952D01*
X60094761Y-102076190D01*
X60142380Y-102219047D01*
X60142380Y-102314285D01*
X60142380Y-100933333D02*
X60142380Y-101504761D01*
X60142380Y-101219047D02*
X59142380Y-101219047D01*
X59285238Y-101314285D01*
X59380476Y-101409523D01*
X59428095Y-101504761D01*
X89368333Y-83637380D02*
X89035000Y-83161190D01*
X88796904Y-83637380D02*
X88796904Y-82637380D01*
X89177857Y-82637380D01*
X89273095Y-82685000D01*
X89320714Y-82732619D01*
X89368333Y-82827857D01*
X89368333Y-82970714D01*
X89320714Y-83065952D01*
X89273095Y-83113571D01*
X89177857Y-83161190D01*
X88796904Y-83161190D01*
X89701666Y-82637380D02*
X90320714Y-82637380D01*
X89987380Y-83018333D01*
X90130238Y-83018333D01*
X90225476Y-83065952D01*
X90273095Y-83113571D01*
X90320714Y-83208809D01*
X90320714Y-83446904D01*
X90273095Y-83542142D01*
X90225476Y-83589761D01*
X90130238Y-83637380D01*
X89844523Y-83637380D01*
X89749285Y-83589761D01*
X89701666Y-83542142D01*
X133858095Y-77557380D02*
X133858095Y-78366904D01*
X133905714Y-78462142D01*
X133953333Y-78509761D01*
X134048571Y-78557380D01*
X134239047Y-78557380D01*
X134334285Y-78509761D01*
X134381904Y-78462142D01*
X134429523Y-78366904D01*
X134429523Y-77557380D01*
X135334285Y-77557380D02*
X135143809Y-77557380D01*
X135048571Y-77605000D01*
X135000952Y-77652619D01*
X134905714Y-77795476D01*
X134858095Y-77985952D01*
X134858095Y-78366904D01*
X134905714Y-78462142D01*
X134953333Y-78509761D01*
X135048571Y-78557380D01*
X135239047Y-78557380D01*
X135334285Y-78509761D01*
X135381904Y-78462142D01*
X135429523Y-78366904D01*
X135429523Y-78128809D01*
X135381904Y-78033571D01*
X135334285Y-77985952D01*
X135239047Y-77938333D01*
X135048571Y-77938333D01*
X134953333Y-77985952D01*
X134905714Y-78033571D01*
X134858095Y-78128809D01*
X129373333Y-63222142D02*
X129325714Y-63269761D01*
X129182857Y-63317380D01*
X129087619Y-63317380D01*
X128944761Y-63269761D01*
X128849523Y-63174523D01*
X128801904Y-63079285D01*
X128754285Y-62888809D01*
X128754285Y-62745952D01*
X128801904Y-62555476D01*
X128849523Y-62460238D01*
X128944761Y-62365000D01*
X129087619Y-62317380D01*
X129182857Y-62317380D01*
X129325714Y-62365000D01*
X129373333Y-62412619D01*
X129944761Y-62745952D02*
X129849523Y-62698333D01*
X129801904Y-62650714D01*
X129754285Y-62555476D01*
X129754285Y-62507857D01*
X129801904Y-62412619D01*
X129849523Y-62365000D01*
X129944761Y-62317380D01*
X130135238Y-62317380D01*
X130230476Y-62365000D01*
X130278095Y-62412619D01*
X130325714Y-62507857D01*
X130325714Y-62555476D01*
X130278095Y-62650714D01*
X130230476Y-62698333D01*
X130135238Y-62745952D01*
X129944761Y-62745952D01*
X129849523Y-62793571D01*
X129801904Y-62841190D01*
X129754285Y-62936428D01*
X129754285Y-63126904D01*
X129801904Y-63222142D01*
X129849523Y-63269761D01*
X129944761Y-63317380D01*
X130135238Y-63317380D01*
X130230476Y-63269761D01*
X130278095Y-63222142D01*
X130325714Y-63126904D01*
X130325714Y-62936428D01*
X130278095Y-62841190D01*
X130230476Y-62793571D01*
X130135238Y-62745952D01*
X126873095Y-82067380D02*
X126873095Y-82876904D01*
X126920714Y-82972142D01*
X126968333Y-83019761D01*
X127063571Y-83067380D01*
X127254047Y-83067380D01*
X127349285Y-83019761D01*
X127396904Y-82972142D01*
X127444523Y-82876904D01*
X127444523Y-82067380D01*
X127873095Y-82162619D02*
X127920714Y-82115000D01*
X128015952Y-82067380D01*
X128254047Y-82067380D01*
X128349285Y-82115000D01*
X128396904Y-82162619D01*
X128444523Y-82257857D01*
X128444523Y-82353095D01*
X128396904Y-82495952D01*
X127825476Y-83067380D01*
X128444523Y-83067380D01*
X194302142Y-99027142D02*
X194254523Y-99074761D01*
X194111666Y-99122380D01*
X194016428Y-99122380D01*
X193873571Y-99074761D01*
X193778333Y-98979523D01*
X193730714Y-98884285D01*
X193683095Y-98693809D01*
X193683095Y-98550952D01*
X193730714Y-98360476D01*
X193778333Y-98265238D01*
X193873571Y-98170000D01*
X194016428Y-98122380D01*
X194111666Y-98122380D01*
X194254523Y-98170000D01*
X194302142Y-98217619D01*
X195254523Y-99122380D02*
X194683095Y-99122380D01*
X194968809Y-99122380D02*
X194968809Y-98122380D01*
X194873571Y-98265238D01*
X194778333Y-98360476D01*
X194683095Y-98408095D01*
X195873571Y-98122380D02*
X195968809Y-98122380D01*
X196064047Y-98170000D01*
X196111666Y-98217619D01*
X196159285Y-98312857D01*
X196206904Y-98503333D01*
X196206904Y-98741428D01*
X196159285Y-98931904D01*
X196111666Y-99027142D01*
X196064047Y-99074761D01*
X195968809Y-99122380D01*
X195873571Y-99122380D01*
X195778333Y-99074761D01*
X195730714Y-99027142D01*
X195683095Y-98931904D01*
X195635476Y-98741428D01*
X195635476Y-98503333D01*
X195683095Y-98312857D01*
X195730714Y-98217619D01*
X195778333Y-98170000D01*
X195873571Y-98122380D01*
X190373095Y-81937380D02*
X190373095Y-82746904D01*
X190420714Y-82842142D01*
X190468333Y-82889761D01*
X190563571Y-82937380D01*
X190754047Y-82937380D01*
X190849285Y-82889761D01*
X190896904Y-82842142D01*
X190944523Y-82746904D01*
X190944523Y-81937380D01*
X191325476Y-81937380D02*
X191944523Y-81937380D01*
X191611190Y-82318333D01*
X191754047Y-82318333D01*
X191849285Y-82365952D01*
X191896904Y-82413571D01*
X191944523Y-82508809D01*
X191944523Y-82746904D01*
X191896904Y-82842142D01*
X191849285Y-82889761D01*
X191754047Y-82937380D01*
X191468333Y-82937380D01*
X191373095Y-82889761D01*
X191325476Y-82842142D01*
X114228571Y-102004761D02*
X114276190Y-101861904D01*
X114323809Y-101814285D01*
X114419047Y-101766666D01*
X114561904Y-101766666D01*
X114657142Y-101814285D01*
X114704761Y-101861904D01*
X114752380Y-101957142D01*
X114752380Y-102338095D01*
X113752380Y-102338095D01*
X113752380Y-102004761D01*
X113800000Y-101909523D01*
X113847619Y-101861904D01*
X113942857Y-101814285D01*
X114038095Y-101814285D01*
X114133333Y-101861904D01*
X114180952Y-101909523D01*
X114228571Y-102004761D01*
X114228571Y-102338095D01*
X114752380Y-100814285D02*
X114752380Y-101385714D01*
X114752380Y-101100000D02*
X113752380Y-101100000D01*
X113895238Y-101195238D01*
X113990476Y-101290476D01*
X114038095Y-101385714D01*
X126238095Y-117562380D02*
X126238095Y-118371904D01*
X126285714Y-118467142D01*
X126333333Y-118514761D01*
X126428571Y-118562380D01*
X126619047Y-118562380D01*
X126714285Y-118514761D01*
X126761904Y-118467142D01*
X126809523Y-118371904D01*
X126809523Y-117562380D01*
X127761904Y-117562380D02*
X127285714Y-117562380D01*
X127238095Y-118038571D01*
X127285714Y-117990952D01*
X127380952Y-117943333D01*
X127619047Y-117943333D01*
X127714285Y-117990952D01*
X127761904Y-118038571D01*
X127809523Y-118133809D01*
X127809523Y-118371904D01*
X127761904Y-118467142D01*
X127714285Y-118514761D01*
X127619047Y-118562380D01*
X127380952Y-118562380D01*
X127285714Y-118514761D01*
X127238095Y-118467142D01*
X194818095Y-104227380D02*
X194818095Y-105036904D01*
X194865714Y-105132142D01*
X194913333Y-105179761D01*
X195008571Y-105227380D01*
X195199047Y-105227380D01*
X195294285Y-105179761D01*
X195341904Y-105132142D01*
X195389523Y-105036904D01*
X195389523Y-104227380D01*
X196008571Y-104655952D02*
X195913333Y-104608333D01*
X195865714Y-104560714D01*
X195818095Y-104465476D01*
X195818095Y-104417857D01*
X195865714Y-104322619D01*
X195913333Y-104275000D01*
X196008571Y-104227380D01*
X196199047Y-104227380D01*
X196294285Y-104275000D01*
X196341904Y-104322619D01*
X196389523Y-104417857D01*
X196389523Y-104465476D01*
X196341904Y-104560714D01*
X196294285Y-104608333D01*
X196199047Y-104655952D01*
X196008571Y-104655952D01*
X195913333Y-104703571D01*
X195865714Y-104751190D01*
X195818095Y-104846428D01*
X195818095Y-105036904D01*
X195865714Y-105132142D01*
X195913333Y-105179761D01*
X196008571Y-105227380D01*
X196199047Y-105227380D01*
X196294285Y-105179761D01*
X196341904Y-105132142D01*
X196389523Y-105036904D01*
X196389523Y-104846428D01*
X196341904Y-104751190D01*
X196294285Y-104703571D01*
X196199047Y-104655952D01*
X74803095Y-105497380D02*
X74803095Y-106306904D01*
X74850714Y-106402142D01*
X74898333Y-106449761D01*
X74993571Y-106497380D01*
X75184047Y-106497380D01*
X75279285Y-106449761D01*
X75326904Y-106402142D01*
X75374523Y-106306904D01*
X75374523Y-105497380D01*
X76374523Y-106497380D02*
X75803095Y-106497380D01*
X76088809Y-106497380D02*
X76088809Y-105497380D01*
X75993571Y-105640238D01*
X75898333Y-105735476D01*
X75803095Y-105783095D01*
X128738333Y-122277142D02*
X128690714Y-122324761D01*
X128547857Y-122372380D01*
X128452619Y-122372380D01*
X128309761Y-122324761D01*
X128214523Y-122229523D01*
X128166904Y-122134285D01*
X128119285Y-121943809D01*
X128119285Y-121800952D01*
X128166904Y-121610476D01*
X128214523Y-121515238D01*
X128309761Y-121420000D01*
X128452619Y-121372380D01*
X128547857Y-121372380D01*
X128690714Y-121420000D01*
X128738333Y-121467619D01*
X129071666Y-121372380D02*
X129738333Y-121372380D01*
X129309761Y-122372380D01*
X178268333Y-84177142D02*
X178220714Y-84224761D01*
X178077857Y-84272380D01*
X177982619Y-84272380D01*
X177839761Y-84224761D01*
X177744523Y-84129523D01*
X177696904Y-84034285D01*
X177649285Y-83843809D01*
X177649285Y-83700952D01*
X177696904Y-83510476D01*
X177744523Y-83415238D01*
X177839761Y-83320000D01*
X177982619Y-83272380D01*
X178077857Y-83272380D01*
X178220714Y-83320000D01*
X178268333Y-83367619D01*
X179173095Y-83272380D02*
X178696904Y-83272380D01*
X178649285Y-83748571D01*
X178696904Y-83700952D01*
X178792142Y-83653333D01*
X179030238Y-83653333D01*
X179125476Y-83700952D01*
X179173095Y-83748571D01*
X179220714Y-83843809D01*
X179220714Y-84081904D01*
X179173095Y-84177142D01*
X179125476Y-84224761D01*
X179030238Y-84272380D01*
X178792142Y-84272380D01*
X178696904Y-84224761D01*
X178649285Y-84177142D01*
X139533333Y-141327142D02*
X139485714Y-141374761D01*
X139342857Y-141422380D01*
X139247619Y-141422380D01*
X139104761Y-141374761D01*
X139009523Y-141279523D01*
X138961904Y-141184285D01*
X138914285Y-140993809D01*
X138914285Y-140850952D01*
X138961904Y-140660476D01*
X139009523Y-140565238D01*
X139104761Y-140470000D01*
X139247619Y-140422380D01*
X139342857Y-140422380D01*
X139485714Y-140470000D01*
X139533333Y-140517619D01*
X140009523Y-141422380D02*
X140200000Y-141422380D01*
X140295238Y-141374761D01*
X140342857Y-141327142D01*
X140438095Y-141184285D01*
X140485714Y-140993809D01*
X140485714Y-140612857D01*
X140438095Y-140517619D01*
X140390476Y-140470000D01*
X140295238Y-140422380D01*
X140104761Y-140422380D01*
X140009523Y-140470000D01*
X139961904Y-140517619D01*
X139914285Y-140612857D01*
X139914285Y-140850952D01*
X139961904Y-140946190D01*
X140009523Y-140993809D01*
X140104761Y-141041428D01*
X140295238Y-141041428D01*
X140390476Y-140993809D01*
X140438095Y-140946190D01*
X140485714Y-140850952D01*
X192238333Y-122522142D02*
X192190714Y-122569761D01*
X192047857Y-122617380D01*
X191952619Y-122617380D01*
X191809761Y-122569761D01*
X191714523Y-122474523D01*
X191666904Y-122379285D01*
X191619285Y-122188809D01*
X191619285Y-122045952D01*
X191666904Y-121855476D01*
X191714523Y-121760238D01*
X191809761Y-121665000D01*
X191952619Y-121617380D01*
X192047857Y-121617380D01*
X192190714Y-121665000D01*
X192238333Y-121712619D01*
X193095476Y-121617380D02*
X192905000Y-121617380D01*
X192809761Y-121665000D01*
X192762142Y-121712619D01*
X192666904Y-121855476D01*
X192619285Y-122045952D01*
X192619285Y-122426904D01*
X192666904Y-122522142D01*
X192714523Y-122569761D01*
X192809761Y-122617380D01*
X193000238Y-122617380D01*
X193095476Y-122569761D01*
X193143095Y-122522142D01*
X193190714Y-122426904D01*
X193190714Y-122188809D01*
X193143095Y-122093571D01*
X193095476Y-122045952D01*
X193000238Y-121998333D01*
X192809761Y-121998333D01*
X192714523Y-122045952D01*
X192666904Y-122093571D01*
X192619285Y-122188809D01*
X114768333Y-84177142D02*
X114720714Y-84224761D01*
X114577857Y-84272380D01*
X114482619Y-84272380D01*
X114339761Y-84224761D01*
X114244523Y-84129523D01*
X114196904Y-84034285D01*
X114149285Y-83843809D01*
X114149285Y-83700952D01*
X114196904Y-83510476D01*
X114244523Y-83415238D01*
X114339761Y-83320000D01*
X114482619Y-83272380D01*
X114577857Y-83272380D01*
X114720714Y-83320000D01*
X114768333Y-83367619D01*
X115625476Y-83605714D02*
X115625476Y-84272380D01*
X115387380Y-83224761D02*
X115149285Y-83939047D01*
X115768333Y-83939047D01*
X82272142Y-112706666D02*
X82319761Y-112754285D01*
X82367380Y-112897142D01*
X82367380Y-112992380D01*
X82319761Y-113135238D01*
X82224523Y-113230476D01*
X82129285Y-113278095D01*
X81938809Y-113325714D01*
X81795952Y-113325714D01*
X81605476Y-113278095D01*
X81510238Y-113230476D01*
X81415000Y-113135238D01*
X81367380Y-112992380D01*
X81367380Y-112897142D01*
X81415000Y-112754285D01*
X81462619Y-112706666D01*
X81367380Y-112373333D02*
X81367380Y-111754285D01*
X81748333Y-112087619D01*
X81748333Y-111944761D01*
X81795952Y-111849523D01*
X81843571Y-111801904D01*
X81938809Y-111754285D01*
X82176904Y-111754285D01*
X82272142Y-111801904D01*
X82319761Y-111849523D01*
X82367380Y-111944761D01*
X82367380Y-112230476D01*
X82319761Y-112325714D01*
X82272142Y-112373333D01*
X78462142Y-112706666D02*
X78509761Y-112754285D01*
X78557380Y-112897142D01*
X78557380Y-112992380D01*
X78509761Y-113135238D01*
X78414523Y-113230476D01*
X78319285Y-113278095D01*
X78128809Y-113325714D01*
X77985952Y-113325714D01*
X77795476Y-113278095D01*
X77700238Y-113230476D01*
X77605000Y-113135238D01*
X77557380Y-112992380D01*
X77557380Y-112897142D01*
X77605000Y-112754285D01*
X77652619Y-112706666D01*
X78557380Y-111754285D02*
X78557380Y-112325714D01*
X78557380Y-112040000D02*
X77557380Y-112040000D01*
X77700238Y-112135238D01*
X77795476Y-112230476D01*
X77843095Y-112325714D01*
X80367142Y-112706666D02*
X80414761Y-112754285D01*
X80462380Y-112897142D01*
X80462380Y-112992380D01*
X80414761Y-113135238D01*
X80319523Y-113230476D01*
X80224285Y-113278095D01*
X80033809Y-113325714D01*
X79890952Y-113325714D01*
X79700476Y-113278095D01*
X79605238Y-113230476D01*
X79510000Y-113135238D01*
X79462380Y-112992380D01*
X79462380Y-112897142D01*
X79510000Y-112754285D01*
X79557619Y-112706666D01*
X79557619Y-112325714D02*
X79510000Y-112278095D01*
X79462380Y-112182857D01*
X79462380Y-111944761D01*
X79510000Y-111849523D01*
X79557619Y-111801904D01*
X79652857Y-111754285D01*
X79748095Y-111754285D01*
X79890952Y-111801904D01*
X80462380Y-112373333D01*
X80462380Y-111754285D01*
X85248809Y-113641190D02*
X85248809Y-114117380D01*
X84915476Y-113117380D02*
X85248809Y-113641190D01*
X85582142Y-113117380D01*
X86439285Y-114117380D02*
X85867857Y-114117380D01*
X86153571Y-114117380D02*
X86153571Y-113117380D01*
X86058333Y-113260238D01*
X85963095Y-113355476D01*
X85867857Y-113403095D01*
X133858095Y-125182380D02*
X133858095Y-125991904D01*
X133905714Y-126087142D01*
X133953333Y-126134761D01*
X134048571Y-126182380D01*
X134239047Y-126182380D01*
X134334285Y-126134761D01*
X134381904Y-126087142D01*
X134429523Y-125991904D01*
X134429523Y-125182380D01*
X134810476Y-125182380D02*
X135477142Y-125182380D01*
X135048571Y-126182380D01*
X62857142Y-123007380D02*
X62523809Y-122531190D01*
X62285714Y-123007380D02*
X62285714Y-122007380D01*
X62666666Y-122007380D01*
X62761904Y-122055000D01*
X62809523Y-122102619D01*
X62857142Y-122197857D01*
X62857142Y-122340714D01*
X62809523Y-122435952D01*
X62761904Y-122483571D01*
X62666666Y-122531190D01*
X62285714Y-122531190D01*
X63761904Y-122007380D02*
X63285714Y-122007380D01*
X63238095Y-122483571D01*
X63285714Y-122435952D01*
X63380952Y-122388333D01*
X63619047Y-122388333D01*
X63714285Y-122435952D01*
X63761904Y-122483571D01*
X63809523Y-122578809D01*
X63809523Y-122816904D01*
X63761904Y-122912142D01*
X63714285Y-122959761D01*
X63619047Y-123007380D01*
X63380952Y-123007380D01*
X63285714Y-122959761D01*
X63238095Y-122912142D01*
X64142857Y-122007380D02*
X64809523Y-122007380D01*
X64380952Y-123007380D01*
X67937142Y-123007380D02*
X67603809Y-122531190D01*
X67365714Y-123007380D02*
X67365714Y-122007380D01*
X67746666Y-122007380D01*
X67841904Y-122055000D01*
X67889523Y-122102619D01*
X67937142Y-122197857D01*
X67937142Y-122340714D01*
X67889523Y-122435952D01*
X67841904Y-122483571D01*
X67746666Y-122531190D01*
X67365714Y-122531190D01*
X68841904Y-122007380D02*
X68365714Y-122007380D01*
X68318095Y-122483571D01*
X68365714Y-122435952D01*
X68460952Y-122388333D01*
X68699047Y-122388333D01*
X68794285Y-122435952D01*
X68841904Y-122483571D01*
X68889523Y-122578809D01*
X68889523Y-122816904D01*
X68841904Y-122912142D01*
X68794285Y-122959761D01*
X68699047Y-123007380D01*
X68460952Y-123007380D01*
X68365714Y-122959761D01*
X68318095Y-122912142D01*
X69746666Y-122007380D02*
X69556190Y-122007380D01*
X69460952Y-122055000D01*
X69413333Y-122102619D01*
X69318095Y-122245476D01*
X69270476Y-122435952D01*
X69270476Y-122816904D01*
X69318095Y-122912142D01*
X69365714Y-122959761D01*
X69460952Y-123007380D01*
X69651428Y-123007380D01*
X69746666Y-122959761D01*
X69794285Y-122912142D01*
X69841904Y-122816904D01*
X69841904Y-122578809D01*
X69794285Y-122483571D01*
X69746666Y-122435952D01*
X69651428Y-122388333D01*
X69460952Y-122388333D01*
X69365714Y-122435952D01*
X69318095Y-122483571D01*
X69270476Y-122578809D01*
X198747142Y-123007380D02*
X198413809Y-122531190D01*
X198175714Y-123007380D02*
X198175714Y-122007380D01*
X198556666Y-122007380D01*
X198651904Y-122055000D01*
X198699523Y-122102619D01*
X198747142Y-122197857D01*
X198747142Y-122340714D01*
X198699523Y-122435952D01*
X198651904Y-122483571D01*
X198556666Y-122531190D01*
X198175714Y-122531190D01*
X199651904Y-122007380D02*
X199175714Y-122007380D01*
X199128095Y-122483571D01*
X199175714Y-122435952D01*
X199270952Y-122388333D01*
X199509047Y-122388333D01*
X199604285Y-122435952D01*
X199651904Y-122483571D01*
X199699523Y-122578809D01*
X199699523Y-122816904D01*
X199651904Y-122912142D01*
X199604285Y-122959761D01*
X199509047Y-123007380D01*
X199270952Y-123007380D01*
X199175714Y-122959761D01*
X199128095Y-122912142D01*
X200604285Y-122007380D02*
X200128095Y-122007380D01*
X200080476Y-122483571D01*
X200128095Y-122435952D01*
X200223333Y-122388333D01*
X200461428Y-122388333D01*
X200556666Y-122435952D01*
X200604285Y-122483571D01*
X200651904Y-122578809D01*
X200651904Y-122816904D01*
X200604285Y-122912142D01*
X200556666Y-122959761D01*
X200461428Y-123007380D01*
X200223333Y-123007380D01*
X200128095Y-122959761D01*
X200080476Y-122912142D01*
X206367142Y-123007380D02*
X206033809Y-122531190D01*
X205795714Y-123007380D02*
X205795714Y-122007380D01*
X206176666Y-122007380D01*
X206271904Y-122055000D01*
X206319523Y-122102619D01*
X206367142Y-122197857D01*
X206367142Y-122340714D01*
X206319523Y-122435952D01*
X206271904Y-122483571D01*
X206176666Y-122531190D01*
X205795714Y-122531190D01*
X207271904Y-122007380D02*
X206795714Y-122007380D01*
X206748095Y-122483571D01*
X206795714Y-122435952D01*
X206890952Y-122388333D01*
X207129047Y-122388333D01*
X207224285Y-122435952D01*
X207271904Y-122483571D01*
X207319523Y-122578809D01*
X207319523Y-122816904D01*
X207271904Y-122912142D01*
X207224285Y-122959761D01*
X207129047Y-123007380D01*
X206890952Y-123007380D01*
X206795714Y-122959761D01*
X206748095Y-122912142D01*
X208176666Y-122340714D02*
X208176666Y-123007380D01*
X207938571Y-121959761D02*
X207700476Y-122674047D01*
X208319523Y-122674047D01*
X205732142Y-81097380D02*
X205398809Y-80621190D01*
X205160714Y-81097380D02*
X205160714Y-80097380D01*
X205541666Y-80097380D01*
X205636904Y-80145000D01*
X205684523Y-80192619D01*
X205732142Y-80287857D01*
X205732142Y-80430714D01*
X205684523Y-80525952D01*
X205636904Y-80573571D01*
X205541666Y-80621190D01*
X205160714Y-80621190D01*
X206636904Y-80097380D02*
X206160714Y-80097380D01*
X206113095Y-80573571D01*
X206160714Y-80525952D01*
X206255952Y-80478333D01*
X206494047Y-80478333D01*
X206589285Y-80525952D01*
X206636904Y-80573571D01*
X206684523Y-80668809D01*
X206684523Y-80906904D01*
X206636904Y-81002142D01*
X206589285Y-81049761D01*
X206494047Y-81097380D01*
X206255952Y-81097380D01*
X206160714Y-81049761D01*
X206113095Y-81002142D01*
X207017857Y-80097380D02*
X207636904Y-80097380D01*
X207303571Y-80478333D01*
X207446428Y-80478333D01*
X207541666Y-80525952D01*
X207589285Y-80573571D01*
X207636904Y-80668809D01*
X207636904Y-80906904D01*
X207589285Y-81002142D01*
X207541666Y-81049761D01*
X207446428Y-81097380D01*
X207160714Y-81097380D01*
X207065476Y-81049761D01*
X207017857Y-81002142D01*
X198747142Y-81097380D02*
X198413809Y-80621190D01*
X198175714Y-81097380D02*
X198175714Y-80097380D01*
X198556666Y-80097380D01*
X198651904Y-80145000D01*
X198699523Y-80192619D01*
X198747142Y-80287857D01*
X198747142Y-80430714D01*
X198699523Y-80525952D01*
X198651904Y-80573571D01*
X198556666Y-80621190D01*
X198175714Y-80621190D01*
X199651904Y-80097380D02*
X199175714Y-80097380D01*
X199128095Y-80573571D01*
X199175714Y-80525952D01*
X199270952Y-80478333D01*
X199509047Y-80478333D01*
X199604285Y-80525952D01*
X199651904Y-80573571D01*
X199699523Y-80668809D01*
X199699523Y-80906904D01*
X199651904Y-81002142D01*
X199604285Y-81049761D01*
X199509047Y-81097380D01*
X199270952Y-81097380D01*
X199175714Y-81049761D01*
X199128095Y-81002142D01*
X200080476Y-80192619D02*
X200128095Y-80145000D01*
X200223333Y-80097380D01*
X200461428Y-80097380D01*
X200556666Y-80145000D01*
X200604285Y-80192619D01*
X200651904Y-80287857D01*
X200651904Y-80383095D01*
X200604285Y-80525952D01*
X200032857Y-81097380D01*
X200651904Y-81097380D01*
X67937142Y-81097380D02*
X67603809Y-80621190D01*
X67365714Y-81097380D02*
X67365714Y-80097380D01*
X67746666Y-80097380D01*
X67841904Y-80145000D01*
X67889523Y-80192619D01*
X67937142Y-80287857D01*
X67937142Y-80430714D01*
X67889523Y-80525952D01*
X67841904Y-80573571D01*
X67746666Y-80621190D01*
X67365714Y-80621190D01*
X68841904Y-80097380D02*
X68365714Y-80097380D01*
X68318095Y-80573571D01*
X68365714Y-80525952D01*
X68460952Y-80478333D01*
X68699047Y-80478333D01*
X68794285Y-80525952D01*
X68841904Y-80573571D01*
X68889523Y-80668809D01*
X68889523Y-80906904D01*
X68841904Y-81002142D01*
X68794285Y-81049761D01*
X68699047Y-81097380D01*
X68460952Y-81097380D01*
X68365714Y-81049761D01*
X68318095Y-81002142D01*
X69841904Y-81097380D02*
X69270476Y-81097380D01*
X69556190Y-81097380D02*
X69556190Y-80097380D01*
X69460952Y-80240238D01*
X69365714Y-80335476D01*
X69270476Y-80383095D01*
X62857142Y-81097380D02*
X62523809Y-80621190D01*
X62285714Y-81097380D02*
X62285714Y-80097380D01*
X62666666Y-80097380D01*
X62761904Y-80145000D01*
X62809523Y-80192619D01*
X62857142Y-80287857D01*
X62857142Y-80430714D01*
X62809523Y-80525952D01*
X62761904Y-80573571D01*
X62666666Y-80621190D01*
X62285714Y-80621190D01*
X63761904Y-80097380D02*
X63285714Y-80097380D01*
X63238095Y-80573571D01*
X63285714Y-80525952D01*
X63380952Y-80478333D01*
X63619047Y-80478333D01*
X63714285Y-80525952D01*
X63761904Y-80573571D01*
X63809523Y-80668809D01*
X63809523Y-80906904D01*
X63761904Y-81002142D01*
X63714285Y-81049761D01*
X63619047Y-81097380D01*
X63380952Y-81097380D01*
X63285714Y-81049761D01*
X63238095Y-81002142D01*
X64428571Y-80097380D02*
X64523809Y-80097380D01*
X64619047Y-80145000D01*
X64666666Y-80192619D01*
X64714285Y-80287857D01*
X64761904Y-80478333D01*
X64761904Y-80716428D01*
X64714285Y-80906904D01*
X64666666Y-81002142D01*
X64619047Y-81049761D01*
X64523809Y-81097380D01*
X64428571Y-81097380D01*
X64333333Y-81049761D01*
X64285714Y-81002142D01*
X64238095Y-80906904D01*
X64190476Y-80716428D01*
X64190476Y-80478333D01*
X64238095Y-80287857D01*
X64285714Y-80192619D01*
X64333333Y-80145000D01*
X64428571Y-80097380D01*
X104592380Y-116212857D02*
X104116190Y-116546190D01*
X104592380Y-116784285D02*
X103592380Y-116784285D01*
X103592380Y-116403333D01*
X103640000Y-116308095D01*
X103687619Y-116260476D01*
X103782857Y-116212857D01*
X103925714Y-116212857D01*
X104020952Y-116260476D01*
X104068571Y-116308095D01*
X104116190Y-116403333D01*
X104116190Y-116784285D01*
X103925714Y-115355714D02*
X104592380Y-115355714D01*
X103544761Y-115593809D02*
X104259047Y-115831904D01*
X104259047Y-115212857D01*
X103592380Y-114927142D02*
X103592380Y-114260476D01*
X104592380Y-114689047D01*
X112212380Y-116212857D02*
X111736190Y-116546190D01*
X112212380Y-116784285D02*
X111212380Y-116784285D01*
X111212380Y-116403333D01*
X111260000Y-116308095D01*
X111307619Y-116260476D01*
X111402857Y-116212857D01*
X111545714Y-116212857D01*
X111640952Y-116260476D01*
X111688571Y-116308095D01*
X111736190Y-116403333D01*
X111736190Y-116784285D01*
X111545714Y-115355714D02*
X112212380Y-115355714D01*
X111164761Y-115593809D02*
X111879047Y-115831904D01*
X111879047Y-115212857D01*
X111212380Y-114403333D02*
X111212380Y-114593809D01*
X111260000Y-114689047D01*
X111307619Y-114736666D01*
X111450476Y-114831904D01*
X111640952Y-114879523D01*
X112021904Y-114879523D01*
X112117142Y-114831904D01*
X112164761Y-114784285D01*
X112212380Y-114689047D01*
X112212380Y-114498571D01*
X112164761Y-114403333D01*
X112117142Y-114355714D01*
X112021904Y-114308095D01*
X111783809Y-114308095D01*
X111688571Y-114355714D01*
X111640952Y-114403333D01*
X111593333Y-114498571D01*
X111593333Y-114689047D01*
X111640952Y-114784285D01*
X111688571Y-114831904D01*
X111783809Y-114879523D01*
X102052380Y-116212857D02*
X101576190Y-116546190D01*
X102052380Y-116784285D02*
X101052380Y-116784285D01*
X101052380Y-116403333D01*
X101100000Y-116308095D01*
X101147619Y-116260476D01*
X101242857Y-116212857D01*
X101385714Y-116212857D01*
X101480952Y-116260476D01*
X101528571Y-116308095D01*
X101576190Y-116403333D01*
X101576190Y-116784285D01*
X101385714Y-115355714D02*
X102052380Y-115355714D01*
X101004761Y-115593809D02*
X101719047Y-115831904D01*
X101719047Y-115212857D01*
X101052380Y-114355714D02*
X101052380Y-114831904D01*
X101528571Y-114879523D01*
X101480952Y-114831904D01*
X101433333Y-114736666D01*
X101433333Y-114498571D01*
X101480952Y-114403333D01*
X101528571Y-114355714D01*
X101623809Y-114308095D01*
X101861904Y-114308095D01*
X101957142Y-114355714D01*
X102004761Y-114403333D01*
X102052380Y-114498571D01*
X102052380Y-114736666D01*
X102004761Y-114831904D01*
X101957142Y-114879523D01*
X94432380Y-116212857D02*
X93956190Y-116546190D01*
X94432380Y-116784285D02*
X93432380Y-116784285D01*
X93432380Y-116403333D01*
X93480000Y-116308095D01*
X93527619Y-116260476D01*
X93622857Y-116212857D01*
X93765714Y-116212857D01*
X93860952Y-116260476D01*
X93908571Y-116308095D01*
X93956190Y-116403333D01*
X93956190Y-116784285D01*
X93765714Y-115355714D02*
X94432380Y-115355714D01*
X93384761Y-115593809D02*
X94099047Y-115831904D01*
X94099047Y-115212857D01*
X93765714Y-114403333D02*
X94432380Y-114403333D01*
X93384761Y-114641428D02*
X94099047Y-114879523D01*
X94099047Y-114260476D01*
X96972380Y-116212857D02*
X96496190Y-116546190D01*
X96972380Y-116784285D02*
X95972380Y-116784285D01*
X95972380Y-116403333D01*
X96020000Y-116308095D01*
X96067619Y-116260476D01*
X96162857Y-116212857D01*
X96305714Y-116212857D01*
X96400952Y-116260476D01*
X96448571Y-116308095D01*
X96496190Y-116403333D01*
X96496190Y-116784285D01*
X96305714Y-115355714D02*
X96972380Y-115355714D01*
X95924761Y-115593809D02*
X96639047Y-115831904D01*
X96639047Y-115212857D01*
X95972380Y-114927142D02*
X95972380Y-114308095D01*
X96353333Y-114641428D01*
X96353333Y-114498571D01*
X96400952Y-114403333D01*
X96448571Y-114355714D01*
X96543809Y-114308095D01*
X96781904Y-114308095D01*
X96877142Y-114355714D01*
X96924761Y-114403333D01*
X96972380Y-114498571D01*
X96972380Y-114784285D01*
X96924761Y-114879523D01*
X96877142Y-114927142D01*
X107132380Y-116212857D02*
X106656190Y-116546190D01*
X107132380Y-116784285D02*
X106132380Y-116784285D01*
X106132380Y-116403333D01*
X106180000Y-116308095D01*
X106227619Y-116260476D01*
X106322857Y-116212857D01*
X106465714Y-116212857D01*
X106560952Y-116260476D01*
X106608571Y-116308095D01*
X106656190Y-116403333D01*
X106656190Y-116784285D01*
X106465714Y-115355714D02*
X107132380Y-115355714D01*
X106084761Y-115593809D02*
X106799047Y-115831904D01*
X106799047Y-115212857D01*
X106227619Y-114879523D02*
X106180000Y-114831904D01*
X106132380Y-114736666D01*
X106132380Y-114498571D01*
X106180000Y-114403333D01*
X106227619Y-114355714D01*
X106322857Y-114308095D01*
X106418095Y-114308095D01*
X106560952Y-114355714D01*
X107132380Y-114927142D01*
X107132380Y-114308095D01*
X109672380Y-116212857D02*
X109196190Y-116546190D01*
X109672380Y-116784285D02*
X108672380Y-116784285D01*
X108672380Y-116403333D01*
X108720000Y-116308095D01*
X108767619Y-116260476D01*
X108862857Y-116212857D01*
X109005714Y-116212857D01*
X109100952Y-116260476D01*
X109148571Y-116308095D01*
X109196190Y-116403333D01*
X109196190Y-116784285D01*
X109005714Y-115355714D02*
X109672380Y-115355714D01*
X108624761Y-115593809D02*
X109339047Y-115831904D01*
X109339047Y-115212857D01*
X109672380Y-114308095D02*
X109672380Y-114879523D01*
X109672380Y-114593809D02*
X108672380Y-114593809D01*
X108815238Y-114689047D01*
X108910476Y-114784285D01*
X108958095Y-114879523D01*
X99512380Y-116212857D02*
X99036190Y-116546190D01*
X99512380Y-116784285D02*
X98512380Y-116784285D01*
X98512380Y-116403333D01*
X98560000Y-116308095D01*
X98607619Y-116260476D01*
X98702857Y-116212857D01*
X98845714Y-116212857D01*
X98940952Y-116260476D01*
X98988571Y-116308095D01*
X99036190Y-116403333D01*
X99036190Y-116784285D01*
X98845714Y-115355714D02*
X99512380Y-115355714D01*
X98464761Y-115593809D02*
X99179047Y-115831904D01*
X99179047Y-115212857D01*
X98512380Y-114641428D02*
X98512380Y-114546190D01*
X98560000Y-114450952D01*
X98607619Y-114403333D01*
X98702857Y-114355714D01*
X98893333Y-114308095D01*
X99131428Y-114308095D01*
X99321904Y-114355714D01*
X99417142Y-114403333D01*
X99464761Y-114450952D01*
X99512380Y-114546190D01*
X99512380Y-114641428D01*
X99464761Y-114736666D01*
X99417142Y-114784285D01*
X99321904Y-114831904D01*
X99131428Y-114879523D01*
X98893333Y-114879523D01*
X98702857Y-114831904D01*
X98607619Y-114784285D01*
X98560000Y-114736666D01*
X98512380Y-114641428D01*
X168092380Y-116212857D02*
X167616190Y-116546190D01*
X168092380Y-116784285D02*
X167092380Y-116784285D01*
X167092380Y-116403333D01*
X167140000Y-116308095D01*
X167187619Y-116260476D01*
X167282857Y-116212857D01*
X167425714Y-116212857D01*
X167520952Y-116260476D01*
X167568571Y-116308095D01*
X167616190Y-116403333D01*
X167616190Y-116784285D01*
X167092380Y-115879523D02*
X167092380Y-115260476D01*
X167473333Y-115593809D01*
X167473333Y-115450952D01*
X167520952Y-115355714D01*
X167568571Y-115308095D01*
X167663809Y-115260476D01*
X167901904Y-115260476D01*
X167997142Y-115308095D01*
X168044761Y-115355714D01*
X168092380Y-115450952D01*
X168092380Y-115736666D01*
X168044761Y-115831904D01*
X167997142Y-115879523D01*
X167092380Y-114927142D02*
X167092380Y-114260476D01*
X168092380Y-114689047D01*
X175712380Y-116212857D02*
X175236190Y-116546190D01*
X175712380Y-116784285D02*
X174712380Y-116784285D01*
X174712380Y-116403333D01*
X174760000Y-116308095D01*
X174807619Y-116260476D01*
X174902857Y-116212857D01*
X175045714Y-116212857D01*
X175140952Y-116260476D01*
X175188571Y-116308095D01*
X175236190Y-116403333D01*
X175236190Y-116784285D01*
X174712380Y-115879523D02*
X174712380Y-115260476D01*
X175093333Y-115593809D01*
X175093333Y-115450952D01*
X175140952Y-115355714D01*
X175188571Y-115308095D01*
X175283809Y-115260476D01*
X175521904Y-115260476D01*
X175617142Y-115308095D01*
X175664761Y-115355714D01*
X175712380Y-115450952D01*
X175712380Y-115736666D01*
X175664761Y-115831904D01*
X175617142Y-115879523D01*
X174712380Y-114403333D02*
X174712380Y-114593809D01*
X174760000Y-114689047D01*
X174807619Y-114736666D01*
X174950476Y-114831904D01*
X175140952Y-114879523D01*
X175521904Y-114879523D01*
X175617142Y-114831904D01*
X175664761Y-114784285D01*
X175712380Y-114689047D01*
X175712380Y-114498571D01*
X175664761Y-114403333D01*
X175617142Y-114355714D01*
X175521904Y-114308095D01*
X175283809Y-114308095D01*
X175188571Y-114355714D01*
X175140952Y-114403333D01*
X175093333Y-114498571D01*
X175093333Y-114689047D01*
X175140952Y-114784285D01*
X175188571Y-114831904D01*
X175283809Y-114879523D01*
X165552380Y-116212857D02*
X165076190Y-116546190D01*
X165552380Y-116784285D02*
X164552380Y-116784285D01*
X164552380Y-116403333D01*
X164600000Y-116308095D01*
X164647619Y-116260476D01*
X164742857Y-116212857D01*
X164885714Y-116212857D01*
X164980952Y-116260476D01*
X165028571Y-116308095D01*
X165076190Y-116403333D01*
X165076190Y-116784285D01*
X164552380Y-115879523D02*
X164552380Y-115260476D01*
X164933333Y-115593809D01*
X164933333Y-115450952D01*
X164980952Y-115355714D01*
X165028571Y-115308095D01*
X165123809Y-115260476D01*
X165361904Y-115260476D01*
X165457142Y-115308095D01*
X165504761Y-115355714D01*
X165552380Y-115450952D01*
X165552380Y-115736666D01*
X165504761Y-115831904D01*
X165457142Y-115879523D01*
X164552380Y-114355714D02*
X164552380Y-114831904D01*
X165028571Y-114879523D01*
X164980952Y-114831904D01*
X164933333Y-114736666D01*
X164933333Y-114498571D01*
X164980952Y-114403333D01*
X165028571Y-114355714D01*
X165123809Y-114308095D01*
X165361904Y-114308095D01*
X165457142Y-114355714D01*
X165504761Y-114403333D01*
X165552380Y-114498571D01*
X165552380Y-114736666D01*
X165504761Y-114831904D01*
X165457142Y-114879523D01*
X157932380Y-116212857D02*
X157456190Y-116546190D01*
X157932380Y-116784285D02*
X156932380Y-116784285D01*
X156932380Y-116403333D01*
X156980000Y-116308095D01*
X157027619Y-116260476D01*
X157122857Y-116212857D01*
X157265714Y-116212857D01*
X157360952Y-116260476D01*
X157408571Y-116308095D01*
X157456190Y-116403333D01*
X157456190Y-116784285D01*
X156932380Y-115879523D02*
X156932380Y-115260476D01*
X157313333Y-115593809D01*
X157313333Y-115450952D01*
X157360952Y-115355714D01*
X157408571Y-115308095D01*
X157503809Y-115260476D01*
X157741904Y-115260476D01*
X157837142Y-115308095D01*
X157884761Y-115355714D01*
X157932380Y-115450952D01*
X157932380Y-115736666D01*
X157884761Y-115831904D01*
X157837142Y-115879523D01*
X157265714Y-114403333D02*
X157932380Y-114403333D01*
X156884761Y-114641428D02*
X157599047Y-114879523D01*
X157599047Y-114260476D01*
X160472380Y-116212857D02*
X159996190Y-116546190D01*
X160472380Y-116784285D02*
X159472380Y-116784285D01*
X159472380Y-116403333D01*
X159520000Y-116308095D01*
X159567619Y-116260476D01*
X159662857Y-116212857D01*
X159805714Y-116212857D01*
X159900952Y-116260476D01*
X159948571Y-116308095D01*
X159996190Y-116403333D01*
X159996190Y-116784285D01*
X159472380Y-115879523D02*
X159472380Y-115260476D01*
X159853333Y-115593809D01*
X159853333Y-115450952D01*
X159900952Y-115355714D01*
X159948571Y-115308095D01*
X160043809Y-115260476D01*
X160281904Y-115260476D01*
X160377142Y-115308095D01*
X160424761Y-115355714D01*
X160472380Y-115450952D01*
X160472380Y-115736666D01*
X160424761Y-115831904D01*
X160377142Y-115879523D01*
X159472380Y-114927142D02*
X159472380Y-114308095D01*
X159853333Y-114641428D01*
X159853333Y-114498571D01*
X159900952Y-114403333D01*
X159948571Y-114355714D01*
X160043809Y-114308095D01*
X160281904Y-114308095D01*
X160377142Y-114355714D01*
X160424761Y-114403333D01*
X160472380Y-114498571D01*
X160472380Y-114784285D01*
X160424761Y-114879523D01*
X160377142Y-114927142D01*
X170632380Y-116212857D02*
X170156190Y-116546190D01*
X170632380Y-116784285D02*
X169632380Y-116784285D01*
X169632380Y-116403333D01*
X169680000Y-116308095D01*
X169727619Y-116260476D01*
X169822857Y-116212857D01*
X169965714Y-116212857D01*
X170060952Y-116260476D01*
X170108571Y-116308095D01*
X170156190Y-116403333D01*
X170156190Y-116784285D01*
X169632380Y-115879523D02*
X169632380Y-115260476D01*
X170013333Y-115593809D01*
X170013333Y-115450952D01*
X170060952Y-115355714D01*
X170108571Y-115308095D01*
X170203809Y-115260476D01*
X170441904Y-115260476D01*
X170537142Y-115308095D01*
X170584761Y-115355714D01*
X170632380Y-115450952D01*
X170632380Y-115736666D01*
X170584761Y-115831904D01*
X170537142Y-115879523D01*
X169727619Y-114879523D02*
X169680000Y-114831904D01*
X169632380Y-114736666D01*
X169632380Y-114498571D01*
X169680000Y-114403333D01*
X169727619Y-114355714D01*
X169822857Y-114308095D01*
X169918095Y-114308095D01*
X170060952Y-114355714D01*
X170632380Y-114927142D01*
X170632380Y-114308095D01*
X173172380Y-116212857D02*
X172696190Y-116546190D01*
X173172380Y-116784285D02*
X172172380Y-116784285D01*
X172172380Y-116403333D01*
X172220000Y-116308095D01*
X172267619Y-116260476D01*
X172362857Y-116212857D01*
X172505714Y-116212857D01*
X172600952Y-116260476D01*
X172648571Y-116308095D01*
X172696190Y-116403333D01*
X172696190Y-116784285D01*
X172172380Y-115879523D02*
X172172380Y-115260476D01*
X172553333Y-115593809D01*
X172553333Y-115450952D01*
X172600952Y-115355714D01*
X172648571Y-115308095D01*
X172743809Y-115260476D01*
X172981904Y-115260476D01*
X173077142Y-115308095D01*
X173124761Y-115355714D01*
X173172380Y-115450952D01*
X173172380Y-115736666D01*
X173124761Y-115831904D01*
X173077142Y-115879523D01*
X173172380Y-114308095D02*
X173172380Y-114879523D01*
X173172380Y-114593809D02*
X172172380Y-114593809D01*
X172315238Y-114689047D01*
X172410476Y-114784285D01*
X172458095Y-114879523D01*
X163012380Y-116212857D02*
X162536190Y-116546190D01*
X163012380Y-116784285D02*
X162012380Y-116784285D01*
X162012380Y-116403333D01*
X162060000Y-116308095D01*
X162107619Y-116260476D01*
X162202857Y-116212857D01*
X162345714Y-116212857D01*
X162440952Y-116260476D01*
X162488571Y-116308095D01*
X162536190Y-116403333D01*
X162536190Y-116784285D01*
X162012380Y-115879523D02*
X162012380Y-115260476D01*
X162393333Y-115593809D01*
X162393333Y-115450952D01*
X162440952Y-115355714D01*
X162488571Y-115308095D01*
X162583809Y-115260476D01*
X162821904Y-115260476D01*
X162917142Y-115308095D01*
X162964761Y-115355714D01*
X163012380Y-115450952D01*
X163012380Y-115736666D01*
X162964761Y-115831904D01*
X162917142Y-115879523D01*
X162012380Y-114641428D02*
X162012380Y-114546190D01*
X162060000Y-114450952D01*
X162107619Y-114403333D01*
X162202857Y-114355714D01*
X162393333Y-114308095D01*
X162631428Y-114308095D01*
X162821904Y-114355714D01*
X162917142Y-114403333D01*
X162964761Y-114450952D01*
X163012380Y-114546190D01*
X163012380Y-114641428D01*
X162964761Y-114736666D01*
X162917142Y-114784285D01*
X162821904Y-114831904D01*
X162631428Y-114879523D01*
X162393333Y-114879523D01*
X162202857Y-114831904D01*
X162107619Y-114784285D01*
X162060000Y-114736666D01*
X162012380Y-114641428D01*
X165552380Y-88272857D02*
X165076190Y-88606190D01*
X165552380Y-88844285D02*
X164552380Y-88844285D01*
X164552380Y-88463333D01*
X164600000Y-88368095D01*
X164647619Y-88320476D01*
X164742857Y-88272857D01*
X164885714Y-88272857D01*
X164980952Y-88320476D01*
X165028571Y-88368095D01*
X165076190Y-88463333D01*
X165076190Y-88844285D01*
X164647619Y-87891904D02*
X164600000Y-87844285D01*
X164552380Y-87749047D01*
X164552380Y-87510952D01*
X164600000Y-87415714D01*
X164647619Y-87368095D01*
X164742857Y-87320476D01*
X164838095Y-87320476D01*
X164980952Y-87368095D01*
X165552380Y-87939523D01*
X165552380Y-87320476D01*
X164552380Y-86987142D02*
X164552380Y-86320476D01*
X165552380Y-86749047D01*
X157932380Y-88272857D02*
X157456190Y-88606190D01*
X157932380Y-88844285D02*
X156932380Y-88844285D01*
X156932380Y-88463333D01*
X156980000Y-88368095D01*
X157027619Y-88320476D01*
X157122857Y-88272857D01*
X157265714Y-88272857D01*
X157360952Y-88320476D01*
X157408571Y-88368095D01*
X157456190Y-88463333D01*
X157456190Y-88844285D01*
X157027619Y-87891904D02*
X156980000Y-87844285D01*
X156932380Y-87749047D01*
X156932380Y-87510952D01*
X156980000Y-87415714D01*
X157027619Y-87368095D01*
X157122857Y-87320476D01*
X157218095Y-87320476D01*
X157360952Y-87368095D01*
X157932380Y-87939523D01*
X157932380Y-87320476D01*
X156932380Y-86463333D02*
X156932380Y-86653809D01*
X156980000Y-86749047D01*
X157027619Y-86796666D01*
X157170476Y-86891904D01*
X157360952Y-86939523D01*
X157741904Y-86939523D01*
X157837142Y-86891904D01*
X157884761Y-86844285D01*
X157932380Y-86749047D01*
X157932380Y-86558571D01*
X157884761Y-86463333D01*
X157837142Y-86415714D01*
X157741904Y-86368095D01*
X157503809Y-86368095D01*
X157408571Y-86415714D01*
X157360952Y-86463333D01*
X157313333Y-86558571D01*
X157313333Y-86749047D01*
X157360952Y-86844285D01*
X157408571Y-86891904D01*
X157503809Y-86939523D01*
X168092380Y-88272857D02*
X167616190Y-88606190D01*
X168092380Y-88844285D02*
X167092380Y-88844285D01*
X167092380Y-88463333D01*
X167140000Y-88368095D01*
X167187619Y-88320476D01*
X167282857Y-88272857D01*
X167425714Y-88272857D01*
X167520952Y-88320476D01*
X167568571Y-88368095D01*
X167616190Y-88463333D01*
X167616190Y-88844285D01*
X167187619Y-87891904D02*
X167140000Y-87844285D01*
X167092380Y-87749047D01*
X167092380Y-87510952D01*
X167140000Y-87415714D01*
X167187619Y-87368095D01*
X167282857Y-87320476D01*
X167378095Y-87320476D01*
X167520952Y-87368095D01*
X168092380Y-87939523D01*
X168092380Y-87320476D01*
X167092380Y-86415714D02*
X167092380Y-86891904D01*
X167568571Y-86939523D01*
X167520952Y-86891904D01*
X167473333Y-86796666D01*
X167473333Y-86558571D01*
X167520952Y-86463333D01*
X167568571Y-86415714D01*
X167663809Y-86368095D01*
X167901904Y-86368095D01*
X167997142Y-86415714D01*
X168044761Y-86463333D01*
X168092380Y-86558571D01*
X168092380Y-86796666D01*
X168044761Y-86891904D01*
X167997142Y-86939523D01*
X175712380Y-88272857D02*
X175236190Y-88606190D01*
X175712380Y-88844285D02*
X174712380Y-88844285D01*
X174712380Y-88463333D01*
X174760000Y-88368095D01*
X174807619Y-88320476D01*
X174902857Y-88272857D01*
X175045714Y-88272857D01*
X175140952Y-88320476D01*
X175188571Y-88368095D01*
X175236190Y-88463333D01*
X175236190Y-88844285D01*
X174807619Y-87891904D02*
X174760000Y-87844285D01*
X174712380Y-87749047D01*
X174712380Y-87510952D01*
X174760000Y-87415714D01*
X174807619Y-87368095D01*
X174902857Y-87320476D01*
X174998095Y-87320476D01*
X175140952Y-87368095D01*
X175712380Y-87939523D01*
X175712380Y-87320476D01*
X175045714Y-86463333D02*
X175712380Y-86463333D01*
X174664761Y-86701428D02*
X175379047Y-86939523D01*
X175379047Y-86320476D01*
X173172380Y-88272857D02*
X172696190Y-88606190D01*
X173172380Y-88844285D02*
X172172380Y-88844285D01*
X172172380Y-88463333D01*
X172220000Y-88368095D01*
X172267619Y-88320476D01*
X172362857Y-88272857D01*
X172505714Y-88272857D01*
X172600952Y-88320476D01*
X172648571Y-88368095D01*
X172696190Y-88463333D01*
X172696190Y-88844285D01*
X172267619Y-87891904D02*
X172220000Y-87844285D01*
X172172380Y-87749047D01*
X172172380Y-87510952D01*
X172220000Y-87415714D01*
X172267619Y-87368095D01*
X172362857Y-87320476D01*
X172458095Y-87320476D01*
X172600952Y-87368095D01*
X173172380Y-87939523D01*
X173172380Y-87320476D01*
X172172380Y-86987142D02*
X172172380Y-86368095D01*
X172553333Y-86701428D01*
X172553333Y-86558571D01*
X172600952Y-86463333D01*
X172648571Y-86415714D01*
X172743809Y-86368095D01*
X172981904Y-86368095D01*
X173077142Y-86415714D01*
X173124761Y-86463333D01*
X173172380Y-86558571D01*
X173172380Y-86844285D01*
X173124761Y-86939523D01*
X173077142Y-86987142D01*
X163012380Y-88272857D02*
X162536190Y-88606190D01*
X163012380Y-88844285D02*
X162012380Y-88844285D01*
X162012380Y-88463333D01*
X162060000Y-88368095D01*
X162107619Y-88320476D01*
X162202857Y-88272857D01*
X162345714Y-88272857D01*
X162440952Y-88320476D01*
X162488571Y-88368095D01*
X162536190Y-88463333D01*
X162536190Y-88844285D01*
X162107619Y-87891904D02*
X162060000Y-87844285D01*
X162012380Y-87749047D01*
X162012380Y-87510952D01*
X162060000Y-87415714D01*
X162107619Y-87368095D01*
X162202857Y-87320476D01*
X162298095Y-87320476D01*
X162440952Y-87368095D01*
X163012380Y-87939523D01*
X163012380Y-87320476D01*
X162107619Y-86939523D02*
X162060000Y-86891904D01*
X162012380Y-86796666D01*
X162012380Y-86558571D01*
X162060000Y-86463333D01*
X162107619Y-86415714D01*
X162202857Y-86368095D01*
X162298095Y-86368095D01*
X162440952Y-86415714D01*
X163012380Y-86987142D01*
X163012380Y-86368095D01*
X160472380Y-88272857D02*
X159996190Y-88606190D01*
X160472380Y-88844285D02*
X159472380Y-88844285D01*
X159472380Y-88463333D01*
X159520000Y-88368095D01*
X159567619Y-88320476D01*
X159662857Y-88272857D01*
X159805714Y-88272857D01*
X159900952Y-88320476D01*
X159948571Y-88368095D01*
X159996190Y-88463333D01*
X159996190Y-88844285D01*
X159567619Y-87891904D02*
X159520000Y-87844285D01*
X159472380Y-87749047D01*
X159472380Y-87510952D01*
X159520000Y-87415714D01*
X159567619Y-87368095D01*
X159662857Y-87320476D01*
X159758095Y-87320476D01*
X159900952Y-87368095D01*
X160472380Y-87939523D01*
X160472380Y-87320476D01*
X160472380Y-86368095D02*
X160472380Y-86939523D01*
X160472380Y-86653809D02*
X159472380Y-86653809D01*
X159615238Y-86749047D01*
X159710476Y-86844285D01*
X159758095Y-86939523D01*
X170632380Y-88272857D02*
X170156190Y-88606190D01*
X170632380Y-88844285D02*
X169632380Y-88844285D01*
X169632380Y-88463333D01*
X169680000Y-88368095D01*
X169727619Y-88320476D01*
X169822857Y-88272857D01*
X169965714Y-88272857D01*
X170060952Y-88320476D01*
X170108571Y-88368095D01*
X170156190Y-88463333D01*
X170156190Y-88844285D01*
X169727619Y-87891904D02*
X169680000Y-87844285D01*
X169632380Y-87749047D01*
X169632380Y-87510952D01*
X169680000Y-87415714D01*
X169727619Y-87368095D01*
X169822857Y-87320476D01*
X169918095Y-87320476D01*
X170060952Y-87368095D01*
X170632380Y-87939523D01*
X170632380Y-87320476D01*
X169632380Y-86701428D02*
X169632380Y-86606190D01*
X169680000Y-86510952D01*
X169727619Y-86463333D01*
X169822857Y-86415714D01*
X170013333Y-86368095D01*
X170251428Y-86368095D01*
X170441904Y-86415714D01*
X170537142Y-86463333D01*
X170584761Y-86510952D01*
X170632380Y-86606190D01*
X170632380Y-86701428D01*
X170584761Y-86796666D01*
X170537142Y-86844285D01*
X170441904Y-86891904D01*
X170251428Y-86939523D01*
X170013333Y-86939523D01*
X169822857Y-86891904D01*
X169727619Y-86844285D01*
X169680000Y-86796666D01*
X169632380Y-86701428D01*
X102052380Y-88272857D02*
X101576190Y-88606190D01*
X102052380Y-88844285D02*
X101052380Y-88844285D01*
X101052380Y-88463333D01*
X101100000Y-88368095D01*
X101147619Y-88320476D01*
X101242857Y-88272857D01*
X101385714Y-88272857D01*
X101480952Y-88320476D01*
X101528571Y-88368095D01*
X101576190Y-88463333D01*
X101576190Y-88844285D01*
X102052380Y-87320476D02*
X102052380Y-87891904D01*
X102052380Y-87606190D02*
X101052380Y-87606190D01*
X101195238Y-87701428D01*
X101290476Y-87796666D01*
X101338095Y-87891904D01*
X101052380Y-86987142D02*
X101052380Y-86320476D01*
X102052380Y-86749047D01*
X96972380Y-88272857D02*
X96496190Y-88606190D01*
X96972380Y-88844285D02*
X95972380Y-88844285D01*
X95972380Y-88463333D01*
X96020000Y-88368095D01*
X96067619Y-88320476D01*
X96162857Y-88272857D01*
X96305714Y-88272857D01*
X96400952Y-88320476D01*
X96448571Y-88368095D01*
X96496190Y-88463333D01*
X96496190Y-88844285D01*
X96972380Y-87320476D02*
X96972380Y-87891904D01*
X96972380Y-87606190D02*
X95972380Y-87606190D01*
X96115238Y-87701428D01*
X96210476Y-87796666D01*
X96258095Y-87891904D01*
X95972380Y-86463333D02*
X95972380Y-86653809D01*
X96020000Y-86749047D01*
X96067619Y-86796666D01*
X96210476Y-86891904D01*
X96400952Y-86939523D01*
X96781904Y-86939523D01*
X96877142Y-86891904D01*
X96924761Y-86844285D01*
X96972380Y-86749047D01*
X96972380Y-86558571D01*
X96924761Y-86463333D01*
X96877142Y-86415714D01*
X96781904Y-86368095D01*
X96543809Y-86368095D01*
X96448571Y-86415714D01*
X96400952Y-86463333D01*
X96353333Y-86558571D01*
X96353333Y-86749047D01*
X96400952Y-86844285D01*
X96448571Y-86891904D01*
X96543809Y-86939523D01*
X104592380Y-88272857D02*
X104116190Y-88606190D01*
X104592380Y-88844285D02*
X103592380Y-88844285D01*
X103592380Y-88463333D01*
X103640000Y-88368095D01*
X103687619Y-88320476D01*
X103782857Y-88272857D01*
X103925714Y-88272857D01*
X104020952Y-88320476D01*
X104068571Y-88368095D01*
X104116190Y-88463333D01*
X104116190Y-88844285D01*
X104592380Y-87320476D02*
X104592380Y-87891904D01*
X104592380Y-87606190D02*
X103592380Y-87606190D01*
X103735238Y-87701428D01*
X103830476Y-87796666D01*
X103878095Y-87891904D01*
X103592380Y-86415714D02*
X103592380Y-86891904D01*
X104068571Y-86939523D01*
X104020952Y-86891904D01*
X103973333Y-86796666D01*
X103973333Y-86558571D01*
X104020952Y-86463333D01*
X104068571Y-86415714D01*
X104163809Y-86368095D01*
X104401904Y-86368095D01*
X104497142Y-86415714D01*
X104544761Y-86463333D01*
X104592380Y-86558571D01*
X104592380Y-86796666D01*
X104544761Y-86891904D01*
X104497142Y-86939523D01*
X112212380Y-88272857D02*
X111736190Y-88606190D01*
X112212380Y-88844285D02*
X111212380Y-88844285D01*
X111212380Y-88463333D01*
X111260000Y-88368095D01*
X111307619Y-88320476D01*
X111402857Y-88272857D01*
X111545714Y-88272857D01*
X111640952Y-88320476D01*
X111688571Y-88368095D01*
X111736190Y-88463333D01*
X111736190Y-88844285D01*
X112212380Y-87320476D02*
X112212380Y-87891904D01*
X112212380Y-87606190D02*
X111212380Y-87606190D01*
X111355238Y-87701428D01*
X111450476Y-87796666D01*
X111498095Y-87891904D01*
X111545714Y-86463333D02*
X112212380Y-86463333D01*
X111164761Y-86701428D02*
X111879047Y-86939523D01*
X111879047Y-86320476D01*
X109672380Y-88272857D02*
X109196190Y-88606190D01*
X109672380Y-88844285D02*
X108672380Y-88844285D01*
X108672380Y-88463333D01*
X108720000Y-88368095D01*
X108767619Y-88320476D01*
X108862857Y-88272857D01*
X109005714Y-88272857D01*
X109100952Y-88320476D01*
X109148571Y-88368095D01*
X109196190Y-88463333D01*
X109196190Y-88844285D01*
X109672380Y-87320476D02*
X109672380Y-87891904D01*
X109672380Y-87606190D02*
X108672380Y-87606190D01*
X108815238Y-87701428D01*
X108910476Y-87796666D01*
X108958095Y-87891904D01*
X108672380Y-86987142D02*
X108672380Y-86368095D01*
X109053333Y-86701428D01*
X109053333Y-86558571D01*
X109100952Y-86463333D01*
X109148571Y-86415714D01*
X109243809Y-86368095D01*
X109481904Y-86368095D01*
X109577142Y-86415714D01*
X109624761Y-86463333D01*
X109672380Y-86558571D01*
X109672380Y-86844285D01*
X109624761Y-86939523D01*
X109577142Y-86987142D01*
X99512380Y-88272857D02*
X99036190Y-88606190D01*
X99512380Y-88844285D02*
X98512380Y-88844285D01*
X98512380Y-88463333D01*
X98560000Y-88368095D01*
X98607619Y-88320476D01*
X98702857Y-88272857D01*
X98845714Y-88272857D01*
X98940952Y-88320476D01*
X98988571Y-88368095D01*
X99036190Y-88463333D01*
X99036190Y-88844285D01*
X99512380Y-87320476D02*
X99512380Y-87891904D01*
X99512380Y-87606190D02*
X98512380Y-87606190D01*
X98655238Y-87701428D01*
X98750476Y-87796666D01*
X98798095Y-87891904D01*
X98607619Y-86939523D02*
X98560000Y-86891904D01*
X98512380Y-86796666D01*
X98512380Y-86558571D01*
X98560000Y-86463333D01*
X98607619Y-86415714D01*
X98702857Y-86368095D01*
X98798095Y-86368095D01*
X98940952Y-86415714D01*
X99512380Y-86987142D01*
X99512380Y-86368095D01*
X94432380Y-88272857D02*
X93956190Y-88606190D01*
X94432380Y-88844285D02*
X93432380Y-88844285D01*
X93432380Y-88463333D01*
X93480000Y-88368095D01*
X93527619Y-88320476D01*
X93622857Y-88272857D01*
X93765714Y-88272857D01*
X93860952Y-88320476D01*
X93908571Y-88368095D01*
X93956190Y-88463333D01*
X93956190Y-88844285D01*
X94432380Y-87320476D02*
X94432380Y-87891904D01*
X94432380Y-87606190D02*
X93432380Y-87606190D01*
X93575238Y-87701428D01*
X93670476Y-87796666D01*
X93718095Y-87891904D01*
X94432380Y-86368095D02*
X94432380Y-86939523D01*
X94432380Y-86653809D02*
X93432380Y-86653809D01*
X93575238Y-86749047D01*
X93670476Y-86844285D01*
X93718095Y-86939523D01*
X107132380Y-88272857D02*
X106656190Y-88606190D01*
X107132380Y-88844285D02*
X106132380Y-88844285D01*
X106132380Y-88463333D01*
X106180000Y-88368095D01*
X106227619Y-88320476D01*
X106322857Y-88272857D01*
X106465714Y-88272857D01*
X106560952Y-88320476D01*
X106608571Y-88368095D01*
X106656190Y-88463333D01*
X106656190Y-88844285D01*
X107132380Y-87320476D02*
X107132380Y-87891904D01*
X107132380Y-87606190D02*
X106132380Y-87606190D01*
X106275238Y-87701428D01*
X106370476Y-87796666D01*
X106418095Y-87891904D01*
X106132380Y-86701428D02*
X106132380Y-86606190D01*
X106180000Y-86510952D01*
X106227619Y-86463333D01*
X106322857Y-86415714D01*
X106513333Y-86368095D01*
X106751428Y-86368095D01*
X106941904Y-86415714D01*
X107037142Y-86463333D01*
X107084761Y-86510952D01*
X107132380Y-86606190D01*
X107132380Y-86701428D01*
X107084761Y-86796666D01*
X107037142Y-86844285D01*
X106941904Y-86891904D01*
X106751428Y-86939523D01*
X106513333Y-86939523D01*
X106322857Y-86891904D01*
X106227619Y-86844285D01*
X106180000Y-86796666D01*
X106132380Y-86701428D01*
X129373333Y-141422380D02*
X129040000Y-140946190D01*
X128801904Y-141422380D02*
X128801904Y-140422380D01*
X129182857Y-140422380D01*
X129278095Y-140470000D01*
X129325714Y-140517619D01*
X129373333Y-140612857D01*
X129373333Y-140755714D01*
X129325714Y-140850952D01*
X129278095Y-140898571D01*
X129182857Y-140946190D01*
X128801904Y-140946190D01*
X130278095Y-140422380D02*
X129801904Y-140422380D01*
X129754285Y-140898571D01*
X129801904Y-140850952D01*
X129897142Y-140803333D01*
X130135238Y-140803333D01*
X130230476Y-140850952D01*
X130278095Y-140898571D01*
X130325714Y-140993809D01*
X130325714Y-141231904D01*
X130278095Y-141327142D01*
X130230476Y-141374761D01*
X130135238Y-141422380D01*
X129897142Y-141422380D01*
X129801904Y-141374761D01*
X129754285Y-141327142D01*
X139533333Y-63317380D02*
X139200000Y-62841190D01*
X138961904Y-63317380D02*
X138961904Y-62317380D01*
X139342857Y-62317380D01*
X139438095Y-62365000D01*
X139485714Y-62412619D01*
X139533333Y-62507857D01*
X139533333Y-62650714D01*
X139485714Y-62745952D01*
X139438095Y-62793571D01*
X139342857Y-62841190D01*
X138961904Y-62841190D01*
X140390476Y-62650714D02*
X140390476Y-63317380D01*
X140152380Y-62269761D02*
X139914285Y-62984047D01*
X140533333Y-62984047D01*
X81097380Y-86036666D02*
X80621190Y-86370000D01*
X81097380Y-86608095D02*
X80097380Y-86608095D01*
X80097380Y-86227142D01*
X80145000Y-86131904D01*
X80192619Y-86084285D01*
X80287857Y-86036666D01*
X80430714Y-86036666D01*
X80525952Y-86084285D01*
X80573571Y-86131904D01*
X80621190Y-86227142D01*
X80621190Y-86608095D01*
X81097380Y-85084285D02*
X81097380Y-85655714D01*
X81097380Y-85370000D02*
X80097380Y-85370000D01*
X80240238Y-85465238D01*
X80335476Y-85560476D01*
X80383095Y-85655714D01*
X77136666Y-90892380D02*
X77136666Y-91606666D01*
X77089047Y-91749523D01*
X76993809Y-91844761D01*
X76850952Y-91892380D01*
X76755714Y-91892380D01*
X77565238Y-90987619D02*
X77612857Y-90940000D01*
X77708095Y-90892380D01*
X77946190Y-90892380D01*
X78041428Y-90940000D01*
X78089047Y-90987619D01*
X78136666Y-91082857D01*
X78136666Y-91178095D01*
X78089047Y-91320952D01*
X77517619Y-91892380D01*
X78136666Y-91892380D01*
X189738095Y-117562380D02*
X189738095Y-118371904D01*
X189785714Y-118467142D01*
X189833333Y-118514761D01*
X189928571Y-118562380D01*
X190119047Y-118562380D01*
X190214285Y-118514761D01*
X190261904Y-118467142D01*
X190309523Y-118371904D01*
X190309523Y-117562380D01*
X191214285Y-117895714D02*
X191214285Y-118562380D01*
X190976190Y-117514761D02*
X190738095Y-118229047D01*
X191357142Y-118229047D01*
X139628571Y-102004761D02*
X139676190Y-101861904D01*
X139723809Y-101814285D01*
X139819047Y-101766666D01*
X139961904Y-101766666D01*
X140057142Y-101814285D01*
X140104761Y-101861904D01*
X140152380Y-101957142D01*
X140152380Y-102338095D01*
X139152380Y-102338095D01*
X139152380Y-102004761D01*
X139200000Y-101909523D01*
X139247619Y-101861904D01*
X139342857Y-101814285D01*
X139438095Y-101814285D01*
X139533333Y-101861904D01*
X139580952Y-101909523D01*
X139628571Y-102004761D01*
X139628571Y-102338095D01*
X139247619Y-101385714D02*
X139200000Y-101338095D01*
X139152380Y-101242857D01*
X139152380Y-101004761D01*
X139200000Y-100909523D01*
X139247619Y-100861904D01*
X139342857Y-100814285D01*
X139438095Y-100814285D01*
X139580952Y-100861904D01*
X140152380Y-101433333D01*
X140152380Y-100814285D01*
X100734761Y-102933333D02*
X100782380Y-102790476D01*
X100782380Y-102552380D01*
X100734761Y-102457142D01*
X100687142Y-102409523D01*
X100591904Y-102361904D01*
X100496666Y-102361904D01*
X100401428Y-102409523D01*
X100353809Y-102457142D01*
X100306190Y-102552380D01*
X100258571Y-102742857D01*
X100210952Y-102838095D01*
X100163333Y-102885714D01*
X100068095Y-102933333D01*
X99972857Y-102933333D01*
X99877619Y-102885714D01*
X99830000Y-102838095D01*
X99782380Y-102742857D01*
X99782380Y-102504761D01*
X99830000Y-102361904D01*
X99782380Y-102028571D02*
X100782380Y-101790476D01*
X100068095Y-101600000D01*
X100782380Y-101409523D01*
X99782380Y-101171428D01*
X99877619Y-100838095D02*
X99830000Y-100790476D01*
X99782380Y-100695238D01*
X99782380Y-100457142D01*
X99830000Y-100361904D01*
X99877619Y-100314285D01*
X99972857Y-100266666D01*
X100068095Y-100266666D01*
X100210952Y-100314285D01*
X100782380Y-100885714D01*
X100782380Y-100266666D01*
X61999761Y-107378333D02*
X62047380Y-107235476D01*
X62047380Y-106997380D01*
X61999761Y-106902142D01*
X61952142Y-106854523D01*
X61856904Y-106806904D01*
X61761666Y-106806904D01*
X61666428Y-106854523D01*
X61618809Y-106902142D01*
X61571190Y-106997380D01*
X61523571Y-107187857D01*
X61475952Y-107283095D01*
X61428333Y-107330714D01*
X61333095Y-107378333D01*
X61237857Y-107378333D01*
X61142619Y-107330714D01*
X61095000Y-107283095D01*
X61047380Y-107187857D01*
X61047380Y-106949761D01*
X61095000Y-106806904D01*
X61047380Y-106473571D02*
X62047380Y-106235476D01*
X61333095Y-106045000D01*
X62047380Y-105854523D01*
X61047380Y-105616428D01*
X62047380Y-104711666D02*
X62047380Y-105283095D01*
X62047380Y-104997380D02*
X61047380Y-104997380D01*
X61190238Y-105092619D01*
X61285476Y-105187857D01*
X61333095Y-105283095D01*
M02*
