G04 #@! TF.GenerationSoftware,KiCad,Pcbnew,(5.1.8)-1*
G04 #@! TF.CreationDate,2021-11-24T22:08:46-05:00*
G04 #@! TF.ProjectId,mtg_life_counter,6d74675f-6c69-4666-955f-636f756e7465,2.0*
G04 #@! TF.SameCoordinates,Original*
G04 #@! TF.FileFunction,Legend,Bot*
G04 #@! TF.FilePolarity,Positive*
%FSLAX46Y46*%
G04 Gerber Fmt 4.6, Leading zero omitted, Abs format (unit mm)*
G04 Created by KiCad (PCBNEW (5.1.8)-1) date 2021-11-24 22:08:46*
%MOMM*%
%LPD*%
G01*
G04 APERTURE LIST*
%ADD10C,0.150000*%
%ADD11C,0.300000*%
%ADD12C,0.120000*%
G04 APERTURE END LIST*
D10*
X53887619Y-78279047D02*
X53173333Y-78279047D01*
X53030476Y-78326666D01*
X52935238Y-78421904D01*
X52887619Y-78564761D01*
X52887619Y-78660000D01*
X52887619Y-77326666D02*
X52887619Y-77802857D01*
X53887619Y-77802857D01*
X52982857Y-76421904D02*
X52935238Y-76469523D01*
X52887619Y-76612380D01*
X52887619Y-76707619D01*
X52935238Y-76850476D01*
X53030476Y-76945714D01*
X53125714Y-76993333D01*
X53316190Y-77040952D01*
X53459047Y-77040952D01*
X53649523Y-76993333D01*
X53744761Y-76945714D01*
X53840000Y-76850476D01*
X53887619Y-76707619D01*
X53887619Y-76612380D01*
X53840000Y-76469523D01*
X53792380Y-76421904D01*
X53887619Y-75707619D02*
X53173333Y-75707619D01*
X53030476Y-75755238D01*
X52935238Y-75850476D01*
X52887619Y-75993333D01*
X52887619Y-76088571D01*
X52887619Y-74755238D02*
X52887619Y-75231428D01*
X53887619Y-75231428D01*
X52982857Y-73850476D02*
X52935238Y-73898095D01*
X52887619Y-74040952D01*
X52887619Y-74136190D01*
X52935238Y-74279047D01*
X53030476Y-74374285D01*
X53125714Y-74421904D01*
X53316190Y-74469523D01*
X53459047Y-74469523D01*
X53649523Y-74421904D01*
X53744761Y-74374285D01*
X53840000Y-74279047D01*
X53887619Y-74136190D01*
X53887619Y-74040952D01*
X53840000Y-73898095D01*
X53792380Y-73850476D01*
X53887619Y-73136190D02*
X53173333Y-73136190D01*
X53030476Y-73183809D01*
X52935238Y-73279047D01*
X52887619Y-73421904D01*
X52887619Y-73517142D01*
X52887619Y-72183809D02*
X52887619Y-72660000D01*
X53887619Y-72660000D01*
X52982857Y-71279047D02*
X52935238Y-71326666D01*
X52887619Y-71469523D01*
X52887619Y-71564761D01*
X52935238Y-71707619D01*
X53030476Y-71802857D01*
X53125714Y-71850476D01*
X53316190Y-71898095D01*
X53459047Y-71898095D01*
X53649523Y-71850476D01*
X53744761Y-71802857D01*
X53840000Y-71707619D01*
X53887619Y-71564761D01*
X53887619Y-71469523D01*
X53840000Y-71326666D01*
X53792380Y-71279047D01*
X53887619Y-70564761D02*
X53173333Y-70564761D01*
X53030476Y-70612380D01*
X52935238Y-70707619D01*
X52887619Y-70850476D01*
X52887619Y-70945714D01*
X52887619Y-69612380D02*
X52887619Y-70088571D01*
X53887619Y-70088571D01*
X52982857Y-68707619D02*
X52935238Y-68755238D01*
X52887619Y-68898095D01*
X52887619Y-68993333D01*
X52935238Y-69136190D01*
X53030476Y-69231428D01*
X53125714Y-69279047D01*
X53316190Y-69326666D01*
X53459047Y-69326666D01*
X53649523Y-69279047D01*
X53744761Y-69231428D01*
X53840000Y-69136190D01*
X53887619Y-68993333D01*
X53887619Y-68898095D01*
X53840000Y-68755238D01*
X53792380Y-68707619D01*
D11*
X150284285Y-112367142D02*
X150070000Y-112438571D01*
X149712857Y-112438571D01*
X149570000Y-112367142D01*
X149498571Y-112295714D01*
X149427142Y-112152857D01*
X149427142Y-112010000D01*
X149498571Y-111867142D01*
X149570000Y-111795714D01*
X149712857Y-111724285D01*
X149998571Y-111652857D01*
X150141428Y-111581428D01*
X150212857Y-111510000D01*
X150284285Y-111367142D01*
X150284285Y-111224285D01*
X150212857Y-111081428D01*
X150141428Y-111010000D01*
X149998571Y-110938571D01*
X149641428Y-110938571D01*
X149427142Y-111010000D01*
X148212857Y-112367142D02*
X148355714Y-112438571D01*
X148641428Y-112438571D01*
X148784285Y-112367142D01*
X148855714Y-112224285D01*
X148855714Y-111652857D01*
X148784285Y-111510000D01*
X148641428Y-111438571D01*
X148355714Y-111438571D01*
X148212857Y-111510000D01*
X148141428Y-111652857D01*
X148141428Y-111795714D01*
X148855714Y-111938571D01*
X147498571Y-112438571D02*
X147498571Y-111438571D01*
X147498571Y-111724285D02*
X147427142Y-111581428D01*
X147355714Y-111510000D01*
X147212857Y-111438571D01*
X147070000Y-111438571D01*
X146570000Y-112438571D02*
X146570000Y-111438571D01*
X146570000Y-110938571D02*
X146641428Y-111010000D01*
X146570000Y-111081428D01*
X146498571Y-111010000D01*
X146570000Y-110938571D01*
X146570000Y-111081428D01*
X145212857Y-112438571D02*
X145212857Y-111652857D01*
X145284285Y-111510000D01*
X145427142Y-111438571D01*
X145712857Y-111438571D01*
X145855714Y-111510000D01*
X145212857Y-112367142D02*
X145355714Y-112438571D01*
X145712857Y-112438571D01*
X145855714Y-112367142D01*
X145927142Y-112224285D01*
X145927142Y-112081428D01*
X145855714Y-111938571D01*
X145712857Y-111867142D01*
X145355714Y-111867142D01*
X145212857Y-111795714D01*
X144284285Y-112438571D02*
X144427142Y-112367142D01*
X144498571Y-112224285D01*
X144498571Y-110938571D01*
X194438571Y-101003571D02*
X194438571Y-99503571D01*
X193938571Y-100575000D01*
X193438571Y-99503571D01*
X193438571Y-101003571D01*
X192081428Y-101003571D02*
X192081428Y-100217857D01*
X192152857Y-100075000D01*
X192295714Y-100003571D01*
X192581428Y-100003571D01*
X192724285Y-100075000D01*
X192081428Y-100932142D02*
X192224285Y-101003571D01*
X192581428Y-101003571D01*
X192724285Y-100932142D01*
X192795714Y-100789285D01*
X192795714Y-100646428D01*
X192724285Y-100503571D01*
X192581428Y-100432142D01*
X192224285Y-100432142D01*
X192081428Y-100360714D01*
X191510000Y-101003571D02*
X190724285Y-100003571D01*
X191510000Y-100003571D02*
X190724285Y-101003571D01*
X189010000Y-101003571D02*
X189010000Y-99503571D01*
X188438571Y-99503571D01*
X188295714Y-99575000D01*
X188224285Y-99646428D01*
X188152857Y-99789285D01*
X188152857Y-100003571D01*
X188224285Y-100146428D01*
X188295714Y-100217857D01*
X188438571Y-100289285D01*
X189010000Y-100289285D01*
X187510000Y-101003571D02*
X187510000Y-100003571D01*
X187510000Y-100289285D02*
X187438571Y-100146428D01*
X187367142Y-100075000D01*
X187224285Y-100003571D01*
X187081428Y-100003571D01*
X186367142Y-101003571D02*
X186510000Y-100932142D01*
X186581428Y-100860714D01*
X186652857Y-100717857D01*
X186652857Y-100289285D01*
X186581428Y-100146428D01*
X186510000Y-100075000D01*
X186367142Y-100003571D01*
X186152857Y-100003571D01*
X186010000Y-100075000D01*
X185938571Y-100146428D01*
X185867142Y-100289285D01*
X185867142Y-100717857D01*
X185938571Y-100860714D01*
X186010000Y-100932142D01*
X186152857Y-101003571D01*
X186367142Y-101003571D01*
X185295714Y-100932142D02*
X185152857Y-101003571D01*
X184867142Y-101003571D01*
X184724285Y-100932142D01*
X184652857Y-100789285D01*
X184652857Y-100717857D01*
X184724285Y-100575000D01*
X184867142Y-100503571D01*
X185081428Y-100503571D01*
X185224285Y-100432142D01*
X185295714Y-100289285D01*
X185295714Y-100217857D01*
X185224285Y-100075000D01*
X185081428Y-100003571D01*
X184867142Y-100003571D01*
X184724285Y-100075000D01*
X184010000Y-101003571D02*
X184010000Y-99503571D01*
X183867142Y-100432142D02*
X183438571Y-101003571D01*
X183438571Y-100003571D02*
X184010000Y-100575000D01*
X182152857Y-101003571D02*
X182152857Y-100217857D01*
X182224285Y-100075000D01*
X182367142Y-100003571D01*
X182652857Y-100003571D01*
X182795714Y-100075000D01*
X182152857Y-100932142D02*
X182295714Y-101003571D01*
X182652857Y-101003571D01*
X182795714Y-100932142D01*
X182867142Y-100789285D01*
X182867142Y-100646428D01*
X182795714Y-100503571D01*
X182652857Y-100432142D01*
X182295714Y-100432142D01*
X182152857Y-100360714D01*
X180795714Y-100003571D02*
X180795714Y-101003571D01*
X181438571Y-100003571D02*
X181438571Y-100789285D01*
X181367142Y-100932142D01*
X181224285Y-101003571D01*
X181010000Y-101003571D01*
X180867142Y-100932142D01*
X180795714Y-100860714D01*
X179510000Y-100932142D02*
X179652857Y-101003571D01*
X179938571Y-101003571D01*
X180081428Y-100932142D01*
X180152857Y-100789285D01*
X180152857Y-100217857D01*
X180081428Y-100075000D01*
X179938571Y-100003571D01*
X179652857Y-100003571D01*
X179510000Y-100075000D01*
X179438571Y-100217857D01*
X179438571Y-100360714D01*
X180152857Y-100503571D01*
X178795714Y-101003571D02*
X178795714Y-100003571D01*
X178795714Y-100289285D02*
X178724285Y-100146428D01*
X178652857Y-100075000D01*
X178510000Y-100003571D01*
X178367142Y-100003571D01*
X174581428Y-100003571D02*
X174224285Y-101003571D01*
X173867142Y-100003571D01*
X173367142Y-99646428D02*
X173295714Y-99575000D01*
X173152857Y-99503571D01*
X172795714Y-99503571D01*
X172652857Y-99575000D01*
X172581428Y-99646428D01*
X172510000Y-99789285D01*
X172510000Y-99932142D01*
X172581428Y-100146428D01*
X173438571Y-101003571D01*
X172510000Y-101003571D01*
X171867142Y-100860714D02*
X171795714Y-100932142D01*
X171867142Y-101003571D01*
X171938571Y-100932142D01*
X171867142Y-100860714D01*
X171867142Y-101003571D01*
X170867142Y-99503571D02*
X170724285Y-99503571D01*
X170581428Y-99575000D01*
X170510000Y-99646428D01*
X170438571Y-99789285D01*
X170367142Y-100075000D01*
X170367142Y-100432142D01*
X170438571Y-100717857D01*
X170510000Y-100860714D01*
X170581428Y-100932142D01*
X170724285Y-101003571D01*
X170867142Y-101003571D01*
X171010000Y-100932142D01*
X171081428Y-100860714D01*
X171152857Y-100717857D01*
X171224285Y-100432142D01*
X171224285Y-100075000D01*
X171152857Y-99789285D01*
X171081428Y-99646428D01*
X171010000Y-99575000D01*
X170867142Y-99503571D01*
X166295714Y-101003571D02*
X166295714Y-99503571D01*
X165938571Y-99503571D01*
X165724285Y-99575000D01*
X165581428Y-99717857D01*
X165510000Y-99860714D01*
X165438571Y-100146428D01*
X165438571Y-100360714D01*
X165510000Y-100646428D01*
X165581428Y-100789285D01*
X165724285Y-100932142D01*
X165938571Y-101003571D01*
X166295714Y-101003571D01*
X164224285Y-100932142D02*
X164367142Y-101003571D01*
X164652857Y-101003571D01*
X164795714Y-100932142D01*
X164867142Y-100789285D01*
X164867142Y-100217857D01*
X164795714Y-100075000D01*
X164652857Y-100003571D01*
X164367142Y-100003571D01*
X164224285Y-100075000D01*
X164152857Y-100217857D01*
X164152857Y-100360714D01*
X164867142Y-100503571D01*
X162867142Y-100932142D02*
X163010000Y-101003571D01*
X163295714Y-101003571D01*
X163438571Y-100932142D01*
X163510000Y-100860714D01*
X163581428Y-100717857D01*
X163581428Y-100289285D01*
X163510000Y-100146428D01*
X163438571Y-100075000D01*
X163295714Y-100003571D01*
X163010000Y-100003571D01*
X162867142Y-100075000D01*
X161152857Y-99646428D02*
X161081428Y-99575000D01*
X160938571Y-99503571D01*
X160581428Y-99503571D01*
X160438571Y-99575000D01*
X160367142Y-99646428D01*
X160295714Y-99789285D01*
X160295714Y-99932142D01*
X160367142Y-100146428D01*
X161224285Y-101003571D01*
X160295714Y-101003571D01*
X159367142Y-99503571D02*
X159224285Y-99503571D01*
X159081428Y-99575000D01*
X159010000Y-99646428D01*
X158938571Y-99789285D01*
X158867142Y-100075000D01*
X158867142Y-100432142D01*
X158938571Y-100717857D01*
X159010000Y-100860714D01*
X159081428Y-100932142D01*
X159224285Y-101003571D01*
X159367142Y-101003571D01*
X159510000Y-100932142D01*
X159581428Y-100860714D01*
X159652857Y-100717857D01*
X159724285Y-100432142D01*
X159724285Y-100075000D01*
X159652857Y-99789285D01*
X159581428Y-99646428D01*
X159510000Y-99575000D01*
X159367142Y-99503571D01*
X158295714Y-99646428D02*
X158224285Y-99575000D01*
X158081428Y-99503571D01*
X157724285Y-99503571D01*
X157581428Y-99575000D01*
X157510000Y-99646428D01*
X157438571Y-99789285D01*
X157438571Y-99932142D01*
X157510000Y-100146428D01*
X158367142Y-101003571D01*
X157438571Y-101003571D01*
X156010000Y-101003571D02*
X156867142Y-101003571D01*
X156438571Y-101003571D02*
X156438571Y-99503571D01*
X156581428Y-99717857D01*
X156724285Y-99860714D01*
X156867142Y-99932142D01*
X195331428Y-102553571D02*
X195331428Y-103767857D01*
X195402857Y-103910714D01*
X195474285Y-103982142D01*
X195617142Y-104053571D01*
X195831428Y-104053571D01*
X195974285Y-103982142D01*
X195331428Y-103482142D02*
X195474285Y-103553571D01*
X195760000Y-103553571D01*
X195902857Y-103482142D01*
X195974285Y-103410714D01*
X196045714Y-103267857D01*
X196045714Y-102839285D01*
X195974285Y-102696428D01*
X195902857Y-102625000D01*
X195760000Y-102553571D01*
X195474285Y-102553571D01*
X195331428Y-102625000D01*
X194617142Y-103553571D02*
X194617142Y-102553571D01*
X194617142Y-102053571D02*
X194688571Y-102125000D01*
X194617142Y-102196428D01*
X194545714Y-102125000D01*
X194617142Y-102053571D01*
X194617142Y-102196428D01*
X194117142Y-102553571D02*
X193545714Y-102553571D01*
X193902857Y-102053571D02*
X193902857Y-103339285D01*
X193831428Y-103482142D01*
X193688571Y-103553571D01*
X193545714Y-103553571D01*
X193045714Y-103553571D02*
X193045714Y-102053571D01*
X192402857Y-103553571D02*
X192402857Y-102767857D01*
X192474285Y-102625000D01*
X192617142Y-102553571D01*
X192831428Y-102553571D01*
X192974285Y-102625000D01*
X193045714Y-102696428D01*
X191045714Y-102553571D02*
X191045714Y-103553571D01*
X191688571Y-102553571D02*
X191688571Y-103339285D01*
X191617142Y-103482142D01*
X191474285Y-103553571D01*
X191260000Y-103553571D01*
X191117142Y-103482142D01*
X191045714Y-103410714D01*
X190331428Y-103553571D02*
X190331428Y-102053571D01*
X190331428Y-102625000D02*
X190188571Y-102553571D01*
X189902857Y-102553571D01*
X189760000Y-102625000D01*
X189688571Y-102696428D01*
X189617142Y-102839285D01*
X189617142Y-103267857D01*
X189688571Y-103410714D01*
X189760000Y-103482142D01*
X189902857Y-103553571D01*
X190188571Y-103553571D01*
X190331428Y-103482142D01*
X188974285Y-103410714D02*
X188902857Y-103482142D01*
X188974285Y-103553571D01*
X189045714Y-103482142D01*
X188974285Y-103410714D01*
X188974285Y-103553571D01*
X187617142Y-103482142D02*
X187760000Y-103553571D01*
X188045714Y-103553571D01*
X188188571Y-103482142D01*
X188260000Y-103410714D01*
X188331428Y-103267857D01*
X188331428Y-102839285D01*
X188260000Y-102696428D01*
X188188571Y-102625000D01*
X188045714Y-102553571D01*
X187760000Y-102553571D01*
X187617142Y-102625000D01*
X186760000Y-103553571D02*
X186902857Y-103482142D01*
X186974285Y-103410714D01*
X187045714Y-103267857D01*
X187045714Y-102839285D01*
X186974285Y-102696428D01*
X186902857Y-102625000D01*
X186760000Y-102553571D01*
X186545714Y-102553571D01*
X186402857Y-102625000D01*
X186331428Y-102696428D01*
X186260000Y-102839285D01*
X186260000Y-103267857D01*
X186331428Y-103410714D01*
X186402857Y-103482142D01*
X186545714Y-103553571D01*
X186760000Y-103553571D01*
X185617142Y-103553571D02*
X185617142Y-102553571D01*
X185617142Y-102696428D02*
X185545714Y-102625000D01*
X185402857Y-102553571D01*
X185188571Y-102553571D01*
X185045714Y-102625000D01*
X184974285Y-102767857D01*
X184974285Y-103553571D01*
X184974285Y-102767857D02*
X184902857Y-102625000D01*
X184760000Y-102553571D01*
X184545714Y-102553571D01*
X184402857Y-102625000D01*
X184331428Y-102767857D01*
X184331428Y-103553571D01*
X182545714Y-101982142D02*
X183831428Y-103910714D01*
X182045714Y-103553571D02*
X182045714Y-102553571D01*
X182045714Y-102696428D02*
X181974285Y-102625000D01*
X181831428Y-102553571D01*
X181617142Y-102553571D01*
X181474285Y-102625000D01*
X181402857Y-102767857D01*
X181402857Y-103553571D01*
X181402857Y-102767857D02*
X181331428Y-102625000D01*
X181188571Y-102553571D01*
X180974285Y-102553571D01*
X180831428Y-102625000D01*
X180760000Y-102767857D01*
X180760000Y-103553571D01*
X180045714Y-102553571D02*
X180045714Y-104053571D01*
X180045714Y-102625000D02*
X179902857Y-102553571D01*
X179617142Y-102553571D01*
X179474285Y-102625000D01*
X179402857Y-102696428D01*
X179331428Y-102839285D01*
X179331428Y-103267857D01*
X179402857Y-103410714D01*
X179474285Y-103482142D01*
X179617142Y-103553571D01*
X179902857Y-103553571D01*
X180045714Y-103482142D01*
X178688571Y-103553571D02*
X178688571Y-102553571D01*
X178688571Y-102839285D02*
X178617142Y-102696428D01*
X178545714Y-102625000D01*
X178402857Y-102553571D01*
X178260000Y-102553571D01*
X177545714Y-103553571D02*
X177688571Y-103482142D01*
X177760000Y-103410714D01*
X177831428Y-103267857D01*
X177831428Y-102839285D01*
X177760000Y-102696428D01*
X177688571Y-102625000D01*
X177545714Y-102553571D01*
X177331428Y-102553571D01*
X177188571Y-102625000D01*
X177117142Y-102696428D01*
X177045714Y-102839285D01*
X177045714Y-103267857D01*
X177117142Y-103410714D01*
X177188571Y-103482142D01*
X177331428Y-103553571D01*
X177545714Y-103553571D01*
X176474285Y-103482142D02*
X176331428Y-103553571D01*
X176045714Y-103553571D01*
X175902857Y-103482142D01*
X175831428Y-103339285D01*
X175831428Y-103267857D01*
X175902857Y-103125000D01*
X176045714Y-103053571D01*
X176260000Y-103053571D01*
X176402857Y-102982142D01*
X176474285Y-102839285D01*
X176474285Y-102767857D01*
X176402857Y-102625000D01*
X176260000Y-102553571D01*
X176045714Y-102553571D01*
X175902857Y-102625000D01*
X175188571Y-103553571D02*
X175188571Y-102053571D01*
X175045714Y-102982142D02*
X174617142Y-103553571D01*
X174617142Y-102553571D02*
X175188571Y-103125000D01*
X172902857Y-101982142D02*
X174188571Y-103910714D01*
X172402857Y-103553571D02*
X172402857Y-102553571D01*
X172402857Y-102696428D02*
X172331428Y-102625000D01*
X172188571Y-102553571D01*
X171974285Y-102553571D01*
X171831428Y-102625000D01*
X171760000Y-102767857D01*
X171760000Y-103553571D01*
X171760000Y-102767857D02*
X171688571Y-102625000D01*
X171545714Y-102553571D01*
X171331428Y-102553571D01*
X171188571Y-102625000D01*
X171117142Y-102767857D01*
X171117142Y-103553571D01*
X170617142Y-102553571D02*
X170045714Y-102553571D01*
X170402857Y-102053571D02*
X170402857Y-103339285D01*
X170331428Y-103482142D01*
X170188571Y-103553571D01*
X170045714Y-103553571D01*
X168902857Y-102553571D02*
X168902857Y-103767857D01*
X168974285Y-103910714D01*
X169045714Y-103982142D01*
X169188571Y-104053571D01*
X169402857Y-104053571D01*
X169545714Y-103982142D01*
X168902857Y-103482142D02*
X169045714Y-103553571D01*
X169331428Y-103553571D01*
X169474285Y-103482142D01*
X169545714Y-103410714D01*
X169617142Y-103267857D01*
X169617142Y-102839285D01*
X169545714Y-102696428D01*
X169474285Y-102625000D01*
X169331428Y-102553571D01*
X169045714Y-102553571D01*
X168902857Y-102625000D01*
X168545714Y-103696428D02*
X167402857Y-103696428D01*
X166831428Y-103553571D02*
X166974285Y-103482142D01*
X167045714Y-103339285D01*
X167045714Y-102053571D01*
X166260000Y-103553571D02*
X166260000Y-102553571D01*
X166260000Y-102053571D02*
X166331428Y-102125000D01*
X166260000Y-102196428D01*
X166188571Y-102125000D01*
X166260000Y-102053571D01*
X166260000Y-102196428D01*
X165760000Y-102553571D02*
X165188571Y-102553571D01*
X165545714Y-103553571D02*
X165545714Y-102267857D01*
X165474285Y-102125000D01*
X165331428Y-102053571D01*
X165188571Y-102053571D01*
X164117142Y-103482142D02*
X164260000Y-103553571D01*
X164545714Y-103553571D01*
X164688571Y-103482142D01*
X164760000Y-103339285D01*
X164760000Y-102767857D01*
X164688571Y-102625000D01*
X164545714Y-102553571D01*
X164260000Y-102553571D01*
X164117142Y-102625000D01*
X164045714Y-102767857D01*
X164045714Y-102910714D01*
X164760000Y-103053571D01*
X163760000Y-103696428D02*
X162617142Y-103696428D01*
X161617142Y-103482142D02*
X161760000Y-103553571D01*
X162045714Y-103553571D01*
X162188571Y-103482142D01*
X162260000Y-103410714D01*
X162331428Y-103267857D01*
X162331428Y-102839285D01*
X162260000Y-102696428D01*
X162188571Y-102625000D01*
X162045714Y-102553571D01*
X161760000Y-102553571D01*
X161617142Y-102625000D01*
X160760000Y-103553571D02*
X160902857Y-103482142D01*
X160974285Y-103410714D01*
X161045714Y-103267857D01*
X161045714Y-102839285D01*
X160974285Y-102696428D01*
X160902857Y-102625000D01*
X160760000Y-102553571D01*
X160545714Y-102553571D01*
X160402857Y-102625000D01*
X160331428Y-102696428D01*
X160260000Y-102839285D01*
X160260000Y-103267857D01*
X160331428Y-103410714D01*
X160402857Y-103482142D01*
X160545714Y-103553571D01*
X160760000Y-103553571D01*
X158974285Y-102553571D02*
X158974285Y-103553571D01*
X159617142Y-102553571D02*
X159617142Y-103339285D01*
X159545714Y-103482142D01*
X159402857Y-103553571D01*
X159188571Y-103553571D01*
X159045714Y-103482142D01*
X158974285Y-103410714D01*
X158260000Y-102553571D02*
X158260000Y-103553571D01*
X158260000Y-102696428D02*
X158188571Y-102625000D01*
X158045714Y-102553571D01*
X157831428Y-102553571D01*
X157688571Y-102625000D01*
X157617142Y-102767857D01*
X157617142Y-103553571D01*
X157117142Y-102553571D02*
X156545714Y-102553571D01*
X156902857Y-102053571D02*
X156902857Y-103339285D01*
X156831428Y-103482142D01*
X156688571Y-103553571D01*
X156545714Y-103553571D01*
X155474285Y-103482142D02*
X155617142Y-103553571D01*
X155902857Y-103553571D01*
X156045714Y-103482142D01*
X156117142Y-103339285D01*
X156117142Y-102767857D01*
X156045714Y-102625000D01*
X155902857Y-102553571D01*
X155617142Y-102553571D01*
X155474285Y-102625000D01*
X155402857Y-102767857D01*
X155402857Y-102910714D01*
X156117142Y-103053571D01*
X154760000Y-103553571D02*
X154760000Y-102553571D01*
X154760000Y-102839285D02*
X154688571Y-102696428D01*
X154617142Y-102625000D01*
X154474285Y-102553571D01*
X154331428Y-102553571D01*
D12*
X139700000Y-101600000D02*
G75*
G03*
X139700000Y-101600000I-5080000J0D01*
G01*
X218440000Y-55880000D02*
G75*
G02*
X213360000Y-50800000I-5080000J0D01*
G01*
X55880000Y-50800000D02*
G75*
G02*
X50800000Y-55880000I0J-5080000D01*
G01*
X50800000Y-147320000D02*
G75*
G02*
X55880000Y-152400000I5080000J0D01*
G01*
X213360000Y-152400000D02*
G75*
G02*
X218440000Y-147320000I0J5080000D01*
G01*
D10*
X56520000Y-120480000D02*
X60320000Y-120480000D01*
X60320000Y-120480000D02*
X60320000Y-118280000D01*
X60320000Y-118280000D02*
X56520000Y-118280000D01*
X56520000Y-118280000D02*
X56520000Y-120480000D01*
X56520000Y-115400000D02*
X60320000Y-115400000D01*
X60320000Y-115400000D02*
X60320000Y-113200000D01*
X60320000Y-113200000D02*
X56520000Y-113200000D01*
X56520000Y-113200000D02*
X56520000Y-115400000D01*
X56520000Y-117940000D02*
X60320000Y-117940000D01*
X60320000Y-117940000D02*
X60320000Y-115740000D01*
X60320000Y-115740000D02*
X56520000Y-115740000D01*
X56520000Y-115740000D02*
X56520000Y-117940000D01*
D12*
X97830000Y-94345000D02*
X97830000Y-92345000D01*
X95030000Y-94345000D02*
X97830000Y-94345000D01*
X95030000Y-92345000D02*
X95030000Y-94345000D01*
X97830000Y-92345000D02*
X95030000Y-92345000D01*
D10*
X63491904Y-118832380D02*
X62920476Y-118832380D01*
X63206190Y-119832380D02*
X63206190Y-118832380D01*
X62587142Y-119832380D02*
X62587142Y-118832380D01*
X62206190Y-118832380D01*
X62110952Y-118880000D01*
X62063333Y-118927619D01*
X62015714Y-119022857D01*
X62015714Y-119165714D01*
X62063333Y-119260952D01*
X62110952Y-119308571D01*
X62206190Y-119356190D01*
X62587142Y-119356190D01*
X61682380Y-118832380D02*
X61063333Y-118832380D01*
X61396666Y-119213333D01*
X61253809Y-119213333D01*
X61158571Y-119260952D01*
X61110952Y-119308571D01*
X61063333Y-119403809D01*
X61063333Y-119641904D01*
X61110952Y-119737142D01*
X61158571Y-119784761D01*
X61253809Y-119832380D01*
X61539523Y-119832380D01*
X61634761Y-119784761D01*
X61682380Y-119737142D01*
X55371904Y-118880000D02*
X55467142Y-118832380D01*
X55610000Y-118832380D01*
X55752857Y-118880000D01*
X55848095Y-118975238D01*
X55895714Y-119070476D01*
X55943333Y-119260952D01*
X55943333Y-119403809D01*
X55895714Y-119594285D01*
X55848095Y-119689523D01*
X55752857Y-119784761D01*
X55610000Y-119832380D01*
X55514761Y-119832380D01*
X55371904Y-119784761D01*
X55324285Y-119737142D01*
X55324285Y-119403809D01*
X55514761Y-119403809D01*
X54895714Y-119832380D02*
X54895714Y-118832380D01*
X54324285Y-119832380D01*
X54324285Y-118832380D01*
X53848095Y-119832380D02*
X53848095Y-118832380D01*
X53610000Y-118832380D01*
X53467142Y-118880000D01*
X53371904Y-118975238D01*
X53324285Y-119070476D01*
X53276666Y-119260952D01*
X53276666Y-119403809D01*
X53324285Y-119594285D01*
X53371904Y-119689523D01*
X53467142Y-119784761D01*
X53610000Y-119832380D01*
X53848095Y-119832380D01*
X63491904Y-113752380D02*
X62920476Y-113752380D01*
X63206190Y-114752380D02*
X63206190Y-113752380D01*
X62587142Y-114752380D02*
X62587142Y-113752380D01*
X62206190Y-113752380D01*
X62110952Y-113800000D01*
X62063333Y-113847619D01*
X62015714Y-113942857D01*
X62015714Y-114085714D01*
X62063333Y-114180952D01*
X62110952Y-114228571D01*
X62206190Y-114276190D01*
X62587142Y-114276190D01*
X61634761Y-113847619D02*
X61587142Y-113800000D01*
X61491904Y-113752380D01*
X61253809Y-113752380D01*
X61158571Y-113800000D01*
X61110952Y-113847619D01*
X61063333Y-113942857D01*
X61063333Y-114038095D01*
X61110952Y-114180952D01*
X61682380Y-114752380D01*
X61063333Y-114752380D01*
X54776666Y-114752380D02*
X55110000Y-114276190D01*
X55348095Y-114752380D02*
X55348095Y-113752380D01*
X54967142Y-113752380D01*
X54871904Y-113800000D01*
X54824285Y-113847619D01*
X54776666Y-113942857D01*
X54776666Y-114085714D01*
X54824285Y-114180952D01*
X54871904Y-114228571D01*
X54967142Y-114276190D01*
X55348095Y-114276190D01*
X54443333Y-113752380D02*
X53776666Y-114752380D01*
X53776666Y-113752380D02*
X54443333Y-114752380D01*
X63491904Y-116292380D02*
X62920476Y-116292380D01*
X63206190Y-117292380D02*
X63206190Y-116292380D01*
X62587142Y-117292380D02*
X62587142Y-116292380D01*
X62206190Y-116292380D01*
X62110952Y-116340000D01*
X62063333Y-116387619D01*
X62015714Y-116482857D01*
X62015714Y-116625714D01*
X62063333Y-116720952D01*
X62110952Y-116768571D01*
X62206190Y-116816190D01*
X62587142Y-116816190D01*
X61063333Y-117292380D02*
X61634761Y-117292380D01*
X61349047Y-117292380D02*
X61349047Y-116292380D01*
X61444285Y-116435238D01*
X61539523Y-116530476D01*
X61634761Y-116578095D01*
X55371904Y-116292380D02*
X54800476Y-116292380D01*
X55086190Y-117292380D02*
X55086190Y-116292380D01*
X54562380Y-116292380D02*
X53895714Y-117292380D01*
X53895714Y-116292380D02*
X54562380Y-117292380D01*
X97263333Y-95337380D02*
X97263333Y-96051666D01*
X97310952Y-96194523D01*
X97406190Y-96289761D01*
X97549047Y-96337380D01*
X97644285Y-96337380D01*
X96787142Y-96337380D02*
X96787142Y-95337380D01*
X96406190Y-95337380D01*
X96310952Y-95385000D01*
X96263333Y-95432619D01*
X96215714Y-95527857D01*
X96215714Y-95670714D01*
X96263333Y-95765952D01*
X96310952Y-95813571D01*
X96406190Y-95861190D01*
X96787142Y-95861190D01*
X95263333Y-96337380D02*
X95834761Y-96337380D01*
X95549047Y-96337380D02*
X95549047Y-95337380D01*
X95644285Y-95480238D01*
X95739523Y-95575476D01*
X95834761Y-95623095D01*
M02*
