M48
; DRILL file {KiCad (5.1.4)-1} date 12/8/2021 5:17:31 PM
; FORMAT={-:-/ absolute / inch / decimal}
; #@! TF.CreationDate,2021-12-08T17:17:31-05:00
; #@! TF.GenerationSoftware,Kicad,Pcbnew,(5.1.4)-1
; #@! TF.FileFunction,Plated,1,2,PTH
FMAT,2
INCH
T1C0.0157
T2C0.0197
T3C0.0236
T4C0.0315
T5C0.0394
T6C0.0472
T7C0.0591
T8C0.0709
T9C0.1260
%
G90
G05
T1
X2.075Y-2.35
X2.075Y-2.8
X2.075Y-3.225
X2.075Y-3.6
X2.075Y-3.95
X2.075Y-4.05
X2.075Y-4.4
X2.075Y-4.8
X2.075Y-5.175
X2.075Y-5.625
X2.1Y-3.7
X2.1Y-3.76
X2.1Y-4.235
X2.1Y-4.3
X2.125Y-3.9
X2.125Y-4.0
X2.125Y-4.1
X2.19Y-4.55
X2.19Y-4.65
X2.2Y-2.4
X2.2Y-3.975
X2.2Y-4.025
X2.2Y-5.6
X2.25Y-3.625
X2.25Y-4.375
X2.255Y-3.765
X2.255Y-4.235
X2.325Y-3.7
X2.325Y-3.75
X2.325Y-4.3
X2.33Y-3.85
X2.33Y-4.15
X2.4Y-2.075
X2.4Y-2.2
X2.4Y-3.675
X2.4Y-4.15
X2.4Y-5.8
X2.42Y-3.43
X2.465Y-3.75
X2.48Y-4.55
X2.5Y-2.575
X2.5Y-2.82
X2.5Y-5.2
X2.5Y-5.45
X2.575Y-2.3
X2.575Y-5.725
X2.6Y-2.9
X2.6Y-5.1
X2.625Y-2.25
X2.625Y-4.0
X2.625Y-5.775
X2.65Y-3.2
X2.65Y-3.775
X2.65Y-3.93
X2.65Y-4.065
X2.65Y-4.225
X2.65Y-4.825
X2.675Y-4.0
X2.68Y-5.66
X2.7Y-5.2
X2.7Y-5.45
X2.725Y-3.775
X2.725Y-4.0
X2.725Y-4.225
X2.75Y-2.575
X2.76Y-4.55
X2.775Y-5.1
X2.775Y-5.4
X2.79Y-5.56
X2.8Y-2.5
X2.8Y-4.5
X2.8Y-4.75
X2.815Y-4.0
X2.85Y-2.825
X2.85Y-3.15
X2.85Y-3.25
X2.85Y-3.5
X2.85Y-3.775
X2.85Y-4.6
X2.875Y-4.0
X2.9Y-2.075
X2.9Y-2.35
X2.9Y-5.45
X2.9Y-5.65
X2.925Y-5.94
X2.94Y-2.2
X2.94Y-3.93
X2.95Y-2.4
X2.95Y-2.73
X2.95Y-3.15
X2.95Y-3.25
X2.95Y-4.75
X2.95Y-5.825
X3.0Y-2.15
X3.0Y-3.2
X3.0Y-3.825
X3.0Y-4.275
X3.0Y-4.825
X3.0Y-5.9
X3.065Y-3.225
X3.07Y-2.205
X3.07Y-2.4
X3.075Y-4.0
X3.075Y-4.425
X3.075Y-4.875
X3.075Y-5.275
X3.075Y-5.675
X3.1Y-3.5
X3.125Y-4.1
X3.13Y-3.7
X3.15Y-4.425
X3.16Y-3.905
X3.175Y-3.45
X3.175Y-4.1
X3.195Y-3.75
X3.225Y-4.425
X3.25Y-3.5
X3.25Y-3.7
X3.25Y-4.75
X3.25Y-5.075
X3.25Y-5.475
X3.275Y-3.925
X3.295Y-4.39
X3.305Y-3.08
X3.325Y-3.8
X3.4Y-2.075
X3.4Y-3.675
X3.4Y-5.65
X3.405Y-2.66
X3.41Y-3.855
X3.425Y-3.325
X3.425Y-3.375
X3.425Y-4.875
X3.425Y-5.275
X3.45Y-3.55
X3.45Y-3.925
X3.45Y-3.975
X3.45Y-4.025
X3.45Y-4.075
X3.45Y-4.125
X3.475Y-5.675
X3.485Y-3.735
X3.495Y-3.275
X3.495Y-3.425
X3.515Y-3.86
X3.525Y-3.625
X3.525Y-4.175
X3.525Y-5.425
X3.53Y-5.49
X3.575Y-2.95
X3.575Y-3.925
X3.575Y-5.075
X3.58Y-5.18
X3.625Y-2.9
X3.625Y-3.5
X3.625Y-3.8
X3.625Y-4.375
X3.625Y-5.125
X3.64Y-5.62
X3.65Y-5.35
X3.675Y-3.1
X3.68Y-3.605
X3.685Y-3.48
X3.685Y-4.27
X3.7Y-2.205
X3.7Y-3.425
X3.7Y-4.575
X3.725Y-3.0
X3.725Y-3.78
X3.74Y-2.425
X3.74Y-2.85
X3.75Y-3.29
X3.75Y-4.71
X3.75Y-5.025
X3.75Y-5.175
X3.76Y-5.37
X3.76Y-5.48
X3.76Y-5.57
X3.8Y-2.85
X3.8Y-3.4585
X3.8Y-4.5415
X3.8Y-5.175
X3.8Y-5.23
X3.81Y-4.195
X3.84Y-5.57
X3.85Y-3.29
X3.85Y-4.71
X3.9Y-2.075
X3.9Y-2.745
X3.9Y-2.8
X3.9Y-3.4919
X3.9Y-4.6085
X3.9Y-5.025
X3.9Y-5.225
X3.9Y-5.375
X3.9Y-5.475
X3.95Y-2.425
X3.95Y-3.29
X3.95Y-4.71
X3.95Y-5.575
X4.0Y-2.525
X4.0Y-2.695
X4.0Y-2.75
X4.0Y-3.5254
X4.0Y-4.5081
X4.0Y-5.025
X4.0Y-5.225
X4.0Y-5.375
X4.0Y-5.475
X4.05Y-2.425
X4.05Y-3.29
X4.05Y-4.71
X4.05Y-5.575
X4.1Y-2.7
X4.1Y-3.5589
X4.1Y-4.4746
X4.1Y-5.225
X4.1Y-5.275
X4.1Y-5.375
X4.1Y-5.475
X4.105Y-3.74
X4.15Y-2.425
X4.15Y-2.995
X4.15Y-3.29
X4.15Y-4.71
X4.15Y-5.575
X4.2Y-2.7
X4.2Y-3.3915
X4.2Y-4.4411
X4.2Y-5.275
X4.2Y-5.34
X4.2Y-5.475
X4.21Y-4.19
X4.24Y-4.38
X4.245Y-3.62
X4.25Y-2.425
X4.25Y-3.29
X4.25Y-4.71
X4.25Y-5.025
X4.3Y-2.525
X4.3Y-2.7
X4.3Y-3.5923
X4.3Y-4.4077
X4.34Y-5.33
X4.35Y-2.425
X4.35Y-2.65
X4.35Y-3.205
X4.35Y-3.29
X4.35Y-4.71
X4.35Y-5.025
X4.35Y-5.575
X4.355Y-2.995
X4.4Y-2.075
X4.4Y-3.6258
X4.4Y-4.3742
X4.41Y-2.205
X4.45Y-2.65
X4.45Y-5.02
X4.45Y-5.325
X4.45Y-5.475
X4.455Y-3.19
X4.465Y-3.005
X4.475Y-5.375
X4.48Y-3.305
X4.48Y-4.66
X4.525Y-2.15
X4.55Y-4.74
X4.55Y-5.375
X4.55Y-5.475
X4.55Y-5.625
X4.555Y-3.38
X4.575Y-2.4
X4.575Y-2.65
X4.58Y-3.07
X4.6Y-3.425
X4.6Y-4.4746
X4.6Y-5.9
X4.61Y-3.73
X4.65Y-3.225
X4.65Y-3.4919
X4.65Y-3.915
X4.65Y-4.085
X4.65Y-4.3742
X4.65Y-5.125
X4.65Y-5.475
X4.65Y-5.625
X4.685Y-3.27
X4.69Y-2.205
X4.7Y-3.0
X4.7Y-3.5923
X4.7Y-4.5081
X4.7Y-5.075
X4.75Y-3.07
X4.75Y-3.225
X4.75Y-3.5923
X4.75Y-4.575
X4.75Y-4.77
X4.75Y-4.96
X4.75Y-5.02
X4.8Y-2.95
X4.8Y-3.9
X4.8Y-4.1
X4.8Y-4.55
X4.8Y-4.925
X4.8001Y-3.5589
X4.805Y-3.62
X4.805Y-4.375
X4.8498Y-4.5502
X4.85Y-2.4
X4.85Y-2.65
X4.85Y-2.9
X4.85Y-3.425
X4.85Y-4.775
X4.9Y-2.075
X4.9Y-2.15
X4.9Y-3.425
X4.9Y-4.55
X4.9Y-4.74
X4.9Y-4.975
X4.9Y-5.475
X4.9Y-5.625
X4.95Y-2.4
X4.95Y-2.65
X4.95Y-3.05
X4.95Y-3.275
X4.95Y-3.425
X4.95Y-5.9
X4.975Y-4.7
X5.0Y-2.7
X5.0Y-2.75
X5.0Y-2.8
X5.0Y-2.85
X5.0Y-3.275
X5.0Y-3.325
X5.0Y-3.375
X5.0Y-3.425
X5.0Y-5.075
X5.0Y-5.125
X5.0Y-5.175
X5.0Y-5.225
X5.0Y-5.275
X5.0Y-5.325
X5.02Y-5.475
X5.02Y-5.62
X5.025Y-2.5
X5.025Y-2.55
X5.025Y-2.6
X5.035Y-5.025
X5.05Y-3.05
X5.05Y-4.77
X5.05Y-4.85
X5.085Y-2.205
X5.1Y-2.4
X5.1Y-2.45
X5.1Y-2.5
X5.1Y-3.05
X5.1Y-5.54
X5.115Y-4.975
X5.15Y-2.4
X5.15Y-3.05
X5.195Y-3.625
X5.2Y-2.4
X5.2Y-2.85
X5.2Y-3.05
X5.2Y-4.875
X5.2Y-5.025
X5.2Y-5.175
X5.2Y-5.28
X5.235Y-2.625
X5.25Y-2.15
X5.3Y-2.4
X5.3Y-2.85
X5.3Y-3.625
X5.3Y-4.275
X5.3Y-4.875
X5.3Y-4.975
X5.3Y-5.175
X5.3Y-5.625
X5.31Y-2.55
X5.345Y-4.375
X5.35Y-2.675
X5.35Y-3.05
X5.35Y-3.725
X5.35Y-5.425
X5.35Y-5.9
X5.4Y-2.075
X5.4Y-2.55
X5.4Y-4.925
X5.4Y-5.025
X5.4Y-5.625
X5.445Y-2.205
X5.45Y-3.05
X5.455Y-3.62
X5.455Y-3.725
X5.46Y-4.27
X5.485Y-4.605
X5.485Y-4.975
X5.5Y-2.49
X5.5Y-3.05
X5.5Y-5.55
X5.55Y-3.05
X5.565Y-5.025
X5.57Y-2.55
X5.57Y-2.6
X5.57Y-2.65
X5.58Y-5.475
X5.6Y-2.7
X5.6Y-2.75
X5.6Y-2.8
X5.6Y-2.85
X5.6Y-2.9
X5.6Y-2.95
X5.6Y-5.175
X5.6Y-5.225
X5.6Y-5.275
X5.6Y-5.325
X5.62Y-3.725
X5.645Y-3.915
X5.645Y-4.085
X5.695Y-3.335
X5.75Y-2.4
X5.8Y-3.9
X5.8Y-4.1
X5.85Y-4.68
X5.855Y-5.515
X5.9Y-2.075
X5.9Y-3.62
X6.15Y-3.05
X6.15Y-5.025
X6.15Y-5.425
X6.15Y-5.625
X6.2Y-3.425
X6.2Y-4.575
X6.205Y-2.205
X6.22Y-2.4
X6.25Y-2.65
X6.25Y-3.29
X6.25Y-4.71
X6.25Y-5.025
X6.25Y-5.425
X6.25Y-5.575
X6.3Y-2.7
X6.3Y-3.4585
X6.3Y-4.5415
X6.3Y-5.325
X6.35Y-3.29
X6.35Y-4.71
X6.35Y-5.575
X6.4Y-2.075
X6.4Y-2.525
X6.4Y-2.69
X6.4Y-2.75
X6.4Y-3.4919
X6.4Y-4.6085
X6.4Y-5.025
X6.4Y-5.325
X6.4Y-5.425
X6.435Y-4.06
X6.45Y-2.425
X6.45Y-3.29
X6.45Y-4.71
X6.45Y-5.575
X6.5Y-2.525
X6.5Y-2.75
X6.5Y-2.8
X6.5Y-3.5254
X6.5Y-4.5081
X6.5Y-5.025
X6.5Y-5.325
X6.5Y-5.425
X6.55Y-2.425
X6.55Y-3.29
X6.55Y-4.71
X6.55Y-5.575
X6.6Y-2.795
X6.6Y-3.5589
X6.6Y-4.4746
X6.6Y-5.275
X6.6Y-5.325
X6.6Y-5.425
X6.65Y-2.425
X6.65Y-3.29
X6.65Y-4.71
X6.65Y-5.575
X6.7Y-2.795
X6.7Y-3.3915
X6.7Y-4.4411
X6.7Y-5.225
X6.7Y-5.275
X6.7Y-5.425
X6.725Y-3.625
X6.75Y-2.425
X6.75Y-3.29
X6.75Y-4.71
X6.8Y-2.85
X6.8Y-3.5923
X6.8Y-4.4077
X6.8Y-5.175
X6.85Y-2.425
X6.85Y-2.825
X6.85Y-3.29
X6.85Y-4.71
X6.85Y-5.175
X6.85Y-5.325
X6.85Y-5.425
X6.875Y-5.625
X6.9Y-2.075
X6.9Y-3.6258
X6.9Y-3.725
X6.9Y-4.0
X6.9Y-4.32
X6.9Y-4.3742
X6.91Y-2.205
X6.95Y-3.05
X6.95Y-5.025
X6.96Y-2.405
X6.965Y-2.845
X6.965Y-4.785
X7.0Y-3.3
X7.0Y-4.65
X7.005Y-3.725
X7.005Y-4.0
X7.005Y-4.32
X7.025Y-2.15
X7.05Y-3.38
X7.05Y-4.925
X7.05Y-5.025
X7.05Y-5.175
X7.05Y-5.325
X7.05Y-5.425
X7.05Y-5.625
X7.065Y-4.735
X7.08Y-2.4
X7.08Y-2.845
X7.1Y-3.4585
X7.1Y-4.4746
X7.1Y-5.9
X7.15Y-3.225
X7.15Y-3.475
X7.15Y-4.3742
X7.15Y-5.125
X7.15Y-5.175
X7.15Y-5.325
X7.15Y-5.425
X7.15Y-5.625
X7.2Y-3.05
X7.2Y-3.265
X7.2Y-3.5923
X7.2Y-4.5081
X7.2Y-5.075
X7.215Y-2.205
X7.215Y-2.625
X7.25Y-3.075
X7.25Y-3.23
X7.25Y-3.6
X7.25Y-4.575
X7.25Y-4.775
X7.25Y-4.925
X7.25Y-5.075
X7.25Y-5.175
X7.25Y-5.325
X7.3Y-2.95
X7.3Y-4.55
X7.3Y-5.375
X7.3001Y-3.5589
X7.31Y-3.62
X7.345Y-2.4
X7.345Y-3.895
X7.35Y-2.845
X7.35Y-2.9
X7.35Y-3.425
X7.35Y-4.55
X7.35Y-4.775
X7.35Y-4.93
X7.35Y-5.075
X7.35Y-5.175
X7.39Y-3.51
X7.39Y-5.425
X7.4Y-2.075
X7.4Y-2.15
X7.4Y-3.425
X7.4Y-4.55
X7.405Y-4.77
X7.425Y-4.265
X7.425Y-4.93
X7.425Y-5.075
X7.425Y-5.175
X7.425Y-5.625
X7.45Y-3.0
X7.45Y-3.265
X7.46Y-3.425
X7.475Y-2.205
X7.475Y-2.4
X7.475Y-2.65
X7.475Y-2.93
X7.475Y-4.7
X7.475Y-5.9
X7.5Y-3.15
X7.5Y-3.325
X7.5Y-3.375
X7.54Y-4.765
X7.55Y-2.15
X7.55Y-5.825
X7.6Y-2.4
X7.6Y-2.75
X7.6Y-3.15
X7.6Y-5.125
X7.6Y-5.2
X7.6Y-5.4
X7.6Y-5.6
X7.615Y-5.83
X7.625Y-2.205
X7.625Y-4.04
X7.65Y-2.3
X7.65Y-5.725
X7.7Y-2.25
X7.7Y-4.105
X7.7Y-5.775
X7.72Y-3.625
X7.72Y-3.725
X7.72Y-4.575
X7.75Y-2.3
X7.75Y-3.075
X7.75Y-4.925
X7.755Y-5.725
X7.765Y-4.0
X7.775Y-2.205
X7.775Y-2.825
X7.775Y-5.175
X7.825Y-3.375
X7.825Y-3.625
X7.825Y-3.725
X7.825Y-3.825
X7.825Y-3.975
X7.9Y-2.075
X7.9Y-2.575
X7.9Y-2.675
X7.9Y-2.9
X7.9Y-5.1
X7.9Y-5.325
X7.9Y-5.45
X7.92Y-5.84
X7.95Y-4.02
X7.975Y-2.15
X7.975Y-5.9
X8.0Y-2.8
X8.0Y-2.9
X8.0Y-3.1
X8.0Y-4.9
X8.0Y-5.1
X8.0Y-5.2
X8.025Y-2.15
X8.025Y-5.9
X8.075Y-2.51
X8.075Y-3.825
X8.075Y-3.975
X8.075Y-4.175
X8.08Y-4.8
X8.09Y-3.6
X8.095Y-5.935
X8.1Y-2.9
X8.1Y-5.1
X8.105Y-5.325
X8.105Y-5.45
X8.125Y-3.825
X8.125Y-4.025
X8.125Y-4.175
X8.175Y-4.075
X8.175Y-4.125
X8.185Y-3.79
X8.2Y-2.075
X8.2Y-2.2
X8.2Y-5.8
X8.4Y-2.4
X8.4Y-3.81
X8.4Y-5.6
X8.5Y-2.375
X8.5Y-2.875
X8.5Y-3.375
X8.5Y-3.975
X8.5Y-5.075
X8.5Y-5.475
T2
X8.3055Y-2.2
X8.3332Y-2.1332
X8.3332Y-2.2668
X8.4Y-2.1055
X8.4Y-2.2945
X8.4668Y-2.1332
X8.4668Y-2.2668
X8.4945Y-2.2
X2.1055Y-5.8
X2.1332Y-5.7332
X2.1332Y-5.8668
X2.2Y-5.7055
X2.2Y-5.8945
X2.2668Y-5.7332
X2.2668Y-5.8668
X2.2945Y-5.8
X2.1055Y-2.2
X2.1332Y-2.1332
X2.1332Y-2.2668
X2.2Y-2.1055
X2.2Y-2.2945
X2.2668Y-2.1332
X2.2668Y-2.2668
X2.2945Y-2.2
X8.3055Y-5.8
X8.3332Y-5.7332
X8.3332Y-5.8668
X8.4Y-5.7055
X8.4Y-5.8945
X8.4668Y-5.7332
X8.4668Y-5.8668
X8.4945Y-5.8
T4
X4.1Y-3.9213
X4.1Y-4.0
X4.1Y-4.0787
X2.55Y-3.9213
X2.55Y-4.0
X2.55Y-4.0787
T5
X2.5016Y-5.0
X2.5016Y-5.5709
X2.6Y-5.0
X2.6984Y-5.0
X2.6984Y-5.5709
X3.375Y-4.2016
X3.375Y-4.3
X3.375Y-4.3984
X7.9016Y-2.4291
X7.9016Y-3.0
X8.0Y-3.0
X8.0984Y-2.4291
X8.0984Y-3.0
X2.5016Y-2.4291
X2.5016Y-3.0
X2.6Y-3.0
X2.6984Y-2.4291
X2.6984Y-3.0
X7.9016Y-5.0
X7.9016Y-5.5709
X8.0Y-5.0
X8.0984Y-5.0
X8.0984Y-5.5709
T6
X5.7016Y-3.7524
X5.7016Y-4.2445
X5.8984Y-3.7524
X5.8984Y-4.2445
X4.7016Y-3.7539
X4.7016Y-4.2461
X4.8984Y-3.7539
X4.8984Y-4.2461
T7
X4.1Y-3.8386
X4.1Y-4.1614
X2.55Y-3.8386
X2.55Y-4.1614
T9
X8.4Y-2.2
X2.2Y-5.8
X2.2Y-2.2
X8.4Y-5.8
T3
G00X2.1161Y-3.8299
M15
G01X2.0925Y-3.8299
M16
G05
G00X2.1161Y-4.1701
M15
G01X2.0925Y-4.1701
M16
G05
G00X2.2657Y-3.8299
M15
G01X2.2421Y-3.8299
M16
G05
G00X2.2657Y-4.1701
M15
G01X2.2421Y-4.1701
M16
G05
T8
G00X7.7795Y-5.2756
M15
G01X7.7795Y-5.315
M16
G05
G00X8.2205Y-5.2756
M15
G01X8.2205Y-5.315
M16
G05
G00X2.3795Y-5.2756
M15
G01X2.3795Y-5.315
M16
G05
G00X2.8205Y-5.2756
M15
G01X2.8205Y-5.315
M16
G05
G00X7.7795Y-2.7244
M15
G01X7.7795Y-2.685
M16
G05
G00X8.2205Y-2.7244
M15
G01X8.2205Y-2.685
M16
G05
G00X2.3795Y-2.7244
M15
G01X2.3795Y-2.685
M16
G05
G00X2.8205Y-2.7244
M15
G01X2.8205Y-2.685
M16
G05
T0
M30
