M48
; DRILL file {KiCad (5.1.8)-1} date 11/24/21 22:08:37
; FORMAT={-:-/ absolute / inch / decimal}
; #@! TF.CreationDate,2021-11-24T22:08:37-05:00
; #@! TF.GenerationSoftware,Kicad,Pcbnew,(5.1.8)-1
; #@! TF.FileFunction,Plated,1,2,PTH
FMAT,2
INCH
T1C0.0157
T2C0.0197
T3C0.0236
T4C0.0315
T5C0.0394
T6C0.0472
T7C0.0591
T8C0.0709
T9C0.1260
%
G90
G05
T1
X2.05Y-3.875
X2.05Y-3.925
X2.05Y-3.975
X2.05Y-4.025
X2.05Y-4.075
X2.05Y-4.125
X2.075Y-3.775
X2.075Y-4.225
X2.1Y-3.9
X2.1Y-3.95
X2.1Y-4.0
X2.1Y-4.05
X2.1Y-4.1
X2.125Y-3.775
X2.125Y-4.225
X2.1415Y-3.875
X2.1415Y-3.925
X2.1415Y-4.075
X2.1415Y-4.125
X2.15Y-3.975
X2.15Y-4.025
X2.175Y-3.775
X2.175Y-4.225
X2.2Y-3.975
X2.2Y-4.025
X2.2085Y-3.875
X2.2085Y-3.925
X2.2085Y-4.075
X2.2085Y-4.125
X2.225Y-3.775
X2.225Y-4.225
X2.275Y-3.775
X2.275Y-4.225
X2.325Y-3.775
X2.325Y-3.825
X2.325Y-3.875
X2.325Y-4.125
X2.325Y-4.175
X2.325Y-4.225
X2.375Y-3.775
X2.375Y-3.825
X2.375Y-3.875
X2.375Y-4.125
X2.375Y-4.175
X2.375Y-4.225
X2.575Y-2.3
X2.575Y-5.725
X2.625Y-2.25
X2.625Y-5.775
X2.65Y-3.2
X2.725Y-3.825
X2.825Y-4.0
X2.85Y-4.1
X2.9Y-2.35
X2.9Y-4.15
X2.95Y-4.2
X2.95Y-4.275
X2.95Y-4.8
X2.95Y-5.85
X3.0Y-2.15
X3.0Y-3.2
X3.0Y-3.825
X3.0Y-4.35
X3.0Y-4.4
X3.05Y-4.425
X3.075Y-4.0
X3.075Y-4.05
X3.075Y-4.1
X3.1Y-2.4
X3.1Y-2.45
X3.1Y-2.5
X3.1Y-2.55
X3.1Y-2.6
X3.1Y-2.65
X3.1Y-2.7
X3.1Y-2.75
X3.1Y-2.8
X3.1Y-2.85
X3.1Y-2.9
X3.1Y-2.95
X3.1Y-3.0
X3.1Y-3.05
X3.1Y-3.5
X3.1Y-4.425
X3.125Y-3.7
X3.125Y-3.75
X3.125Y-3.9
X3.125Y-3.95
X3.125Y-4.0
X3.125Y-4.05
X3.125Y-4.1
X3.125Y-4.975
X3.125Y-5.025
X3.125Y-5.075
X3.125Y-5.125
X3.125Y-5.175
X3.125Y-5.225
X3.125Y-5.275
X3.125Y-5.325
X3.125Y-5.375
X3.125Y-5.425
X3.125Y-5.475
X3.125Y-5.525
X3.125Y-5.575
X3.125Y-5.625
X3.15Y-2.4
X3.15Y-2.45
X3.15Y-2.5
X3.15Y-2.55
X3.15Y-2.6
X3.15Y-2.65
X3.15Y-2.7
X3.15Y-2.75
X3.15Y-2.8
X3.15Y-2.85
X3.15Y-2.9
X3.15Y-2.95
X3.15Y-3.0
X3.15Y-3.05
X3.15Y-4.425
X3.175Y-3.7
X3.175Y-3.75
X3.175Y-3.9
X3.175Y-3.95
X3.175Y-4.0
X3.175Y-4.05
X3.175Y-4.1
X3.175Y-4.975
X3.175Y-5.025
X3.175Y-5.075
X3.175Y-5.125
X3.175Y-5.175
X3.175Y-5.225
X3.175Y-5.275
X3.175Y-5.325
X3.175Y-5.375
X3.175Y-5.425
X3.175Y-5.475
X3.175Y-5.525
X3.175Y-5.575
X3.175Y-5.625
X3.2Y-2.4
X3.2Y-2.45
X3.2Y-2.5
X3.2Y-2.55
X3.2Y-2.6
X3.2Y-2.65
X3.2Y-2.7
X3.2Y-2.75
X3.2Y-2.8
X3.2Y-2.85
X3.2Y-2.9
X3.2Y-2.95
X3.2Y-3.0
X3.2Y-3.05
X3.2Y-3.05
X3.2Y-4.425
X3.225Y-3.3
X3.225Y-3.375
X3.225Y-4.975
X3.225Y-5.025
X3.225Y-5.075
X3.225Y-5.125
X3.225Y-5.175
X3.225Y-5.225
X3.225Y-5.275
X3.225Y-5.325
X3.225Y-5.375
X3.225Y-5.425
X3.225Y-5.475
X3.225Y-5.525
X3.225Y-5.575
X3.225Y-5.625
X3.25Y-2.4
X3.25Y-2.45
X3.25Y-2.5
X3.25Y-2.55
X3.25Y-2.6
X3.25Y-2.65
X3.25Y-2.7
X3.25Y-2.75
X3.25Y-2.8
X3.25Y-2.85
X3.25Y-2.9
X3.25Y-2.95
X3.25Y-3.0
X3.25Y-3.05
X3.25Y-3.5
X3.25Y-3.7
X3.25Y-4.425
X3.275Y-3.925
X3.275Y-4.0
X3.275Y-4.05
X3.275Y-4.1
X3.275Y-4.975
X3.275Y-5.025
X3.275Y-5.075
X3.275Y-5.125
X3.275Y-5.175
X3.275Y-5.225
X3.275Y-5.275
X3.275Y-5.325
X3.275Y-5.375
X3.275Y-5.425
X3.275Y-5.475
X3.275Y-5.525
X3.275Y-5.575
X3.275Y-5.625
X3.3Y-2.4
X3.3Y-2.45
X3.3Y-2.5
X3.3Y-2.55
X3.3Y-2.6
X3.3Y-2.65
X3.3Y-2.7
X3.3Y-2.75
X3.3Y-2.8
X3.3Y-2.85
X3.3Y-2.9
X3.3Y-2.95
X3.3Y-3.0
X3.3Y-3.05
X3.3Y-3.3
X3.3Y-3.375
X3.3Y-3.45
X3.3Y-4.375
X3.3Y-4.425
X3.325Y-3.8
X3.325Y-4.975
X3.325Y-5.025
X3.325Y-5.075
X3.325Y-5.125
X3.325Y-5.175
X3.325Y-5.225
X3.325Y-5.275
X3.325Y-5.325
X3.325Y-5.375
X3.325Y-5.425
X3.325Y-5.475
X3.325Y-5.525
X3.325Y-5.575
X3.325Y-5.625
X3.35Y-2.4
X3.35Y-2.45
X3.35Y-2.5
X3.35Y-2.55
X3.35Y-2.6
X3.35Y-2.65
X3.35Y-2.7
X3.35Y-2.75
X3.35Y-2.8
X3.35Y-2.85
X3.35Y-2.9
X3.35Y-2.95
X3.35Y-3.0
X3.35Y-3.05
X3.35Y-3.675
X3.35Y-3.725
X3.375Y-3.375
X3.375Y-3.45
X3.375Y-4.975
X3.375Y-5.025
X3.375Y-5.075
X3.375Y-5.125
X3.375Y-5.175
X3.375Y-5.225
X3.375Y-5.275
X3.375Y-5.325
X3.375Y-5.375
X3.375Y-5.425
X3.375Y-5.475
X3.375Y-5.525
X3.375Y-5.575
X3.375Y-5.625
X3.4Y-2.4
X3.4Y-2.45
X3.4Y-2.5
X3.4Y-2.55
X3.4Y-2.6
X3.4Y-2.65
X3.4Y-2.7
X3.4Y-2.75
X3.4Y-2.8
X3.4Y-2.85
X3.4Y-2.9
X3.4Y-2.95
X3.4Y-3.0
X3.4Y-3.05
X3.4Y-3.675
X3.425Y-3.85
X3.425Y-4.975
X3.425Y-5.025
X3.425Y-5.075
X3.425Y-5.125
X3.425Y-5.175
X3.425Y-5.225
X3.425Y-5.275
X3.425Y-5.325
X3.425Y-5.375
X3.425Y-5.425
X3.425Y-5.475
X3.425Y-5.525
X3.425Y-5.575
X3.425Y-5.625
X3.45Y-2.4
X3.45Y-2.45
X3.45Y-2.5
X3.45Y-2.55
X3.45Y-2.6
X3.45Y-2.65
X3.45Y-2.7
X3.45Y-2.75
X3.45Y-2.8
X3.45Y-2.85
X3.45Y-2.9
X3.45Y-2.95
X3.45Y-3.0
X3.45Y-3.05
X3.45Y-3.45
X3.45Y-3.55
X3.45Y-3.625
X3.45Y-3.725
X3.45Y-3.95
X3.45Y-4.0
X3.45Y-4.05
X3.45Y-4.1
X3.475Y-5.675
X3.5Y-2.4
X3.5Y-2.45
X3.5Y-2.5
X3.5Y-2.55
X3.5Y-2.6
X3.5Y-2.65
X3.5Y-2.7
X3.5Y-2.75
X3.5Y-2.8
X3.5Y-2.85
X3.5Y-2.9
X3.5Y-2.95
X3.5Y-3.0
X3.5Y-3.05
X3.525Y-3.45
X3.525Y-3.55
X3.525Y-3.625
X3.525Y-3.75
X3.525Y-3.875
X3.525Y-5.425
X3.525Y-5.475
X3.525Y-5.525
X3.525Y-5.575
X3.525Y-5.625
X3.55Y-2.4
X3.55Y-2.45
X3.55Y-2.5
X3.55Y-2.55
X3.55Y-2.6
X3.55Y-2.65
X3.55Y-2.7
X3.55Y-2.75
X3.55Y-2.8
X3.55Y-2.85
X3.55Y-2.9
X3.575Y-2.95
X3.575Y-3.95
X3.575Y-5.075
X3.575Y-5.125
X3.575Y-5.175
X3.575Y-5.225
X3.575Y-5.275
X3.575Y-5.325
X3.575Y-5.375
X3.575Y-5.475
X3.575Y-5.525
X3.575Y-5.575
X3.575Y-5.625
X3.6Y-2.4
X3.6Y-2.45
X3.6Y-2.5
X3.6Y-2.55
X3.6Y-2.6
X3.6Y-2.65
X3.6Y-2.7
X3.6Y-2.75
X3.6Y-2.8
X3.6Y-2.85
X3.625Y-2.9
X3.625Y-3.5
X3.625Y-3.8
X3.625Y-5.125
X3.625Y-5.475
X3.625Y-5.525
X3.625Y-5.575
X3.625Y-5.625
X3.65Y-2.4
X3.65Y-2.45
X3.65Y-2.5
X3.65Y-2.55
X3.65Y-2.6
X3.65Y-2.65
X3.65Y-2.7
X3.65Y-2.75
X3.65Y-2.8
X3.65Y-2.85
X3.65Y-5.175
X3.65Y-5.225
X3.65Y-5.275
X3.65Y-5.325
X3.65Y-5.375
X3.675Y-3.0
X3.675Y-3.05
X3.7Y-2.4
X3.7Y-2.45
X3.7Y-2.5
X3.7Y-2.55
X3.7Y-2.6
X3.7Y-2.65
X3.7Y-2.7
X3.7Y-2.75
X3.7Y-2.8
X3.7Y-2.85
X3.7Y-3.425
X3.7Y-4.575
X3.725Y-3.0
X3.725Y-3.05
X3.75Y-2.45
X3.75Y-2.5
X3.75Y-2.55
X3.75Y-2.6
X3.75Y-2.65
X3.75Y-2.7
X3.75Y-2.75
X3.75Y-2.8
X3.75Y-2.85
X3.75Y-5.025
X3.75Y-5.175
X3.75Y-5.225
X3.75Y-5.275
X3.75Y-5.325
X3.75Y-5.375
X3.75Y-5.475
X3.75Y-5.525
X3.75Y-5.575
X3.8Y-2.85
X3.8Y-3.4585
X3.8Y-4.5415
X3.8Y-5.175
X3.8Y-5.225
X3.8Y-5.275
X3.8Y-5.325
X3.8Y-5.375
X3.8Y-5.475
X3.8Y-5.525
X3.8Y-5.575
X3.85Y-2.425
X3.85Y-5.575
X3.9Y-2.525
X3.9Y-2.575
X3.9Y-2.625
X3.9Y-2.675
X3.9Y-2.725
X3.9Y-2.8
X3.9Y-3.4919
X3.9Y-4.6085
X3.9Y-5.025
X3.9Y-5.225
X3.9Y-5.275
X3.9Y-5.325
X3.9Y-5.375
X3.9Y-5.475
X3.95Y-2.425
X3.95Y-5.025
X3.95Y-5.225
X3.95Y-5.275
X3.95Y-5.325
X3.95Y-5.375
X3.95Y-5.475
X3.95Y-5.525
X3.95Y-5.575
X4.0Y-2.525
X4.0Y-2.575
X4.0Y-2.625
X4.0Y-2.675
X4.0Y-2.75
X4.0Y-3.5254
X4.0Y-4.5081
X4.0Y-5.025
X4.0Y-5.225
X4.0Y-5.275
X4.0Y-5.325
X4.0Y-5.375
X4.0Y-5.475
X4.05Y-2.425
X4.05Y-5.575
X4.1Y-2.525
X4.1Y-2.575
X4.1Y-2.625
X4.1Y-2.675
X4.1Y-3.5589
X4.1Y-4.4746
X4.1Y-5.225
X4.1Y-5.275
X4.1Y-5.325
X4.1Y-5.375
X4.1Y-5.475
X4.15Y-2.425
X4.15Y-2.475
X4.15Y-2.525
X4.15Y-2.575
X4.15Y-2.625
X4.15Y-2.675
X4.15Y-5.575
X4.2Y-2.525
X4.2Y-2.575
X4.2Y-2.625
X4.2Y-2.675
X4.2Y-3.3915
X4.2Y-4.4411
X4.2Y-5.275
X4.2Y-5.325
X4.2Y-5.375
X4.2Y-5.475
X4.25Y-2.425
X4.25Y-5.025
X4.25Y-5.325
X4.25Y-5.375
X4.25Y-5.575
X4.3Y-2.5
X4.3Y-2.55
X4.3Y-2.6
X4.3Y-2.65
X4.3Y-2.7
X4.3Y-3.5923
X4.3Y-4.4077
X4.3Y-5.025
X4.3Y-5.325
X4.3Y-5.375
X4.35Y-2.425
X4.35Y-2.55
X4.35Y-2.6
X4.35Y-2.65
X4.35Y-5.025
X4.35Y-5.325
X4.35Y-5.575
X4.4Y-2.4
X4.4Y-2.45
X4.4Y-3.6258
X4.4Y-4.3742
X4.4Y-5.525
X4.4Y-5.575
X4.4Y-5.625
X4.45Y-2.4
X4.45Y-2.45
X4.45Y-2.5
X4.45Y-2.55
X4.45Y-2.6
X4.45Y-2.65
X4.45Y-3.0
X4.45Y-3.05
X4.45Y-3.1
X4.45Y-3.2
X4.45Y-4.825
X4.45Y-4.875
X4.45Y-4.925
X4.45Y-4.975
X4.45Y-5.025
X4.45Y-5.325
X4.45Y-5.475
X4.45Y-5.525
X4.45Y-5.575
X4.45Y-5.625
X4.475Y-3.3
X4.475Y-5.375
X4.5Y-2.15
X4.5Y-4.675
X4.5Y-4.725
X4.5Y-4.775
X4.5Y-4.825
X4.5Y-4.875
X4.5Y-4.925
X4.5Y-4.975
X4.5Y-5.025
X4.5Y-5.475
X4.5Y-5.525
X4.5Y-5.575
X4.5Y-5.625
X4.55Y-2.4
X4.55Y-2.45
X4.55Y-2.5
X4.55Y-2.55
X4.55Y-2.6
X4.55Y-2.65
X4.55Y-3.0
X4.55Y-3.05
X4.55Y-4.725
X4.55Y-4.775
X4.55Y-5.375
X4.55Y-5.475
X4.55Y-5.525
X4.55Y-5.575
X4.55Y-5.625
X4.575Y-3.225
X4.6Y-2.4
X4.6Y-2.45
X4.6Y-2.5
X4.6Y-2.55
X4.6Y-2.6
X4.6Y-2.65
X4.6Y-3.0
X4.6Y-3.05
X4.6Y-3.425
X4.6Y-4.4746
X4.6Y-4.725
X4.6Y-4.775
X4.6Y-5.85
X4.65Y-2.4
X4.65Y-2.45
X4.65Y-2.5
X4.65Y-2.55
X4.65Y-2.6
X4.65Y-2.65
X4.65Y-3.0
X4.65Y-3.05
X4.65Y-3.225
X4.65Y-3.4919
X4.65Y-4.3742
X4.65Y-4.725
X4.65Y-4.775
X4.65Y-5.125
X4.65Y-5.475
X4.65Y-5.525
X4.65Y-5.575
X4.65Y-5.625
X4.7Y-2.4
X4.7Y-2.45
X4.7Y-2.5
X4.7Y-2.55
X4.7Y-2.6
X4.7Y-2.65
X4.7Y-3.0
X4.7Y-3.225
X4.7Y-3.275
X4.7Y-3.5923
X4.7Y-4.5081
X4.7Y-4.725
X4.7Y-4.775
X4.7Y-5.075
X4.7Y-5.475
X4.7Y-5.525
X4.7Y-5.575
X4.7Y-5.625
X4.75Y-2.4
X4.75Y-2.45
X4.75Y-2.5
X4.75Y-2.55
X4.75Y-2.6
X4.75Y-2.65
X4.75Y-3.225
X4.75Y-3.275
X4.75Y-3.5923
X4.75Y-4.575
X4.75Y-4.725
X4.75Y-4.775
X4.75Y-4.975
X4.75Y-5.025
X4.75Y-5.475
X4.75Y-5.525
X4.75Y-5.575
X4.75Y-5.625
X4.8Y-2.4
X4.8Y-2.45
X4.8Y-2.5
X4.8Y-2.55
X4.8Y-2.6
X4.8Y-2.65
X4.8Y-2.95
X4.8Y-3.225
X4.8Y-3.275
X4.8Y-4.55
X4.8Y-4.775
X4.8Y-4.925
X4.8Y-4.975
X4.8Y-5.025
X4.8Y-5.475
X4.8Y-5.525
X4.8Y-5.575
X4.8Y-5.625
X4.8001Y-3.5589
X4.8498Y-4.5502
X4.85Y-2.4
X4.85Y-2.45
X4.85Y-2.5
X4.85Y-2.55
X4.85Y-2.6
X4.85Y-2.65
X4.85Y-2.9
X4.85Y-3.225
X4.85Y-3.275
X4.85Y-3.425
X4.85Y-4.725
X4.85Y-4.775
X4.85Y-4.975
X4.85Y-5.025
X4.85Y-5.475
X4.85Y-5.525
X4.85Y-5.575
X4.85Y-5.625
X4.9Y-2.15
X4.9Y-3.225
X4.9Y-3.275
X4.9Y-3.425
X4.9Y-4.55
X4.9Y-4.725
X4.9Y-4.775
X4.9Y-4.975
X4.9Y-5.025
X4.9Y-5.475
X4.9Y-5.525
X4.9Y-5.575
X4.9Y-5.625
X4.95Y-2.4
X4.95Y-2.45
X4.95Y-2.5
X4.95Y-2.55
X4.95Y-2.6
X4.95Y-2.65
X4.95Y-3.05
X4.95Y-3.225
X4.95Y-3.275
X4.95Y-3.425
X4.95Y-4.625
X4.95Y-4.675
X4.95Y-4.725
X4.95Y-5.85
X5.0Y-2.4
X5.0Y-2.45
X5.0Y-2.5
X5.0Y-2.55
X5.0Y-2.6
X5.0Y-2.65
X5.0Y-2.7
X5.0Y-2.75
X5.0Y-2.8
X5.0Y-2.85
X5.0Y-3.05
X5.0Y-3.125
X5.0Y-3.175
X5.0Y-3.225
X5.0Y-3.275
X5.0Y-3.325
X5.0Y-3.375
X5.0Y-3.425
X5.0Y-4.725
X5.0Y-4.975
X5.0Y-5.025
X5.0Y-5.075
X5.0Y-5.125
X5.0Y-5.175
X5.0Y-5.225
X5.0Y-5.275
X5.0Y-5.325
X5.0Y-5.475
X5.0Y-5.525
X5.0Y-5.575
X5.0Y-5.625
X5.05Y-2.4
X5.05Y-2.45
X5.05Y-2.5
X5.05Y-2.55
X5.05Y-2.6
X5.05Y-2.65
X5.05Y-3.05
X5.05Y-4.725
X5.05Y-4.775
X5.05Y-4.825
X5.05Y-4.875
X5.05Y-4.975
X5.05Y-5.025
X5.05Y-5.475
X5.05Y-5.525
X5.05Y-5.575
X5.05Y-5.625
X5.1Y-2.4
X5.1Y-2.45
X5.1Y-2.5
X5.1Y-3.05
X5.1Y-4.975
X5.1Y-5.525
X5.1Y-5.575
X5.1Y-5.625
X5.15Y-2.4
X5.15Y-3.05
X5.15Y-4.975
X5.15Y-5.625
X5.2Y-2.4
X5.2Y-2.85
X5.2Y-3.05
X5.2Y-4.975
X5.2Y-5.225
X5.2Y-5.625
X5.25Y-2.15
X5.25Y-2.625
X5.25Y-5.625
X5.3Y-2.4
X5.3Y-2.575
X5.3Y-2.725
X5.3Y-2.775
X5.3Y-2.825
X5.3Y-3.05
X5.3Y-4.975
X5.3Y-5.175
X5.3Y-5.625
X5.35Y-2.4
X5.35Y-2.675
X5.35Y-2.725
X5.35Y-2.775
X5.35Y-2.825
X5.35Y-3.05
X5.35Y-4.975
X5.35Y-5.425
X5.35Y-5.85
X5.4Y-2.4
X5.4Y-2.55
X5.4Y-2.6
X5.4Y-4.925
X5.4Y-4.975
X5.4Y-5.25
X5.4Y-5.325
X5.4Y-5.625
X5.45Y-2.4
X5.45Y-3.05
X5.45Y-4.975
X5.45Y-5.625
X5.5Y-2.4
X5.5Y-2.45
X5.5Y-2.5
X5.5Y-3.05
X5.5Y-4.975
X5.5Y-5.525
X5.5Y-5.575
X5.5Y-5.625
X5.55Y-2.4
X5.55Y-2.45
X5.55Y-2.5
X5.55Y-2.55
X5.55Y-2.6
X5.55Y-2.65
X5.55Y-3.05
X5.55Y-4.975
X5.55Y-5.025
X5.55Y-5.425
X5.55Y-5.475
X5.55Y-5.525
X5.55Y-5.575
X5.55Y-5.625
X5.6Y-2.4
X5.6Y-2.45
X5.6Y-2.5
X5.6Y-2.55
X5.6Y-2.6
X5.6Y-2.65
X5.6Y-2.7
X5.6Y-2.75
X5.6Y-2.8
X5.6Y-2.85
X5.6Y-2.9
X5.6Y-2.95
X5.6Y-3.05
X5.6Y-4.975
X5.6Y-5.025
X5.6Y-5.175
X5.6Y-5.225
X5.6Y-5.275
X5.6Y-5.325
X5.6Y-5.425
X5.6Y-5.475
X5.6Y-5.525
X5.6Y-5.575
X5.6Y-5.625
X5.65Y-2.4
X5.65Y-2.45
X5.65Y-2.5
X5.65Y-2.55
X5.65Y-2.6
X5.65Y-2.65
X5.65Y-3.05
X5.65Y-4.975
X5.65Y-5.025
X5.65Y-5.425
X5.65Y-5.475
X5.65Y-5.525
X5.65Y-5.575
X5.65Y-5.625
X5.7Y-2.4
X5.7Y-2.45
X5.7Y-2.5
X5.7Y-2.55
X5.7Y-2.6
X5.7Y-2.65
X5.7Y-3.05
X5.7Y-4.975
X5.7Y-5.025
X5.7Y-5.425
X5.7Y-5.475
X5.7Y-5.525
X5.7Y-5.575
X5.7Y-5.625
X5.75Y-2.4
X5.75Y-2.45
X5.75Y-2.5
X5.75Y-2.55
X5.75Y-2.6
X5.75Y-2.65
X5.75Y-3.05
X5.75Y-4.975
X5.75Y-5.025
X5.75Y-5.425
X5.75Y-5.475
X5.75Y-5.525
X5.75Y-5.575
X5.75Y-5.625
X5.8Y-2.4
X5.8Y-2.45
X5.8Y-2.5
X5.8Y-2.55
X5.8Y-2.6
X5.8Y-2.65
X5.8Y-3.05
X5.8Y-4.975
X5.8Y-5.025
X5.8Y-5.425
X5.8Y-5.475
X5.8Y-5.525
X5.8Y-5.575
X5.8Y-5.625
X5.85Y-2.4
X5.85Y-2.45
X5.85Y-2.5
X5.85Y-2.55
X5.85Y-2.6
X5.85Y-2.65
X5.85Y-3.05
X5.85Y-4.975
X5.85Y-5.025
X5.85Y-5.425
X5.85Y-5.475
X5.85Y-5.525
X5.85Y-5.575
X5.85Y-5.625
X5.9Y-2.4
X5.9Y-2.45
X5.9Y-2.5
X5.9Y-2.55
X5.9Y-2.6
X5.9Y-2.65
X5.9Y-3.05
X5.9Y-4.975
X5.9Y-5.025
X5.9Y-5.425
X5.9Y-5.475
X5.9Y-5.525
X5.9Y-5.575
X5.9Y-5.625
X5.95Y-2.4
X5.95Y-2.45
X5.95Y-2.5
X5.95Y-2.55
X5.95Y-2.6
X5.95Y-2.65
X5.95Y-3.05
X5.95Y-4.975
X5.95Y-5.025
X5.95Y-5.425
X5.95Y-5.475
X5.95Y-5.525
X5.95Y-5.575
X5.95Y-5.625
X6.0Y-2.4
X6.0Y-2.45
X6.0Y-2.5
X6.0Y-2.55
X6.0Y-2.6
X6.0Y-2.65
X6.0Y-3.05
X6.0Y-4.975
X6.0Y-5.025
X6.0Y-5.425
X6.0Y-5.475
X6.0Y-5.525
X6.0Y-5.575
X6.0Y-5.625
X6.05Y-2.4
X6.05Y-2.45
X6.05Y-2.5
X6.05Y-2.55
X6.05Y-2.6
X6.05Y-2.65
X6.05Y-3.05
X6.05Y-4.975
X6.05Y-5.025
X6.05Y-5.425
X6.05Y-5.475
X6.05Y-5.525
X6.05Y-5.575
X6.05Y-5.625
X6.1Y-2.4
X6.1Y-2.45
X6.1Y-2.5
X6.1Y-2.55
X6.1Y-2.6
X6.1Y-2.65
X6.1Y-3.05
X6.1Y-4.975
X6.1Y-5.025
X6.1Y-5.425
X6.1Y-5.475
X6.1Y-5.525
X6.1Y-5.575
X6.1Y-5.625
X6.15Y-2.4
X6.15Y-2.45
X6.15Y-2.5
X6.15Y-2.55
X6.15Y-2.6
X6.15Y-2.65
X6.15Y-3.05
X6.15Y-4.975
X6.15Y-5.025
X6.15Y-5.425
X6.15Y-5.475
X6.15Y-5.525
X6.15Y-5.575
X6.15Y-5.625
X6.2Y-2.4
X6.2Y-2.45
X6.2Y-2.5
X6.2Y-2.55
X6.2Y-2.6
X6.2Y-2.65
X6.2Y-3.425
X6.2Y-4.575
X6.25Y-2.4
X6.25Y-2.45
X6.25Y-2.5
X6.25Y-2.55
X6.25Y-2.6
X6.25Y-2.65
X6.25Y-5.025
X6.25Y-5.425
X6.25Y-5.475
X6.25Y-5.525
X6.25Y-5.575
X6.3Y-2.7
X6.3Y-3.4585
X6.3Y-4.5415
X6.3Y-5.325
X6.3Y-5.425
X6.3Y-5.475
X6.3Y-5.525
X6.3Y-5.575
X6.35Y-2.425
X6.4Y-2.525
X6.4Y-2.575
X6.4Y-2.625
X6.4Y-2.675
X6.4Y-2.75
X6.4Y-3.4919
X6.4Y-4.6085
X6.4Y-5.025
X6.4Y-5.325
X6.4Y-5.425
X6.4Y-5.475
X6.45Y-2.425
X6.45Y-5.025
X6.45Y-5.325
X6.45Y-5.425
X6.45Y-5.475
X6.45Y-5.525
X6.45Y-5.575
X6.5Y-2.55
X6.5Y-2.6
X6.5Y-2.65
X6.5Y-2.7
X6.5Y-2.75
X6.5Y-2.8
X6.5Y-3.5254
X6.5Y-4.5081
X6.5Y-5.025
X6.5Y-5.325
X6.5Y-5.425
X6.5Y-5.475
X6.55Y-2.425
X6.55Y-5.575
X6.6Y-2.525
X6.6Y-2.575
X6.6Y-2.625
X6.6Y-2.675
X6.6Y-2.725
X6.6Y-2.775
X6.6Y-3.5589
X6.6Y-4.4746
X6.6Y-5.275
X6.6Y-5.325
X6.6Y-5.425
X6.6Y-5.475
X6.65Y-2.425
X6.65Y-2.475
X6.65Y-2.525
X6.65Y-2.575
X6.65Y-2.625
X6.65Y-2.675
X6.65Y-2.725
X6.65Y-2.775
X6.65Y-5.575
X6.7Y-2.525
X6.7Y-2.575
X6.7Y-2.625
X6.7Y-2.675
X6.7Y-2.725
X6.7Y-2.775
X6.7Y-3.3915
X6.7Y-4.4411
X6.7Y-5.225
X6.7Y-5.275
X6.7Y-5.325
X6.7Y-5.425
X6.7Y-5.475
X6.75Y-2.425
X6.75Y-5.025
X6.75Y-5.575
X6.8Y-2.425
X6.8Y-2.475
X6.8Y-2.525
X6.8Y-2.575
X6.8Y-2.625
X6.8Y-2.675
X6.8Y-2.725
X6.8Y-2.775
X6.8Y-2.85
X6.8Y-3.5923
X6.8Y-4.4077
X6.8Y-5.025
X6.8Y-5.175
X6.85Y-2.425
X6.85Y-2.475
X6.85Y-2.525
X6.85Y-2.575
X6.85Y-2.625
X6.85Y-2.675
X6.85Y-2.725
X6.85Y-2.775
X6.85Y-2.825
X6.85Y-5.175
X6.85Y-5.225
X6.85Y-5.275
X6.85Y-5.325
X6.85Y-5.425
X6.85Y-5.475
X6.85Y-5.525
X6.85Y-5.575
X6.9Y-3.6258
X6.9Y-4.3742
X6.9Y-5.175
X6.9Y-5.225
X6.9Y-5.275
X6.9Y-5.325
X6.9Y-5.425
X6.9Y-5.475
X6.9Y-5.525
X6.9Y-5.575
X6.9Y-5.625
X6.95Y-2.4
X6.95Y-2.45
X6.95Y-2.5
X6.95Y-2.55
X6.95Y-2.6
X6.95Y-2.65
X6.95Y-2.7
X6.95Y-2.75
X6.95Y-2.8
X6.95Y-2.85
X6.95Y-3.05
X6.95Y-4.825
X6.95Y-4.875
X6.95Y-4.925
X6.95Y-4.975
X6.95Y-5.025
X6.95Y-5.175
X6.95Y-5.225
X6.95Y-5.275
X6.95Y-5.325
X6.95Y-5.425
X6.95Y-5.475
X6.95Y-5.525
X6.95Y-5.575
X6.95Y-5.625
X7.0Y-2.15
X7.0Y-3.3
X7.0Y-4.65
X7.0Y-4.7
X7.0Y-4.825
X7.0Y-4.875
X7.0Y-4.925
X7.0Y-4.975
X7.0Y-5.025
X7.0Y-5.175
X7.0Y-5.225
X7.0Y-5.275
X7.0Y-5.325
X7.0Y-5.425
X7.0Y-5.475
X7.0Y-5.525
X7.0Y-5.575
X7.0Y-5.625
X7.05Y-2.4
X7.05Y-2.45
X7.05Y-2.5
X7.05Y-2.55
X7.05Y-2.6
X7.05Y-2.65
X7.05Y-2.7
X7.05Y-2.75
X7.05Y-2.8
X7.05Y-2.85
X7.05Y-4.725
X7.05Y-4.925
X7.05Y-4.975
X7.05Y-5.025
X7.05Y-5.175
X7.05Y-5.225
X7.05Y-5.275
X7.05Y-5.325
X7.05Y-5.425
X7.05Y-5.475
X7.05Y-5.525
X7.05Y-5.575
X7.05Y-5.625
X7.075Y-3.225
X7.1Y-2.4
X7.1Y-2.45
X7.1Y-2.5
X7.1Y-2.55
X7.1Y-2.6
X7.1Y-2.65
X7.1Y-2.7
X7.1Y-2.75
X7.1Y-2.8
X7.1Y-2.85
X7.1Y-3.4585
X7.1Y-4.4746
X7.1Y-4.725
X7.1Y-4.775
X7.1Y-5.85
X7.15Y-2.4
X7.15Y-2.45
X7.15Y-2.5
X7.15Y-2.55
X7.15Y-2.6
X7.15Y-2.65
X7.15Y-2.7
X7.15Y-2.75
X7.15Y-2.75
X7.15Y-2.8
X7.15Y-2.85
X7.15Y-3.225
X7.15Y-3.275
X7.15Y-3.475
X7.15Y-4.3742
X7.15Y-4.725
X7.15Y-4.775
X7.15Y-5.125
X7.15Y-5.175
X7.15Y-5.225
X7.15Y-5.275
X7.15Y-5.325
X7.15Y-5.425
X7.15Y-5.475
X7.15Y-5.525
X7.15Y-5.575
X7.15Y-5.625
X7.2Y-2.4
X7.2Y-2.45
X7.2Y-2.5
X7.2Y-2.55
X7.2Y-2.6
X7.2Y-2.65
X7.2Y-2.7
X7.2Y-2.75
X7.2Y-2.8
X7.2Y-2.85
X7.2Y-3.05
X7.2Y-3.225
X7.2Y-3.275
X7.2Y-3.5923
X7.2Y-4.5081
X7.2Y-4.725
X7.2Y-4.775
X7.2Y-5.075
X7.2Y-5.175
X7.2Y-5.225
X7.2Y-5.275
X7.2Y-5.325
X7.2Y-5.425
X7.2Y-5.475
X7.2Y-5.525
X7.2Y-5.575
X7.2Y-5.625
X7.25Y-2.4
X7.25Y-2.45
X7.25Y-2.5
X7.25Y-2.55
X7.25Y-2.6
X7.25Y-2.65
X7.25Y-2.7
X7.25Y-2.75
X7.25Y-2.8
X7.25Y-2.85
X7.25Y-3.225
X7.25Y-3.275
X7.25Y-3.6
X7.25Y-4.575
X7.25Y-4.725
X7.25Y-4.775
X7.25Y-4.925
X7.25Y-4.975
X7.25Y-5.025
X7.25Y-5.175
X7.25Y-5.225
X7.25Y-5.275
X7.25Y-5.325
X7.25Y-5.425
X7.25Y-5.475
X7.25Y-5.525
X7.25Y-5.575
X7.25Y-5.625
X7.3Y-2.4
X7.3Y-2.45
X7.3Y-2.5
X7.3Y-2.55
X7.3Y-2.6
X7.3Y-2.65
X7.3Y-2.7
X7.3Y-2.75
X7.3Y-2.75
X7.3Y-2.8
X7.3Y-2.85
X7.3Y-2.95
X7.3Y-3.225
X7.3Y-3.275
X7.3Y-4.55
X7.3Y-4.775
X7.3Y-5.375
X7.3Y-5.425
X7.3Y-5.475
X7.3Y-5.525
X7.3Y-5.575
X7.3Y-5.625
X7.3001Y-3.5589
X7.35Y-2.4
X7.35Y-2.45
X7.35Y-2.5
X7.35Y-2.55
X7.35Y-2.6
X7.35Y-2.65
X7.35Y-2.7
X7.35Y-2.75
X7.35Y-2.8
X7.35Y-2.85
X7.35Y-2.9
X7.35Y-3.225
X7.35Y-3.275
X7.35Y-3.425
X7.35Y-4.55
X7.35Y-4.725
X7.35Y-4.775
X7.35Y-4.975
X7.35Y-5.025
X7.35Y-5.175
X7.35Y-5.225
X7.35Y-5.275
X7.35Y-5.325
X7.35Y-5.375
X7.35Y-5.425
X7.35Y-5.475
X7.35Y-5.525
X7.35Y-5.575
X7.35Y-5.625
X7.4Y-2.15
X7.4Y-3.225
X7.4Y-3.275
X7.4Y-3.425
X7.4Y-4.55
X7.4Y-4.725
X7.4Y-4.775
X7.4Y-4.975
X7.4Y-5.025
X7.4Y-5.175
X7.4Y-5.225
X7.4Y-5.275
X7.4Y-5.325
X7.4Y-5.375
X7.4Y-5.425
X7.4Y-5.475
X7.4Y-5.525
X7.4Y-5.575
X7.4Y-5.625
X7.45Y-2.4
X7.45Y-2.45
X7.45Y-2.5
X7.45Y-2.55
X7.45Y-2.6
X7.45Y-2.65
X7.45Y-2.7
X7.45Y-2.75
X7.45Y-2.8
X7.45Y-2.85
X7.45Y-2.9
X7.45Y-2.95
X7.45Y-3.0
X7.45Y-3.225
X7.45Y-3.275
X7.45Y-3.425
X7.45Y-4.625
X7.45Y-4.675
X7.45Y-4.725
X7.475Y-5.85
X7.5Y-2.4
X7.5Y-2.45
X7.5Y-2.5
X7.5Y-2.55
X7.5Y-2.6
X7.5Y-2.65
X7.5Y-2.7
X7.5Y-2.75
X7.5Y-2.8
X7.5Y-2.85
X7.5Y-2.9
X7.5Y-2.95
X7.5Y-3.0
X7.5Y-3.075
X7.5Y-3.125
X7.5Y-3.175
X7.5Y-3.225
X7.5Y-3.275
X7.5Y-3.325
X7.5Y-3.375
X7.5Y-3.425
X7.5Y-4.725
X7.525Y-4.775
X7.55Y-2.15
X7.55Y-5.075
X7.6Y-5.125
X7.625Y-4.025
X7.625Y-4.075
X7.65Y-2.3
X7.65Y-5.725
X7.675Y-4.1
X7.7Y-2.25
X7.7Y-5.775
X7.725Y-4.1
X7.775Y-3.975
X7.775Y-4.025
X7.825Y-3.975
X7.825Y-4.025
X7.875Y-3.975
X7.875Y-4.025
X7.925Y-3.975
X7.925Y-4.025
X7.975Y-2.15
X7.975Y-3.975
X7.975Y-4.025
X7.975Y-5.85
X8.025Y-2.15
X8.025Y-3.975
X8.025Y-4.025
X8.025Y-5.85
X8.075Y-3.825
X8.075Y-3.975
X8.075Y-4.025
X8.075Y-4.175
X8.125Y-3.675
X8.125Y-3.975
X8.125Y-4.025
X8.125Y-4.175
X8.175Y-3.825
X8.175Y-3.875
X8.175Y-3.925
X8.175Y-3.975
X8.175Y-4.025
X8.175Y-4.075
X8.175Y-4.125
X8.175Y-4.175
T2
X8.3055Y-2.2
X8.3332Y-2.1332
X8.3332Y-2.2668
X8.4Y-2.1055
X8.4Y-2.2945
X8.4668Y-2.1332
X8.4668Y-2.2668
X8.4945Y-2.2
X2.1055Y-5.8
X2.1332Y-5.7332
X2.1332Y-5.8668
X2.2Y-5.7055
X2.2Y-5.8945
X2.2668Y-5.7332
X2.2668Y-5.8668
X2.2945Y-5.8
X8.3055Y-5.8
X8.3332Y-5.7332
X8.3332Y-5.8668
X8.4Y-5.7055
X8.4Y-5.8945
X8.4668Y-5.7332
X8.4668Y-5.8668
X8.4945Y-5.8
X2.1055Y-2.2
X2.1332Y-2.1332
X2.1332Y-2.2668
X2.2Y-2.1055
X2.2Y-2.2945
X2.2668Y-2.1332
X2.2668Y-2.2668
X2.2945Y-2.2
T4
X2.6Y-3.9213
X2.6Y-4.0
X2.6Y-4.0787
X4.1Y-3.9213
X4.1Y-4.0
X4.1Y-4.0787
T5
X7.9016Y-5.0
X7.9016Y-5.5709
X8.0Y-5.0
X8.0984Y-5.0
X8.0984Y-5.5709
X2.5016Y-2.4291
X2.5016Y-3.0
X2.6Y-3.0
X2.6984Y-2.4291
X2.6984Y-3.0
X2.5016Y-5.0
X2.5016Y-5.5709
X2.6Y-5.0
X2.6984Y-5.0
X2.6984Y-5.5709
X3.375Y-4.2016
X3.375Y-4.3
X3.375Y-4.3984
X7.9016Y-2.4291
X7.9016Y-3.0
X8.0Y-3.0
X8.0984Y-2.4291
X8.0984Y-3.0
T6
X5.7016Y-3.7524
X5.7016Y-4.2445
X5.8984Y-3.7524
X5.8984Y-4.2445
X4.7016Y-3.7539
X4.7016Y-4.2461
X4.8984Y-3.7539
X4.8984Y-4.2461
T7
X2.6Y-3.8386
X2.6Y-4.1614
X4.1Y-3.8386
X4.1Y-4.1614
T9
X8.4Y-2.2
X2.2Y-5.8
X8.4Y-5.8
X2.2Y-2.2
T3
G00X2.1161Y-3.8299
M15
G01X2.0925Y-3.8299
M16
G05
G00X2.1161Y-4.1701
M15
G01X2.0925Y-4.1701
M16
G05
G00X2.2657Y-3.8299
M15
G01X2.2421Y-3.8299
M16
G05
G00X2.2657Y-4.1701
M15
G01X2.2421Y-4.1701
M16
G05
T8
G00X7.7795Y-5.2756
M15
G01X7.7795Y-5.315
M16
G05
G00X8.2205Y-5.2756
M15
G01X8.2205Y-5.315
M16
G05
G00X2.3795Y-2.7244
M15
G01X2.3795Y-2.685
M16
G05
G00X2.8205Y-2.7244
M15
G01X2.8205Y-2.685
M16
G05
G00X2.3795Y-5.2756
M15
G01X2.3795Y-5.315
M16
G05
G00X2.8205Y-5.2756
M15
G01X2.8205Y-5.315
M16
G05
G00X7.7795Y-2.7244
M15
G01X7.7795Y-2.685
M16
G05
G00X8.2205Y-2.7244
M15
G01X8.2205Y-2.685
M16
G05
T0
M30
