G04 #@! TF.GenerationSoftware,KiCad,Pcbnew,(5.1.4)-1*
G04 #@! TF.CreationDate,2020-08-06T21:16:19-04:00*
G04 #@! TF.ProjectId,mtg_life_counter,6d74675f-6c69-4666-955f-636f756e7465,0.1*
G04 #@! TF.SameCoordinates,Original*
G04 #@! TF.FileFunction,Legend,Top*
G04 #@! TF.FilePolarity,Positive*
%FSLAX46Y46*%
G04 Gerber Fmt 4.6, Leading zero omitted, Abs format (unit mm)*
G04 Created by KiCad (PCBNEW (5.1.4)-1) date 2020-08-06 21:16:19*
%MOMM*%
%LPD*%
G04 APERTURE LIST*
%ADD10C,0.300000*%
%ADD11C,0.500000*%
%ADD12C,0.150000*%
%ADD13C,0.120000*%
G04 APERTURE END LIST*
D10*
X191105714Y-92118571D02*
X191105714Y-90618571D01*
X191605714Y-91690000D01*
X192105714Y-90618571D01*
X192105714Y-92118571D01*
X193462857Y-92118571D02*
X193462857Y-91332857D01*
X193391428Y-91190000D01*
X193248571Y-91118571D01*
X192962857Y-91118571D01*
X192820000Y-91190000D01*
X193462857Y-92047142D02*
X193320000Y-92118571D01*
X192962857Y-92118571D01*
X192820000Y-92047142D01*
X192748571Y-91904285D01*
X192748571Y-91761428D01*
X192820000Y-91618571D01*
X192962857Y-91547142D01*
X193320000Y-91547142D01*
X193462857Y-91475714D01*
X194034285Y-92118571D02*
X194820000Y-91118571D01*
X194034285Y-91118571D02*
X194820000Y-92118571D01*
X196534285Y-92118571D02*
X196534285Y-90618571D01*
X197105714Y-90618571D01*
X197248571Y-90690000D01*
X197320000Y-90761428D01*
X197391428Y-90904285D01*
X197391428Y-91118571D01*
X197320000Y-91261428D01*
X197248571Y-91332857D01*
X197105714Y-91404285D01*
X196534285Y-91404285D01*
X198034285Y-92118571D02*
X198034285Y-91118571D01*
X198034285Y-91404285D02*
X198105714Y-91261428D01*
X198177142Y-91190000D01*
X198320000Y-91118571D01*
X198462857Y-91118571D01*
X199177142Y-92118571D02*
X199034285Y-92047142D01*
X198962857Y-91975714D01*
X198891428Y-91832857D01*
X198891428Y-91404285D01*
X198962857Y-91261428D01*
X199034285Y-91190000D01*
X199177142Y-91118571D01*
X199391428Y-91118571D01*
X199534285Y-91190000D01*
X199605714Y-91261428D01*
X199677142Y-91404285D01*
X199677142Y-91832857D01*
X199605714Y-91975714D01*
X199534285Y-92047142D01*
X199391428Y-92118571D01*
X199177142Y-92118571D01*
X200248571Y-92047142D02*
X200391428Y-92118571D01*
X200677142Y-92118571D01*
X200820000Y-92047142D01*
X200891428Y-91904285D01*
X200891428Y-91832857D01*
X200820000Y-91690000D01*
X200677142Y-91618571D01*
X200462857Y-91618571D01*
X200320000Y-91547142D01*
X200248571Y-91404285D01*
X200248571Y-91332857D01*
X200320000Y-91190000D01*
X200462857Y-91118571D01*
X200677142Y-91118571D01*
X200820000Y-91190000D01*
X201534285Y-92118571D02*
X201534285Y-90618571D01*
X201677142Y-91547142D02*
X202105714Y-92118571D01*
X202105714Y-91118571D02*
X201534285Y-91690000D01*
X203391428Y-92118571D02*
X203391428Y-91332857D01*
X203320000Y-91190000D01*
X203177142Y-91118571D01*
X202891428Y-91118571D01*
X202748571Y-91190000D01*
X203391428Y-92047142D02*
X203248571Y-92118571D01*
X202891428Y-92118571D01*
X202748571Y-92047142D01*
X202677142Y-91904285D01*
X202677142Y-91761428D01*
X202748571Y-91618571D01*
X202891428Y-91547142D01*
X203248571Y-91547142D01*
X203391428Y-91475714D01*
X204748571Y-91118571D02*
X204748571Y-92118571D01*
X204105714Y-91118571D02*
X204105714Y-91904285D01*
X204177142Y-92047142D01*
X204320000Y-92118571D01*
X204534285Y-92118571D01*
X204677142Y-92047142D01*
X204748571Y-91975714D01*
X206034285Y-92047142D02*
X205891428Y-92118571D01*
X205605714Y-92118571D01*
X205462857Y-92047142D01*
X205391428Y-91904285D01*
X205391428Y-91332857D01*
X205462857Y-91190000D01*
X205605714Y-91118571D01*
X205891428Y-91118571D01*
X206034285Y-91190000D01*
X206105714Y-91332857D01*
X206105714Y-91475714D01*
X205391428Y-91618571D01*
X206748571Y-92118571D02*
X206748571Y-91118571D01*
X206748571Y-91404285D02*
X206820000Y-91261428D01*
X206891428Y-91190000D01*
X207034285Y-91118571D01*
X207177142Y-91118571D01*
X209820000Y-91118571D02*
X210177142Y-92118571D01*
X210534285Y-91118571D01*
X211391428Y-90618571D02*
X211534285Y-90618571D01*
X211677142Y-90690000D01*
X211748571Y-90761428D01*
X211820000Y-90904285D01*
X211891428Y-91190000D01*
X211891428Y-91547142D01*
X211820000Y-91832857D01*
X211748571Y-91975714D01*
X211677142Y-92047142D01*
X211534285Y-92118571D01*
X211391428Y-92118571D01*
X211248571Y-92047142D01*
X211177142Y-91975714D01*
X211105714Y-91832857D01*
X211034285Y-91547142D01*
X211034285Y-91190000D01*
X211105714Y-90904285D01*
X211177142Y-90761428D01*
X211248571Y-90690000D01*
X211391428Y-90618571D01*
X212534285Y-91975714D02*
X212605714Y-92047142D01*
X212534285Y-92118571D01*
X212462857Y-92047142D01*
X212534285Y-91975714D01*
X212534285Y-92118571D01*
X214034285Y-92118571D02*
X213177142Y-92118571D01*
X213605714Y-92118571D02*
X213605714Y-90618571D01*
X213462857Y-90832857D01*
X213320000Y-90975714D01*
X213177142Y-91047142D01*
X216891428Y-91690000D02*
X217605714Y-91690000D01*
X216748571Y-92118571D02*
X217248571Y-90618571D01*
X217748571Y-92118571D01*
X218891428Y-91118571D02*
X218891428Y-92118571D01*
X218248571Y-91118571D02*
X218248571Y-91904285D01*
X218320000Y-92047142D01*
X218462857Y-92118571D01*
X218677142Y-92118571D01*
X218820000Y-92047142D01*
X218891428Y-91975714D01*
X220248571Y-91118571D02*
X220248571Y-92332857D01*
X220177142Y-92475714D01*
X220105714Y-92547142D01*
X219962857Y-92618571D01*
X219748571Y-92618571D01*
X219605714Y-92547142D01*
X220248571Y-92047142D02*
X220105714Y-92118571D01*
X219820000Y-92118571D01*
X219677142Y-92047142D01*
X219605714Y-91975714D01*
X219534285Y-91832857D01*
X219534285Y-91404285D01*
X219605714Y-91261428D01*
X219677142Y-91190000D01*
X219820000Y-91118571D01*
X220105714Y-91118571D01*
X220248571Y-91190000D01*
X221605714Y-91118571D02*
X221605714Y-92118571D01*
X220962857Y-91118571D02*
X220962857Y-91904285D01*
X221034285Y-92047142D01*
X221177142Y-92118571D01*
X221391428Y-92118571D01*
X221534285Y-92047142D01*
X221605714Y-91975714D01*
X222248571Y-92047142D02*
X222391428Y-92118571D01*
X222677142Y-92118571D01*
X222820000Y-92047142D01*
X222891428Y-91904285D01*
X222891428Y-91832857D01*
X222820000Y-91690000D01*
X222677142Y-91618571D01*
X222462857Y-91618571D01*
X222320000Y-91547142D01*
X222248571Y-91404285D01*
X222248571Y-91332857D01*
X222320000Y-91190000D01*
X222462857Y-91118571D01*
X222677142Y-91118571D01*
X222820000Y-91190000D01*
X223320000Y-91118571D02*
X223891428Y-91118571D01*
X223534285Y-90618571D02*
X223534285Y-91904285D01*
X223605714Y-92047142D01*
X223748571Y-92118571D01*
X223891428Y-92118571D01*
X225462857Y-90761428D02*
X225534285Y-90690000D01*
X225677142Y-90618571D01*
X226034285Y-90618571D01*
X226177142Y-90690000D01*
X226248571Y-90761428D01*
X226320000Y-90904285D01*
X226320000Y-91047142D01*
X226248571Y-91261428D01*
X225391428Y-92118571D01*
X226320000Y-92118571D01*
X227248571Y-90618571D02*
X227391428Y-90618571D01*
X227534285Y-90690000D01*
X227605714Y-90761428D01*
X227677142Y-90904285D01*
X227748571Y-91190000D01*
X227748571Y-91547142D01*
X227677142Y-91832857D01*
X227605714Y-91975714D01*
X227534285Y-92047142D01*
X227391428Y-92118571D01*
X227248571Y-92118571D01*
X227105714Y-92047142D01*
X227034285Y-91975714D01*
X226962857Y-91832857D01*
X226891428Y-91547142D01*
X226891428Y-91190000D01*
X226962857Y-90904285D01*
X227034285Y-90761428D01*
X227105714Y-90690000D01*
X227248571Y-90618571D01*
X228320000Y-90761428D02*
X228391428Y-90690000D01*
X228534285Y-90618571D01*
X228891428Y-90618571D01*
X229034285Y-90690000D01*
X229105714Y-90761428D01*
X229177142Y-90904285D01*
X229177142Y-91047142D01*
X229105714Y-91261428D01*
X228248571Y-92118571D01*
X229177142Y-92118571D01*
X230105714Y-90618571D02*
X230248571Y-90618571D01*
X230391428Y-90690000D01*
X230462857Y-90761428D01*
X230534285Y-90904285D01*
X230605714Y-91190000D01*
X230605714Y-91547142D01*
X230534285Y-91832857D01*
X230462857Y-91975714D01*
X230391428Y-92047142D01*
X230248571Y-92118571D01*
X230105714Y-92118571D01*
X229962857Y-92047142D01*
X229891428Y-91975714D01*
X229820000Y-91832857D01*
X229748571Y-91547142D01*
X229748571Y-91190000D01*
X229820000Y-90904285D01*
X229891428Y-90761428D01*
X229962857Y-90690000D01*
X230105714Y-90618571D01*
D11*
X84717142Y-81597142D02*
X84717142Y-81025714D01*
X84860000Y-80740000D01*
X85145714Y-80454285D01*
X85717142Y-80311428D01*
X86717142Y-80311428D01*
X87288571Y-80454285D01*
X87574285Y-80740000D01*
X87717142Y-81025714D01*
X87717142Y-81597142D01*
X87574285Y-81882857D01*
X87288571Y-82168571D01*
X86717142Y-82311428D01*
X85717142Y-82311428D01*
X85145714Y-82168571D01*
X84860000Y-81882857D01*
X84717142Y-81597142D01*
X86145714Y-78025714D02*
X86145714Y-79025714D01*
X87717142Y-79025714D02*
X84717142Y-79025714D01*
X84717142Y-77597142D01*
X86145714Y-75454285D02*
X86145714Y-76454285D01*
X87717142Y-76454285D02*
X84717142Y-76454285D01*
X84717142Y-75025714D01*
X84717142Y-99647142D02*
X84717142Y-99075714D01*
X84860000Y-98790000D01*
X85145714Y-98504285D01*
X85717142Y-98361428D01*
X86717142Y-98361428D01*
X87288571Y-98504285D01*
X87574285Y-98790000D01*
X87717142Y-99075714D01*
X87717142Y-99647142D01*
X87574285Y-99932857D01*
X87288571Y-100218571D01*
X86717142Y-100361428D01*
X85717142Y-100361428D01*
X85145714Y-100218571D01*
X84860000Y-99932857D01*
X84717142Y-99647142D01*
X87717142Y-97075714D02*
X84717142Y-97075714D01*
X87717142Y-95361428D01*
X84717142Y-95361428D01*
X139168571Y-99147142D02*
X138168571Y-97718571D01*
X137454285Y-99147142D02*
X137454285Y-96147142D01*
X138597142Y-96147142D01*
X138882857Y-96290000D01*
X139025714Y-96432857D01*
X139168571Y-96718571D01*
X139168571Y-97147142D01*
X139025714Y-97432857D01*
X138882857Y-97575714D01*
X138597142Y-97718571D01*
X137454285Y-97718571D01*
X141025714Y-96147142D02*
X141597142Y-96147142D01*
X141882857Y-96290000D01*
X142168571Y-96575714D01*
X142311428Y-97147142D01*
X142311428Y-98147142D01*
X142168571Y-98718571D01*
X141882857Y-99004285D01*
X141597142Y-99147142D01*
X141025714Y-99147142D01*
X140740000Y-99004285D01*
X140454285Y-98718571D01*
X140311428Y-98147142D01*
X140311428Y-97147142D01*
X140454285Y-96575714D01*
X140740000Y-96290000D01*
X141025714Y-96147142D01*
X145025714Y-99147142D02*
X143597142Y-99147142D01*
X143597142Y-96147142D01*
X147454285Y-99147142D02*
X146025714Y-99147142D01*
X146025714Y-96147142D01*
X97702857Y-99757142D02*
X97560000Y-99614285D01*
X97417142Y-99328571D01*
X97417142Y-98614285D01*
X97560000Y-98328571D01*
X97702857Y-98185714D01*
X97988571Y-98042857D01*
X98274285Y-98042857D01*
X98702857Y-98185714D01*
X100417142Y-99900000D01*
X100417142Y-98042857D01*
X97417142Y-96185714D02*
X97417142Y-95900000D01*
X97560000Y-95614285D01*
X97702857Y-95471428D01*
X97988571Y-95328571D01*
X98560000Y-95185714D01*
X99274285Y-95185714D01*
X99845714Y-95328571D01*
X100131428Y-95471428D01*
X100274285Y-95614285D01*
X100417142Y-95900000D01*
X100417142Y-96185714D01*
X100274285Y-96471428D01*
X100131428Y-96614285D01*
X99845714Y-96757142D01*
X99274285Y-96900000D01*
X98560000Y-96900000D01*
X97988571Y-96757142D01*
X97702857Y-96614285D01*
X97560000Y-96471428D01*
X97417142Y-96185714D01*
X98417142Y-81185714D02*
X100417142Y-81185714D01*
X97274285Y-81900000D02*
X99417142Y-82614285D01*
X99417142Y-80757142D01*
X97417142Y-79042857D02*
X97417142Y-78757142D01*
X97560000Y-78471428D01*
X97702857Y-78328571D01*
X97988571Y-78185714D01*
X98560000Y-78042857D01*
X99274285Y-78042857D01*
X99845714Y-78185714D01*
X100131428Y-78328571D01*
X100274285Y-78471428D01*
X100417142Y-78757142D01*
X100417142Y-79042857D01*
X100274285Y-79328571D01*
X100131428Y-79471428D01*
X99845714Y-79614285D01*
X99274285Y-79757142D01*
X98560000Y-79757142D01*
X97988571Y-79614285D01*
X97702857Y-79471428D01*
X97560000Y-79328571D01*
X97417142Y-79042857D01*
X145311428Y-78652857D02*
X146311428Y-80081428D01*
X147025714Y-78652857D02*
X147025714Y-81652857D01*
X145882857Y-81652857D01*
X145597142Y-81510000D01*
X145454285Y-81367142D01*
X145311428Y-81081428D01*
X145311428Y-80652857D01*
X145454285Y-80367142D01*
X145597142Y-80224285D01*
X145882857Y-80081428D01*
X147025714Y-80081428D01*
X143454285Y-81652857D02*
X142882857Y-81652857D01*
X142597142Y-81510000D01*
X142311428Y-81224285D01*
X142168571Y-80652857D01*
X142168571Y-79652857D01*
X142311428Y-79081428D01*
X142597142Y-78795714D01*
X142882857Y-78652857D01*
X143454285Y-78652857D01*
X143740000Y-78795714D01*
X144025714Y-79081428D01*
X144168571Y-79652857D01*
X144168571Y-80652857D01*
X144025714Y-81224285D01*
X143740000Y-81510000D01*
X143454285Y-81652857D01*
X139454285Y-78652857D02*
X140882857Y-78652857D01*
X140882857Y-81652857D01*
X137025714Y-78652857D02*
X138454285Y-78652857D01*
X138454285Y-81652857D01*
X121197142Y-78652857D02*
X122197142Y-80081428D01*
X122911428Y-78652857D02*
X122911428Y-81652857D01*
X121768571Y-81652857D01*
X121482857Y-81510000D01*
X121340000Y-81367142D01*
X121197142Y-81081428D01*
X121197142Y-80652857D01*
X121340000Y-80367142D01*
X121482857Y-80224285D01*
X121768571Y-80081428D01*
X122911428Y-80081428D01*
X119911428Y-80224285D02*
X118911428Y-80224285D01*
X118482857Y-78652857D02*
X119911428Y-78652857D01*
X119911428Y-81652857D01*
X118482857Y-81652857D01*
X117340000Y-78795714D02*
X116911428Y-78652857D01*
X116197142Y-78652857D01*
X115911428Y-78795714D01*
X115768571Y-78938571D01*
X115625714Y-79224285D01*
X115625714Y-79510000D01*
X115768571Y-79795714D01*
X115911428Y-79938571D01*
X116197142Y-80081428D01*
X116768571Y-80224285D01*
X117054285Y-80367142D01*
X117197142Y-80510000D01*
X117340000Y-80795714D01*
X117340000Y-81081428D01*
X117197142Y-81367142D01*
X117054285Y-81510000D01*
X116768571Y-81652857D01*
X116054285Y-81652857D01*
X115625714Y-81510000D01*
X114340000Y-80224285D02*
X113340000Y-80224285D01*
X112911428Y-78652857D02*
X114340000Y-78652857D01*
X114340000Y-81652857D01*
X112911428Y-81652857D01*
X112054285Y-81652857D02*
X110340000Y-81652857D01*
X111197142Y-78652857D02*
X111197142Y-81652857D01*
X112482857Y-99147142D02*
X111482857Y-97718571D01*
X110768571Y-99147142D02*
X110768571Y-96147142D01*
X111911428Y-96147142D01*
X112197142Y-96290000D01*
X112340000Y-96432857D01*
X112482857Y-96718571D01*
X112482857Y-97147142D01*
X112340000Y-97432857D01*
X112197142Y-97575714D01*
X111911428Y-97718571D01*
X110768571Y-97718571D01*
X113768571Y-97575714D02*
X114768571Y-97575714D01*
X115197142Y-99147142D02*
X113768571Y-99147142D01*
X113768571Y-96147142D01*
X115197142Y-96147142D01*
X116340000Y-99004285D02*
X116768571Y-99147142D01*
X117482857Y-99147142D01*
X117768571Y-99004285D01*
X117911428Y-98861428D01*
X118054285Y-98575714D01*
X118054285Y-98290000D01*
X117911428Y-98004285D01*
X117768571Y-97861428D01*
X117482857Y-97718571D01*
X116911428Y-97575714D01*
X116625714Y-97432857D01*
X116482857Y-97290000D01*
X116340000Y-97004285D01*
X116340000Y-96718571D01*
X116482857Y-96432857D01*
X116625714Y-96290000D01*
X116911428Y-96147142D01*
X117625714Y-96147142D01*
X118054285Y-96290000D01*
X119340000Y-97575714D02*
X120340000Y-97575714D01*
X120768571Y-99147142D02*
X119340000Y-99147142D01*
X119340000Y-96147142D01*
X120768571Y-96147142D01*
X121625714Y-96147142D02*
X123340000Y-96147142D01*
X122482857Y-99147142D02*
X122482857Y-96147142D01*
X192177142Y-87717142D02*
X192177142Y-84717142D01*
X193177142Y-86860000D01*
X194177142Y-84717142D01*
X194177142Y-87717142D01*
X195177142Y-84717142D02*
X196891428Y-84717142D01*
X196034285Y-87717142D02*
X196034285Y-84717142D01*
X199462857Y-84860000D02*
X199177142Y-84717142D01*
X198748571Y-84717142D01*
X198320000Y-84860000D01*
X198034285Y-85145714D01*
X197891428Y-85431428D01*
X197748571Y-86002857D01*
X197748571Y-86431428D01*
X197891428Y-87002857D01*
X198034285Y-87288571D01*
X198320000Y-87574285D01*
X198748571Y-87717142D01*
X199034285Y-87717142D01*
X199462857Y-87574285D01*
X199605714Y-87431428D01*
X199605714Y-86431428D01*
X199034285Y-86431428D01*
X204605714Y-87717142D02*
X203177142Y-87717142D01*
X203177142Y-84717142D01*
X205605714Y-87717142D02*
X205605714Y-85717142D01*
X205605714Y-84717142D02*
X205462857Y-84860000D01*
X205605714Y-85002857D01*
X205748571Y-84860000D01*
X205605714Y-84717142D01*
X205605714Y-85002857D01*
X206605714Y-85717142D02*
X207748571Y-85717142D01*
X207034285Y-87717142D02*
X207034285Y-85145714D01*
X207177142Y-84860000D01*
X207462857Y-84717142D01*
X207748571Y-84717142D01*
X209891428Y-87574285D02*
X209605714Y-87717142D01*
X209034285Y-87717142D01*
X208748571Y-87574285D01*
X208605714Y-87288571D01*
X208605714Y-86145714D01*
X208748571Y-85860000D01*
X209034285Y-85717142D01*
X209605714Y-85717142D01*
X209891428Y-85860000D01*
X210034285Y-86145714D01*
X210034285Y-86431428D01*
X208605714Y-86717142D01*
X215320000Y-87431428D02*
X215177142Y-87574285D01*
X214748571Y-87717142D01*
X214462857Y-87717142D01*
X214034285Y-87574285D01*
X213748571Y-87288571D01*
X213605714Y-87002857D01*
X213462857Y-86431428D01*
X213462857Y-86002857D01*
X213605714Y-85431428D01*
X213748571Y-85145714D01*
X214034285Y-84860000D01*
X214462857Y-84717142D01*
X214748571Y-84717142D01*
X215177142Y-84860000D01*
X215320000Y-85002857D01*
X217034285Y-87717142D02*
X216748571Y-87574285D01*
X216605714Y-87431428D01*
X216462857Y-87145714D01*
X216462857Y-86288571D01*
X216605714Y-86002857D01*
X216748571Y-85860000D01*
X217034285Y-85717142D01*
X217462857Y-85717142D01*
X217748571Y-85860000D01*
X217891428Y-86002857D01*
X218034285Y-86288571D01*
X218034285Y-87145714D01*
X217891428Y-87431428D01*
X217748571Y-87574285D01*
X217462857Y-87717142D01*
X217034285Y-87717142D01*
X220605714Y-85717142D02*
X220605714Y-87717142D01*
X219320000Y-85717142D02*
X219320000Y-87288571D01*
X219462857Y-87574285D01*
X219748571Y-87717142D01*
X220177142Y-87717142D01*
X220462857Y-87574285D01*
X220605714Y-87431428D01*
X222034285Y-85717142D02*
X222034285Y-87717142D01*
X222034285Y-86002857D02*
X222177142Y-85860000D01*
X222462857Y-85717142D01*
X222891428Y-85717142D01*
X223177142Y-85860000D01*
X223320000Y-86145714D01*
X223320000Y-87717142D01*
X224320000Y-85717142D02*
X225462857Y-85717142D01*
X224748571Y-84717142D02*
X224748571Y-87288571D01*
X224891428Y-87574285D01*
X225177142Y-87717142D01*
X225462857Y-87717142D01*
X227605714Y-87574285D02*
X227320000Y-87717142D01*
X226748571Y-87717142D01*
X226462857Y-87574285D01*
X226320000Y-87288571D01*
X226320000Y-86145714D01*
X226462857Y-85860000D01*
X226748571Y-85717142D01*
X227320000Y-85717142D01*
X227605714Y-85860000D01*
X227748571Y-86145714D01*
X227748571Y-86431428D01*
X226320000Y-86717142D01*
X229034285Y-87717142D02*
X229034285Y-85717142D01*
X229034285Y-86288571D02*
X229177142Y-86002857D01*
X229320000Y-85860000D01*
X229605714Y-85717142D01*
X229891428Y-85717142D01*
D10*
X69073333Y-148224761D02*
X69073333Y-146224761D01*
X69835238Y-146224761D01*
X70025714Y-146320000D01*
X70120952Y-146415238D01*
X70216190Y-146605714D01*
X70216190Y-146891428D01*
X70120952Y-147081904D01*
X70025714Y-147177142D01*
X69835238Y-147272380D01*
X69073333Y-147272380D01*
X72025714Y-148224761D02*
X71073333Y-148224761D01*
X71073333Y-146224761D01*
X72597142Y-147653333D02*
X73549523Y-147653333D01*
X72406666Y-148224761D02*
X73073333Y-146224761D01*
X73740000Y-148224761D01*
X74787619Y-147272380D02*
X74787619Y-148224761D01*
X74120952Y-146224761D02*
X74787619Y-147272380D01*
X75454285Y-146224761D01*
X76120952Y-147177142D02*
X76787619Y-147177142D01*
X77073333Y-148224761D02*
X76120952Y-148224761D01*
X76120952Y-146224761D01*
X77073333Y-146224761D01*
X79073333Y-148224761D02*
X78406666Y-147272380D01*
X77930476Y-148224761D02*
X77930476Y-146224761D01*
X78692380Y-146224761D01*
X78882857Y-146320000D01*
X78978095Y-146415238D01*
X79073333Y-146605714D01*
X79073333Y-146891428D01*
X78978095Y-147081904D01*
X78882857Y-147177142D01*
X78692380Y-147272380D01*
X77930476Y-147272380D01*
X82120952Y-147177142D02*
X81454285Y-147177142D01*
X81454285Y-148224761D02*
X81454285Y-146224761D01*
X82406666Y-146224761D01*
X83549523Y-146224761D02*
X83930476Y-146224761D01*
X84120952Y-146320000D01*
X84311428Y-146510476D01*
X84406666Y-146891428D01*
X84406666Y-147558095D01*
X84311428Y-147939047D01*
X84120952Y-148129523D01*
X83930476Y-148224761D01*
X83549523Y-148224761D01*
X83359047Y-148129523D01*
X83168571Y-147939047D01*
X83073333Y-147558095D01*
X83073333Y-146891428D01*
X83168571Y-146510476D01*
X83359047Y-146320000D01*
X83549523Y-146224761D01*
X85263809Y-146224761D02*
X85263809Y-147843809D01*
X85359047Y-148034285D01*
X85454285Y-148129523D01*
X85644761Y-148224761D01*
X86025714Y-148224761D01*
X86216190Y-148129523D01*
X86311428Y-148034285D01*
X86406666Y-147843809D01*
X86406666Y-146224761D01*
X88501904Y-148224761D02*
X87835238Y-147272380D01*
X87359047Y-148224761D02*
X87359047Y-146224761D01*
X88120952Y-146224761D01*
X88311428Y-146320000D01*
X88406666Y-146415238D01*
X88501904Y-146605714D01*
X88501904Y-146891428D01*
X88406666Y-147081904D01*
X88311428Y-147177142D01*
X88120952Y-147272380D01*
X87359047Y-147272380D01*
X170006666Y-148224761D02*
X170006666Y-146224761D01*
X170768571Y-146224761D01*
X170959047Y-146320000D01*
X171054285Y-146415238D01*
X171149523Y-146605714D01*
X171149523Y-146891428D01*
X171054285Y-147081904D01*
X170959047Y-147177142D01*
X170768571Y-147272380D01*
X170006666Y-147272380D01*
X172959047Y-148224761D02*
X172006666Y-148224761D01*
X172006666Y-146224761D01*
X173530476Y-147653333D02*
X174482857Y-147653333D01*
X173340000Y-148224761D02*
X174006666Y-146224761D01*
X174673333Y-148224761D01*
X175720952Y-147272380D02*
X175720952Y-148224761D01*
X175054285Y-146224761D02*
X175720952Y-147272380D01*
X176387619Y-146224761D01*
X177054285Y-147177142D02*
X177720952Y-147177142D01*
X178006666Y-148224761D02*
X177054285Y-148224761D01*
X177054285Y-146224761D01*
X178006666Y-146224761D01*
X180006666Y-148224761D02*
X179340000Y-147272380D01*
X178863809Y-148224761D02*
X178863809Y-146224761D01*
X179625714Y-146224761D01*
X179816190Y-146320000D01*
X179911428Y-146415238D01*
X180006666Y-146605714D01*
X180006666Y-146891428D01*
X179911428Y-147081904D01*
X179816190Y-147177142D01*
X179625714Y-147272380D01*
X178863809Y-147272380D01*
X182101904Y-146224761D02*
X183244761Y-146224761D01*
X182673333Y-148224761D02*
X182673333Y-146224761D01*
X183911428Y-148224761D02*
X183911428Y-146224761D01*
X183911428Y-147177142D02*
X185054285Y-147177142D01*
X185054285Y-148224761D02*
X185054285Y-146224761D01*
X187149523Y-148224761D02*
X186482857Y-147272380D01*
X186006666Y-148224761D02*
X186006666Y-146224761D01*
X186768571Y-146224761D01*
X186959047Y-146320000D01*
X187054285Y-146415238D01*
X187149523Y-146605714D01*
X187149523Y-146891428D01*
X187054285Y-147081904D01*
X186959047Y-147177142D01*
X186768571Y-147272380D01*
X186006666Y-147272380D01*
X188006666Y-147177142D02*
X188673333Y-147177142D01*
X188959047Y-148224761D02*
X188006666Y-148224761D01*
X188006666Y-146224761D01*
X188959047Y-146224761D01*
X189816190Y-147177142D02*
X190482857Y-147177142D01*
X190768571Y-148224761D02*
X189816190Y-148224761D01*
X189816190Y-146224761D01*
X190768571Y-146224761D01*
X189006666Y-29575238D02*
X189006666Y-31575238D01*
X188244761Y-31575238D01*
X188054285Y-31480000D01*
X187959047Y-31384761D01*
X187863809Y-31194285D01*
X187863809Y-30908571D01*
X187959047Y-30718095D01*
X188054285Y-30622857D01*
X188244761Y-30527619D01*
X189006666Y-30527619D01*
X186054285Y-29575238D02*
X187006666Y-29575238D01*
X187006666Y-31575238D01*
X185482857Y-30146666D02*
X184530476Y-30146666D01*
X185673333Y-29575238D02*
X185006666Y-31575238D01*
X184340000Y-29575238D01*
X183292380Y-30527619D02*
X183292380Y-29575238D01*
X183959047Y-31575238D02*
X183292380Y-30527619D01*
X182625714Y-31575238D01*
X181959047Y-30622857D02*
X181292380Y-30622857D01*
X181006666Y-29575238D02*
X181959047Y-29575238D01*
X181959047Y-31575238D01*
X181006666Y-31575238D01*
X179006666Y-29575238D02*
X179673333Y-30527619D01*
X180149523Y-29575238D02*
X180149523Y-31575238D01*
X179387619Y-31575238D01*
X179197142Y-31480000D01*
X179101904Y-31384761D01*
X179006666Y-31194285D01*
X179006666Y-30908571D01*
X179101904Y-30718095D01*
X179197142Y-30622857D01*
X179387619Y-30527619D01*
X180149523Y-30527619D01*
X176911428Y-31575238D02*
X175768571Y-31575238D01*
X176340000Y-29575238D02*
X176340000Y-31575238D01*
X175292380Y-31575238D02*
X174816190Y-29575238D01*
X174435238Y-31003809D01*
X174054285Y-29575238D01*
X173578095Y-31575238D01*
X172435238Y-31575238D02*
X172054285Y-31575238D01*
X171863809Y-31480000D01*
X171673333Y-31289523D01*
X171578095Y-30908571D01*
X171578095Y-30241904D01*
X171673333Y-29860952D01*
X171863809Y-29670476D01*
X172054285Y-29575238D01*
X172435238Y-29575238D01*
X172625714Y-29670476D01*
X172816190Y-29860952D01*
X172911428Y-30241904D01*
X172911428Y-30908571D01*
X172816190Y-31289523D01*
X172625714Y-31480000D01*
X172435238Y-31575238D01*
X87454285Y-29575238D02*
X87454285Y-31575238D01*
X86692380Y-31575238D01*
X86501904Y-31480000D01*
X86406666Y-31384761D01*
X86311428Y-31194285D01*
X86311428Y-30908571D01*
X86406666Y-30718095D01*
X86501904Y-30622857D01*
X86692380Y-30527619D01*
X87454285Y-30527619D01*
X84501904Y-29575238D02*
X85454285Y-29575238D01*
X85454285Y-31575238D01*
X83930476Y-30146666D02*
X82978095Y-30146666D01*
X84120952Y-29575238D02*
X83454285Y-31575238D01*
X82787619Y-29575238D01*
X81740000Y-30527619D02*
X81740000Y-29575238D01*
X82406666Y-31575238D02*
X81740000Y-30527619D01*
X81073333Y-31575238D01*
X80406666Y-30622857D02*
X79740000Y-30622857D01*
X79454285Y-29575238D02*
X80406666Y-29575238D01*
X80406666Y-31575238D01*
X79454285Y-31575238D01*
X77454285Y-29575238D02*
X78120952Y-30527619D01*
X78597142Y-29575238D02*
X78597142Y-31575238D01*
X77835238Y-31575238D01*
X77644761Y-31480000D01*
X77549523Y-31384761D01*
X77454285Y-31194285D01*
X77454285Y-30908571D01*
X77549523Y-30718095D01*
X77644761Y-30622857D01*
X77835238Y-30527619D01*
X78597142Y-30527619D01*
X74692380Y-31575238D02*
X74311428Y-31575238D01*
X74120952Y-31480000D01*
X73930476Y-31289523D01*
X73835238Y-30908571D01*
X73835238Y-30241904D01*
X73930476Y-29860952D01*
X74120952Y-29670476D01*
X74311428Y-29575238D01*
X74692380Y-29575238D01*
X74882857Y-29670476D01*
X75073333Y-29860952D01*
X75168571Y-30241904D01*
X75168571Y-30908571D01*
X75073333Y-31289523D01*
X74882857Y-31480000D01*
X74692380Y-31575238D01*
X72978095Y-29575238D02*
X72978095Y-31575238D01*
X71835238Y-29575238D01*
X71835238Y-31575238D01*
X70882857Y-30622857D02*
X70216190Y-30622857D01*
X69930476Y-29575238D02*
X70882857Y-29575238D01*
X70882857Y-31575238D01*
X69930476Y-31575238D01*
D12*
X44340000Y-124420000D02*
G75*
G03X44340000Y-124420000I-3600000J0D01*
G01*
X34740000Y-120420000D02*
X34740000Y-118420000D01*
X34740000Y-125420000D02*
X34740000Y-123420000D01*
X46740000Y-130420000D02*
X46740000Y-128420000D01*
X46740000Y-123420000D02*
X46740000Y-125420000D01*
X34740000Y-128420000D02*
X34740000Y-130420000D01*
X46740000Y-118420000D02*
X34740000Y-118420000D01*
X46740000Y-120420000D02*
X46740000Y-118420000D01*
X34740000Y-130420000D02*
X46740000Y-130420000D01*
X104140000Y-142875000D02*
X78740000Y-142875000D01*
X104140000Y-121285000D02*
X104140000Y-142875000D01*
X53340000Y-121285000D02*
X104140000Y-121285000D01*
X53340000Y-142875000D02*
X53340000Y-121285000D01*
X78740000Y-142875000D02*
X53340000Y-142875000D01*
X79447107Y-134200000D02*
G75*
G03X79447107Y-134200000I-707107J0D01*
G01*
X79947107Y-129700000D02*
G75*
G03X79947107Y-129700000I-707107J0D01*
G01*
X99740000Y-138200000D02*
G75*
G03X99740000Y-138200000I-500000J0D01*
G01*
X88740000Y-138200000D02*
G75*
G03X88740000Y-138200000I-500000J0D01*
G01*
X77740000Y-138200000D02*
G75*
G03X77740000Y-138200000I-500000J0D01*
G01*
X66740000Y-138200000D02*
G75*
G03X66740000Y-138200000I-500000J0D01*
G01*
X87240000Y-138200000D02*
X88240000Y-126200000D01*
X80240000Y-138200000D02*
X87240000Y-138200000D01*
X81240000Y-126200000D02*
X80240000Y-138200000D01*
X88240000Y-126200000D02*
X81240000Y-126200000D01*
X80740000Y-132200000D02*
X87740000Y-132200000D01*
X91740000Y-132200000D02*
X98740000Y-132200000D01*
X99240000Y-126200000D02*
X92240000Y-126200000D01*
X91240000Y-138200000D02*
X98240000Y-138200000D01*
X98240000Y-138200000D02*
X99240000Y-126200000D01*
X92240000Y-126200000D02*
X91240000Y-138200000D01*
X76240000Y-138200000D02*
X77240000Y-126200000D01*
X69240000Y-138200000D02*
X76240000Y-138200000D01*
X70240000Y-126200000D02*
X69240000Y-138200000D01*
X77240000Y-126200000D02*
X70240000Y-126200000D01*
X69740000Y-132200000D02*
X76740000Y-132200000D01*
X58740000Y-132200000D02*
X65740000Y-132200000D01*
X66240000Y-126200000D02*
X59240000Y-126200000D01*
X65240000Y-138200000D02*
X66240000Y-126200000D01*
X58240000Y-138200000D02*
X65240000Y-138200000D01*
X59240000Y-126200000D02*
X58240000Y-138200000D01*
X205740000Y-142875000D02*
X180340000Y-142875000D01*
X205740000Y-121285000D02*
X205740000Y-142875000D01*
X154940000Y-121285000D02*
X205740000Y-121285000D01*
X154940000Y-142875000D02*
X154940000Y-121285000D01*
X180340000Y-142875000D02*
X154940000Y-142875000D01*
X181047107Y-134200000D02*
G75*
G03X181047107Y-134200000I-707107J0D01*
G01*
X181547107Y-129700000D02*
G75*
G03X181547107Y-129700000I-707107J0D01*
G01*
X201340000Y-138200000D02*
G75*
G03X201340000Y-138200000I-500000J0D01*
G01*
X190340000Y-138200000D02*
G75*
G03X190340000Y-138200000I-500000J0D01*
G01*
X179340000Y-138200000D02*
G75*
G03X179340000Y-138200000I-500000J0D01*
G01*
X168340000Y-138200000D02*
G75*
G03X168340000Y-138200000I-500000J0D01*
G01*
X188840000Y-138200000D02*
X189840000Y-126200000D01*
X181840000Y-138200000D02*
X188840000Y-138200000D01*
X182840000Y-126200000D02*
X181840000Y-138200000D01*
X189840000Y-126200000D02*
X182840000Y-126200000D01*
X182340000Y-132200000D02*
X189340000Y-132200000D01*
X193340000Y-132200000D02*
X200340000Y-132200000D01*
X200840000Y-126200000D02*
X193840000Y-126200000D01*
X192840000Y-138200000D02*
X199840000Y-138200000D01*
X199840000Y-138200000D02*
X200840000Y-126200000D01*
X193840000Y-126200000D02*
X192840000Y-138200000D01*
X177840000Y-138200000D02*
X178840000Y-126200000D01*
X170840000Y-138200000D02*
X177840000Y-138200000D01*
X171840000Y-126200000D02*
X170840000Y-138200000D01*
X178840000Y-126200000D02*
X171840000Y-126200000D01*
X171340000Y-132200000D02*
X178340000Y-132200000D01*
X160340000Y-132200000D02*
X167340000Y-132200000D01*
X167840000Y-126200000D02*
X160840000Y-126200000D01*
X166840000Y-138200000D02*
X167840000Y-126200000D01*
X159840000Y-138200000D02*
X166840000Y-138200000D01*
X160840000Y-126200000D02*
X159840000Y-138200000D01*
D13*
X62290000Y-75040000D02*
X62290000Y-73390000D01*
X36770000Y-75040000D02*
X62290000Y-75040000D01*
X36770000Y-69740000D02*
X36770000Y-75040000D01*
X62290000Y-69740000D02*
X36770000Y-69740000D01*
X62290000Y-71390000D02*
X62290000Y-69740000D01*
X62290000Y-73390000D02*
G75*
G02X62290000Y-71390000I0J1000000D01*
G01*
X54840000Y-66040000D02*
X54070000Y-66040000D01*
X46760000Y-66040000D02*
X47530000Y-66040000D01*
X54070000Y-64670000D02*
X47530000Y-64670000D01*
X54070000Y-67410000D02*
X54070000Y-64670000D01*
X47530000Y-67410000D02*
X54070000Y-67410000D01*
X47530000Y-64670000D02*
X47530000Y-67410000D01*
X60299000Y-65120000D02*
X59041000Y-65120000D01*
X60299000Y-66960000D02*
X59041000Y-66960000D01*
D12*
X154940000Y-34925000D02*
X180340000Y-34925000D01*
X154940000Y-56515000D02*
X154940000Y-34925000D01*
X205740000Y-56515000D02*
X154940000Y-56515000D01*
X205740000Y-34925000D02*
X205740000Y-56515000D01*
X180340000Y-34925000D02*
X205740000Y-34925000D01*
X181047107Y-43600000D02*
G75*
G03X181047107Y-43600000I-707107J0D01*
G01*
X180547107Y-48100000D02*
G75*
G03X180547107Y-48100000I-707107J0D01*
G01*
X160340000Y-39600000D02*
G75*
G03X160340000Y-39600000I-500000J0D01*
G01*
X171340000Y-39600000D02*
G75*
G03X171340000Y-39600000I-500000J0D01*
G01*
X182340000Y-39600000D02*
G75*
G03X182340000Y-39600000I-500000J0D01*
G01*
X193340000Y-39600000D02*
G75*
G03X193340000Y-39600000I-500000J0D01*
G01*
X171840000Y-39600000D02*
X170840000Y-51600000D01*
X178840000Y-39600000D02*
X171840000Y-39600000D01*
X177840000Y-51600000D02*
X178840000Y-39600000D01*
X170840000Y-51600000D02*
X177840000Y-51600000D01*
X178340000Y-45600000D02*
X171340000Y-45600000D01*
X167340000Y-45600000D02*
X160340000Y-45600000D01*
X159840000Y-51600000D02*
X166840000Y-51600000D01*
X167840000Y-39600000D02*
X160840000Y-39600000D01*
X160840000Y-39600000D02*
X159840000Y-51600000D01*
X166840000Y-51600000D02*
X167840000Y-39600000D01*
X182840000Y-39600000D02*
X181840000Y-51600000D01*
X189840000Y-39600000D02*
X182840000Y-39600000D01*
X188840000Y-51600000D02*
X189840000Y-39600000D01*
X181840000Y-51600000D02*
X188840000Y-51600000D01*
X189340000Y-45600000D02*
X182340000Y-45600000D01*
X200340000Y-45600000D02*
X193340000Y-45600000D01*
X192840000Y-51600000D02*
X199840000Y-51600000D01*
X193840000Y-39600000D02*
X192840000Y-51600000D01*
X200840000Y-39600000D02*
X193840000Y-39600000D01*
X199840000Y-51600000D02*
X200840000Y-39600000D01*
X44340000Y-139740000D02*
G75*
G03X44340000Y-139740000I-3600000J0D01*
G01*
X34740000Y-135740000D02*
X34740000Y-133740000D01*
X34740000Y-140740000D02*
X34740000Y-138740000D01*
X46740000Y-145740000D02*
X46740000Y-143740000D01*
X46740000Y-138740000D02*
X46740000Y-140740000D01*
X34740000Y-143740000D02*
X34740000Y-145740000D01*
X46740000Y-133740000D02*
X34740000Y-133740000D01*
X46740000Y-135740000D02*
X46740000Y-133740000D01*
X34740000Y-145740000D02*
X46740000Y-145740000D01*
X221940000Y-139740000D02*
G75*
G03X221940000Y-139740000I-3600000J0D01*
G01*
X212340000Y-135740000D02*
X212340000Y-133740000D01*
X212340000Y-140740000D02*
X212340000Y-138740000D01*
X224340000Y-145740000D02*
X224340000Y-143740000D01*
X224340000Y-138740000D02*
X224340000Y-140740000D01*
X212340000Y-143740000D02*
X212340000Y-145740000D01*
X224340000Y-133740000D02*
X212340000Y-133740000D01*
X224340000Y-135740000D02*
X224340000Y-133740000D01*
X212340000Y-145740000D02*
X224340000Y-145740000D01*
X221940000Y-124420000D02*
G75*
G03X221940000Y-124420000I-3600000J0D01*
G01*
X212340000Y-120420000D02*
X212340000Y-118420000D01*
X212340000Y-125420000D02*
X212340000Y-123420000D01*
X224340000Y-130420000D02*
X224340000Y-128420000D01*
X224340000Y-123420000D02*
X224340000Y-125420000D01*
X212340000Y-128420000D02*
X212340000Y-130420000D01*
X224340000Y-118420000D02*
X212340000Y-118420000D01*
X224340000Y-120420000D02*
X224340000Y-118420000D01*
X212340000Y-130420000D02*
X224340000Y-130420000D01*
X221940000Y-53380000D02*
G75*
G03X221940000Y-53380000I-3600000J0D01*
G01*
X224340000Y-57380000D02*
X224340000Y-59380000D01*
X224340000Y-52380000D02*
X224340000Y-54380000D01*
X212340000Y-47380000D02*
X212340000Y-49380000D01*
X212340000Y-54380000D02*
X212340000Y-52380000D01*
X224340000Y-49380000D02*
X224340000Y-47380000D01*
X212340000Y-59380000D02*
X224340000Y-59380000D01*
X212340000Y-57380000D02*
X212340000Y-59380000D01*
X224340000Y-47380000D02*
X212340000Y-47380000D01*
X221940000Y-38060000D02*
G75*
G03X221940000Y-38060000I-3600000J0D01*
G01*
X224340000Y-42060000D02*
X224340000Y-44060000D01*
X224340000Y-37060000D02*
X224340000Y-39060000D01*
X212340000Y-32060000D02*
X212340000Y-34060000D01*
X212340000Y-39060000D02*
X212340000Y-37060000D01*
X224340000Y-34060000D02*
X224340000Y-32060000D01*
X212340000Y-44060000D02*
X224340000Y-44060000D01*
X212340000Y-42060000D02*
X212340000Y-44060000D01*
X224340000Y-32060000D02*
X212340000Y-32060000D01*
X44340000Y-53380000D02*
G75*
G03X44340000Y-53380000I-3600000J0D01*
G01*
X46740000Y-57380000D02*
X46740000Y-59380000D01*
X46740000Y-52380000D02*
X46740000Y-54380000D01*
X34740000Y-47380000D02*
X34740000Y-49380000D01*
X34740000Y-54380000D02*
X34740000Y-52380000D01*
X46740000Y-49380000D02*
X46740000Y-47380000D01*
X34740000Y-59380000D02*
X46740000Y-59380000D01*
X34740000Y-57380000D02*
X34740000Y-59380000D01*
X46740000Y-47380000D02*
X34740000Y-47380000D01*
X44340000Y-38060000D02*
G75*
G03X44340000Y-38060000I-3600000J0D01*
G01*
X46740000Y-42060000D02*
X46740000Y-44060000D01*
X46740000Y-37060000D02*
X46740000Y-39060000D01*
X34740000Y-32060000D02*
X34740000Y-34060000D01*
X34740000Y-39060000D02*
X34740000Y-37060000D01*
X46740000Y-34060000D02*
X46740000Y-32060000D01*
X34740000Y-44060000D02*
X46740000Y-44060000D01*
X34740000Y-42060000D02*
X34740000Y-44060000D01*
X46740000Y-32060000D02*
X34740000Y-32060000D01*
X145740000Y-88940000D02*
G75*
G03X145740000Y-88940000I-3600000J0D01*
G01*
X136140000Y-84940000D02*
X136140000Y-82940000D01*
X136140000Y-89940000D02*
X136140000Y-87940000D01*
X148140000Y-94940000D02*
X148140000Y-92940000D01*
X148140000Y-87940000D02*
X148140000Y-89940000D01*
X136140000Y-92940000D02*
X136140000Y-94940000D01*
X148140000Y-82940000D02*
X136140000Y-82940000D01*
X148140000Y-84940000D02*
X148140000Y-82940000D01*
X136140000Y-94940000D02*
X148140000Y-94940000D01*
X120340000Y-88940000D02*
G75*
G03X120340000Y-88940000I-3600000J0D01*
G01*
X110740000Y-84940000D02*
X110740000Y-82940000D01*
X110740000Y-89940000D02*
X110740000Y-87940000D01*
X122740000Y-94940000D02*
X122740000Y-92940000D01*
X122740000Y-87940000D02*
X122740000Y-89940000D01*
X110740000Y-92940000D02*
X110740000Y-94940000D01*
X122740000Y-82940000D02*
X110740000Y-82940000D01*
X122740000Y-84940000D02*
X122740000Y-82940000D01*
X110740000Y-94940000D02*
X122740000Y-94940000D01*
X53340000Y-34925000D02*
X78740000Y-34925000D01*
X53340000Y-56515000D02*
X53340000Y-34925000D01*
X104140000Y-56515000D02*
X53340000Y-56515000D01*
X104140000Y-34925000D02*
X104140000Y-56515000D01*
X78740000Y-34925000D02*
X104140000Y-34925000D01*
X79447107Y-43600000D02*
G75*
G03X79447107Y-43600000I-707107J0D01*
G01*
X78947107Y-48100000D02*
G75*
G03X78947107Y-48100000I-707107J0D01*
G01*
X58740000Y-39600000D02*
G75*
G03X58740000Y-39600000I-500000J0D01*
G01*
X69740000Y-39600000D02*
G75*
G03X69740000Y-39600000I-500000J0D01*
G01*
X80740000Y-39600000D02*
G75*
G03X80740000Y-39600000I-500000J0D01*
G01*
X91740000Y-39600000D02*
G75*
G03X91740000Y-39600000I-500000J0D01*
G01*
X70240000Y-39600000D02*
X69240000Y-51600000D01*
X77240000Y-39600000D02*
X70240000Y-39600000D01*
X76240000Y-51600000D02*
X77240000Y-39600000D01*
X69240000Y-51600000D02*
X76240000Y-51600000D01*
X76740000Y-45600000D02*
X69740000Y-45600000D01*
X65740000Y-45600000D02*
X58740000Y-45600000D01*
X58240000Y-51600000D02*
X65240000Y-51600000D01*
X66240000Y-39600000D02*
X59240000Y-39600000D01*
X59240000Y-39600000D02*
X58240000Y-51600000D01*
X65240000Y-51600000D02*
X66240000Y-39600000D01*
X81240000Y-39600000D02*
X80240000Y-51600000D01*
X88240000Y-39600000D02*
X81240000Y-39600000D01*
X87240000Y-51600000D02*
X88240000Y-39600000D01*
X80240000Y-51600000D02*
X87240000Y-51600000D01*
X87740000Y-45600000D02*
X80740000Y-45600000D01*
X98740000Y-45600000D02*
X91740000Y-45600000D01*
X91240000Y-51600000D02*
X98240000Y-51600000D01*
X92240000Y-39600000D02*
X91240000Y-51600000D01*
X99240000Y-39600000D02*
X92240000Y-39600000D01*
X98240000Y-51600000D02*
X99240000Y-39600000D01*
X111640000Y-139300000D02*
X112240000Y-139300000D01*
X111640000Y-140100000D02*
X111640000Y-139300000D01*
X112240000Y-140100000D02*
X111640000Y-140100000D01*
X121440000Y-139700000D02*
G75*
G03X121440000Y-139700000I-4600000J0D01*
G01*
X137040000Y-139300000D02*
X137640000Y-139300000D01*
X137040000Y-140100000D02*
X137040000Y-139300000D01*
X137640000Y-140100000D02*
X137040000Y-140100000D01*
X146840000Y-139700000D02*
G75*
G03X146840000Y-139700000I-4600000J0D01*
G01*
X147440000Y-38500000D02*
X146840000Y-38500000D01*
X147440000Y-37700000D02*
X147440000Y-38500000D01*
X146840000Y-37700000D02*
X147440000Y-37700000D01*
X146840000Y-38100000D02*
G75*
G03X146840000Y-38100000I-4600000J0D01*
G01*
X122040000Y-38500000D02*
X121440000Y-38500000D01*
X122040000Y-37700000D02*
X122040000Y-38500000D01*
X121440000Y-37700000D02*
X122040000Y-37700000D01*
X121440000Y-38100000D02*
G75*
G03X121440000Y-38100000I-4600000J0D01*
G01*
D13*
X36770000Y-102760000D02*
X36770000Y-104410000D01*
X62290000Y-102760000D02*
X36770000Y-102760000D01*
X62290000Y-108060000D02*
X62290000Y-102760000D01*
X36770000Y-108060000D02*
X62290000Y-108060000D01*
X36770000Y-106410000D02*
X36770000Y-108060000D01*
X36770000Y-104410000D02*
G75*
G02X36770000Y-106410000I0J-1000000D01*
G01*
X83400000Y-90400000D02*
X83400000Y-91400000D01*
X83900000Y-90900000D02*
X83400000Y-90400000D01*
X83400000Y-91400000D02*
X83900000Y-90900000D01*
X88620000Y-84490000D02*
X88310000Y-84490000D01*
X88620000Y-93310000D02*
X88310000Y-93310000D01*
X84410000Y-93310000D02*
X84100000Y-93310000D01*
X88620000Y-84490000D02*
X88620000Y-93310000D01*
X84100000Y-84490000D02*
X84410000Y-84490000D01*
X84100000Y-93310000D02*
X84100000Y-84490000D01*
X78740000Y-84860000D02*
X78740000Y-85630000D01*
X78740000Y-92940000D02*
X78740000Y-92170000D01*
X77370000Y-85630000D02*
X77370000Y-92170000D01*
X80110000Y-85630000D02*
X77370000Y-85630000D01*
X80110000Y-92170000D02*
X80110000Y-85630000D01*
X77370000Y-92170000D02*
X80110000Y-92170000D01*
X67310000Y-82550000D02*
X69850000Y-82550000D01*
X69850000Y-82550000D02*
X69850000Y-79880000D01*
X67310000Y-79880000D02*
X29080000Y-79880000D01*
X72520000Y-79880000D02*
X69850000Y-79880000D01*
X69850000Y-95250000D02*
X69850000Y-97920000D01*
X69850000Y-95250000D02*
X31750000Y-95250000D01*
X31750000Y-95250000D02*
X31750000Y-97920000D01*
X67310000Y-82550000D02*
X67310000Y-79880000D01*
X67310000Y-82550000D02*
X31750000Y-82550000D01*
X31750000Y-82550000D02*
X31750000Y-79880000D01*
X29080000Y-79880000D02*
X29080000Y-97920000D01*
X29080000Y-97920000D02*
X72520000Y-97920000D01*
X72520000Y-97920000D02*
X72520000Y-79880000D01*
X221900000Y-74321000D02*
X221900000Y-75579000D01*
X220060000Y-74321000D02*
X220060000Y-75579000D01*
X196201000Y-102520000D02*
X197459000Y-102520000D01*
X196201000Y-100680000D02*
X197459000Y-100680000D01*
X38761000Y-112680000D02*
X40019000Y-112680000D01*
X38761000Y-110840000D02*
X40019000Y-110840000D01*
X141631000Y-75280000D02*
X142889000Y-75280000D01*
X141631000Y-77120000D02*
X142889000Y-77120000D01*
X117449000Y-102520000D02*
X116191000Y-102520000D01*
X117449000Y-100680000D02*
X116191000Y-100680000D01*
X164180000Y-84429000D02*
X164180000Y-83171000D01*
X166020000Y-84429000D02*
X166020000Y-83171000D01*
X82550000Y-67540000D02*
X82550000Y-66770000D01*
X82550000Y-59460000D02*
X82550000Y-60230000D01*
X83920000Y-66770000D02*
X83920000Y-60230000D01*
X81180000Y-66770000D02*
X83920000Y-66770000D01*
X81180000Y-60230000D02*
X81180000Y-66770000D01*
X83920000Y-60230000D02*
X81180000Y-60230000D01*
X73760000Y-60230000D02*
X71020000Y-60230000D01*
X71020000Y-60230000D02*
X71020000Y-66770000D01*
X71020000Y-66770000D02*
X73760000Y-66770000D01*
X73760000Y-66770000D02*
X73760000Y-60230000D01*
X72390000Y-59460000D02*
X72390000Y-60230000D01*
X72390000Y-67540000D02*
X72390000Y-66770000D01*
X74930000Y-67540000D02*
X74930000Y-66770000D01*
X74930000Y-59460000D02*
X74930000Y-60230000D01*
X76300000Y-66770000D02*
X76300000Y-60230000D01*
X73560000Y-66770000D02*
X76300000Y-66770000D01*
X73560000Y-60230000D02*
X73560000Y-66770000D01*
X76300000Y-60230000D02*
X73560000Y-60230000D01*
X86460000Y-60230000D02*
X83720000Y-60230000D01*
X83720000Y-60230000D02*
X83720000Y-66770000D01*
X83720000Y-66770000D02*
X86460000Y-66770000D01*
X86460000Y-66770000D02*
X86460000Y-60230000D01*
X85090000Y-59460000D02*
X85090000Y-60230000D01*
X85090000Y-67540000D02*
X85090000Y-66770000D01*
X87630000Y-67540000D02*
X87630000Y-66770000D01*
X87630000Y-59460000D02*
X87630000Y-60230000D01*
X89000000Y-66770000D02*
X89000000Y-60230000D01*
X86260000Y-66770000D02*
X89000000Y-66770000D01*
X86260000Y-60230000D02*
X86260000Y-66770000D01*
X89000000Y-60230000D02*
X86260000Y-60230000D01*
X81380000Y-60230000D02*
X78640000Y-60230000D01*
X78640000Y-60230000D02*
X78640000Y-66770000D01*
X78640000Y-66770000D02*
X81380000Y-66770000D01*
X81380000Y-66770000D02*
X81380000Y-60230000D01*
X80010000Y-59460000D02*
X80010000Y-60230000D01*
X80010000Y-67540000D02*
X80010000Y-66770000D01*
X69850000Y-67540000D02*
X69850000Y-66770000D01*
X69850000Y-59460000D02*
X69850000Y-60230000D01*
X71220000Y-66770000D02*
X71220000Y-60230000D01*
X68480000Y-66770000D02*
X71220000Y-66770000D01*
X68480000Y-60230000D02*
X68480000Y-66770000D01*
X71220000Y-60230000D02*
X68480000Y-60230000D01*
X78840000Y-60230000D02*
X76100000Y-60230000D01*
X76100000Y-60230000D02*
X76100000Y-66770000D01*
X76100000Y-66770000D02*
X78840000Y-66770000D01*
X78840000Y-66770000D02*
X78840000Y-60230000D01*
X77470000Y-59460000D02*
X77470000Y-60230000D01*
X77470000Y-67540000D02*
X77470000Y-66770000D01*
X184150000Y-67540000D02*
X184150000Y-66770000D01*
X184150000Y-59460000D02*
X184150000Y-60230000D01*
X185520000Y-66770000D02*
X185520000Y-60230000D01*
X182780000Y-66770000D02*
X185520000Y-66770000D01*
X182780000Y-60230000D02*
X182780000Y-66770000D01*
X185520000Y-60230000D02*
X182780000Y-60230000D01*
X175360000Y-60230000D02*
X172620000Y-60230000D01*
X172620000Y-60230000D02*
X172620000Y-66770000D01*
X172620000Y-66770000D02*
X175360000Y-66770000D01*
X175360000Y-66770000D02*
X175360000Y-60230000D01*
X173990000Y-59460000D02*
X173990000Y-60230000D01*
X173990000Y-67540000D02*
X173990000Y-66770000D01*
X176530000Y-67540000D02*
X176530000Y-66770000D01*
X176530000Y-59460000D02*
X176530000Y-60230000D01*
X177900000Y-66770000D02*
X177900000Y-60230000D01*
X175160000Y-66770000D02*
X177900000Y-66770000D01*
X175160000Y-60230000D02*
X175160000Y-66770000D01*
X177900000Y-60230000D02*
X175160000Y-60230000D01*
X188060000Y-60230000D02*
X185320000Y-60230000D01*
X185320000Y-60230000D02*
X185320000Y-66770000D01*
X185320000Y-66770000D02*
X188060000Y-66770000D01*
X188060000Y-66770000D02*
X188060000Y-60230000D01*
X186690000Y-59460000D02*
X186690000Y-60230000D01*
X186690000Y-67540000D02*
X186690000Y-66770000D01*
X189230000Y-67540000D02*
X189230000Y-66770000D01*
X189230000Y-59460000D02*
X189230000Y-60230000D01*
X190600000Y-66770000D02*
X190600000Y-60230000D01*
X187860000Y-66770000D02*
X190600000Y-66770000D01*
X187860000Y-60230000D02*
X187860000Y-66770000D01*
X190600000Y-60230000D02*
X187860000Y-60230000D01*
X182980000Y-60230000D02*
X180240000Y-60230000D01*
X180240000Y-60230000D02*
X180240000Y-66770000D01*
X180240000Y-66770000D02*
X182980000Y-66770000D01*
X182980000Y-66770000D02*
X182980000Y-60230000D01*
X181610000Y-59460000D02*
X181610000Y-60230000D01*
X181610000Y-67540000D02*
X181610000Y-66770000D01*
X171450000Y-67540000D02*
X171450000Y-66770000D01*
X171450000Y-59460000D02*
X171450000Y-60230000D01*
X172820000Y-66770000D02*
X172820000Y-60230000D01*
X170080000Y-66770000D02*
X172820000Y-66770000D01*
X170080000Y-60230000D02*
X170080000Y-66770000D01*
X172820000Y-60230000D02*
X170080000Y-60230000D01*
X180440000Y-60230000D02*
X177700000Y-60230000D01*
X177700000Y-60230000D02*
X177700000Y-66770000D01*
X177700000Y-66770000D02*
X180440000Y-66770000D01*
X180440000Y-66770000D02*
X180440000Y-60230000D01*
X179070000Y-59460000D02*
X179070000Y-60230000D01*
X179070000Y-67540000D02*
X179070000Y-66770000D01*
X176530000Y-110260000D02*
X176530000Y-111030000D01*
X176530000Y-118340000D02*
X176530000Y-117570000D01*
X175160000Y-111030000D02*
X175160000Y-117570000D01*
X177900000Y-111030000D02*
X175160000Y-111030000D01*
X177900000Y-117570000D02*
X177900000Y-111030000D01*
X175160000Y-117570000D02*
X177900000Y-117570000D01*
X185320000Y-117570000D02*
X188060000Y-117570000D01*
X188060000Y-117570000D02*
X188060000Y-111030000D01*
X188060000Y-111030000D02*
X185320000Y-111030000D01*
X185320000Y-111030000D02*
X185320000Y-117570000D01*
X186690000Y-118340000D02*
X186690000Y-117570000D01*
X186690000Y-110260000D02*
X186690000Y-111030000D01*
X184150000Y-110260000D02*
X184150000Y-111030000D01*
X184150000Y-118340000D02*
X184150000Y-117570000D01*
X182780000Y-111030000D02*
X182780000Y-117570000D01*
X185520000Y-111030000D02*
X182780000Y-111030000D01*
X185520000Y-117570000D02*
X185520000Y-111030000D01*
X182780000Y-117570000D02*
X185520000Y-117570000D01*
X172620000Y-117570000D02*
X175360000Y-117570000D01*
X175360000Y-117570000D02*
X175360000Y-111030000D01*
X175360000Y-111030000D02*
X172620000Y-111030000D01*
X172620000Y-111030000D02*
X172620000Y-117570000D01*
X173990000Y-118340000D02*
X173990000Y-117570000D01*
X173990000Y-110260000D02*
X173990000Y-111030000D01*
X171450000Y-110260000D02*
X171450000Y-111030000D01*
X171450000Y-118340000D02*
X171450000Y-117570000D01*
X170080000Y-111030000D02*
X170080000Y-117570000D01*
X172820000Y-111030000D02*
X170080000Y-111030000D01*
X172820000Y-117570000D02*
X172820000Y-111030000D01*
X170080000Y-117570000D02*
X172820000Y-117570000D01*
X177700000Y-117570000D02*
X180440000Y-117570000D01*
X180440000Y-117570000D02*
X180440000Y-111030000D01*
X180440000Y-111030000D02*
X177700000Y-111030000D01*
X177700000Y-111030000D02*
X177700000Y-117570000D01*
X179070000Y-118340000D02*
X179070000Y-117570000D01*
X179070000Y-110260000D02*
X179070000Y-111030000D01*
X189230000Y-110260000D02*
X189230000Y-111030000D01*
X189230000Y-118340000D02*
X189230000Y-117570000D01*
X187860000Y-111030000D02*
X187860000Y-117570000D01*
X190600000Y-111030000D02*
X187860000Y-111030000D01*
X190600000Y-117570000D02*
X190600000Y-111030000D01*
X187860000Y-117570000D02*
X190600000Y-117570000D01*
X180240000Y-117570000D02*
X182980000Y-117570000D01*
X182980000Y-117570000D02*
X182980000Y-111030000D01*
X182980000Y-111030000D02*
X180240000Y-111030000D01*
X180240000Y-111030000D02*
X180240000Y-117570000D01*
X181610000Y-118340000D02*
X181610000Y-117570000D01*
X181610000Y-110260000D02*
X181610000Y-111030000D01*
X74930000Y-110260000D02*
X74930000Y-111030000D01*
X74930000Y-118340000D02*
X74930000Y-117570000D01*
X73560000Y-111030000D02*
X73560000Y-117570000D01*
X76300000Y-111030000D02*
X73560000Y-111030000D01*
X76300000Y-117570000D02*
X76300000Y-111030000D01*
X73560000Y-117570000D02*
X76300000Y-117570000D01*
X83720000Y-117570000D02*
X86460000Y-117570000D01*
X86460000Y-117570000D02*
X86460000Y-111030000D01*
X86460000Y-111030000D02*
X83720000Y-111030000D01*
X83720000Y-111030000D02*
X83720000Y-117570000D01*
X85090000Y-118340000D02*
X85090000Y-117570000D01*
X85090000Y-110260000D02*
X85090000Y-111030000D01*
X82550000Y-110260000D02*
X82550000Y-111030000D01*
X82550000Y-118340000D02*
X82550000Y-117570000D01*
X81180000Y-111030000D02*
X81180000Y-117570000D01*
X83920000Y-111030000D02*
X81180000Y-111030000D01*
X83920000Y-117570000D02*
X83920000Y-111030000D01*
X81180000Y-117570000D02*
X83920000Y-117570000D01*
X71020000Y-117570000D02*
X73760000Y-117570000D01*
X73760000Y-117570000D02*
X73760000Y-111030000D01*
X73760000Y-111030000D02*
X71020000Y-111030000D01*
X71020000Y-111030000D02*
X71020000Y-117570000D01*
X72390000Y-118340000D02*
X72390000Y-117570000D01*
X72390000Y-110260000D02*
X72390000Y-111030000D01*
X68480000Y-117570000D02*
X71220000Y-117570000D01*
X71220000Y-117570000D02*
X71220000Y-111030000D01*
X71220000Y-111030000D02*
X68480000Y-111030000D01*
X68480000Y-111030000D02*
X68480000Y-117570000D01*
X69850000Y-118340000D02*
X69850000Y-117570000D01*
X69850000Y-110260000D02*
X69850000Y-111030000D01*
X77470000Y-110260000D02*
X77470000Y-111030000D01*
X77470000Y-118340000D02*
X77470000Y-117570000D01*
X76100000Y-111030000D02*
X76100000Y-117570000D01*
X78840000Y-111030000D02*
X76100000Y-111030000D01*
X78840000Y-117570000D02*
X78840000Y-111030000D01*
X76100000Y-117570000D02*
X78840000Y-117570000D01*
X86260000Y-117570000D02*
X89000000Y-117570000D01*
X89000000Y-117570000D02*
X89000000Y-111030000D01*
X89000000Y-111030000D02*
X86260000Y-111030000D01*
X86260000Y-111030000D02*
X86260000Y-117570000D01*
X87630000Y-118340000D02*
X87630000Y-117570000D01*
X87630000Y-110260000D02*
X87630000Y-111030000D01*
X80010000Y-110260000D02*
X80010000Y-111030000D01*
X80010000Y-118340000D02*
X80010000Y-117570000D01*
X78640000Y-111030000D02*
X78640000Y-117570000D01*
X81380000Y-111030000D02*
X78640000Y-111030000D01*
X81380000Y-117570000D02*
X81380000Y-111030000D01*
X78640000Y-117570000D02*
X81380000Y-117570000D01*
X51530000Y-113130000D02*
X51530000Y-110390000D01*
X51530000Y-110390000D02*
X44990000Y-110390000D01*
X44990000Y-110390000D02*
X44990000Y-113130000D01*
X44990000Y-113130000D02*
X51530000Y-113130000D01*
X52300000Y-111760000D02*
X51530000Y-111760000D01*
X44220000Y-111760000D02*
X44990000Y-111760000D01*
X138430000Y-59820000D02*
X138430000Y-57020000D01*
X117940000Y-59820000D02*
X141140000Y-59820000D01*
X117940000Y-57020000D02*
X117940000Y-59820000D01*
X141140000Y-57020000D02*
X117940000Y-57020000D01*
X141140000Y-59820000D02*
X141140000Y-57020000D01*
X117940000Y-117980000D02*
X117940000Y-120780000D01*
X117940000Y-120780000D02*
X141140000Y-120780000D01*
X141140000Y-120780000D02*
X141140000Y-117980000D01*
X141140000Y-117980000D02*
X117940000Y-117980000D01*
X120650000Y-117980000D02*
X120650000Y-120780000D01*
X166200000Y-81150000D02*
X166200000Y-83950000D01*
X166200000Y-83950000D02*
X189400000Y-83950000D01*
X189400000Y-83950000D02*
X189400000Y-81150000D01*
X189400000Y-81150000D02*
X166200000Y-81150000D01*
X168910000Y-81150000D02*
X168910000Y-83950000D01*
X96800000Y-93310000D02*
X96800000Y-84490000D01*
X96800000Y-84490000D02*
X97110000Y-84490000D01*
X101320000Y-84490000D02*
X101320000Y-93310000D01*
X97110000Y-93310000D02*
X96800000Y-93310000D01*
X101320000Y-93310000D02*
X101010000Y-93310000D01*
X101320000Y-84490000D02*
X101010000Y-84490000D01*
X96100000Y-91400000D02*
X96600000Y-90900000D01*
X96600000Y-90900000D02*
X96100000Y-90400000D01*
X96100000Y-90400000D02*
X96100000Y-91400000D01*
X219770000Y-75040000D02*
X219770000Y-73390000D01*
X199330000Y-75040000D02*
X219770000Y-75040000D01*
X199330000Y-69740000D02*
X199330000Y-75040000D01*
X219770000Y-69740000D02*
X199330000Y-69740000D01*
X219770000Y-71390000D02*
X219770000Y-69740000D01*
X219770000Y-73390000D02*
G75*
G02X219770000Y-71390000I0J1000000D01*
G01*
X199330000Y-102760000D02*
X199330000Y-104410000D01*
X219770000Y-102760000D02*
X199330000Y-102760000D01*
X219770000Y-108060000D02*
X219770000Y-102760000D01*
X199330000Y-108060000D02*
X219770000Y-108060000D01*
X199330000Y-106410000D02*
X199330000Y-108060000D01*
X199330000Y-104410000D02*
G75*
G02X199330000Y-106410000I0J-1000000D01*
G01*
X139760000Y-73390000D02*
G75*
G02X139760000Y-71390000I0J1000000D01*
G01*
X139760000Y-71390000D02*
X139760000Y-69740000D01*
X139760000Y-69740000D02*
X119320000Y-69740000D01*
X119320000Y-69740000D02*
X119320000Y-75040000D01*
X119320000Y-75040000D02*
X139760000Y-75040000D01*
X139760000Y-75040000D02*
X139760000Y-73390000D01*
X119320000Y-102760000D02*
X119320000Y-104410000D01*
X139760000Y-102760000D02*
X119320000Y-102760000D01*
X139760000Y-108060000D02*
X139760000Y-102760000D01*
X119320000Y-108060000D02*
X139760000Y-108060000D01*
X119320000Y-106410000D02*
X119320000Y-108060000D01*
X119320000Y-104410000D02*
G75*
G02X119320000Y-106410000I0J-1000000D01*
G01*
X166310000Y-87900000D02*
G75*
G02X166310000Y-89900000I0J-1000000D01*
G01*
X166310000Y-89900000D02*
X166310000Y-91550000D01*
X166310000Y-91550000D02*
X186750000Y-91550000D01*
X186750000Y-91550000D02*
X186750000Y-86250000D01*
X186750000Y-86250000D02*
X166310000Y-86250000D01*
X166310000Y-86250000D02*
X166310000Y-87900000D01*
D12*
X40335238Y-131348571D02*
X40478095Y-131396190D01*
X40525714Y-131443809D01*
X40573333Y-131539047D01*
X40573333Y-131681904D01*
X40525714Y-131777142D01*
X40478095Y-131824761D01*
X40382857Y-131872380D01*
X40001904Y-131872380D01*
X40001904Y-130872380D01*
X40335238Y-130872380D01*
X40430476Y-130920000D01*
X40478095Y-130967619D01*
X40525714Y-131062857D01*
X40525714Y-131158095D01*
X40478095Y-131253333D01*
X40430476Y-131300952D01*
X40335238Y-131348571D01*
X40001904Y-131348571D01*
X41049523Y-131872380D02*
X41240000Y-131872380D01*
X41335238Y-131824761D01*
X41382857Y-131777142D01*
X41478095Y-131634285D01*
X41525714Y-131443809D01*
X41525714Y-131062857D01*
X41478095Y-130967619D01*
X41430476Y-130920000D01*
X41335238Y-130872380D01*
X41144761Y-130872380D01*
X41049523Y-130920000D01*
X41001904Y-130967619D01*
X40954285Y-131062857D01*
X40954285Y-131300952D01*
X41001904Y-131396190D01*
X41049523Y-131443809D01*
X41144761Y-131491428D01*
X41335238Y-131491428D01*
X41430476Y-131443809D01*
X41478095Y-131396190D01*
X41525714Y-131300952D01*
X55141904Y-119832380D02*
X55141904Y-118832380D01*
X55380000Y-118832380D01*
X55522857Y-118880000D01*
X55618095Y-118975238D01*
X55665714Y-119070476D01*
X55713333Y-119260952D01*
X55713333Y-119403809D01*
X55665714Y-119594285D01*
X55618095Y-119689523D01*
X55522857Y-119784761D01*
X55380000Y-119832380D01*
X55141904Y-119832380D01*
X56570476Y-119165714D02*
X56570476Y-119832380D01*
X56332380Y-118784761D02*
X56094285Y-119499047D01*
X56713333Y-119499047D01*
X156741904Y-119832380D02*
X156741904Y-118832380D01*
X156980000Y-118832380D01*
X157122857Y-118880000D01*
X157218095Y-118975238D01*
X157265714Y-119070476D01*
X157313333Y-119260952D01*
X157313333Y-119403809D01*
X157265714Y-119594285D01*
X157218095Y-119689523D01*
X157122857Y-119784761D01*
X156980000Y-119832380D01*
X156741904Y-119832380D01*
X157646666Y-118832380D02*
X158265714Y-118832380D01*
X157932380Y-119213333D01*
X158075238Y-119213333D01*
X158170476Y-119260952D01*
X158218095Y-119308571D01*
X158265714Y-119403809D01*
X158265714Y-119641904D01*
X158218095Y-119737142D01*
X158170476Y-119784761D01*
X158075238Y-119832380D01*
X157789523Y-119832380D01*
X157694285Y-119784761D01*
X157646666Y-119737142D01*
X64008095Y-71842380D02*
X64008095Y-72651904D01*
X64055714Y-72747142D01*
X64103333Y-72794761D01*
X64198571Y-72842380D01*
X64389047Y-72842380D01*
X64484285Y-72794761D01*
X64531904Y-72747142D01*
X64579523Y-72651904D01*
X64579523Y-71842380D01*
X65008095Y-71937619D02*
X65055714Y-71890000D01*
X65150952Y-71842380D01*
X65389047Y-71842380D01*
X65484285Y-71890000D01*
X65531904Y-71937619D01*
X65579523Y-72032857D01*
X65579523Y-72128095D01*
X65531904Y-72270952D01*
X64960476Y-72842380D01*
X65579523Y-72842380D01*
X42537142Y-66492380D02*
X42203809Y-66016190D01*
X41965714Y-66492380D02*
X41965714Y-65492380D01*
X42346666Y-65492380D01*
X42441904Y-65540000D01*
X42489523Y-65587619D01*
X42537142Y-65682857D01*
X42537142Y-65825714D01*
X42489523Y-65920952D01*
X42441904Y-65968571D01*
X42346666Y-66016190D01*
X41965714Y-66016190D01*
X42870476Y-65492380D02*
X43489523Y-65492380D01*
X43156190Y-65873333D01*
X43299047Y-65873333D01*
X43394285Y-65920952D01*
X43441904Y-65968571D01*
X43489523Y-66063809D01*
X43489523Y-66301904D01*
X43441904Y-66397142D01*
X43394285Y-66444761D01*
X43299047Y-66492380D01*
X43013333Y-66492380D01*
X42918095Y-66444761D01*
X42870476Y-66397142D01*
X43822857Y-65492380D02*
X44441904Y-65492380D01*
X44108571Y-65873333D01*
X44251428Y-65873333D01*
X44346666Y-65920952D01*
X44394285Y-65968571D01*
X44441904Y-66063809D01*
X44441904Y-66301904D01*
X44394285Y-66397142D01*
X44346666Y-66444761D01*
X44251428Y-66492380D01*
X43965714Y-66492380D01*
X43870476Y-66444761D01*
X43822857Y-66397142D01*
X63333333Y-66397142D02*
X63285714Y-66444761D01*
X63142857Y-66492380D01*
X63047619Y-66492380D01*
X62904761Y-66444761D01*
X62809523Y-66349523D01*
X62761904Y-66254285D01*
X62714285Y-66063809D01*
X62714285Y-65920952D01*
X62761904Y-65730476D01*
X62809523Y-65635238D01*
X62904761Y-65540000D01*
X63047619Y-65492380D01*
X63142857Y-65492380D01*
X63285714Y-65540000D01*
X63333333Y-65587619D01*
X63714285Y-65587619D02*
X63761904Y-65540000D01*
X63857142Y-65492380D01*
X64095238Y-65492380D01*
X64190476Y-65540000D01*
X64238095Y-65587619D01*
X64285714Y-65682857D01*
X64285714Y-65778095D01*
X64238095Y-65920952D01*
X63666666Y-66492380D01*
X64285714Y-66492380D01*
X156741904Y-58872380D02*
X156741904Y-57872380D01*
X156980000Y-57872380D01*
X157122857Y-57920000D01*
X157218095Y-58015238D01*
X157265714Y-58110476D01*
X157313333Y-58300952D01*
X157313333Y-58443809D01*
X157265714Y-58634285D01*
X157218095Y-58729523D01*
X157122857Y-58824761D01*
X156980000Y-58872380D01*
X156741904Y-58872380D01*
X157694285Y-57967619D02*
X157741904Y-57920000D01*
X157837142Y-57872380D01*
X158075238Y-57872380D01*
X158170476Y-57920000D01*
X158218095Y-57967619D01*
X158265714Y-58062857D01*
X158265714Y-58158095D01*
X158218095Y-58300952D01*
X157646666Y-58872380D01*
X158265714Y-58872380D01*
X39859047Y-146668571D02*
X40001904Y-146716190D01*
X40049523Y-146763809D01*
X40097142Y-146859047D01*
X40097142Y-147001904D01*
X40049523Y-147097142D01*
X40001904Y-147144761D01*
X39906666Y-147192380D01*
X39525714Y-147192380D01*
X39525714Y-146192380D01*
X39859047Y-146192380D01*
X39954285Y-146240000D01*
X40001904Y-146287619D01*
X40049523Y-146382857D01*
X40049523Y-146478095D01*
X40001904Y-146573333D01*
X39954285Y-146620952D01*
X39859047Y-146668571D01*
X39525714Y-146668571D01*
X41049523Y-147192380D02*
X40478095Y-147192380D01*
X40763809Y-147192380D02*
X40763809Y-146192380D01*
X40668571Y-146335238D01*
X40573333Y-146430476D01*
X40478095Y-146478095D01*
X41668571Y-146192380D02*
X41763809Y-146192380D01*
X41859047Y-146240000D01*
X41906666Y-146287619D01*
X41954285Y-146382857D01*
X42001904Y-146573333D01*
X42001904Y-146811428D01*
X41954285Y-147001904D01*
X41906666Y-147097142D01*
X41859047Y-147144761D01*
X41763809Y-147192380D01*
X41668571Y-147192380D01*
X41573333Y-147144761D01*
X41525714Y-147097142D01*
X41478095Y-147001904D01*
X41430476Y-146811428D01*
X41430476Y-146573333D01*
X41478095Y-146382857D01*
X41525714Y-146287619D01*
X41573333Y-146240000D01*
X41668571Y-146192380D01*
X217935238Y-146668571D02*
X218078095Y-146716190D01*
X218125714Y-146763809D01*
X218173333Y-146859047D01*
X218173333Y-147001904D01*
X218125714Y-147097142D01*
X218078095Y-147144761D01*
X217982857Y-147192380D01*
X217601904Y-147192380D01*
X217601904Y-146192380D01*
X217935238Y-146192380D01*
X218030476Y-146240000D01*
X218078095Y-146287619D01*
X218125714Y-146382857D01*
X218125714Y-146478095D01*
X218078095Y-146573333D01*
X218030476Y-146620952D01*
X217935238Y-146668571D01*
X217601904Y-146668571D01*
X218744761Y-146620952D02*
X218649523Y-146573333D01*
X218601904Y-146525714D01*
X218554285Y-146430476D01*
X218554285Y-146382857D01*
X218601904Y-146287619D01*
X218649523Y-146240000D01*
X218744761Y-146192380D01*
X218935238Y-146192380D01*
X219030476Y-146240000D01*
X219078095Y-146287619D01*
X219125714Y-146382857D01*
X219125714Y-146430476D01*
X219078095Y-146525714D01*
X219030476Y-146573333D01*
X218935238Y-146620952D01*
X218744761Y-146620952D01*
X218649523Y-146668571D01*
X218601904Y-146716190D01*
X218554285Y-146811428D01*
X218554285Y-147001904D01*
X218601904Y-147097142D01*
X218649523Y-147144761D01*
X218744761Y-147192380D01*
X218935238Y-147192380D01*
X219030476Y-147144761D01*
X219078095Y-147097142D01*
X219125714Y-147001904D01*
X219125714Y-146811428D01*
X219078095Y-146716190D01*
X219030476Y-146668571D01*
X218935238Y-146620952D01*
X217935238Y-131348571D02*
X218078095Y-131396190D01*
X218125714Y-131443809D01*
X218173333Y-131539047D01*
X218173333Y-131681904D01*
X218125714Y-131777142D01*
X218078095Y-131824761D01*
X217982857Y-131872380D01*
X217601904Y-131872380D01*
X217601904Y-130872380D01*
X217935238Y-130872380D01*
X218030476Y-130920000D01*
X218078095Y-130967619D01*
X218125714Y-131062857D01*
X218125714Y-131158095D01*
X218078095Y-131253333D01*
X218030476Y-131300952D01*
X217935238Y-131348571D01*
X217601904Y-131348571D01*
X218506666Y-130872380D02*
X219173333Y-130872380D01*
X218744761Y-131872380D01*
X217935238Y-60968571D02*
X218078095Y-61016190D01*
X218125714Y-61063809D01*
X218173333Y-61159047D01*
X218173333Y-61301904D01*
X218125714Y-61397142D01*
X218078095Y-61444761D01*
X217982857Y-61492380D01*
X217601904Y-61492380D01*
X217601904Y-60492380D01*
X217935238Y-60492380D01*
X218030476Y-60540000D01*
X218078095Y-60587619D01*
X218125714Y-60682857D01*
X218125714Y-60778095D01*
X218078095Y-60873333D01*
X218030476Y-60920952D01*
X217935238Y-60968571D01*
X217601904Y-60968571D01*
X219030476Y-60492380D02*
X218840000Y-60492380D01*
X218744761Y-60540000D01*
X218697142Y-60587619D01*
X218601904Y-60730476D01*
X218554285Y-60920952D01*
X218554285Y-61301904D01*
X218601904Y-61397142D01*
X218649523Y-61444761D01*
X218744761Y-61492380D01*
X218935238Y-61492380D01*
X219030476Y-61444761D01*
X219078095Y-61397142D01*
X219125714Y-61301904D01*
X219125714Y-61063809D01*
X219078095Y-60968571D01*
X219030476Y-60920952D01*
X218935238Y-60873333D01*
X218744761Y-60873333D01*
X218649523Y-60920952D01*
X218601904Y-60968571D01*
X218554285Y-61063809D01*
X217935238Y-45568571D02*
X218078095Y-45616190D01*
X218125714Y-45663809D01*
X218173333Y-45759047D01*
X218173333Y-45901904D01*
X218125714Y-45997142D01*
X218078095Y-46044761D01*
X217982857Y-46092380D01*
X217601904Y-46092380D01*
X217601904Y-45092380D01*
X217935238Y-45092380D01*
X218030476Y-45140000D01*
X218078095Y-45187619D01*
X218125714Y-45282857D01*
X218125714Y-45378095D01*
X218078095Y-45473333D01*
X218030476Y-45520952D01*
X217935238Y-45568571D01*
X217601904Y-45568571D01*
X219078095Y-45092380D02*
X218601904Y-45092380D01*
X218554285Y-45568571D01*
X218601904Y-45520952D01*
X218697142Y-45473333D01*
X218935238Y-45473333D01*
X219030476Y-45520952D01*
X219078095Y-45568571D01*
X219125714Y-45663809D01*
X219125714Y-45901904D01*
X219078095Y-45997142D01*
X219030476Y-46044761D01*
X218935238Y-46092380D01*
X218697142Y-46092380D01*
X218601904Y-46044761D01*
X218554285Y-45997142D01*
X40335238Y-60968571D02*
X40478095Y-61016190D01*
X40525714Y-61063809D01*
X40573333Y-61159047D01*
X40573333Y-61301904D01*
X40525714Y-61397142D01*
X40478095Y-61444761D01*
X40382857Y-61492380D01*
X40001904Y-61492380D01*
X40001904Y-60492380D01*
X40335238Y-60492380D01*
X40430476Y-60540000D01*
X40478095Y-60587619D01*
X40525714Y-60682857D01*
X40525714Y-60778095D01*
X40478095Y-60873333D01*
X40430476Y-60920952D01*
X40335238Y-60968571D01*
X40001904Y-60968571D01*
X41430476Y-60825714D02*
X41430476Y-61492380D01*
X41192380Y-60444761D02*
X40954285Y-61159047D01*
X41573333Y-61159047D01*
X40335238Y-45568571D02*
X40478095Y-45616190D01*
X40525714Y-45663809D01*
X40573333Y-45759047D01*
X40573333Y-45901904D01*
X40525714Y-45997142D01*
X40478095Y-46044761D01*
X40382857Y-46092380D01*
X40001904Y-46092380D01*
X40001904Y-45092380D01*
X40335238Y-45092380D01*
X40430476Y-45140000D01*
X40478095Y-45187619D01*
X40525714Y-45282857D01*
X40525714Y-45378095D01*
X40478095Y-45473333D01*
X40430476Y-45520952D01*
X40335238Y-45568571D01*
X40001904Y-45568571D01*
X40906666Y-45092380D02*
X41525714Y-45092380D01*
X41192380Y-45473333D01*
X41335238Y-45473333D01*
X41430476Y-45520952D01*
X41478095Y-45568571D01*
X41525714Y-45663809D01*
X41525714Y-45901904D01*
X41478095Y-45997142D01*
X41430476Y-46044761D01*
X41335238Y-46092380D01*
X41049523Y-46092380D01*
X40954285Y-46044761D01*
X40906666Y-45997142D01*
X149688571Y-89344761D02*
X149736190Y-89201904D01*
X149783809Y-89154285D01*
X149879047Y-89106666D01*
X150021904Y-89106666D01*
X150117142Y-89154285D01*
X150164761Y-89201904D01*
X150212380Y-89297142D01*
X150212380Y-89678095D01*
X149212380Y-89678095D01*
X149212380Y-89344761D01*
X149260000Y-89249523D01*
X149307619Y-89201904D01*
X149402857Y-89154285D01*
X149498095Y-89154285D01*
X149593333Y-89201904D01*
X149640952Y-89249523D01*
X149688571Y-89344761D01*
X149688571Y-89678095D01*
X149307619Y-88725714D02*
X149260000Y-88678095D01*
X149212380Y-88582857D01*
X149212380Y-88344761D01*
X149260000Y-88249523D01*
X149307619Y-88201904D01*
X149402857Y-88154285D01*
X149498095Y-88154285D01*
X149640952Y-88201904D01*
X150212380Y-88773333D01*
X150212380Y-88154285D01*
X124288571Y-89344761D02*
X124336190Y-89201904D01*
X124383809Y-89154285D01*
X124479047Y-89106666D01*
X124621904Y-89106666D01*
X124717142Y-89154285D01*
X124764761Y-89201904D01*
X124812380Y-89297142D01*
X124812380Y-89678095D01*
X123812380Y-89678095D01*
X123812380Y-89344761D01*
X123860000Y-89249523D01*
X123907619Y-89201904D01*
X124002857Y-89154285D01*
X124098095Y-89154285D01*
X124193333Y-89201904D01*
X124240952Y-89249523D01*
X124288571Y-89344761D01*
X124288571Y-89678095D01*
X124812380Y-88154285D02*
X124812380Y-88725714D01*
X124812380Y-88440000D02*
X123812380Y-88440000D01*
X123955238Y-88535238D01*
X124050476Y-88630476D01*
X124098095Y-88725714D01*
X55141904Y-58872380D02*
X55141904Y-57872380D01*
X55380000Y-57872380D01*
X55522857Y-57920000D01*
X55618095Y-58015238D01*
X55665714Y-58110476D01*
X55713333Y-58300952D01*
X55713333Y-58443809D01*
X55665714Y-58634285D01*
X55618095Y-58729523D01*
X55522857Y-58824761D01*
X55380000Y-58872380D01*
X55141904Y-58872380D01*
X56665714Y-58872380D02*
X56094285Y-58872380D01*
X56380000Y-58872380D02*
X56380000Y-57872380D01*
X56284761Y-58015238D01*
X56189523Y-58110476D01*
X56094285Y-58158095D01*
X110744761Y-141033333D02*
X110792380Y-140890476D01*
X110792380Y-140652380D01*
X110744761Y-140557142D01*
X110697142Y-140509523D01*
X110601904Y-140461904D01*
X110506666Y-140461904D01*
X110411428Y-140509523D01*
X110363809Y-140557142D01*
X110316190Y-140652380D01*
X110268571Y-140842857D01*
X110220952Y-140938095D01*
X110173333Y-140985714D01*
X110078095Y-141033333D01*
X109982857Y-141033333D01*
X109887619Y-140985714D01*
X109840000Y-140938095D01*
X109792380Y-140842857D01*
X109792380Y-140604761D01*
X109840000Y-140461904D01*
X109792380Y-140128571D02*
X110792380Y-139890476D01*
X110078095Y-139700000D01*
X110792380Y-139509523D01*
X109792380Y-139271428D01*
X109792380Y-138461904D02*
X109792380Y-138652380D01*
X109840000Y-138747619D01*
X109887619Y-138795238D01*
X110030476Y-138890476D01*
X110220952Y-138938095D01*
X110601904Y-138938095D01*
X110697142Y-138890476D01*
X110744761Y-138842857D01*
X110792380Y-138747619D01*
X110792380Y-138557142D01*
X110744761Y-138461904D01*
X110697142Y-138414285D01*
X110601904Y-138366666D01*
X110363809Y-138366666D01*
X110268571Y-138414285D01*
X110220952Y-138461904D01*
X110173333Y-138557142D01*
X110173333Y-138747619D01*
X110220952Y-138842857D01*
X110268571Y-138890476D01*
X110363809Y-138938095D01*
X136144761Y-141033333D02*
X136192380Y-140890476D01*
X136192380Y-140652380D01*
X136144761Y-140557142D01*
X136097142Y-140509523D01*
X136001904Y-140461904D01*
X135906666Y-140461904D01*
X135811428Y-140509523D01*
X135763809Y-140557142D01*
X135716190Y-140652380D01*
X135668571Y-140842857D01*
X135620952Y-140938095D01*
X135573333Y-140985714D01*
X135478095Y-141033333D01*
X135382857Y-141033333D01*
X135287619Y-140985714D01*
X135240000Y-140938095D01*
X135192380Y-140842857D01*
X135192380Y-140604761D01*
X135240000Y-140461904D01*
X135192380Y-140128571D02*
X136192380Y-139890476D01*
X135478095Y-139700000D01*
X136192380Y-139509523D01*
X135192380Y-139271428D01*
X135192380Y-138414285D02*
X135192380Y-138890476D01*
X135668571Y-138938095D01*
X135620952Y-138890476D01*
X135573333Y-138795238D01*
X135573333Y-138557142D01*
X135620952Y-138461904D01*
X135668571Y-138414285D01*
X135763809Y-138366666D01*
X136001904Y-138366666D01*
X136097142Y-138414285D01*
X136144761Y-138461904D01*
X136192380Y-138557142D01*
X136192380Y-138795238D01*
X136144761Y-138890476D01*
X136097142Y-138938095D01*
X149144761Y-39433333D02*
X149192380Y-39290476D01*
X149192380Y-39052380D01*
X149144761Y-38957142D01*
X149097142Y-38909523D01*
X149001904Y-38861904D01*
X148906666Y-38861904D01*
X148811428Y-38909523D01*
X148763809Y-38957142D01*
X148716190Y-39052380D01*
X148668571Y-39242857D01*
X148620952Y-39338095D01*
X148573333Y-39385714D01*
X148478095Y-39433333D01*
X148382857Y-39433333D01*
X148287619Y-39385714D01*
X148240000Y-39338095D01*
X148192380Y-39242857D01*
X148192380Y-39004761D01*
X148240000Y-38861904D01*
X148192380Y-38528571D02*
X149192380Y-38290476D01*
X148478095Y-38100000D01*
X149192380Y-37909523D01*
X148192380Y-37671428D01*
X148525714Y-36861904D02*
X149192380Y-36861904D01*
X148144761Y-37100000D02*
X148859047Y-37338095D01*
X148859047Y-36719047D01*
X123744761Y-39433333D02*
X123792380Y-39290476D01*
X123792380Y-39052380D01*
X123744761Y-38957142D01*
X123697142Y-38909523D01*
X123601904Y-38861904D01*
X123506666Y-38861904D01*
X123411428Y-38909523D01*
X123363809Y-38957142D01*
X123316190Y-39052380D01*
X123268571Y-39242857D01*
X123220952Y-39338095D01*
X123173333Y-39385714D01*
X123078095Y-39433333D01*
X122982857Y-39433333D01*
X122887619Y-39385714D01*
X122840000Y-39338095D01*
X122792380Y-39242857D01*
X122792380Y-39004761D01*
X122840000Y-38861904D01*
X122792380Y-38528571D02*
X123792380Y-38290476D01*
X123078095Y-38100000D01*
X123792380Y-37909523D01*
X122792380Y-37671428D01*
X122792380Y-37385714D02*
X122792380Y-36766666D01*
X123173333Y-37100000D01*
X123173333Y-36957142D01*
X123220952Y-36861904D01*
X123268571Y-36814285D01*
X123363809Y-36766666D01*
X123601904Y-36766666D01*
X123697142Y-36814285D01*
X123744761Y-36861904D01*
X123792380Y-36957142D01*
X123792380Y-37242857D01*
X123744761Y-37338095D01*
X123697142Y-37385714D01*
X33528095Y-104862380D02*
X33528095Y-105671904D01*
X33575714Y-105767142D01*
X33623333Y-105814761D01*
X33718571Y-105862380D01*
X33909047Y-105862380D01*
X34004285Y-105814761D01*
X34051904Y-105767142D01*
X34099523Y-105671904D01*
X34099523Y-104862380D01*
X35004285Y-105195714D02*
X35004285Y-105862380D01*
X34766190Y-104814761D02*
X34528095Y-105529047D01*
X35147142Y-105529047D01*
X82954761Y-90233333D02*
X83002380Y-90090476D01*
X83002380Y-89852380D01*
X82954761Y-89757142D01*
X82907142Y-89709523D01*
X82811904Y-89661904D01*
X82716666Y-89661904D01*
X82621428Y-89709523D01*
X82573809Y-89757142D01*
X82526190Y-89852380D01*
X82478571Y-90042857D01*
X82430952Y-90138095D01*
X82383333Y-90185714D01*
X82288095Y-90233333D01*
X82192857Y-90233333D01*
X82097619Y-90185714D01*
X82050000Y-90138095D01*
X82002380Y-90042857D01*
X82002380Y-89804761D01*
X82050000Y-89661904D01*
X82002380Y-89328571D02*
X83002380Y-89090476D01*
X82288095Y-88900000D01*
X83002380Y-88709523D01*
X82002380Y-88471428D01*
X83002380Y-87566666D02*
X83002380Y-88138095D01*
X83002380Y-87852380D02*
X82002380Y-87852380D01*
X82145238Y-87947619D01*
X82240476Y-88042857D01*
X82288095Y-88138095D01*
X76652380Y-89542857D02*
X76176190Y-89876190D01*
X76652380Y-90114285D02*
X75652380Y-90114285D01*
X75652380Y-89733333D01*
X75700000Y-89638095D01*
X75747619Y-89590476D01*
X75842857Y-89542857D01*
X75985714Y-89542857D01*
X76080952Y-89590476D01*
X76128571Y-89638095D01*
X76176190Y-89733333D01*
X76176190Y-90114285D01*
X75652380Y-89209523D02*
X75652380Y-88590476D01*
X76033333Y-88923809D01*
X76033333Y-88780952D01*
X76080952Y-88685714D01*
X76128571Y-88638095D01*
X76223809Y-88590476D01*
X76461904Y-88590476D01*
X76557142Y-88638095D01*
X76604761Y-88685714D01*
X76652380Y-88780952D01*
X76652380Y-89066666D01*
X76604761Y-89161904D01*
X76557142Y-89209523D01*
X75652380Y-87685714D02*
X75652380Y-88161904D01*
X76128571Y-88209523D01*
X76080952Y-88161904D01*
X76033333Y-88066666D01*
X76033333Y-87828571D01*
X76080952Y-87733333D01*
X76128571Y-87685714D01*
X76223809Y-87638095D01*
X76461904Y-87638095D01*
X76557142Y-87685714D01*
X76604761Y-87733333D01*
X76652380Y-87828571D01*
X76652380Y-88066666D01*
X76604761Y-88161904D01*
X76557142Y-88209523D01*
X29765714Y-78906666D02*
X30241904Y-78906666D01*
X29670476Y-79192380D02*
X30003809Y-78192380D01*
X30337142Y-79192380D01*
X31194285Y-79192380D02*
X30622857Y-79192380D01*
X30908571Y-79192380D02*
X30908571Y-78192380D01*
X30813333Y-78335238D01*
X30718095Y-78430476D01*
X30622857Y-78478095D01*
X223353333Y-75287142D02*
X223305714Y-75334761D01*
X223162857Y-75382380D01*
X223067619Y-75382380D01*
X222924761Y-75334761D01*
X222829523Y-75239523D01*
X222781904Y-75144285D01*
X222734285Y-74953809D01*
X222734285Y-74810952D01*
X222781904Y-74620476D01*
X222829523Y-74525238D01*
X222924761Y-74430000D01*
X223067619Y-74382380D01*
X223162857Y-74382380D01*
X223305714Y-74430000D01*
X223353333Y-74477619D01*
X224305714Y-75382380D02*
X223734285Y-75382380D01*
X224020000Y-75382380D02*
X224020000Y-74382380D01*
X223924761Y-74525238D01*
X223829523Y-74620476D01*
X223734285Y-74668095D01*
X192873333Y-101957142D02*
X192825714Y-102004761D01*
X192682857Y-102052380D01*
X192587619Y-102052380D01*
X192444761Y-102004761D01*
X192349523Y-101909523D01*
X192301904Y-101814285D01*
X192254285Y-101623809D01*
X192254285Y-101480952D01*
X192301904Y-101290476D01*
X192349523Y-101195238D01*
X192444761Y-101100000D01*
X192587619Y-101052380D01*
X192682857Y-101052380D01*
X192825714Y-101100000D01*
X192873333Y-101147619D01*
X193206666Y-101052380D02*
X193825714Y-101052380D01*
X193492380Y-101433333D01*
X193635238Y-101433333D01*
X193730476Y-101480952D01*
X193778095Y-101528571D01*
X193825714Y-101623809D01*
X193825714Y-101861904D01*
X193778095Y-101957142D01*
X193730476Y-102004761D01*
X193635238Y-102052380D01*
X193349523Y-102052380D01*
X193254285Y-102004761D01*
X193206666Y-101957142D01*
X35393333Y-112117142D02*
X35345714Y-112164761D01*
X35202857Y-112212380D01*
X35107619Y-112212380D01*
X34964761Y-112164761D01*
X34869523Y-112069523D01*
X34821904Y-111974285D01*
X34774285Y-111783809D01*
X34774285Y-111640952D01*
X34821904Y-111450476D01*
X34869523Y-111355238D01*
X34964761Y-111260000D01*
X35107619Y-111212380D01*
X35202857Y-111212380D01*
X35345714Y-111260000D01*
X35393333Y-111307619D01*
X36250476Y-111545714D02*
X36250476Y-112212380D01*
X36012380Y-111164761D02*
X35774285Y-111879047D01*
X36393333Y-111879047D01*
X145883333Y-76557142D02*
X145835714Y-76604761D01*
X145692857Y-76652380D01*
X145597619Y-76652380D01*
X145454761Y-76604761D01*
X145359523Y-76509523D01*
X145311904Y-76414285D01*
X145264285Y-76223809D01*
X145264285Y-76080952D01*
X145311904Y-75890476D01*
X145359523Y-75795238D01*
X145454761Y-75700000D01*
X145597619Y-75652380D01*
X145692857Y-75652380D01*
X145835714Y-75700000D01*
X145883333Y-75747619D01*
X146788095Y-75652380D02*
X146311904Y-75652380D01*
X146264285Y-76128571D01*
X146311904Y-76080952D01*
X146407142Y-76033333D01*
X146645238Y-76033333D01*
X146740476Y-76080952D01*
X146788095Y-76128571D01*
X146835714Y-76223809D01*
X146835714Y-76461904D01*
X146788095Y-76557142D01*
X146740476Y-76604761D01*
X146645238Y-76652380D01*
X146407142Y-76652380D01*
X146311904Y-76604761D01*
X146264285Y-76557142D01*
X112863333Y-101957142D02*
X112815714Y-102004761D01*
X112672857Y-102052380D01*
X112577619Y-102052380D01*
X112434761Y-102004761D01*
X112339523Y-101909523D01*
X112291904Y-101814285D01*
X112244285Y-101623809D01*
X112244285Y-101480952D01*
X112291904Y-101290476D01*
X112339523Y-101195238D01*
X112434761Y-101100000D01*
X112577619Y-101052380D01*
X112672857Y-101052380D01*
X112815714Y-101100000D01*
X112863333Y-101147619D01*
X113720476Y-101052380D02*
X113530000Y-101052380D01*
X113434761Y-101100000D01*
X113387142Y-101147619D01*
X113291904Y-101290476D01*
X113244285Y-101480952D01*
X113244285Y-101861904D01*
X113291904Y-101957142D01*
X113339523Y-102004761D01*
X113434761Y-102052380D01*
X113625238Y-102052380D01*
X113720476Y-102004761D01*
X113768095Y-101957142D01*
X113815714Y-101861904D01*
X113815714Y-101623809D01*
X113768095Y-101528571D01*
X113720476Y-101480952D01*
X113625238Y-101433333D01*
X113434761Y-101433333D01*
X113339523Y-101480952D01*
X113291904Y-101528571D01*
X113244285Y-101623809D01*
X162393333Y-84177142D02*
X162345714Y-84224761D01*
X162202857Y-84272380D01*
X162107619Y-84272380D01*
X161964761Y-84224761D01*
X161869523Y-84129523D01*
X161821904Y-84034285D01*
X161774285Y-83843809D01*
X161774285Y-83700952D01*
X161821904Y-83510476D01*
X161869523Y-83415238D01*
X161964761Y-83320000D01*
X162107619Y-83272380D01*
X162202857Y-83272380D01*
X162345714Y-83320000D01*
X162393333Y-83367619D01*
X162726666Y-83272380D02*
X163393333Y-83272380D01*
X162964761Y-84272380D01*
X83002380Y-71286666D02*
X82526190Y-71620000D01*
X83002380Y-71858095D02*
X82002380Y-71858095D01*
X82002380Y-71477142D01*
X82050000Y-71381904D01*
X82097619Y-71334285D01*
X82192857Y-71286666D01*
X82335714Y-71286666D01*
X82430952Y-71334285D01*
X82478571Y-71381904D01*
X82526190Y-71477142D01*
X82526190Y-71858095D01*
X83002380Y-70334285D02*
X83002380Y-70905714D01*
X83002380Y-70620000D02*
X82002380Y-70620000D01*
X82145238Y-70715238D01*
X82240476Y-70810476D01*
X82288095Y-70905714D01*
X72842380Y-71286666D02*
X72366190Y-71620000D01*
X72842380Y-71858095D02*
X71842380Y-71858095D01*
X71842380Y-71477142D01*
X71890000Y-71381904D01*
X71937619Y-71334285D01*
X72032857Y-71286666D01*
X72175714Y-71286666D01*
X72270952Y-71334285D01*
X72318571Y-71381904D01*
X72366190Y-71477142D01*
X72366190Y-71858095D01*
X71937619Y-70905714D02*
X71890000Y-70858095D01*
X71842380Y-70762857D01*
X71842380Y-70524761D01*
X71890000Y-70429523D01*
X71937619Y-70381904D01*
X72032857Y-70334285D01*
X72128095Y-70334285D01*
X72270952Y-70381904D01*
X72842380Y-70953333D01*
X72842380Y-70334285D01*
X75382380Y-71286666D02*
X74906190Y-71620000D01*
X75382380Y-71858095D02*
X74382380Y-71858095D01*
X74382380Y-71477142D01*
X74430000Y-71381904D01*
X74477619Y-71334285D01*
X74572857Y-71286666D01*
X74715714Y-71286666D01*
X74810952Y-71334285D01*
X74858571Y-71381904D01*
X74906190Y-71477142D01*
X74906190Y-71858095D01*
X74382380Y-70953333D02*
X74382380Y-70334285D01*
X74763333Y-70667619D01*
X74763333Y-70524761D01*
X74810952Y-70429523D01*
X74858571Y-70381904D01*
X74953809Y-70334285D01*
X75191904Y-70334285D01*
X75287142Y-70381904D01*
X75334761Y-70429523D01*
X75382380Y-70524761D01*
X75382380Y-70810476D01*
X75334761Y-70905714D01*
X75287142Y-70953333D01*
X85542380Y-71286666D02*
X85066190Y-71620000D01*
X85542380Y-71858095D02*
X84542380Y-71858095D01*
X84542380Y-71477142D01*
X84590000Y-71381904D01*
X84637619Y-71334285D01*
X84732857Y-71286666D01*
X84875714Y-71286666D01*
X84970952Y-71334285D01*
X85018571Y-71381904D01*
X85066190Y-71477142D01*
X85066190Y-71858095D01*
X84875714Y-70429523D02*
X85542380Y-70429523D01*
X84494761Y-70667619D02*
X85209047Y-70905714D01*
X85209047Y-70286666D01*
X88082380Y-71286666D02*
X87606190Y-71620000D01*
X88082380Y-71858095D02*
X87082380Y-71858095D01*
X87082380Y-71477142D01*
X87130000Y-71381904D01*
X87177619Y-71334285D01*
X87272857Y-71286666D01*
X87415714Y-71286666D01*
X87510952Y-71334285D01*
X87558571Y-71381904D01*
X87606190Y-71477142D01*
X87606190Y-71858095D01*
X87082380Y-70381904D02*
X87082380Y-70858095D01*
X87558571Y-70905714D01*
X87510952Y-70858095D01*
X87463333Y-70762857D01*
X87463333Y-70524761D01*
X87510952Y-70429523D01*
X87558571Y-70381904D01*
X87653809Y-70334285D01*
X87891904Y-70334285D01*
X87987142Y-70381904D01*
X88034761Y-70429523D01*
X88082380Y-70524761D01*
X88082380Y-70762857D01*
X88034761Y-70858095D01*
X87987142Y-70905714D01*
X80462380Y-71286666D02*
X79986190Y-71620000D01*
X80462380Y-71858095D02*
X79462380Y-71858095D01*
X79462380Y-71477142D01*
X79510000Y-71381904D01*
X79557619Y-71334285D01*
X79652857Y-71286666D01*
X79795714Y-71286666D01*
X79890952Y-71334285D01*
X79938571Y-71381904D01*
X79986190Y-71477142D01*
X79986190Y-71858095D01*
X79462380Y-70429523D02*
X79462380Y-70620000D01*
X79510000Y-70715238D01*
X79557619Y-70762857D01*
X79700476Y-70858095D01*
X79890952Y-70905714D01*
X80271904Y-70905714D01*
X80367142Y-70858095D01*
X80414761Y-70810476D01*
X80462380Y-70715238D01*
X80462380Y-70524761D01*
X80414761Y-70429523D01*
X80367142Y-70381904D01*
X80271904Y-70334285D01*
X80033809Y-70334285D01*
X79938571Y-70381904D01*
X79890952Y-70429523D01*
X79843333Y-70524761D01*
X79843333Y-70715238D01*
X79890952Y-70810476D01*
X79938571Y-70858095D01*
X80033809Y-70905714D01*
X70302380Y-71286666D02*
X69826190Y-71620000D01*
X70302380Y-71858095D02*
X69302380Y-71858095D01*
X69302380Y-71477142D01*
X69350000Y-71381904D01*
X69397619Y-71334285D01*
X69492857Y-71286666D01*
X69635714Y-71286666D01*
X69730952Y-71334285D01*
X69778571Y-71381904D01*
X69826190Y-71477142D01*
X69826190Y-71858095D01*
X69302380Y-70953333D02*
X69302380Y-70286666D01*
X70302380Y-70715238D01*
X77922380Y-71286666D02*
X77446190Y-71620000D01*
X77922380Y-71858095D02*
X76922380Y-71858095D01*
X76922380Y-71477142D01*
X76970000Y-71381904D01*
X77017619Y-71334285D01*
X77112857Y-71286666D01*
X77255714Y-71286666D01*
X77350952Y-71334285D01*
X77398571Y-71381904D01*
X77446190Y-71477142D01*
X77446190Y-71858095D01*
X77350952Y-70715238D02*
X77303333Y-70810476D01*
X77255714Y-70858095D01*
X77160476Y-70905714D01*
X77112857Y-70905714D01*
X77017619Y-70858095D01*
X76970000Y-70810476D01*
X76922380Y-70715238D01*
X76922380Y-70524761D01*
X76970000Y-70429523D01*
X77017619Y-70381904D01*
X77112857Y-70334285D01*
X77160476Y-70334285D01*
X77255714Y-70381904D01*
X77303333Y-70429523D01*
X77350952Y-70524761D01*
X77350952Y-70715238D01*
X77398571Y-70810476D01*
X77446190Y-70858095D01*
X77541428Y-70905714D01*
X77731904Y-70905714D01*
X77827142Y-70858095D01*
X77874761Y-70810476D01*
X77922380Y-70715238D01*
X77922380Y-70524761D01*
X77874761Y-70429523D01*
X77827142Y-70381904D01*
X77731904Y-70334285D01*
X77541428Y-70334285D01*
X77446190Y-70381904D01*
X77398571Y-70429523D01*
X77350952Y-70524761D01*
X184602380Y-71286666D02*
X184126190Y-71620000D01*
X184602380Y-71858095D02*
X183602380Y-71858095D01*
X183602380Y-71477142D01*
X183650000Y-71381904D01*
X183697619Y-71334285D01*
X183792857Y-71286666D01*
X183935714Y-71286666D01*
X184030952Y-71334285D01*
X184078571Y-71381904D01*
X184126190Y-71477142D01*
X184126190Y-71858095D01*
X184602380Y-70810476D02*
X184602380Y-70620000D01*
X184554761Y-70524761D01*
X184507142Y-70477142D01*
X184364285Y-70381904D01*
X184173809Y-70334285D01*
X183792857Y-70334285D01*
X183697619Y-70381904D01*
X183650000Y-70429523D01*
X183602380Y-70524761D01*
X183602380Y-70715238D01*
X183650000Y-70810476D01*
X183697619Y-70858095D01*
X183792857Y-70905714D01*
X184030952Y-70905714D01*
X184126190Y-70858095D01*
X184173809Y-70810476D01*
X184221428Y-70715238D01*
X184221428Y-70524761D01*
X184173809Y-70429523D01*
X184126190Y-70381904D01*
X184030952Y-70334285D01*
X174442380Y-71762857D02*
X173966190Y-72096190D01*
X174442380Y-72334285D02*
X173442380Y-72334285D01*
X173442380Y-71953333D01*
X173490000Y-71858095D01*
X173537619Y-71810476D01*
X173632857Y-71762857D01*
X173775714Y-71762857D01*
X173870952Y-71810476D01*
X173918571Y-71858095D01*
X173966190Y-71953333D01*
X173966190Y-72334285D01*
X174442380Y-70810476D02*
X174442380Y-71381904D01*
X174442380Y-71096190D02*
X173442380Y-71096190D01*
X173585238Y-71191428D01*
X173680476Y-71286666D01*
X173728095Y-71381904D01*
X173442380Y-70191428D02*
X173442380Y-70096190D01*
X173490000Y-70000952D01*
X173537619Y-69953333D01*
X173632857Y-69905714D01*
X173823333Y-69858095D01*
X174061428Y-69858095D01*
X174251904Y-69905714D01*
X174347142Y-69953333D01*
X174394761Y-70000952D01*
X174442380Y-70096190D01*
X174442380Y-70191428D01*
X174394761Y-70286666D01*
X174347142Y-70334285D01*
X174251904Y-70381904D01*
X174061428Y-70429523D01*
X173823333Y-70429523D01*
X173632857Y-70381904D01*
X173537619Y-70334285D01*
X173490000Y-70286666D01*
X173442380Y-70191428D01*
X176982380Y-71762857D02*
X176506190Y-72096190D01*
X176982380Y-72334285D02*
X175982380Y-72334285D01*
X175982380Y-71953333D01*
X176030000Y-71858095D01*
X176077619Y-71810476D01*
X176172857Y-71762857D01*
X176315714Y-71762857D01*
X176410952Y-71810476D01*
X176458571Y-71858095D01*
X176506190Y-71953333D01*
X176506190Y-72334285D01*
X176982380Y-70810476D02*
X176982380Y-71381904D01*
X176982380Y-71096190D02*
X175982380Y-71096190D01*
X176125238Y-71191428D01*
X176220476Y-71286666D01*
X176268095Y-71381904D01*
X176982380Y-69858095D02*
X176982380Y-70429523D01*
X176982380Y-70143809D02*
X175982380Y-70143809D01*
X176125238Y-70239047D01*
X176220476Y-70334285D01*
X176268095Y-70429523D01*
X187142380Y-71762857D02*
X186666190Y-72096190D01*
X187142380Y-72334285D02*
X186142380Y-72334285D01*
X186142380Y-71953333D01*
X186190000Y-71858095D01*
X186237619Y-71810476D01*
X186332857Y-71762857D01*
X186475714Y-71762857D01*
X186570952Y-71810476D01*
X186618571Y-71858095D01*
X186666190Y-71953333D01*
X186666190Y-72334285D01*
X187142380Y-70810476D02*
X187142380Y-71381904D01*
X187142380Y-71096190D02*
X186142380Y-71096190D01*
X186285238Y-71191428D01*
X186380476Y-71286666D01*
X186428095Y-71381904D01*
X186237619Y-70429523D02*
X186190000Y-70381904D01*
X186142380Y-70286666D01*
X186142380Y-70048571D01*
X186190000Y-69953333D01*
X186237619Y-69905714D01*
X186332857Y-69858095D01*
X186428095Y-69858095D01*
X186570952Y-69905714D01*
X187142380Y-70477142D01*
X187142380Y-69858095D01*
X189682380Y-71762857D02*
X189206190Y-72096190D01*
X189682380Y-72334285D02*
X188682380Y-72334285D01*
X188682380Y-71953333D01*
X188730000Y-71858095D01*
X188777619Y-71810476D01*
X188872857Y-71762857D01*
X189015714Y-71762857D01*
X189110952Y-71810476D01*
X189158571Y-71858095D01*
X189206190Y-71953333D01*
X189206190Y-72334285D01*
X189682380Y-70810476D02*
X189682380Y-71381904D01*
X189682380Y-71096190D02*
X188682380Y-71096190D01*
X188825238Y-71191428D01*
X188920476Y-71286666D01*
X188968095Y-71381904D01*
X188682380Y-70477142D02*
X188682380Y-69858095D01*
X189063333Y-70191428D01*
X189063333Y-70048571D01*
X189110952Y-69953333D01*
X189158571Y-69905714D01*
X189253809Y-69858095D01*
X189491904Y-69858095D01*
X189587142Y-69905714D01*
X189634761Y-69953333D01*
X189682380Y-70048571D01*
X189682380Y-70334285D01*
X189634761Y-70429523D01*
X189587142Y-70477142D01*
X182062380Y-71762857D02*
X181586190Y-72096190D01*
X182062380Y-72334285D02*
X181062380Y-72334285D01*
X181062380Y-71953333D01*
X181110000Y-71858095D01*
X181157619Y-71810476D01*
X181252857Y-71762857D01*
X181395714Y-71762857D01*
X181490952Y-71810476D01*
X181538571Y-71858095D01*
X181586190Y-71953333D01*
X181586190Y-72334285D01*
X182062380Y-70810476D02*
X182062380Y-71381904D01*
X182062380Y-71096190D02*
X181062380Y-71096190D01*
X181205238Y-71191428D01*
X181300476Y-71286666D01*
X181348095Y-71381904D01*
X181395714Y-69953333D02*
X182062380Y-69953333D01*
X181014761Y-70191428D02*
X181729047Y-70429523D01*
X181729047Y-69810476D01*
X171902380Y-71762857D02*
X171426190Y-72096190D01*
X171902380Y-72334285D02*
X170902380Y-72334285D01*
X170902380Y-71953333D01*
X170950000Y-71858095D01*
X170997619Y-71810476D01*
X171092857Y-71762857D01*
X171235714Y-71762857D01*
X171330952Y-71810476D01*
X171378571Y-71858095D01*
X171426190Y-71953333D01*
X171426190Y-72334285D01*
X171902380Y-70810476D02*
X171902380Y-71381904D01*
X171902380Y-71096190D02*
X170902380Y-71096190D01*
X171045238Y-71191428D01*
X171140476Y-71286666D01*
X171188095Y-71381904D01*
X170902380Y-69905714D02*
X170902380Y-70381904D01*
X171378571Y-70429523D01*
X171330952Y-70381904D01*
X171283333Y-70286666D01*
X171283333Y-70048571D01*
X171330952Y-69953333D01*
X171378571Y-69905714D01*
X171473809Y-69858095D01*
X171711904Y-69858095D01*
X171807142Y-69905714D01*
X171854761Y-69953333D01*
X171902380Y-70048571D01*
X171902380Y-70286666D01*
X171854761Y-70381904D01*
X171807142Y-70429523D01*
X179522380Y-71762857D02*
X179046190Y-72096190D01*
X179522380Y-72334285D02*
X178522380Y-72334285D01*
X178522380Y-71953333D01*
X178570000Y-71858095D01*
X178617619Y-71810476D01*
X178712857Y-71762857D01*
X178855714Y-71762857D01*
X178950952Y-71810476D01*
X178998571Y-71858095D01*
X179046190Y-71953333D01*
X179046190Y-72334285D01*
X179522380Y-70810476D02*
X179522380Y-71381904D01*
X179522380Y-71096190D02*
X178522380Y-71096190D01*
X178665238Y-71191428D01*
X178760476Y-71286666D01*
X178808095Y-71381904D01*
X178522380Y-69953333D02*
X178522380Y-70143809D01*
X178570000Y-70239047D01*
X178617619Y-70286666D01*
X178760476Y-70381904D01*
X178950952Y-70429523D01*
X179331904Y-70429523D01*
X179427142Y-70381904D01*
X179474761Y-70334285D01*
X179522380Y-70239047D01*
X179522380Y-70048571D01*
X179474761Y-69953333D01*
X179427142Y-69905714D01*
X179331904Y-69858095D01*
X179093809Y-69858095D01*
X178998571Y-69905714D01*
X178950952Y-69953333D01*
X178903333Y-70048571D01*
X178903333Y-70239047D01*
X178950952Y-70334285D01*
X178998571Y-70381904D01*
X179093809Y-70429523D01*
X176982380Y-107322857D02*
X176506190Y-107656190D01*
X176982380Y-107894285D02*
X175982380Y-107894285D01*
X175982380Y-107513333D01*
X176030000Y-107418095D01*
X176077619Y-107370476D01*
X176172857Y-107322857D01*
X176315714Y-107322857D01*
X176410952Y-107370476D01*
X176458571Y-107418095D01*
X176506190Y-107513333D01*
X176506190Y-107894285D01*
X176982380Y-106370476D02*
X176982380Y-106941904D01*
X176982380Y-106656190D02*
X175982380Y-106656190D01*
X176125238Y-106751428D01*
X176220476Y-106846666D01*
X176268095Y-106941904D01*
X175982380Y-106037142D02*
X175982380Y-105370476D01*
X176982380Y-105799047D01*
X187142380Y-107322857D02*
X186666190Y-107656190D01*
X187142380Y-107894285D02*
X186142380Y-107894285D01*
X186142380Y-107513333D01*
X186190000Y-107418095D01*
X186237619Y-107370476D01*
X186332857Y-107322857D01*
X186475714Y-107322857D01*
X186570952Y-107370476D01*
X186618571Y-107418095D01*
X186666190Y-107513333D01*
X186666190Y-107894285D01*
X187142380Y-106370476D02*
X187142380Y-106941904D01*
X187142380Y-106656190D02*
X186142380Y-106656190D01*
X186285238Y-106751428D01*
X186380476Y-106846666D01*
X186428095Y-106941904D01*
X186570952Y-105799047D02*
X186523333Y-105894285D01*
X186475714Y-105941904D01*
X186380476Y-105989523D01*
X186332857Y-105989523D01*
X186237619Y-105941904D01*
X186190000Y-105894285D01*
X186142380Y-105799047D01*
X186142380Y-105608571D01*
X186190000Y-105513333D01*
X186237619Y-105465714D01*
X186332857Y-105418095D01*
X186380476Y-105418095D01*
X186475714Y-105465714D01*
X186523333Y-105513333D01*
X186570952Y-105608571D01*
X186570952Y-105799047D01*
X186618571Y-105894285D01*
X186666190Y-105941904D01*
X186761428Y-105989523D01*
X186951904Y-105989523D01*
X187047142Y-105941904D01*
X187094761Y-105894285D01*
X187142380Y-105799047D01*
X187142380Y-105608571D01*
X187094761Y-105513333D01*
X187047142Y-105465714D01*
X186951904Y-105418095D01*
X186761428Y-105418095D01*
X186666190Y-105465714D01*
X186618571Y-105513333D01*
X186570952Y-105608571D01*
X184602380Y-107322857D02*
X184126190Y-107656190D01*
X184602380Y-107894285D02*
X183602380Y-107894285D01*
X183602380Y-107513333D01*
X183650000Y-107418095D01*
X183697619Y-107370476D01*
X183792857Y-107322857D01*
X183935714Y-107322857D01*
X184030952Y-107370476D01*
X184078571Y-107418095D01*
X184126190Y-107513333D01*
X184126190Y-107894285D01*
X184602380Y-106370476D02*
X184602380Y-106941904D01*
X184602380Y-106656190D02*
X183602380Y-106656190D01*
X183745238Y-106751428D01*
X183840476Y-106846666D01*
X183888095Y-106941904D01*
X184602380Y-105894285D02*
X184602380Y-105703809D01*
X184554761Y-105608571D01*
X184507142Y-105560952D01*
X184364285Y-105465714D01*
X184173809Y-105418095D01*
X183792857Y-105418095D01*
X183697619Y-105465714D01*
X183650000Y-105513333D01*
X183602380Y-105608571D01*
X183602380Y-105799047D01*
X183650000Y-105894285D01*
X183697619Y-105941904D01*
X183792857Y-105989523D01*
X184030952Y-105989523D01*
X184126190Y-105941904D01*
X184173809Y-105894285D01*
X184221428Y-105799047D01*
X184221428Y-105608571D01*
X184173809Y-105513333D01*
X184126190Y-105465714D01*
X184030952Y-105418095D01*
X174442380Y-107322857D02*
X173966190Y-107656190D01*
X174442380Y-107894285D02*
X173442380Y-107894285D01*
X173442380Y-107513333D01*
X173490000Y-107418095D01*
X173537619Y-107370476D01*
X173632857Y-107322857D01*
X173775714Y-107322857D01*
X173870952Y-107370476D01*
X173918571Y-107418095D01*
X173966190Y-107513333D01*
X173966190Y-107894285D01*
X173537619Y-106941904D02*
X173490000Y-106894285D01*
X173442380Y-106799047D01*
X173442380Y-106560952D01*
X173490000Y-106465714D01*
X173537619Y-106418095D01*
X173632857Y-106370476D01*
X173728095Y-106370476D01*
X173870952Y-106418095D01*
X174442380Y-106989523D01*
X174442380Y-106370476D01*
X173442380Y-105751428D02*
X173442380Y-105656190D01*
X173490000Y-105560952D01*
X173537619Y-105513333D01*
X173632857Y-105465714D01*
X173823333Y-105418095D01*
X174061428Y-105418095D01*
X174251904Y-105465714D01*
X174347142Y-105513333D01*
X174394761Y-105560952D01*
X174442380Y-105656190D01*
X174442380Y-105751428D01*
X174394761Y-105846666D01*
X174347142Y-105894285D01*
X174251904Y-105941904D01*
X174061428Y-105989523D01*
X173823333Y-105989523D01*
X173632857Y-105941904D01*
X173537619Y-105894285D01*
X173490000Y-105846666D01*
X173442380Y-105751428D01*
X171902380Y-107322857D02*
X171426190Y-107656190D01*
X171902380Y-107894285D02*
X170902380Y-107894285D01*
X170902380Y-107513333D01*
X170950000Y-107418095D01*
X170997619Y-107370476D01*
X171092857Y-107322857D01*
X171235714Y-107322857D01*
X171330952Y-107370476D01*
X171378571Y-107418095D01*
X171426190Y-107513333D01*
X171426190Y-107894285D01*
X170997619Y-106941904D02*
X170950000Y-106894285D01*
X170902380Y-106799047D01*
X170902380Y-106560952D01*
X170950000Y-106465714D01*
X170997619Y-106418095D01*
X171092857Y-106370476D01*
X171188095Y-106370476D01*
X171330952Y-106418095D01*
X171902380Y-106989523D01*
X171902380Y-106370476D01*
X171902380Y-105418095D02*
X171902380Y-105989523D01*
X171902380Y-105703809D02*
X170902380Y-105703809D01*
X171045238Y-105799047D01*
X171140476Y-105894285D01*
X171188095Y-105989523D01*
X179522380Y-107322857D02*
X179046190Y-107656190D01*
X179522380Y-107894285D02*
X178522380Y-107894285D01*
X178522380Y-107513333D01*
X178570000Y-107418095D01*
X178617619Y-107370476D01*
X178712857Y-107322857D01*
X178855714Y-107322857D01*
X178950952Y-107370476D01*
X178998571Y-107418095D01*
X179046190Y-107513333D01*
X179046190Y-107894285D01*
X178617619Y-106941904D02*
X178570000Y-106894285D01*
X178522380Y-106799047D01*
X178522380Y-106560952D01*
X178570000Y-106465714D01*
X178617619Y-106418095D01*
X178712857Y-106370476D01*
X178808095Y-106370476D01*
X178950952Y-106418095D01*
X179522380Y-106989523D01*
X179522380Y-106370476D01*
X178617619Y-105989523D02*
X178570000Y-105941904D01*
X178522380Y-105846666D01*
X178522380Y-105608571D01*
X178570000Y-105513333D01*
X178617619Y-105465714D01*
X178712857Y-105418095D01*
X178808095Y-105418095D01*
X178950952Y-105465714D01*
X179522380Y-106037142D01*
X179522380Y-105418095D01*
X189682380Y-107322857D02*
X189206190Y-107656190D01*
X189682380Y-107894285D02*
X188682380Y-107894285D01*
X188682380Y-107513333D01*
X188730000Y-107418095D01*
X188777619Y-107370476D01*
X188872857Y-107322857D01*
X189015714Y-107322857D01*
X189110952Y-107370476D01*
X189158571Y-107418095D01*
X189206190Y-107513333D01*
X189206190Y-107894285D01*
X188777619Y-106941904D02*
X188730000Y-106894285D01*
X188682380Y-106799047D01*
X188682380Y-106560952D01*
X188730000Y-106465714D01*
X188777619Y-106418095D01*
X188872857Y-106370476D01*
X188968095Y-106370476D01*
X189110952Y-106418095D01*
X189682380Y-106989523D01*
X189682380Y-106370476D01*
X188682380Y-106037142D02*
X188682380Y-105418095D01*
X189063333Y-105751428D01*
X189063333Y-105608571D01*
X189110952Y-105513333D01*
X189158571Y-105465714D01*
X189253809Y-105418095D01*
X189491904Y-105418095D01*
X189587142Y-105465714D01*
X189634761Y-105513333D01*
X189682380Y-105608571D01*
X189682380Y-105894285D01*
X189634761Y-105989523D01*
X189587142Y-106037142D01*
X182062380Y-107322857D02*
X181586190Y-107656190D01*
X182062380Y-107894285D02*
X181062380Y-107894285D01*
X181062380Y-107513333D01*
X181110000Y-107418095D01*
X181157619Y-107370476D01*
X181252857Y-107322857D01*
X181395714Y-107322857D01*
X181490952Y-107370476D01*
X181538571Y-107418095D01*
X181586190Y-107513333D01*
X181586190Y-107894285D01*
X181157619Y-106941904D02*
X181110000Y-106894285D01*
X181062380Y-106799047D01*
X181062380Y-106560952D01*
X181110000Y-106465714D01*
X181157619Y-106418095D01*
X181252857Y-106370476D01*
X181348095Y-106370476D01*
X181490952Y-106418095D01*
X182062380Y-106989523D01*
X182062380Y-106370476D01*
X181395714Y-105513333D02*
X182062380Y-105513333D01*
X181014761Y-105751428D02*
X181729047Y-105989523D01*
X181729047Y-105370476D01*
X75382380Y-107322857D02*
X74906190Y-107656190D01*
X75382380Y-107894285D02*
X74382380Y-107894285D01*
X74382380Y-107513333D01*
X74430000Y-107418095D01*
X74477619Y-107370476D01*
X74572857Y-107322857D01*
X74715714Y-107322857D01*
X74810952Y-107370476D01*
X74858571Y-107418095D01*
X74906190Y-107513333D01*
X74906190Y-107894285D01*
X74477619Y-106941904D02*
X74430000Y-106894285D01*
X74382380Y-106799047D01*
X74382380Y-106560952D01*
X74430000Y-106465714D01*
X74477619Y-106418095D01*
X74572857Y-106370476D01*
X74668095Y-106370476D01*
X74810952Y-106418095D01*
X75382380Y-106989523D01*
X75382380Y-106370476D01*
X74382380Y-105465714D02*
X74382380Y-105941904D01*
X74858571Y-105989523D01*
X74810952Y-105941904D01*
X74763333Y-105846666D01*
X74763333Y-105608571D01*
X74810952Y-105513333D01*
X74858571Y-105465714D01*
X74953809Y-105418095D01*
X75191904Y-105418095D01*
X75287142Y-105465714D01*
X75334761Y-105513333D01*
X75382380Y-105608571D01*
X75382380Y-105846666D01*
X75334761Y-105941904D01*
X75287142Y-105989523D01*
X85542380Y-107322857D02*
X85066190Y-107656190D01*
X85542380Y-107894285D02*
X84542380Y-107894285D01*
X84542380Y-107513333D01*
X84590000Y-107418095D01*
X84637619Y-107370476D01*
X84732857Y-107322857D01*
X84875714Y-107322857D01*
X84970952Y-107370476D01*
X85018571Y-107418095D01*
X85066190Y-107513333D01*
X85066190Y-107894285D01*
X84637619Y-106941904D02*
X84590000Y-106894285D01*
X84542380Y-106799047D01*
X84542380Y-106560952D01*
X84590000Y-106465714D01*
X84637619Y-106418095D01*
X84732857Y-106370476D01*
X84828095Y-106370476D01*
X84970952Y-106418095D01*
X85542380Y-106989523D01*
X85542380Y-106370476D01*
X84542380Y-105513333D02*
X84542380Y-105703809D01*
X84590000Y-105799047D01*
X84637619Y-105846666D01*
X84780476Y-105941904D01*
X84970952Y-105989523D01*
X85351904Y-105989523D01*
X85447142Y-105941904D01*
X85494761Y-105894285D01*
X85542380Y-105799047D01*
X85542380Y-105608571D01*
X85494761Y-105513333D01*
X85447142Y-105465714D01*
X85351904Y-105418095D01*
X85113809Y-105418095D01*
X85018571Y-105465714D01*
X84970952Y-105513333D01*
X84923333Y-105608571D01*
X84923333Y-105799047D01*
X84970952Y-105894285D01*
X85018571Y-105941904D01*
X85113809Y-105989523D01*
X83002380Y-107322857D02*
X82526190Y-107656190D01*
X83002380Y-107894285D02*
X82002380Y-107894285D01*
X82002380Y-107513333D01*
X82050000Y-107418095D01*
X82097619Y-107370476D01*
X82192857Y-107322857D01*
X82335714Y-107322857D01*
X82430952Y-107370476D01*
X82478571Y-107418095D01*
X82526190Y-107513333D01*
X82526190Y-107894285D01*
X82097619Y-106941904D02*
X82050000Y-106894285D01*
X82002380Y-106799047D01*
X82002380Y-106560952D01*
X82050000Y-106465714D01*
X82097619Y-106418095D01*
X82192857Y-106370476D01*
X82288095Y-106370476D01*
X82430952Y-106418095D01*
X83002380Y-106989523D01*
X83002380Y-106370476D01*
X82002380Y-106037142D02*
X82002380Y-105370476D01*
X83002380Y-105799047D01*
X72842380Y-107322857D02*
X72366190Y-107656190D01*
X72842380Y-107894285D02*
X71842380Y-107894285D01*
X71842380Y-107513333D01*
X71890000Y-107418095D01*
X71937619Y-107370476D01*
X72032857Y-107322857D01*
X72175714Y-107322857D01*
X72270952Y-107370476D01*
X72318571Y-107418095D01*
X72366190Y-107513333D01*
X72366190Y-107894285D01*
X71937619Y-106941904D02*
X71890000Y-106894285D01*
X71842380Y-106799047D01*
X71842380Y-106560952D01*
X71890000Y-106465714D01*
X71937619Y-106418095D01*
X72032857Y-106370476D01*
X72128095Y-106370476D01*
X72270952Y-106418095D01*
X72842380Y-106989523D01*
X72842380Y-106370476D01*
X72270952Y-105799047D02*
X72223333Y-105894285D01*
X72175714Y-105941904D01*
X72080476Y-105989523D01*
X72032857Y-105989523D01*
X71937619Y-105941904D01*
X71890000Y-105894285D01*
X71842380Y-105799047D01*
X71842380Y-105608571D01*
X71890000Y-105513333D01*
X71937619Y-105465714D01*
X72032857Y-105418095D01*
X72080476Y-105418095D01*
X72175714Y-105465714D01*
X72223333Y-105513333D01*
X72270952Y-105608571D01*
X72270952Y-105799047D01*
X72318571Y-105894285D01*
X72366190Y-105941904D01*
X72461428Y-105989523D01*
X72651904Y-105989523D01*
X72747142Y-105941904D01*
X72794761Y-105894285D01*
X72842380Y-105799047D01*
X72842380Y-105608571D01*
X72794761Y-105513333D01*
X72747142Y-105465714D01*
X72651904Y-105418095D01*
X72461428Y-105418095D01*
X72366190Y-105465714D01*
X72318571Y-105513333D01*
X72270952Y-105608571D01*
X70302380Y-107322857D02*
X69826190Y-107656190D01*
X70302380Y-107894285D02*
X69302380Y-107894285D01*
X69302380Y-107513333D01*
X69350000Y-107418095D01*
X69397619Y-107370476D01*
X69492857Y-107322857D01*
X69635714Y-107322857D01*
X69730952Y-107370476D01*
X69778571Y-107418095D01*
X69826190Y-107513333D01*
X69826190Y-107894285D01*
X69397619Y-106941904D02*
X69350000Y-106894285D01*
X69302380Y-106799047D01*
X69302380Y-106560952D01*
X69350000Y-106465714D01*
X69397619Y-106418095D01*
X69492857Y-106370476D01*
X69588095Y-106370476D01*
X69730952Y-106418095D01*
X70302380Y-106989523D01*
X70302380Y-106370476D01*
X70302380Y-105894285D02*
X70302380Y-105703809D01*
X70254761Y-105608571D01*
X70207142Y-105560952D01*
X70064285Y-105465714D01*
X69873809Y-105418095D01*
X69492857Y-105418095D01*
X69397619Y-105465714D01*
X69350000Y-105513333D01*
X69302380Y-105608571D01*
X69302380Y-105799047D01*
X69350000Y-105894285D01*
X69397619Y-105941904D01*
X69492857Y-105989523D01*
X69730952Y-105989523D01*
X69826190Y-105941904D01*
X69873809Y-105894285D01*
X69921428Y-105799047D01*
X69921428Y-105608571D01*
X69873809Y-105513333D01*
X69826190Y-105465714D01*
X69730952Y-105418095D01*
X77922380Y-107322857D02*
X77446190Y-107656190D01*
X77922380Y-107894285D02*
X76922380Y-107894285D01*
X76922380Y-107513333D01*
X76970000Y-107418095D01*
X77017619Y-107370476D01*
X77112857Y-107322857D01*
X77255714Y-107322857D01*
X77350952Y-107370476D01*
X77398571Y-107418095D01*
X77446190Y-107513333D01*
X77446190Y-107894285D01*
X76922380Y-106989523D02*
X76922380Y-106370476D01*
X77303333Y-106703809D01*
X77303333Y-106560952D01*
X77350952Y-106465714D01*
X77398571Y-106418095D01*
X77493809Y-106370476D01*
X77731904Y-106370476D01*
X77827142Y-106418095D01*
X77874761Y-106465714D01*
X77922380Y-106560952D01*
X77922380Y-106846666D01*
X77874761Y-106941904D01*
X77827142Y-106989523D01*
X76922380Y-105751428D02*
X76922380Y-105656190D01*
X76970000Y-105560952D01*
X77017619Y-105513333D01*
X77112857Y-105465714D01*
X77303333Y-105418095D01*
X77541428Y-105418095D01*
X77731904Y-105465714D01*
X77827142Y-105513333D01*
X77874761Y-105560952D01*
X77922380Y-105656190D01*
X77922380Y-105751428D01*
X77874761Y-105846666D01*
X77827142Y-105894285D01*
X77731904Y-105941904D01*
X77541428Y-105989523D01*
X77303333Y-105989523D01*
X77112857Y-105941904D01*
X77017619Y-105894285D01*
X76970000Y-105846666D01*
X76922380Y-105751428D01*
X88082380Y-107322857D02*
X87606190Y-107656190D01*
X88082380Y-107894285D02*
X87082380Y-107894285D01*
X87082380Y-107513333D01*
X87130000Y-107418095D01*
X87177619Y-107370476D01*
X87272857Y-107322857D01*
X87415714Y-107322857D01*
X87510952Y-107370476D01*
X87558571Y-107418095D01*
X87606190Y-107513333D01*
X87606190Y-107894285D01*
X87082380Y-106989523D02*
X87082380Y-106370476D01*
X87463333Y-106703809D01*
X87463333Y-106560952D01*
X87510952Y-106465714D01*
X87558571Y-106418095D01*
X87653809Y-106370476D01*
X87891904Y-106370476D01*
X87987142Y-106418095D01*
X88034761Y-106465714D01*
X88082380Y-106560952D01*
X88082380Y-106846666D01*
X88034761Y-106941904D01*
X87987142Y-106989523D01*
X88082380Y-105418095D02*
X88082380Y-105989523D01*
X88082380Y-105703809D02*
X87082380Y-105703809D01*
X87225238Y-105799047D01*
X87320476Y-105894285D01*
X87368095Y-105989523D01*
X80462380Y-107322857D02*
X79986190Y-107656190D01*
X80462380Y-107894285D02*
X79462380Y-107894285D01*
X79462380Y-107513333D01*
X79510000Y-107418095D01*
X79557619Y-107370476D01*
X79652857Y-107322857D01*
X79795714Y-107322857D01*
X79890952Y-107370476D01*
X79938571Y-107418095D01*
X79986190Y-107513333D01*
X79986190Y-107894285D01*
X79462380Y-106989523D02*
X79462380Y-106370476D01*
X79843333Y-106703809D01*
X79843333Y-106560952D01*
X79890952Y-106465714D01*
X79938571Y-106418095D01*
X80033809Y-106370476D01*
X80271904Y-106370476D01*
X80367142Y-106418095D01*
X80414761Y-106465714D01*
X80462380Y-106560952D01*
X80462380Y-106846666D01*
X80414761Y-106941904D01*
X80367142Y-106989523D01*
X79557619Y-105989523D02*
X79510000Y-105941904D01*
X79462380Y-105846666D01*
X79462380Y-105608571D01*
X79510000Y-105513333D01*
X79557619Y-105465714D01*
X79652857Y-105418095D01*
X79748095Y-105418095D01*
X79890952Y-105465714D01*
X80462380Y-106037142D01*
X80462380Y-105418095D01*
X55237142Y-112212380D02*
X54903809Y-111736190D01*
X54665714Y-112212380D02*
X54665714Y-111212380D01*
X55046666Y-111212380D01*
X55141904Y-111260000D01*
X55189523Y-111307619D01*
X55237142Y-111402857D01*
X55237142Y-111545714D01*
X55189523Y-111640952D01*
X55141904Y-111688571D01*
X55046666Y-111736190D01*
X54665714Y-111736190D01*
X55570476Y-111212380D02*
X56189523Y-111212380D01*
X55856190Y-111593333D01*
X55999047Y-111593333D01*
X56094285Y-111640952D01*
X56141904Y-111688571D01*
X56189523Y-111783809D01*
X56189523Y-112021904D01*
X56141904Y-112117142D01*
X56094285Y-112164761D01*
X55999047Y-112212380D01*
X55713333Y-112212380D01*
X55618095Y-112164761D01*
X55570476Y-112117142D01*
X57046666Y-111545714D02*
X57046666Y-112212380D01*
X56808571Y-111164761D02*
X56570476Y-111879047D01*
X57189523Y-111879047D01*
X139009523Y-61412380D02*
X138676190Y-60936190D01*
X138438095Y-61412380D02*
X138438095Y-60412380D01*
X138819047Y-60412380D01*
X138914285Y-60460000D01*
X138961904Y-60507619D01*
X139009523Y-60602857D01*
X139009523Y-60745714D01*
X138961904Y-60840952D01*
X138914285Y-60888571D01*
X138819047Y-60936190D01*
X138438095Y-60936190D01*
X139438095Y-61412380D02*
X139438095Y-60412380D01*
X140009523Y-61412380D01*
X140009523Y-60412380D01*
X141009523Y-61412380D02*
X140438095Y-61412380D01*
X140723809Y-61412380D02*
X140723809Y-60412380D01*
X140628571Y-60555238D01*
X140533333Y-60650476D01*
X140438095Y-60698095D01*
X118689523Y-117292380D02*
X118356190Y-116816190D01*
X118118095Y-117292380D02*
X118118095Y-116292380D01*
X118499047Y-116292380D01*
X118594285Y-116340000D01*
X118641904Y-116387619D01*
X118689523Y-116482857D01*
X118689523Y-116625714D01*
X118641904Y-116720952D01*
X118594285Y-116768571D01*
X118499047Y-116816190D01*
X118118095Y-116816190D01*
X119118095Y-117292380D02*
X119118095Y-116292380D01*
X119689523Y-117292380D01*
X119689523Y-116292380D01*
X120118095Y-116387619D02*
X120165714Y-116340000D01*
X120260952Y-116292380D01*
X120499047Y-116292380D01*
X120594285Y-116340000D01*
X120641904Y-116387619D01*
X120689523Y-116482857D01*
X120689523Y-116578095D01*
X120641904Y-116720952D01*
X120070476Y-117292380D01*
X120689523Y-117292380D01*
X166949523Y-80462380D02*
X166616190Y-79986190D01*
X166378095Y-80462380D02*
X166378095Y-79462380D01*
X166759047Y-79462380D01*
X166854285Y-79510000D01*
X166901904Y-79557619D01*
X166949523Y-79652857D01*
X166949523Y-79795714D01*
X166901904Y-79890952D01*
X166854285Y-79938571D01*
X166759047Y-79986190D01*
X166378095Y-79986190D01*
X167378095Y-80462380D02*
X167378095Y-79462380D01*
X167949523Y-80462380D01*
X167949523Y-79462380D01*
X168330476Y-79462380D02*
X168949523Y-79462380D01*
X168616190Y-79843333D01*
X168759047Y-79843333D01*
X168854285Y-79890952D01*
X168901904Y-79938571D01*
X168949523Y-80033809D01*
X168949523Y-80271904D01*
X168901904Y-80367142D01*
X168854285Y-80414761D01*
X168759047Y-80462380D01*
X168473333Y-80462380D01*
X168378095Y-80414761D01*
X168330476Y-80367142D01*
X95654761Y-90233333D02*
X95702380Y-90090476D01*
X95702380Y-89852380D01*
X95654761Y-89757142D01*
X95607142Y-89709523D01*
X95511904Y-89661904D01*
X95416666Y-89661904D01*
X95321428Y-89709523D01*
X95273809Y-89757142D01*
X95226190Y-89852380D01*
X95178571Y-90042857D01*
X95130952Y-90138095D01*
X95083333Y-90185714D01*
X94988095Y-90233333D01*
X94892857Y-90233333D01*
X94797619Y-90185714D01*
X94750000Y-90138095D01*
X94702380Y-90042857D01*
X94702380Y-89804761D01*
X94750000Y-89661904D01*
X94702380Y-89328571D02*
X95702380Y-89090476D01*
X94988095Y-88900000D01*
X95702380Y-88709523D01*
X94702380Y-88471428D01*
X94797619Y-88138095D02*
X94750000Y-88090476D01*
X94702380Y-87995238D01*
X94702380Y-87757142D01*
X94750000Y-87661904D01*
X94797619Y-87614285D01*
X94892857Y-87566666D01*
X94988095Y-87566666D01*
X95130952Y-87614285D01*
X95702380Y-88185714D01*
X95702380Y-87566666D01*
X221488095Y-70572380D02*
X221488095Y-71381904D01*
X221535714Y-71477142D01*
X221583333Y-71524761D01*
X221678571Y-71572380D01*
X221869047Y-71572380D01*
X221964285Y-71524761D01*
X222011904Y-71477142D01*
X222059523Y-71381904D01*
X222059523Y-70572380D01*
X223059523Y-71572380D02*
X222488095Y-71572380D01*
X222773809Y-71572380D02*
X222773809Y-70572380D01*
X222678571Y-70715238D01*
X222583333Y-70810476D01*
X222488095Y-70858095D01*
X196088095Y-104862380D02*
X196088095Y-105671904D01*
X196135714Y-105767142D01*
X196183333Y-105814761D01*
X196278571Y-105862380D01*
X196469047Y-105862380D01*
X196564285Y-105814761D01*
X196611904Y-105767142D01*
X196659523Y-105671904D01*
X196659523Y-104862380D01*
X197040476Y-104862380D02*
X197659523Y-104862380D01*
X197326190Y-105243333D01*
X197469047Y-105243333D01*
X197564285Y-105290952D01*
X197611904Y-105338571D01*
X197659523Y-105433809D01*
X197659523Y-105671904D01*
X197611904Y-105767142D01*
X197564285Y-105814761D01*
X197469047Y-105862380D01*
X197183333Y-105862380D01*
X197088095Y-105814761D01*
X197040476Y-105767142D01*
X141478095Y-71842380D02*
X141478095Y-72651904D01*
X141525714Y-72747142D01*
X141573333Y-72794761D01*
X141668571Y-72842380D01*
X141859047Y-72842380D01*
X141954285Y-72794761D01*
X142001904Y-72747142D01*
X142049523Y-72651904D01*
X142049523Y-71842380D01*
X143001904Y-71842380D02*
X142525714Y-71842380D01*
X142478095Y-72318571D01*
X142525714Y-72270952D01*
X142620952Y-72223333D01*
X142859047Y-72223333D01*
X142954285Y-72270952D01*
X143001904Y-72318571D01*
X143049523Y-72413809D01*
X143049523Y-72651904D01*
X143001904Y-72747142D01*
X142954285Y-72794761D01*
X142859047Y-72842380D01*
X142620952Y-72842380D01*
X142525714Y-72794761D01*
X142478095Y-72747142D01*
X116078095Y-104862380D02*
X116078095Y-105671904D01*
X116125714Y-105767142D01*
X116173333Y-105814761D01*
X116268571Y-105862380D01*
X116459047Y-105862380D01*
X116554285Y-105814761D01*
X116601904Y-105767142D01*
X116649523Y-105671904D01*
X116649523Y-104862380D01*
X117554285Y-104862380D02*
X117363809Y-104862380D01*
X117268571Y-104910000D01*
X117220952Y-104957619D01*
X117125714Y-105100476D01*
X117078095Y-105290952D01*
X117078095Y-105671904D01*
X117125714Y-105767142D01*
X117173333Y-105814761D01*
X117268571Y-105862380D01*
X117459047Y-105862380D01*
X117554285Y-105814761D01*
X117601904Y-105767142D01*
X117649523Y-105671904D01*
X117649523Y-105433809D01*
X117601904Y-105338571D01*
X117554285Y-105290952D01*
X117459047Y-105243333D01*
X117268571Y-105243333D01*
X117173333Y-105290952D01*
X117125714Y-105338571D01*
X117078095Y-105433809D01*
X163068095Y-88352380D02*
X163068095Y-89161904D01*
X163115714Y-89257142D01*
X163163333Y-89304761D01*
X163258571Y-89352380D01*
X163449047Y-89352380D01*
X163544285Y-89304761D01*
X163591904Y-89257142D01*
X163639523Y-89161904D01*
X163639523Y-88352380D01*
X164020476Y-88352380D02*
X164687142Y-88352380D01*
X164258571Y-89352380D01*
M02*
