G04 #@! TF.GenerationSoftware,KiCad,Pcbnew,(5.1.4)-1*
G04 #@! TF.CreationDate,2020-08-08T18:03:32-04:00*
G04 #@! TF.ProjectId,mtg_life_counter,6d74675f-6c69-4666-955f-636f756e7465,0.1*
G04 #@! TF.SameCoordinates,Original*
G04 #@! TF.FileFunction,Legend,Top*
G04 #@! TF.FilePolarity,Positive*
%FSLAX46Y46*%
G04 Gerber Fmt 4.6, Leading zero omitted, Abs format (unit mm)*
G04 Created by KiCad (PCBNEW (5.1.4)-1) date 2020-08-08 18:03:32*
%MOMM*%
%LPD*%
G04 APERTURE LIST*
%ADD10C,0.300000*%
%ADD11C,0.500000*%
%ADD12C,0.150000*%
%ADD13C,0.120000*%
G04 APERTURE END LIST*
D10*
X203805714Y-92118571D02*
X203805714Y-90618571D01*
X204305714Y-91690000D01*
X204805714Y-90618571D01*
X204805714Y-92118571D01*
X206162857Y-92118571D02*
X206162857Y-91332857D01*
X206091428Y-91190000D01*
X205948571Y-91118571D01*
X205662857Y-91118571D01*
X205520000Y-91190000D01*
X206162857Y-92047142D02*
X206020000Y-92118571D01*
X205662857Y-92118571D01*
X205520000Y-92047142D01*
X205448571Y-91904285D01*
X205448571Y-91761428D01*
X205520000Y-91618571D01*
X205662857Y-91547142D01*
X206020000Y-91547142D01*
X206162857Y-91475714D01*
X206734285Y-92118571D02*
X207520000Y-91118571D01*
X206734285Y-91118571D02*
X207520000Y-92118571D01*
X209234285Y-92118571D02*
X209234285Y-90618571D01*
X209805714Y-90618571D01*
X209948571Y-90690000D01*
X210020000Y-90761428D01*
X210091428Y-90904285D01*
X210091428Y-91118571D01*
X210020000Y-91261428D01*
X209948571Y-91332857D01*
X209805714Y-91404285D01*
X209234285Y-91404285D01*
X210734285Y-92118571D02*
X210734285Y-91118571D01*
X210734285Y-91404285D02*
X210805714Y-91261428D01*
X210877142Y-91190000D01*
X211020000Y-91118571D01*
X211162857Y-91118571D01*
X211877142Y-92118571D02*
X211734285Y-92047142D01*
X211662857Y-91975714D01*
X211591428Y-91832857D01*
X211591428Y-91404285D01*
X211662857Y-91261428D01*
X211734285Y-91190000D01*
X211877142Y-91118571D01*
X212091428Y-91118571D01*
X212234285Y-91190000D01*
X212305714Y-91261428D01*
X212377142Y-91404285D01*
X212377142Y-91832857D01*
X212305714Y-91975714D01*
X212234285Y-92047142D01*
X212091428Y-92118571D01*
X211877142Y-92118571D01*
X212948571Y-92047142D02*
X213091428Y-92118571D01*
X213377142Y-92118571D01*
X213520000Y-92047142D01*
X213591428Y-91904285D01*
X213591428Y-91832857D01*
X213520000Y-91690000D01*
X213377142Y-91618571D01*
X213162857Y-91618571D01*
X213020000Y-91547142D01*
X212948571Y-91404285D01*
X212948571Y-91332857D01*
X213020000Y-91190000D01*
X213162857Y-91118571D01*
X213377142Y-91118571D01*
X213520000Y-91190000D01*
X214234285Y-92118571D02*
X214234285Y-90618571D01*
X214377142Y-91547142D02*
X214805714Y-92118571D01*
X214805714Y-91118571D02*
X214234285Y-91690000D01*
X216091428Y-92118571D02*
X216091428Y-91332857D01*
X216020000Y-91190000D01*
X215877142Y-91118571D01*
X215591428Y-91118571D01*
X215448571Y-91190000D01*
X216091428Y-92047142D02*
X215948571Y-92118571D01*
X215591428Y-92118571D01*
X215448571Y-92047142D01*
X215377142Y-91904285D01*
X215377142Y-91761428D01*
X215448571Y-91618571D01*
X215591428Y-91547142D01*
X215948571Y-91547142D01*
X216091428Y-91475714D01*
X217448571Y-91118571D02*
X217448571Y-92118571D01*
X216805714Y-91118571D02*
X216805714Y-91904285D01*
X216877142Y-92047142D01*
X217020000Y-92118571D01*
X217234285Y-92118571D01*
X217377142Y-92047142D01*
X217448571Y-91975714D01*
X218734285Y-92047142D02*
X218591428Y-92118571D01*
X218305714Y-92118571D01*
X218162857Y-92047142D01*
X218091428Y-91904285D01*
X218091428Y-91332857D01*
X218162857Y-91190000D01*
X218305714Y-91118571D01*
X218591428Y-91118571D01*
X218734285Y-91190000D01*
X218805714Y-91332857D01*
X218805714Y-91475714D01*
X218091428Y-91618571D01*
X219448571Y-92118571D02*
X219448571Y-91118571D01*
X219448571Y-91404285D02*
X219520000Y-91261428D01*
X219591428Y-91190000D01*
X219734285Y-91118571D01*
X219877142Y-91118571D01*
X222520000Y-91118571D02*
X222877142Y-92118571D01*
X223234285Y-91118571D01*
X224091428Y-90618571D02*
X224234285Y-90618571D01*
X224377142Y-90690000D01*
X224448571Y-90761428D01*
X224520000Y-90904285D01*
X224591428Y-91190000D01*
X224591428Y-91547142D01*
X224520000Y-91832857D01*
X224448571Y-91975714D01*
X224377142Y-92047142D01*
X224234285Y-92118571D01*
X224091428Y-92118571D01*
X223948571Y-92047142D01*
X223877142Y-91975714D01*
X223805714Y-91832857D01*
X223734285Y-91547142D01*
X223734285Y-91190000D01*
X223805714Y-90904285D01*
X223877142Y-90761428D01*
X223948571Y-90690000D01*
X224091428Y-90618571D01*
X225234285Y-91975714D02*
X225305714Y-92047142D01*
X225234285Y-92118571D01*
X225162857Y-92047142D01*
X225234285Y-91975714D01*
X225234285Y-92118571D01*
X226734285Y-92118571D02*
X225877142Y-92118571D01*
X226305714Y-92118571D02*
X226305714Y-90618571D01*
X226162857Y-90832857D01*
X226020000Y-90975714D01*
X225877142Y-91047142D01*
X229591428Y-91690000D02*
X230305714Y-91690000D01*
X229448571Y-92118571D02*
X229948571Y-90618571D01*
X230448571Y-92118571D01*
X231591428Y-91118571D02*
X231591428Y-92118571D01*
X230948571Y-91118571D02*
X230948571Y-91904285D01*
X231020000Y-92047142D01*
X231162857Y-92118571D01*
X231377142Y-92118571D01*
X231520000Y-92047142D01*
X231591428Y-91975714D01*
X232948571Y-91118571D02*
X232948571Y-92332857D01*
X232877142Y-92475714D01*
X232805714Y-92547142D01*
X232662857Y-92618571D01*
X232448571Y-92618571D01*
X232305714Y-92547142D01*
X232948571Y-92047142D02*
X232805714Y-92118571D01*
X232520000Y-92118571D01*
X232377142Y-92047142D01*
X232305714Y-91975714D01*
X232234285Y-91832857D01*
X232234285Y-91404285D01*
X232305714Y-91261428D01*
X232377142Y-91190000D01*
X232520000Y-91118571D01*
X232805714Y-91118571D01*
X232948571Y-91190000D01*
X234305714Y-91118571D02*
X234305714Y-92118571D01*
X233662857Y-91118571D02*
X233662857Y-91904285D01*
X233734285Y-92047142D01*
X233877142Y-92118571D01*
X234091428Y-92118571D01*
X234234285Y-92047142D01*
X234305714Y-91975714D01*
X234948571Y-92047142D02*
X235091428Y-92118571D01*
X235377142Y-92118571D01*
X235520000Y-92047142D01*
X235591428Y-91904285D01*
X235591428Y-91832857D01*
X235520000Y-91690000D01*
X235377142Y-91618571D01*
X235162857Y-91618571D01*
X235020000Y-91547142D01*
X234948571Y-91404285D01*
X234948571Y-91332857D01*
X235020000Y-91190000D01*
X235162857Y-91118571D01*
X235377142Y-91118571D01*
X235520000Y-91190000D01*
X236020000Y-91118571D02*
X236591428Y-91118571D01*
X236234285Y-90618571D02*
X236234285Y-91904285D01*
X236305714Y-92047142D01*
X236448571Y-92118571D01*
X236591428Y-92118571D01*
X238162857Y-90761428D02*
X238234285Y-90690000D01*
X238377142Y-90618571D01*
X238734285Y-90618571D01*
X238877142Y-90690000D01*
X238948571Y-90761428D01*
X239020000Y-90904285D01*
X239020000Y-91047142D01*
X238948571Y-91261428D01*
X238091428Y-92118571D01*
X239020000Y-92118571D01*
X239948571Y-90618571D02*
X240091428Y-90618571D01*
X240234285Y-90690000D01*
X240305714Y-90761428D01*
X240377142Y-90904285D01*
X240448571Y-91190000D01*
X240448571Y-91547142D01*
X240377142Y-91832857D01*
X240305714Y-91975714D01*
X240234285Y-92047142D01*
X240091428Y-92118571D01*
X239948571Y-92118571D01*
X239805714Y-92047142D01*
X239734285Y-91975714D01*
X239662857Y-91832857D01*
X239591428Y-91547142D01*
X239591428Y-91190000D01*
X239662857Y-90904285D01*
X239734285Y-90761428D01*
X239805714Y-90690000D01*
X239948571Y-90618571D01*
X241020000Y-90761428D02*
X241091428Y-90690000D01*
X241234285Y-90618571D01*
X241591428Y-90618571D01*
X241734285Y-90690000D01*
X241805714Y-90761428D01*
X241877142Y-90904285D01*
X241877142Y-91047142D01*
X241805714Y-91261428D01*
X240948571Y-92118571D01*
X241877142Y-92118571D01*
X242805714Y-90618571D02*
X242948571Y-90618571D01*
X243091428Y-90690000D01*
X243162857Y-90761428D01*
X243234285Y-90904285D01*
X243305714Y-91190000D01*
X243305714Y-91547142D01*
X243234285Y-91832857D01*
X243162857Y-91975714D01*
X243091428Y-92047142D01*
X242948571Y-92118571D01*
X242805714Y-92118571D01*
X242662857Y-92047142D01*
X242591428Y-91975714D01*
X242520000Y-91832857D01*
X242448571Y-91547142D01*
X242448571Y-91190000D01*
X242520000Y-90904285D01*
X242591428Y-90761428D01*
X242662857Y-90690000D01*
X242805714Y-90618571D01*
D11*
X97417142Y-81597142D02*
X97417142Y-81025714D01*
X97560000Y-80740000D01*
X97845714Y-80454285D01*
X98417142Y-80311428D01*
X99417142Y-80311428D01*
X99988571Y-80454285D01*
X100274285Y-80740000D01*
X100417142Y-81025714D01*
X100417142Y-81597142D01*
X100274285Y-81882857D01*
X99988571Y-82168571D01*
X99417142Y-82311428D01*
X98417142Y-82311428D01*
X97845714Y-82168571D01*
X97560000Y-81882857D01*
X97417142Y-81597142D01*
X98845714Y-78025714D02*
X98845714Y-79025714D01*
X100417142Y-79025714D02*
X97417142Y-79025714D01*
X97417142Y-77597142D01*
X98845714Y-75454285D02*
X98845714Y-76454285D01*
X100417142Y-76454285D02*
X97417142Y-76454285D01*
X97417142Y-75025714D01*
X97417142Y-99647142D02*
X97417142Y-99075714D01*
X97560000Y-98790000D01*
X97845714Y-98504285D01*
X98417142Y-98361428D01*
X99417142Y-98361428D01*
X99988571Y-98504285D01*
X100274285Y-98790000D01*
X100417142Y-99075714D01*
X100417142Y-99647142D01*
X100274285Y-99932857D01*
X99988571Y-100218571D01*
X99417142Y-100361428D01*
X98417142Y-100361428D01*
X97845714Y-100218571D01*
X97560000Y-99932857D01*
X97417142Y-99647142D01*
X100417142Y-97075714D02*
X97417142Y-97075714D01*
X100417142Y-95361428D01*
X97417142Y-95361428D01*
X151868571Y-99147142D02*
X150868571Y-97718571D01*
X150154285Y-99147142D02*
X150154285Y-96147142D01*
X151297142Y-96147142D01*
X151582857Y-96290000D01*
X151725714Y-96432857D01*
X151868571Y-96718571D01*
X151868571Y-97147142D01*
X151725714Y-97432857D01*
X151582857Y-97575714D01*
X151297142Y-97718571D01*
X150154285Y-97718571D01*
X153725714Y-96147142D02*
X154297142Y-96147142D01*
X154582857Y-96290000D01*
X154868571Y-96575714D01*
X155011428Y-97147142D01*
X155011428Y-98147142D01*
X154868571Y-98718571D01*
X154582857Y-99004285D01*
X154297142Y-99147142D01*
X153725714Y-99147142D01*
X153440000Y-99004285D01*
X153154285Y-98718571D01*
X153011428Y-98147142D01*
X153011428Y-97147142D01*
X153154285Y-96575714D01*
X153440000Y-96290000D01*
X153725714Y-96147142D01*
X157725714Y-99147142D02*
X156297142Y-99147142D01*
X156297142Y-96147142D01*
X160154285Y-99147142D02*
X158725714Y-99147142D01*
X158725714Y-96147142D01*
X110402857Y-99757142D02*
X110260000Y-99614285D01*
X110117142Y-99328571D01*
X110117142Y-98614285D01*
X110260000Y-98328571D01*
X110402857Y-98185714D01*
X110688571Y-98042857D01*
X110974285Y-98042857D01*
X111402857Y-98185714D01*
X113117142Y-99900000D01*
X113117142Y-98042857D01*
X110117142Y-96185714D02*
X110117142Y-95900000D01*
X110260000Y-95614285D01*
X110402857Y-95471428D01*
X110688571Y-95328571D01*
X111260000Y-95185714D01*
X111974285Y-95185714D01*
X112545714Y-95328571D01*
X112831428Y-95471428D01*
X112974285Y-95614285D01*
X113117142Y-95900000D01*
X113117142Y-96185714D01*
X112974285Y-96471428D01*
X112831428Y-96614285D01*
X112545714Y-96757142D01*
X111974285Y-96900000D01*
X111260000Y-96900000D01*
X110688571Y-96757142D01*
X110402857Y-96614285D01*
X110260000Y-96471428D01*
X110117142Y-96185714D01*
X111117142Y-81185714D02*
X113117142Y-81185714D01*
X109974285Y-81900000D02*
X112117142Y-82614285D01*
X112117142Y-80757142D01*
X110117142Y-79042857D02*
X110117142Y-78757142D01*
X110260000Y-78471428D01*
X110402857Y-78328571D01*
X110688571Y-78185714D01*
X111260000Y-78042857D01*
X111974285Y-78042857D01*
X112545714Y-78185714D01*
X112831428Y-78328571D01*
X112974285Y-78471428D01*
X113117142Y-78757142D01*
X113117142Y-79042857D01*
X112974285Y-79328571D01*
X112831428Y-79471428D01*
X112545714Y-79614285D01*
X111974285Y-79757142D01*
X111260000Y-79757142D01*
X110688571Y-79614285D01*
X110402857Y-79471428D01*
X110260000Y-79328571D01*
X110117142Y-79042857D01*
X158011428Y-78652857D02*
X159011428Y-80081428D01*
X159725714Y-78652857D02*
X159725714Y-81652857D01*
X158582857Y-81652857D01*
X158297142Y-81510000D01*
X158154285Y-81367142D01*
X158011428Y-81081428D01*
X158011428Y-80652857D01*
X158154285Y-80367142D01*
X158297142Y-80224285D01*
X158582857Y-80081428D01*
X159725714Y-80081428D01*
X156154285Y-81652857D02*
X155582857Y-81652857D01*
X155297142Y-81510000D01*
X155011428Y-81224285D01*
X154868571Y-80652857D01*
X154868571Y-79652857D01*
X155011428Y-79081428D01*
X155297142Y-78795714D01*
X155582857Y-78652857D01*
X156154285Y-78652857D01*
X156440000Y-78795714D01*
X156725714Y-79081428D01*
X156868571Y-79652857D01*
X156868571Y-80652857D01*
X156725714Y-81224285D01*
X156440000Y-81510000D01*
X156154285Y-81652857D01*
X152154285Y-78652857D02*
X153582857Y-78652857D01*
X153582857Y-81652857D01*
X149725714Y-78652857D02*
X151154285Y-78652857D01*
X151154285Y-81652857D01*
X133897142Y-78652857D02*
X134897142Y-80081428D01*
X135611428Y-78652857D02*
X135611428Y-81652857D01*
X134468571Y-81652857D01*
X134182857Y-81510000D01*
X134040000Y-81367142D01*
X133897142Y-81081428D01*
X133897142Y-80652857D01*
X134040000Y-80367142D01*
X134182857Y-80224285D01*
X134468571Y-80081428D01*
X135611428Y-80081428D01*
X132611428Y-80224285D02*
X131611428Y-80224285D01*
X131182857Y-78652857D02*
X132611428Y-78652857D01*
X132611428Y-81652857D01*
X131182857Y-81652857D01*
X130040000Y-78795714D02*
X129611428Y-78652857D01*
X128897142Y-78652857D01*
X128611428Y-78795714D01*
X128468571Y-78938571D01*
X128325714Y-79224285D01*
X128325714Y-79510000D01*
X128468571Y-79795714D01*
X128611428Y-79938571D01*
X128897142Y-80081428D01*
X129468571Y-80224285D01*
X129754285Y-80367142D01*
X129897142Y-80510000D01*
X130040000Y-80795714D01*
X130040000Y-81081428D01*
X129897142Y-81367142D01*
X129754285Y-81510000D01*
X129468571Y-81652857D01*
X128754285Y-81652857D01*
X128325714Y-81510000D01*
X127040000Y-80224285D02*
X126040000Y-80224285D01*
X125611428Y-78652857D02*
X127040000Y-78652857D01*
X127040000Y-81652857D01*
X125611428Y-81652857D01*
X124754285Y-81652857D02*
X123040000Y-81652857D01*
X123897142Y-78652857D02*
X123897142Y-81652857D01*
X125182857Y-99147142D02*
X124182857Y-97718571D01*
X123468571Y-99147142D02*
X123468571Y-96147142D01*
X124611428Y-96147142D01*
X124897142Y-96290000D01*
X125040000Y-96432857D01*
X125182857Y-96718571D01*
X125182857Y-97147142D01*
X125040000Y-97432857D01*
X124897142Y-97575714D01*
X124611428Y-97718571D01*
X123468571Y-97718571D01*
X126468571Y-97575714D02*
X127468571Y-97575714D01*
X127897142Y-99147142D02*
X126468571Y-99147142D01*
X126468571Y-96147142D01*
X127897142Y-96147142D01*
X129040000Y-99004285D02*
X129468571Y-99147142D01*
X130182857Y-99147142D01*
X130468571Y-99004285D01*
X130611428Y-98861428D01*
X130754285Y-98575714D01*
X130754285Y-98290000D01*
X130611428Y-98004285D01*
X130468571Y-97861428D01*
X130182857Y-97718571D01*
X129611428Y-97575714D01*
X129325714Y-97432857D01*
X129182857Y-97290000D01*
X129040000Y-97004285D01*
X129040000Y-96718571D01*
X129182857Y-96432857D01*
X129325714Y-96290000D01*
X129611428Y-96147142D01*
X130325714Y-96147142D01*
X130754285Y-96290000D01*
X132040000Y-97575714D02*
X133040000Y-97575714D01*
X133468571Y-99147142D02*
X132040000Y-99147142D01*
X132040000Y-96147142D01*
X133468571Y-96147142D01*
X134325714Y-96147142D02*
X136040000Y-96147142D01*
X135182857Y-99147142D02*
X135182857Y-96147142D01*
X204877142Y-87717142D02*
X204877142Y-84717142D01*
X205877142Y-86860000D01*
X206877142Y-84717142D01*
X206877142Y-87717142D01*
X207877142Y-84717142D02*
X209591428Y-84717142D01*
X208734285Y-87717142D02*
X208734285Y-84717142D01*
X212162857Y-84860000D02*
X211877142Y-84717142D01*
X211448571Y-84717142D01*
X211020000Y-84860000D01*
X210734285Y-85145714D01*
X210591428Y-85431428D01*
X210448571Y-86002857D01*
X210448571Y-86431428D01*
X210591428Y-87002857D01*
X210734285Y-87288571D01*
X211020000Y-87574285D01*
X211448571Y-87717142D01*
X211734285Y-87717142D01*
X212162857Y-87574285D01*
X212305714Y-87431428D01*
X212305714Y-86431428D01*
X211734285Y-86431428D01*
X217305714Y-87717142D02*
X215877142Y-87717142D01*
X215877142Y-84717142D01*
X218305714Y-87717142D02*
X218305714Y-85717142D01*
X218305714Y-84717142D02*
X218162857Y-84860000D01*
X218305714Y-85002857D01*
X218448571Y-84860000D01*
X218305714Y-84717142D01*
X218305714Y-85002857D01*
X219305714Y-85717142D02*
X220448571Y-85717142D01*
X219734285Y-87717142D02*
X219734285Y-85145714D01*
X219877142Y-84860000D01*
X220162857Y-84717142D01*
X220448571Y-84717142D01*
X222591428Y-87574285D02*
X222305714Y-87717142D01*
X221734285Y-87717142D01*
X221448571Y-87574285D01*
X221305714Y-87288571D01*
X221305714Y-86145714D01*
X221448571Y-85860000D01*
X221734285Y-85717142D01*
X222305714Y-85717142D01*
X222591428Y-85860000D01*
X222734285Y-86145714D01*
X222734285Y-86431428D01*
X221305714Y-86717142D01*
X228020000Y-87431428D02*
X227877142Y-87574285D01*
X227448571Y-87717142D01*
X227162857Y-87717142D01*
X226734285Y-87574285D01*
X226448571Y-87288571D01*
X226305714Y-87002857D01*
X226162857Y-86431428D01*
X226162857Y-86002857D01*
X226305714Y-85431428D01*
X226448571Y-85145714D01*
X226734285Y-84860000D01*
X227162857Y-84717142D01*
X227448571Y-84717142D01*
X227877142Y-84860000D01*
X228020000Y-85002857D01*
X229734285Y-87717142D02*
X229448571Y-87574285D01*
X229305714Y-87431428D01*
X229162857Y-87145714D01*
X229162857Y-86288571D01*
X229305714Y-86002857D01*
X229448571Y-85860000D01*
X229734285Y-85717142D01*
X230162857Y-85717142D01*
X230448571Y-85860000D01*
X230591428Y-86002857D01*
X230734285Y-86288571D01*
X230734285Y-87145714D01*
X230591428Y-87431428D01*
X230448571Y-87574285D01*
X230162857Y-87717142D01*
X229734285Y-87717142D01*
X233305714Y-85717142D02*
X233305714Y-87717142D01*
X232020000Y-85717142D02*
X232020000Y-87288571D01*
X232162857Y-87574285D01*
X232448571Y-87717142D01*
X232877142Y-87717142D01*
X233162857Y-87574285D01*
X233305714Y-87431428D01*
X234734285Y-85717142D02*
X234734285Y-87717142D01*
X234734285Y-86002857D02*
X234877142Y-85860000D01*
X235162857Y-85717142D01*
X235591428Y-85717142D01*
X235877142Y-85860000D01*
X236020000Y-86145714D01*
X236020000Y-87717142D01*
X237020000Y-85717142D02*
X238162857Y-85717142D01*
X237448571Y-84717142D02*
X237448571Y-87288571D01*
X237591428Y-87574285D01*
X237877142Y-87717142D01*
X238162857Y-87717142D01*
X240305714Y-87574285D02*
X240020000Y-87717142D01*
X239448571Y-87717142D01*
X239162857Y-87574285D01*
X239020000Y-87288571D01*
X239020000Y-86145714D01*
X239162857Y-85860000D01*
X239448571Y-85717142D01*
X240020000Y-85717142D01*
X240305714Y-85860000D01*
X240448571Y-86145714D01*
X240448571Y-86431428D01*
X239020000Y-86717142D01*
X241734285Y-87717142D02*
X241734285Y-85717142D01*
X241734285Y-86288571D02*
X241877142Y-86002857D01*
X242020000Y-85860000D01*
X242305714Y-85717142D01*
X242591428Y-85717142D01*
D10*
X81773333Y-148224761D02*
X81773333Y-146224761D01*
X82535238Y-146224761D01*
X82725714Y-146320000D01*
X82820952Y-146415238D01*
X82916190Y-146605714D01*
X82916190Y-146891428D01*
X82820952Y-147081904D01*
X82725714Y-147177142D01*
X82535238Y-147272380D01*
X81773333Y-147272380D01*
X84725714Y-148224761D02*
X83773333Y-148224761D01*
X83773333Y-146224761D01*
X85297142Y-147653333D02*
X86249523Y-147653333D01*
X85106666Y-148224761D02*
X85773333Y-146224761D01*
X86440000Y-148224761D01*
X87487619Y-147272380D02*
X87487619Y-148224761D01*
X86820952Y-146224761D02*
X87487619Y-147272380D01*
X88154285Y-146224761D01*
X88820952Y-147177142D02*
X89487619Y-147177142D01*
X89773333Y-148224761D02*
X88820952Y-148224761D01*
X88820952Y-146224761D01*
X89773333Y-146224761D01*
X91773333Y-148224761D02*
X91106666Y-147272380D01*
X90630476Y-148224761D02*
X90630476Y-146224761D01*
X91392380Y-146224761D01*
X91582857Y-146320000D01*
X91678095Y-146415238D01*
X91773333Y-146605714D01*
X91773333Y-146891428D01*
X91678095Y-147081904D01*
X91582857Y-147177142D01*
X91392380Y-147272380D01*
X90630476Y-147272380D01*
X94820952Y-147177142D02*
X94154285Y-147177142D01*
X94154285Y-148224761D02*
X94154285Y-146224761D01*
X95106666Y-146224761D01*
X96249523Y-146224761D02*
X96630476Y-146224761D01*
X96820952Y-146320000D01*
X97011428Y-146510476D01*
X97106666Y-146891428D01*
X97106666Y-147558095D01*
X97011428Y-147939047D01*
X96820952Y-148129523D01*
X96630476Y-148224761D01*
X96249523Y-148224761D01*
X96059047Y-148129523D01*
X95868571Y-147939047D01*
X95773333Y-147558095D01*
X95773333Y-146891428D01*
X95868571Y-146510476D01*
X96059047Y-146320000D01*
X96249523Y-146224761D01*
X97963809Y-146224761D02*
X97963809Y-147843809D01*
X98059047Y-148034285D01*
X98154285Y-148129523D01*
X98344761Y-148224761D01*
X98725714Y-148224761D01*
X98916190Y-148129523D01*
X99011428Y-148034285D01*
X99106666Y-147843809D01*
X99106666Y-146224761D01*
X101201904Y-148224761D02*
X100535238Y-147272380D01*
X100059047Y-148224761D02*
X100059047Y-146224761D01*
X100820952Y-146224761D01*
X101011428Y-146320000D01*
X101106666Y-146415238D01*
X101201904Y-146605714D01*
X101201904Y-146891428D01*
X101106666Y-147081904D01*
X101011428Y-147177142D01*
X100820952Y-147272380D01*
X100059047Y-147272380D01*
X182706666Y-148224761D02*
X182706666Y-146224761D01*
X183468571Y-146224761D01*
X183659047Y-146320000D01*
X183754285Y-146415238D01*
X183849523Y-146605714D01*
X183849523Y-146891428D01*
X183754285Y-147081904D01*
X183659047Y-147177142D01*
X183468571Y-147272380D01*
X182706666Y-147272380D01*
X185659047Y-148224761D02*
X184706666Y-148224761D01*
X184706666Y-146224761D01*
X186230476Y-147653333D02*
X187182857Y-147653333D01*
X186040000Y-148224761D02*
X186706666Y-146224761D01*
X187373333Y-148224761D01*
X188420952Y-147272380D02*
X188420952Y-148224761D01*
X187754285Y-146224761D02*
X188420952Y-147272380D01*
X189087619Y-146224761D01*
X189754285Y-147177142D02*
X190420952Y-147177142D01*
X190706666Y-148224761D02*
X189754285Y-148224761D01*
X189754285Y-146224761D01*
X190706666Y-146224761D01*
X192706666Y-148224761D02*
X192040000Y-147272380D01*
X191563809Y-148224761D02*
X191563809Y-146224761D01*
X192325714Y-146224761D01*
X192516190Y-146320000D01*
X192611428Y-146415238D01*
X192706666Y-146605714D01*
X192706666Y-146891428D01*
X192611428Y-147081904D01*
X192516190Y-147177142D01*
X192325714Y-147272380D01*
X191563809Y-147272380D01*
X194801904Y-146224761D02*
X195944761Y-146224761D01*
X195373333Y-148224761D02*
X195373333Y-146224761D01*
X196611428Y-148224761D02*
X196611428Y-146224761D01*
X196611428Y-147177142D02*
X197754285Y-147177142D01*
X197754285Y-148224761D02*
X197754285Y-146224761D01*
X199849523Y-148224761D02*
X199182857Y-147272380D01*
X198706666Y-148224761D02*
X198706666Y-146224761D01*
X199468571Y-146224761D01*
X199659047Y-146320000D01*
X199754285Y-146415238D01*
X199849523Y-146605714D01*
X199849523Y-146891428D01*
X199754285Y-147081904D01*
X199659047Y-147177142D01*
X199468571Y-147272380D01*
X198706666Y-147272380D01*
X200706666Y-147177142D02*
X201373333Y-147177142D01*
X201659047Y-148224761D02*
X200706666Y-148224761D01*
X200706666Y-146224761D01*
X201659047Y-146224761D01*
X202516190Y-147177142D02*
X203182857Y-147177142D01*
X203468571Y-148224761D02*
X202516190Y-148224761D01*
X202516190Y-146224761D01*
X203468571Y-146224761D01*
X201706666Y-29575238D02*
X201706666Y-31575238D01*
X200944761Y-31575238D01*
X200754285Y-31480000D01*
X200659047Y-31384761D01*
X200563809Y-31194285D01*
X200563809Y-30908571D01*
X200659047Y-30718095D01*
X200754285Y-30622857D01*
X200944761Y-30527619D01*
X201706666Y-30527619D01*
X198754285Y-29575238D02*
X199706666Y-29575238D01*
X199706666Y-31575238D01*
X198182857Y-30146666D02*
X197230476Y-30146666D01*
X198373333Y-29575238D02*
X197706666Y-31575238D01*
X197040000Y-29575238D01*
X195992380Y-30527619D02*
X195992380Y-29575238D01*
X196659047Y-31575238D02*
X195992380Y-30527619D01*
X195325714Y-31575238D01*
X194659047Y-30622857D02*
X193992380Y-30622857D01*
X193706666Y-29575238D02*
X194659047Y-29575238D01*
X194659047Y-31575238D01*
X193706666Y-31575238D01*
X191706666Y-29575238D02*
X192373333Y-30527619D01*
X192849523Y-29575238D02*
X192849523Y-31575238D01*
X192087619Y-31575238D01*
X191897142Y-31480000D01*
X191801904Y-31384761D01*
X191706666Y-31194285D01*
X191706666Y-30908571D01*
X191801904Y-30718095D01*
X191897142Y-30622857D01*
X192087619Y-30527619D01*
X192849523Y-30527619D01*
X189611428Y-31575238D02*
X188468571Y-31575238D01*
X189040000Y-29575238D02*
X189040000Y-31575238D01*
X187992380Y-31575238D02*
X187516190Y-29575238D01*
X187135238Y-31003809D01*
X186754285Y-29575238D01*
X186278095Y-31575238D01*
X185135238Y-31575238D02*
X184754285Y-31575238D01*
X184563809Y-31480000D01*
X184373333Y-31289523D01*
X184278095Y-30908571D01*
X184278095Y-30241904D01*
X184373333Y-29860952D01*
X184563809Y-29670476D01*
X184754285Y-29575238D01*
X185135238Y-29575238D01*
X185325714Y-29670476D01*
X185516190Y-29860952D01*
X185611428Y-30241904D01*
X185611428Y-30908571D01*
X185516190Y-31289523D01*
X185325714Y-31480000D01*
X185135238Y-31575238D01*
X100154285Y-29575238D02*
X100154285Y-31575238D01*
X99392380Y-31575238D01*
X99201904Y-31480000D01*
X99106666Y-31384761D01*
X99011428Y-31194285D01*
X99011428Y-30908571D01*
X99106666Y-30718095D01*
X99201904Y-30622857D01*
X99392380Y-30527619D01*
X100154285Y-30527619D01*
X97201904Y-29575238D02*
X98154285Y-29575238D01*
X98154285Y-31575238D01*
X96630476Y-30146666D02*
X95678095Y-30146666D01*
X96820952Y-29575238D02*
X96154285Y-31575238D01*
X95487619Y-29575238D01*
X94440000Y-30527619D02*
X94440000Y-29575238D01*
X95106666Y-31575238D02*
X94440000Y-30527619D01*
X93773333Y-31575238D01*
X93106666Y-30622857D02*
X92440000Y-30622857D01*
X92154285Y-29575238D02*
X93106666Y-29575238D01*
X93106666Y-31575238D01*
X92154285Y-31575238D01*
X90154285Y-29575238D02*
X90820952Y-30527619D01*
X91297142Y-29575238D02*
X91297142Y-31575238D01*
X90535238Y-31575238D01*
X90344761Y-31480000D01*
X90249523Y-31384761D01*
X90154285Y-31194285D01*
X90154285Y-30908571D01*
X90249523Y-30718095D01*
X90344761Y-30622857D01*
X90535238Y-30527619D01*
X91297142Y-30527619D01*
X87392380Y-31575238D02*
X87011428Y-31575238D01*
X86820952Y-31480000D01*
X86630476Y-31289523D01*
X86535238Y-30908571D01*
X86535238Y-30241904D01*
X86630476Y-29860952D01*
X86820952Y-29670476D01*
X87011428Y-29575238D01*
X87392380Y-29575238D01*
X87582857Y-29670476D01*
X87773333Y-29860952D01*
X87868571Y-30241904D01*
X87868571Y-30908571D01*
X87773333Y-31289523D01*
X87582857Y-31480000D01*
X87392380Y-31575238D01*
X85678095Y-29575238D02*
X85678095Y-31575238D01*
X84535238Y-29575238D01*
X84535238Y-31575238D01*
X83582857Y-30622857D02*
X82916190Y-30622857D01*
X82630476Y-29575238D02*
X83582857Y-29575238D01*
X83582857Y-31575238D01*
X82630476Y-31575238D01*
D12*
X217805000Y-141605000D02*
X193040000Y-141605000D01*
X217805000Y-122555000D02*
X217805000Y-141605000D01*
X168275000Y-122555000D02*
X217805000Y-122555000D01*
X168275000Y-141605000D02*
X168275000Y-122555000D01*
X193040000Y-141605000D02*
X168275000Y-141605000D01*
X193747107Y-134200000D02*
G75*
G03X193747107Y-134200000I-707107J0D01*
G01*
X194247107Y-129700000D02*
G75*
G03X194247107Y-129700000I-707107J0D01*
G01*
X214040000Y-138200000D02*
G75*
G03X214040000Y-138200000I-500000J0D01*
G01*
X203040000Y-138200000D02*
G75*
G03X203040000Y-138200000I-500000J0D01*
G01*
X192040000Y-138200000D02*
G75*
G03X192040000Y-138200000I-500000J0D01*
G01*
X181040000Y-138200000D02*
G75*
G03X181040000Y-138200000I-500000J0D01*
G01*
X201540000Y-138200000D02*
X202540000Y-126200000D01*
X194540000Y-138200000D02*
X201540000Y-138200000D01*
X195540000Y-126200000D02*
X194540000Y-138200000D01*
X202540000Y-126200000D02*
X195540000Y-126200000D01*
X195040000Y-132200000D02*
X202040000Y-132200000D01*
X206040000Y-132200000D02*
X213040000Y-132200000D01*
X213540000Y-126200000D02*
X206540000Y-126200000D01*
X205540000Y-138200000D02*
X212540000Y-138200000D01*
X212540000Y-138200000D02*
X213540000Y-126200000D01*
X206540000Y-126200000D02*
X205540000Y-138200000D01*
X190540000Y-138200000D02*
X191540000Y-126200000D01*
X183540000Y-138200000D02*
X190540000Y-138200000D01*
X184540000Y-126200000D02*
X183540000Y-138200000D01*
X191540000Y-126200000D02*
X184540000Y-126200000D01*
X184040000Y-132200000D02*
X191040000Y-132200000D01*
X173040000Y-132200000D02*
X180040000Y-132200000D01*
X180540000Y-126200000D02*
X173540000Y-126200000D01*
X179540000Y-138200000D02*
X180540000Y-126200000D01*
X172540000Y-138200000D02*
X179540000Y-138200000D01*
X173540000Y-126200000D02*
X172540000Y-138200000D01*
X168275000Y-36195000D02*
X193040000Y-36195000D01*
X168275000Y-55245000D02*
X168275000Y-36195000D01*
X217805000Y-55245000D02*
X168275000Y-55245000D01*
X217805000Y-36195000D02*
X217805000Y-55245000D01*
X193040000Y-36195000D02*
X217805000Y-36195000D01*
X193747107Y-43600000D02*
G75*
G03X193747107Y-43600000I-707107J0D01*
G01*
X193247107Y-48100000D02*
G75*
G03X193247107Y-48100000I-707107J0D01*
G01*
X173040000Y-39600000D02*
G75*
G03X173040000Y-39600000I-500000J0D01*
G01*
X184040000Y-39600000D02*
G75*
G03X184040000Y-39600000I-500000J0D01*
G01*
X195040000Y-39600000D02*
G75*
G03X195040000Y-39600000I-500000J0D01*
G01*
X206040000Y-39600000D02*
G75*
G03X206040000Y-39600000I-500000J0D01*
G01*
X184540000Y-39600000D02*
X183540000Y-51600000D01*
X191540000Y-39600000D02*
X184540000Y-39600000D01*
X190540000Y-51600000D02*
X191540000Y-39600000D01*
X183540000Y-51600000D02*
X190540000Y-51600000D01*
X191040000Y-45600000D02*
X184040000Y-45600000D01*
X180040000Y-45600000D02*
X173040000Y-45600000D01*
X172540000Y-51600000D02*
X179540000Y-51600000D01*
X180540000Y-39600000D02*
X173540000Y-39600000D01*
X173540000Y-39600000D02*
X172540000Y-51600000D01*
X179540000Y-51600000D02*
X180540000Y-39600000D01*
X195540000Y-39600000D02*
X194540000Y-51600000D01*
X202540000Y-39600000D02*
X195540000Y-39600000D01*
X201540000Y-51600000D02*
X202540000Y-39600000D01*
X194540000Y-51600000D02*
X201540000Y-51600000D01*
X202040000Y-45600000D02*
X195040000Y-45600000D01*
X213040000Y-45600000D02*
X206040000Y-45600000D01*
X205540000Y-51600000D02*
X212540000Y-51600000D01*
X206540000Y-39600000D02*
X205540000Y-51600000D01*
X213540000Y-39600000D02*
X206540000Y-39600000D01*
X212540000Y-51600000D02*
X213540000Y-39600000D01*
X66675000Y-36195000D02*
X91440000Y-36195000D01*
X66675000Y-55245000D02*
X66675000Y-36195000D01*
X116205000Y-55245000D02*
X66675000Y-55245000D01*
X116205000Y-36195000D02*
X116205000Y-55245000D01*
X91440000Y-36195000D02*
X116205000Y-36195000D01*
X92147107Y-43600000D02*
G75*
G03X92147107Y-43600000I-707107J0D01*
G01*
X91647107Y-48100000D02*
G75*
G03X91647107Y-48100000I-707107J0D01*
G01*
X71440000Y-39600000D02*
G75*
G03X71440000Y-39600000I-500000J0D01*
G01*
X82440000Y-39600000D02*
G75*
G03X82440000Y-39600000I-500000J0D01*
G01*
X93440000Y-39600000D02*
G75*
G03X93440000Y-39600000I-500000J0D01*
G01*
X104440000Y-39600000D02*
G75*
G03X104440000Y-39600000I-500000J0D01*
G01*
X82940000Y-39600000D02*
X81940000Y-51600000D01*
X89940000Y-39600000D02*
X82940000Y-39600000D01*
X88940000Y-51600000D02*
X89940000Y-39600000D01*
X81940000Y-51600000D02*
X88940000Y-51600000D01*
X89440000Y-45600000D02*
X82440000Y-45600000D01*
X78440000Y-45600000D02*
X71440000Y-45600000D01*
X70940000Y-51600000D02*
X77940000Y-51600000D01*
X78940000Y-39600000D02*
X71940000Y-39600000D01*
X71940000Y-39600000D02*
X70940000Y-51600000D01*
X77940000Y-51600000D02*
X78940000Y-39600000D01*
X93940000Y-39600000D02*
X92940000Y-51600000D01*
X100940000Y-39600000D02*
X93940000Y-39600000D01*
X99940000Y-51600000D02*
X100940000Y-39600000D01*
X92940000Y-51600000D02*
X99940000Y-51600000D01*
X100440000Y-45600000D02*
X93440000Y-45600000D01*
X111440000Y-45600000D02*
X104440000Y-45600000D01*
X103940000Y-51600000D02*
X110940000Y-51600000D01*
X104940000Y-39600000D02*
X103940000Y-51600000D01*
X111940000Y-39600000D02*
X104940000Y-39600000D01*
X110940000Y-51600000D02*
X111940000Y-39600000D01*
X116205000Y-141605000D02*
X91440000Y-141605000D01*
X116205000Y-122555000D02*
X116205000Y-141605000D01*
X66675000Y-122555000D02*
X116205000Y-122555000D01*
X66675000Y-141605000D02*
X66675000Y-122555000D01*
X91440000Y-141605000D02*
X66675000Y-141605000D01*
X92147107Y-134200000D02*
G75*
G03X92147107Y-134200000I-707107J0D01*
G01*
X92647107Y-129700000D02*
G75*
G03X92647107Y-129700000I-707107J0D01*
G01*
X112440000Y-138200000D02*
G75*
G03X112440000Y-138200000I-500000J0D01*
G01*
X101440000Y-138200000D02*
G75*
G03X101440000Y-138200000I-500000J0D01*
G01*
X90440000Y-138200000D02*
G75*
G03X90440000Y-138200000I-500000J0D01*
G01*
X79440000Y-138200000D02*
G75*
G03X79440000Y-138200000I-500000J0D01*
G01*
X99940000Y-138200000D02*
X100940000Y-126200000D01*
X92940000Y-138200000D02*
X99940000Y-138200000D01*
X93940000Y-126200000D02*
X92940000Y-138200000D01*
X100940000Y-126200000D02*
X93940000Y-126200000D01*
X93440000Y-132200000D02*
X100440000Y-132200000D01*
X104440000Y-132200000D02*
X111440000Y-132200000D01*
X111940000Y-126200000D02*
X104940000Y-126200000D01*
X103940000Y-138200000D02*
X110940000Y-138200000D01*
X110940000Y-138200000D02*
X111940000Y-126200000D01*
X104940000Y-126200000D02*
X103940000Y-138200000D01*
X88940000Y-138200000D02*
X89940000Y-126200000D01*
X81940000Y-138200000D02*
X88940000Y-138200000D01*
X82940000Y-126200000D02*
X81940000Y-138200000D01*
X89940000Y-126200000D02*
X82940000Y-126200000D01*
X82440000Y-132200000D02*
X89440000Y-132200000D01*
X71440000Y-132200000D02*
X78440000Y-132200000D01*
X78940000Y-126200000D02*
X71940000Y-126200000D01*
X77940000Y-138200000D02*
X78940000Y-126200000D01*
X70940000Y-138200000D02*
X77940000Y-138200000D01*
X71940000Y-126200000D02*
X70940000Y-138200000D01*
X57040000Y-124420000D02*
G75*
G03X57040000Y-124420000I-3600000J0D01*
G01*
X47440000Y-120420000D02*
X47440000Y-118420000D01*
X47440000Y-125420000D02*
X47440000Y-123420000D01*
X59440000Y-130420000D02*
X59440000Y-128420000D01*
X59440000Y-123420000D02*
X59440000Y-125420000D01*
X47440000Y-128420000D02*
X47440000Y-130420000D01*
X59440000Y-118420000D02*
X47440000Y-118420000D01*
X59440000Y-120420000D02*
X59440000Y-118420000D01*
X47440000Y-130420000D02*
X59440000Y-130420000D01*
D13*
X49470000Y-102760000D02*
X49470000Y-104410000D01*
X74990000Y-102760000D02*
X49470000Y-102760000D01*
X74990000Y-108060000D02*
X74990000Y-102760000D01*
X49470000Y-108060000D02*
X74990000Y-108060000D01*
X49470000Y-106410000D02*
X49470000Y-108060000D01*
X49470000Y-104410000D02*
G75*
G02X49470000Y-106410000I0J-1000000D01*
G01*
X74990000Y-75040000D02*
X74990000Y-73390000D01*
X49470000Y-75040000D02*
X74990000Y-75040000D01*
X49470000Y-69740000D02*
X49470000Y-75040000D01*
X74990000Y-69740000D02*
X49470000Y-69740000D01*
X74990000Y-71390000D02*
X74990000Y-69740000D01*
X74990000Y-73390000D02*
G75*
G02X74990000Y-71390000I0J1000000D01*
G01*
X67540000Y-66040000D02*
X66770000Y-66040000D01*
X59460000Y-66040000D02*
X60230000Y-66040000D01*
X66770000Y-64670000D02*
X60230000Y-64670000D01*
X66770000Y-67410000D02*
X66770000Y-64670000D01*
X60230000Y-67410000D02*
X66770000Y-67410000D01*
X60230000Y-64670000D02*
X60230000Y-67410000D01*
X72999000Y-65120000D02*
X71741000Y-65120000D01*
X72999000Y-66960000D02*
X71741000Y-66960000D01*
D12*
X57040000Y-139740000D02*
G75*
G03X57040000Y-139740000I-3600000J0D01*
G01*
X47440000Y-135740000D02*
X47440000Y-133740000D01*
X47440000Y-140740000D02*
X47440000Y-138740000D01*
X59440000Y-145740000D02*
X59440000Y-143740000D01*
X59440000Y-138740000D02*
X59440000Y-140740000D01*
X47440000Y-143740000D02*
X47440000Y-145740000D01*
X59440000Y-133740000D02*
X47440000Y-133740000D01*
X59440000Y-135740000D02*
X59440000Y-133740000D01*
X47440000Y-145740000D02*
X59440000Y-145740000D01*
X234640000Y-139740000D02*
G75*
G03X234640000Y-139740000I-3600000J0D01*
G01*
X225040000Y-135740000D02*
X225040000Y-133740000D01*
X225040000Y-140740000D02*
X225040000Y-138740000D01*
X237040000Y-145740000D02*
X237040000Y-143740000D01*
X237040000Y-138740000D02*
X237040000Y-140740000D01*
X225040000Y-143740000D02*
X225040000Y-145740000D01*
X237040000Y-133740000D02*
X225040000Y-133740000D01*
X237040000Y-135740000D02*
X237040000Y-133740000D01*
X225040000Y-145740000D02*
X237040000Y-145740000D01*
X234640000Y-124420000D02*
G75*
G03X234640000Y-124420000I-3600000J0D01*
G01*
X225040000Y-120420000D02*
X225040000Y-118420000D01*
X225040000Y-125420000D02*
X225040000Y-123420000D01*
X237040000Y-130420000D02*
X237040000Y-128420000D01*
X237040000Y-123420000D02*
X237040000Y-125420000D01*
X225040000Y-128420000D02*
X225040000Y-130420000D01*
X237040000Y-118420000D02*
X225040000Y-118420000D01*
X237040000Y-120420000D02*
X237040000Y-118420000D01*
X225040000Y-130420000D02*
X237040000Y-130420000D01*
X234640000Y-53380000D02*
G75*
G03X234640000Y-53380000I-3600000J0D01*
G01*
X237040000Y-57380000D02*
X237040000Y-59380000D01*
X237040000Y-52380000D02*
X237040000Y-54380000D01*
X225040000Y-47380000D02*
X225040000Y-49380000D01*
X225040000Y-54380000D02*
X225040000Y-52380000D01*
X237040000Y-49380000D02*
X237040000Y-47380000D01*
X225040000Y-59380000D02*
X237040000Y-59380000D01*
X225040000Y-57380000D02*
X225040000Y-59380000D01*
X237040000Y-47380000D02*
X225040000Y-47380000D01*
X234640000Y-38060000D02*
G75*
G03X234640000Y-38060000I-3600000J0D01*
G01*
X237040000Y-42060000D02*
X237040000Y-44060000D01*
X237040000Y-37060000D02*
X237040000Y-39060000D01*
X225040000Y-32060000D02*
X225040000Y-34060000D01*
X225040000Y-39060000D02*
X225040000Y-37060000D01*
X237040000Y-34060000D02*
X237040000Y-32060000D01*
X225040000Y-44060000D02*
X237040000Y-44060000D01*
X225040000Y-42060000D02*
X225040000Y-44060000D01*
X237040000Y-32060000D02*
X225040000Y-32060000D01*
X57040000Y-53380000D02*
G75*
G03X57040000Y-53380000I-3600000J0D01*
G01*
X59440000Y-57380000D02*
X59440000Y-59380000D01*
X59440000Y-52380000D02*
X59440000Y-54380000D01*
X47440000Y-47380000D02*
X47440000Y-49380000D01*
X47440000Y-54380000D02*
X47440000Y-52380000D01*
X59440000Y-49380000D02*
X59440000Y-47380000D01*
X47440000Y-59380000D02*
X59440000Y-59380000D01*
X47440000Y-57380000D02*
X47440000Y-59380000D01*
X59440000Y-47380000D02*
X47440000Y-47380000D01*
X57040000Y-38060000D02*
G75*
G03X57040000Y-38060000I-3600000J0D01*
G01*
X59440000Y-42060000D02*
X59440000Y-44060000D01*
X59440000Y-37060000D02*
X59440000Y-39060000D01*
X47440000Y-32060000D02*
X47440000Y-34060000D01*
X47440000Y-39060000D02*
X47440000Y-37060000D01*
X59440000Y-34060000D02*
X59440000Y-32060000D01*
X47440000Y-44060000D02*
X59440000Y-44060000D01*
X47440000Y-42060000D02*
X47440000Y-44060000D01*
X59440000Y-32060000D02*
X47440000Y-32060000D01*
X158440000Y-88940000D02*
G75*
G03X158440000Y-88940000I-3600000J0D01*
G01*
X148840000Y-84940000D02*
X148840000Y-82940000D01*
X148840000Y-89940000D02*
X148840000Y-87940000D01*
X160840000Y-94940000D02*
X160840000Y-92940000D01*
X160840000Y-87940000D02*
X160840000Y-89940000D01*
X148840000Y-92940000D02*
X148840000Y-94940000D01*
X160840000Y-82940000D02*
X148840000Y-82940000D01*
X160840000Y-84940000D02*
X160840000Y-82940000D01*
X148840000Y-94940000D02*
X160840000Y-94940000D01*
X133040000Y-88940000D02*
G75*
G03X133040000Y-88940000I-3600000J0D01*
G01*
X123440000Y-84940000D02*
X123440000Y-82940000D01*
X123440000Y-89940000D02*
X123440000Y-87940000D01*
X135440000Y-94940000D02*
X135440000Y-92940000D01*
X135440000Y-87940000D02*
X135440000Y-89940000D01*
X123440000Y-92940000D02*
X123440000Y-94940000D01*
X135440000Y-82940000D02*
X123440000Y-82940000D01*
X135440000Y-84940000D02*
X135440000Y-82940000D01*
X123440000Y-94940000D02*
X135440000Y-94940000D01*
X124582753Y-141320402D02*
X125137081Y-141090792D01*
X124888900Y-142059506D02*
X124582753Y-141320402D01*
X125443228Y-141829896D02*
X124888900Y-142059506D01*
X134140000Y-139700000D02*
G75*
G03X134140000Y-139700000I-4600000J0D01*
G01*
X149982753Y-141320402D02*
X150537081Y-141090792D01*
X150288900Y-142059506D02*
X149982753Y-141320402D01*
X150843228Y-141829896D02*
X150288900Y-142059506D01*
X159540000Y-139700000D02*
G75*
G03X159540000Y-139700000I-4600000J0D01*
G01*
X159897247Y-36479598D02*
X159342919Y-36709208D01*
X159591100Y-35740494D02*
X159897247Y-36479598D01*
X159036772Y-35970104D02*
X159591100Y-35740494D01*
X159540000Y-38100000D02*
G75*
G03X159540000Y-38100000I-4600000J0D01*
G01*
X134497247Y-36479598D02*
X133942919Y-36709208D01*
X134191100Y-35740494D02*
X134497247Y-36479598D01*
X133636772Y-35970104D02*
X134191100Y-35740494D01*
X134140000Y-38100000D02*
G75*
G03X134140000Y-38100000I-4600000J0D01*
G01*
D13*
X96100000Y-90400000D02*
X96100000Y-91400000D01*
X96600000Y-90900000D02*
X96100000Y-90400000D01*
X96100000Y-91400000D02*
X96600000Y-90900000D01*
X101320000Y-84490000D02*
X101010000Y-84490000D01*
X101320000Y-93310000D02*
X101010000Y-93310000D01*
X97110000Y-93310000D02*
X96800000Y-93310000D01*
X101320000Y-84490000D02*
X101320000Y-93310000D01*
X96800000Y-84490000D02*
X97110000Y-84490000D01*
X96800000Y-93310000D02*
X96800000Y-84490000D01*
X91440000Y-84860000D02*
X91440000Y-85630000D01*
X91440000Y-92940000D02*
X91440000Y-92170000D01*
X90070000Y-85630000D02*
X90070000Y-92170000D01*
X92810000Y-85630000D02*
X90070000Y-85630000D01*
X92810000Y-92170000D02*
X92810000Y-85630000D01*
X90070000Y-92170000D02*
X92810000Y-92170000D01*
X80010000Y-82550000D02*
X82550000Y-82550000D01*
X82550000Y-82550000D02*
X82550000Y-79880000D01*
X80010000Y-79880000D02*
X41780000Y-79880000D01*
X85220000Y-79880000D02*
X82550000Y-79880000D01*
X82550000Y-95250000D02*
X82550000Y-97920000D01*
X82550000Y-95250000D02*
X44450000Y-95250000D01*
X44450000Y-95250000D02*
X44450000Y-97920000D01*
X80010000Y-82550000D02*
X80010000Y-79880000D01*
X80010000Y-82550000D02*
X44450000Y-82550000D01*
X44450000Y-82550000D02*
X44450000Y-79880000D01*
X41780000Y-79880000D02*
X41780000Y-97920000D01*
X41780000Y-97920000D02*
X85220000Y-97920000D01*
X85220000Y-97920000D02*
X85220000Y-79880000D01*
X234600000Y-74321000D02*
X234600000Y-75579000D01*
X232760000Y-74321000D02*
X232760000Y-75579000D01*
X208901000Y-102520000D02*
X210159000Y-102520000D01*
X208901000Y-100680000D02*
X210159000Y-100680000D01*
X51461000Y-112680000D02*
X52719000Y-112680000D01*
X51461000Y-110840000D02*
X52719000Y-110840000D01*
X154331000Y-75280000D02*
X155589000Y-75280000D01*
X154331000Y-77120000D02*
X155589000Y-77120000D01*
X130149000Y-102520000D02*
X128891000Y-102520000D01*
X130149000Y-100680000D02*
X128891000Y-100680000D01*
X176880000Y-84429000D02*
X176880000Y-83171000D01*
X178720000Y-84429000D02*
X178720000Y-83171000D01*
X95250000Y-67540000D02*
X95250000Y-66770000D01*
X95250000Y-59460000D02*
X95250000Y-60230000D01*
X96620000Y-66770000D02*
X96620000Y-60230000D01*
X93880000Y-66770000D02*
X96620000Y-66770000D01*
X93880000Y-60230000D02*
X93880000Y-66770000D01*
X96620000Y-60230000D02*
X93880000Y-60230000D01*
X86460000Y-60230000D02*
X83720000Y-60230000D01*
X83720000Y-60230000D02*
X83720000Y-66770000D01*
X83720000Y-66770000D02*
X86460000Y-66770000D01*
X86460000Y-66770000D02*
X86460000Y-60230000D01*
X85090000Y-59460000D02*
X85090000Y-60230000D01*
X85090000Y-67540000D02*
X85090000Y-66770000D01*
X87630000Y-67540000D02*
X87630000Y-66770000D01*
X87630000Y-59460000D02*
X87630000Y-60230000D01*
X89000000Y-66770000D02*
X89000000Y-60230000D01*
X86260000Y-66770000D02*
X89000000Y-66770000D01*
X86260000Y-60230000D02*
X86260000Y-66770000D01*
X89000000Y-60230000D02*
X86260000Y-60230000D01*
X99160000Y-60230000D02*
X96420000Y-60230000D01*
X96420000Y-60230000D02*
X96420000Y-66770000D01*
X96420000Y-66770000D02*
X99160000Y-66770000D01*
X99160000Y-66770000D02*
X99160000Y-60230000D01*
X97790000Y-59460000D02*
X97790000Y-60230000D01*
X97790000Y-67540000D02*
X97790000Y-66770000D01*
X100330000Y-67540000D02*
X100330000Y-66770000D01*
X100330000Y-59460000D02*
X100330000Y-60230000D01*
X101700000Y-66770000D02*
X101700000Y-60230000D01*
X98960000Y-66770000D02*
X101700000Y-66770000D01*
X98960000Y-60230000D02*
X98960000Y-66770000D01*
X101700000Y-60230000D02*
X98960000Y-60230000D01*
X94080000Y-60230000D02*
X91340000Y-60230000D01*
X91340000Y-60230000D02*
X91340000Y-66770000D01*
X91340000Y-66770000D02*
X94080000Y-66770000D01*
X94080000Y-66770000D02*
X94080000Y-60230000D01*
X92710000Y-59460000D02*
X92710000Y-60230000D01*
X92710000Y-67540000D02*
X92710000Y-66770000D01*
X82550000Y-67540000D02*
X82550000Y-66770000D01*
X82550000Y-59460000D02*
X82550000Y-60230000D01*
X83920000Y-66770000D02*
X83920000Y-60230000D01*
X81180000Y-66770000D02*
X83920000Y-66770000D01*
X81180000Y-60230000D02*
X81180000Y-66770000D01*
X83920000Y-60230000D02*
X81180000Y-60230000D01*
X91540000Y-60230000D02*
X88800000Y-60230000D01*
X88800000Y-60230000D02*
X88800000Y-66770000D01*
X88800000Y-66770000D02*
X91540000Y-66770000D01*
X91540000Y-66770000D02*
X91540000Y-60230000D01*
X90170000Y-59460000D02*
X90170000Y-60230000D01*
X90170000Y-67540000D02*
X90170000Y-66770000D01*
X196850000Y-67540000D02*
X196850000Y-66770000D01*
X196850000Y-59460000D02*
X196850000Y-60230000D01*
X198220000Y-66770000D02*
X198220000Y-60230000D01*
X195480000Y-66770000D02*
X198220000Y-66770000D01*
X195480000Y-60230000D02*
X195480000Y-66770000D01*
X198220000Y-60230000D02*
X195480000Y-60230000D01*
X188060000Y-60230000D02*
X185320000Y-60230000D01*
X185320000Y-60230000D02*
X185320000Y-66770000D01*
X185320000Y-66770000D02*
X188060000Y-66770000D01*
X188060000Y-66770000D02*
X188060000Y-60230000D01*
X186690000Y-59460000D02*
X186690000Y-60230000D01*
X186690000Y-67540000D02*
X186690000Y-66770000D01*
X189230000Y-67540000D02*
X189230000Y-66770000D01*
X189230000Y-59460000D02*
X189230000Y-60230000D01*
X190600000Y-66770000D02*
X190600000Y-60230000D01*
X187860000Y-66770000D02*
X190600000Y-66770000D01*
X187860000Y-60230000D02*
X187860000Y-66770000D01*
X190600000Y-60230000D02*
X187860000Y-60230000D01*
X200760000Y-60230000D02*
X198020000Y-60230000D01*
X198020000Y-60230000D02*
X198020000Y-66770000D01*
X198020000Y-66770000D02*
X200760000Y-66770000D01*
X200760000Y-66770000D02*
X200760000Y-60230000D01*
X199390000Y-59460000D02*
X199390000Y-60230000D01*
X199390000Y-67540000D02*
X199390000Y-66770000D01*
X201930000Y-67540000D02*
X201930000Y-66770000D01*
X201930000Y-59460000D02*
X201930000Y-60230000D01*
X203300000Y-66770000D02*
X203300000Y-60230000D01*
X200560000Y-66770000D02*
X203300000Y-66770000D01*
X200560000Y-60230000D02*
X200560000Y-66770000D01*
X203300000Y-60230000D02*
X200560000Y-60230000D01*
X195680000Y-60230000D02*
X192940000Y-60230000D01*
X192940000Y-60230000D02*
X192940000Y-66770000D01*
X192940000Y-66770000D02*
X195680000Y-66770000D01*
X195680000Y-66770000D02*
X195680000Y-60230000D01*
X194310000Y-59460000D02*
X194310000Y-60230000D01*
X194310000Y-67540000D02*
X194310000Y-66770000D01*
X184150000Y-67540000D02*
X184150000Y-66770000D01*
X184150000Y-59460000D02*
X184150000Y-60230000D01*
X185520000Y-66770000D02*
X185520000Y-60230000D01*
X182780000Y-66770000D02*
X185520000Y-66770000D01*
X182780000Y-60230000D02*
X182780000Y-66770000D01*
X185520000Y-60230000D02*
X182780000Y-60230000D01*
X193140000Y-60230000D02*
X190400000Y-60230000D01*
X190400000Y-60230000D02*
X190400000Y-66770000D01*
X190400000Y-66770000D02*
X193140000Y-66770000D01*
X193140000Y-66770000D02*
X193140000Y-60230000D01*
X191770000Y-59460000D02*
X191770000Y-60230000D01*
X191770000Y-67540000D02*
X191770000Y-66770000D01*
X189230000Y-110260000D02*
X189230000Y-111030000D01*
X189230000Y-118340000D02*
X189230000Y-117570000D01*
X187860000Y-111030000D02*
X187860000Y-117570000D01*
X190600000Y-111030000D02*
X187860000Y-111030000D01*
X190600000Y-117570000D02*
X190600000Y-111030000D01*
X187860000Y-117570000D02*
X190600000Y-117570000D01*
X198020000Y-117570000D02*
X200760000Y-117570000D01*
X200760000Y-117570000D02*
X200760000Y-111030000D01*
X200760000Y-111030000D02*
X198020000Y-111030000D01*
X198020000Y-111030000D02*
X198020000Y-117570000D01*
X199390000Y-118340000D02*
X199390000Y-117570000D01*
X199390000Y-110260000D02*
X199390000Y-111030000D01*
X196850000Y-110260000D02*
X196850000Y-111030000D01*
X196850000Y-118340000D02*
X196850000Y-117570000D01*
X195480000Y-111030000D02*
X195480000Y-117570000D01*
X198220000Y-111030000D02*
X195480000Y-111030000D01*
X198220000Y-117570000D02*
X198220000Y-111030000D01*
X195480000Y-117570000D02*
X198220000Y-117570000D01*
X185320000Y-117570000D02*
X188060000Y-117570000D01*
X188060000Y-117570000D02*
X188060000Y-111030000D01*
X188060000Y-111030000D02*
X185320000Y-111030000D01*
X185320000Y-111030000D02*
X185320000Y-117570000D01*
X186690000Y-118340000D02*
X186690000Y-117570000D01*
X186690000Y-110260000D02*
X186690000Y-111030000D01*
X184150000Y-110260000D02*
X184150000Y-111030000D01*
X184150000Y-118340000D02*
X184150000Y-117570000D01*
X182780000Y-111030000D02*
X182780000Y-117570000D01*
X185520000Y-111030000D02*
X182780000Y-111030000D01*
X185520000Y-117570000D02*
X185520000Y-111030000D01*
X182780000Y-117570000D02*
X185520000Y-117570000D01*
X190400000Y-117570000D02*
X193140000Y-117570000D01*
X193140000Y-117570000D02*
X193140000Y-111030000D01*
X193140000Y-111030000D02*
X190400000Y-111030000D01*
X190400000Y-111030000D02*
X190400000Y-117570000D01*
X191770000Y-118340000D02*
X191770000Y-117570000D01*
X191770000Y-110260000D02*
X191770000Y-111030000D01*
X201930000Y-110260000D02*
X201930000Y-111030000D01*
X201930000Y-118340000D02*
X201930000Y-117570000D01*
X200560000Y-111030000D02*
X200560000Y-117570000D01*
X203300000Y-111030000D02*
X200560000Y-111030000D01*
X203300000Y-117570000D02*
X203300000Y-111030000D01*
X200560000Y-117570000D02*
X203300000Y-117570000D01*
X192940000Y-117570000D02*
X195680000Y-117570000D01*
X195680000Y-117570000D02*
X195680000Y-111030000D01*
X195680000Y-111030000D02*
X192940000Y-111030000D01*
X192940000Y-111030000D02*
X192940000Y-117570000D01*
X194310000Y-118340000D02*
X194310000Y-117570000D01*
X194310000Y-110260000D02*
X194310000Y-111030000D01*
X87630000Y-110260000D02*
X87630000Y-111030000D01*
X87630000Y-118340000D02*
X87630000Y-117570000D01*
X86260000Y-111030000D02*
X86260000Y-117570000D01*
X89000000Y-111030000D02*
X86260000Y-111030000D01*
X89000000Y-117570000D02*
X89000000Y-111030000D01*
X86260000Y-117570000D02*
X89000000Y-117570000D01*
X96420000Y-117570000D02*
X99160000Y-117570000D01*
X99160000Y-117570000D02*
X99160000Y-111030000D01*
X99160000Y-111030000D02*
X96420000Y-111030000D01*
X96420000Y-111030000D02*
X96420000Y-117570000D01*
X97790000Y-118340000D02*
X97790000Y-117570000D01*
X97790000Y-110260000D02*
X97790000Y-111030000D01*
X95250000Y-110260000D02*
X95250000Y-111030000D01*
X95250000Y-118340000D02*
X95250000Y-117570000D01*
X93880000Y-111030000D02*
X93880000Y-117570000D01*
X96620000Y-111030000D02*
X93880000Y-111030000D01*
X96620000Y-117570000D02*
X96620000Y-111030000D01*
X93880000Y-117570000D02*
X96620000Y-117570000D01*
X83720000Y-117570000D02*
X86460000Y-117570000D01*
X86460000Y-117570000D02*
X86460000Y-111030000D01*
X86460000Y-111030000D02*
X83720000Y-111030000D01*
X83720000Y-111030000D02*
X83720000Y-117570000D01*
X85090000Y-118340000D02*
X85090000Y-117570000D01*
X85090000Y-110260000D02*
X85090000Y-111030000D01*
X81180000Y-117570000D02*
X83920000Y-117570000D01*
X83920000Y-117570000D02*
X83920000Y-111030000D01*
X83920000Y-111030000D02*
X81180000Y-111030000D01*
X81180000Y-111030000D02*
X81180000Y-117570000D01*
X82550000Y-118340000D02*
X82550000Y-117570000D01*
X82550000Y-110260000D02*
X82550000Y-111030000D01*
X90170000Y-110260000D02*
X90170000Y-111030000D01*
X90170000Y-118340000D02*
X90170000Y-117570000D01*
X88800000Y-111030000D02*
X88800000Y-117570000D01*
X91540000Y-111030000D02*
X88800000Y-111030000D01*
X91540000Y-117570000D02*
X91540000Y-111030000D01*
X88800000Y-117570000D02*
X91540000Y-117570000D01*
X98960000Y-117570000D02*
X101700000Y-117570000D01*
X101700000Y-117570000D02*
X101700000Y-111030000D01*
X101700000Y-111030000D02*
X98960000Y-111030000D01*
X98960000Y-111030000D02*
X98960000Y-117570000D01*
X100330000Y-118340000D02*
X100330000Y-117570000D01*
X100330000Y-110260000D02*
X100330000Y-111030000D01*
X92710000Y-110260000D02*
X92710000Y-111030000D01*
X92710000Y-118340000D02*
X92710000Y-117570000D01*
X91340000Y-111030000D02*
X91340000Y-117570000D01*
X94080000Y-111030000D02*
X91340000Y-111030000D01*
X94080000Y-117570000D02*
X94080000Y-111030000D01*
X91340000Y-117570000D02*
X94080000Y-117570000D01*
X64230000Y-113130000D02*
X64230000Y-110390000D01*
X64230000Y-110390000D02*
X57690000Y-110390000D01*
X57690000Y-110390000D02*
X57690000Y-113130000D01*
X57690000Y-113130000D02*
X64230000Y-113130000D01*
X65000000Y-111760000D02*
X64230000Y-111760000D01*
X56920000Y-111760000D02*
X57690000Y-111760000D01*
X152400000Y-59820000D02*
X152400000Y-57020000D01*
X131910000Y-59820000D02*
X155110000Y-59820000D01*
X131910000Y-57020000D02*
X131910000Y-59820000D01*
X155110000Y-57020000D02*
X131910000Y-57020000D01*
X155110000Y-59820000D02*
X155110000Y-57020000D01*
X129370000Y-117980000D02*
X129370000Y-120780000D01*
X129370000Y-120780000D02*
X152570000Y-120780000D01*
X152570000Y-120780000D02*
X152570000Y-117980000D01*
X152570000Y-117980000D02*
X129370000Y-117980000D01*
X132080000Y-117980000D02*
X132080000Y-120780000D01*
X178900000Y-81150000D02*
X178900000Y-83950000D01*
X178900000Y-83950000D02*
X202100000Y-83950000D01*
X202100000Y-83950000D02*
X202100000Y-81150000D01*
X202100000Y-81150000D02*
X178900000Y-81150000D01*
X181610000Y-81150000D02*
X181610000Y-83950000D01*
X109500000Y-93310000D02*
X109500000Y-84490000D01*
X109500000Y-84490000D02*
X109810000Y-84490000D01*
X114020000Y-84490000D02*
X114020000Y-93310000D01*
X109810000Y-93310000D02*
X109500000Y-93310000D01*
X114020000Y-93310000D02*
X113710000Y-93310000D01*
X114020000Y-84490000D02*
X113710000Y-84490000D01*
X108800000Y-91400000D02*
X109300000Y-90900000D01*
X109300000Y-90900000D02*
X108800000Y-90400000D01*
X108800000Y-90400000D02*
X108800000Y-91400000D01*
X232470000Y-75040000D02*
X232470000Y-73390000D01*
X212030000Y-75040000D02*
X232470000Y-75040000D01*
X212030000Y-69740000D02*
X212030000Y-75040000D01*
X232470000Y-69740000D02*
X212030000Y-69740000D01*
X232470000Y-71390000D02*
X232470000Y-69740000D01*
X232470000Y-73390000D02*
G75*
G02X232470000Y-71390000I0J1000000D01*
G01*
X212030000Y-102760000D02*
X212030000Y-104410000D01*
X232470000Y-102760000D02*
X212030000Y-102760000D01*
X232470000Y-108060000D02*
X232470000Y-102760000D01*
X212030000Y-108060000D02*
X232470000Y-108060000D01*
X212030000Y-106410000D02*
X212030000Y-108060000D01*
X212030000Y-104410000D02*
G75*
G02X212030000Y-106410000I0J-1000000D01*
G01*
X152460000Y-73390000D02*
G75*
G02X152460000Y-71390000I0J1000000D01*
G01*
X152460000Y-71390000D02*
X152460000Y-69740000D01*
X152460000Y-69740000D02*
X132020000Y-69740000D01*
X132020000Y-69740000D02*
X132020000Y-75040000D01*
X132020000Y-75040000D02*
X152460000Y-75040000D01*
X152460000Y-75040000D02*
X152460000Y-73390000D01*
X132020000Y-102760000D02*
X132020000Y-104410000D01*
X152460000Y-102760000D02*
X132020000Y-102760000D01*
X152460000Y-108060000D02*
X152460000Y-102760000D01*
X132020000Y-108060000D02*
X152460000Y-108060000D01*
X132020000Y-106410000D02*
X132020000Y-108060000D01*
X132020000Y-104410000D02*
G75*
G02X132020000Y-106410000I0J-1000000D01*
G01*
X179010000Y-87900000D02*
G75*
G02X179010000Y-89900000I0J-1000000D01*
G01*
X179010000Y-89900000D02*
X179010000Y-91550000D01*
X179010000Y-91550000D02*
X199450000Y-91550000D01*
X199450000Y-91550000D02*
X199450000Y-86250000D01*
X199450000Y-86250000D02*
X179010000Y-86250000D01*
X179010000Y-86250000D02*
X179010000Y-87900000D01*
D12*
X169441904Y-121102380D02*
X169441904Y-120102380D01*
X169680000Y-120102380D01*
X169822857Y-120150000D01*
X169918095Y-120245238D01*
X169965714Y-120340476D01*
X170013333Y-120530952D01*
X170013333Y-120673809D01*
X169965714Y-120864285D01*
X169918095Y-120959523D01*
X169822857Y-121054761D01*
X169680000Y-121102380D01*
X169441904Y-121102380D01*
X170346666Y-120102380D02*
X170965714Y-120102380D01*
X170632380Y-120483333D01*
X170775238Y-120483333D01*
X170870476Y-120530952D01*
X170918095Y-120578571D01*
X170965714Y-120673809D01*
X170965714Y-120911904D01*
X170918095Y-121007142D01*
X170870476Y-121054761D01*
X170775238Y-121102380D01*
X170489523Y-121102380D01*
X170394285Y-121054761D01*
X170346666Y-121007142D01*
X169441904Y-57602380D02*
X169441904Y-56602380D01*
X169680000Y-56602380D01*
X169822857Y-56650000D01*
X169918095Y-56745238D01*
X169965714Y-56840476D01*
X170013333Y-57030952D01*
X170013333Y-57173809D01*
X169965714Y-57364285D01*
X169918095Y-57459523D01*
X169822857Y-57554761D01*
X169680000Y-57602380D01*
X169441904Y-57602380D01*
X170394285Y-56697619D02*
X170441904Y-56650000D01*
X170537142Y-56602380D01*
X170775238Y-56602380D01*
X170870476Y-56650000D01*
X170918095Y-56697619D01*
X170965714Y-56792857D01*
X170965714Y-56888095D01*
X170918095Y-57030952D01*
X170346666Y-57602380D01*
X170965714Y-57602380D01*
X67841904Y-57602380D02*
X67841904Y-56602380D01*
X68080000Y-56602380D01*
X68222857Y-56650000D01*
X68318095Y-56745238D01*
X68365714Y-56840476D01*
X68413333Y-57030952D01*
X68413333Y-57173809D01*
X68365714Y-57364285D01*
X68318095Y-57459523D01*
X68222857Y-57554761D01*
X68080000Y-57602380D01*
X67841904Y-57602380D01*
X69365714Y-57602380D02*
X68794285Y-57602380D01*
X69080000Y-57602380D02*
X69080000Y-56602380D01*
X68984761Y-56745238D01*
X68889523Y-56840476D01*
X68794285Y-56888095D01*
X67841904Y-121102380D02*
X67841904Y-120102380D01*
X68080000Y-120102380D01*
X68222857Y-120150000D01*
X68318095Y-120245238D01*
X68365714Y-120340476D01*
X68413333Y-120530952D01*
X68413333Y-120673809D01*
X68365714Y-120864285D01*
X68318095Y-120959523D01*
X68222857Y-121054761D01*
X68080000Y-121102380D01*
X67841904Y-121102380D01*
X69270476Y-120435714D02*
X69270476Y-121102380D01*
X69032380Y-120054761D02*
X68794285Y-120769047D01*
X69413333Y-120769047D01*
X53035238Y-131348571D02*
X53178095Y-131396190D01*
X53225714Y-131443809D01*
X53273333Y-131539047D01*
X53273333Y-131681904D01*
X53225714Y-131777142D01*
X53178095Y-131824761D01*
X53082857Y-131872380D01*
X52701904Y-131872380D01*
X52701904Y-130872380D01*
X53035238Y-130872380D01*
X53130476Y-130920000D01*
X53178095Y-130967619D01*
X53225714Y-131062857D01*
X53225714Y-131158095D01*
X53178095Y-131253333D01*
X53130476Y-131300952D01*
X53035238Y-131348571D01*
X52701904Y-131348571D01*
X53749523Y-131872380D02*
X53940000Y-131872380D01*
X54035238Y-131824761D01*
X54082857Y-131777142D01*
X54178095Y-131634285D01*
X54225714Y-131443809D01*
X54225714Y-131062857D01*
X54178095Y-130967619D01*
X54130476Y-130920000D01*
X54035238Y-130872380D01*
X53844761Y-130872380D01*
X53749523Y-130920000D01*
X53701904Y-130967619D01*
X53654285Y-131062857D01*
X53654285Y-131300952D01*
X53701904Y-131396190D01*
X53749523Y-131443809D01*
X53844761Y-131491428D01*
X54035238Y-131491428D01*
X54130476Y-131443809D01*
X54178095Y-131396190D01*
X54225714Y-131300952D01*
X47922380Y-106171904D02*
X48731904Y-106171904D01*
X48827142Y-106124285D01*
X48874761Y-106076666D01*
X48922380Y-105981428D01*
X48922380Y-105790952D01*
X48874761Y-105695714D01*
X48827142Y-105648095D01*
X48731904Y-105600476D01*
X47922380Y-105600476D01*
X48255714Y-104695714D02*
X48922380Y-104695714D01*
X47874761Y-104933809D02*
X48589047Y-105171904D01*
X48589047Y-104552857D01*
X75442380Y-73151904D02*
X76251904Y-73151904D01*
X76347142Y-73104285D01*
X76394761Y-73056666D01*
X76442380Y-72961428D01*
X76442380Y-72770952D01*
X76394761Y-72675714D01*
X76347142Y-72628095D01*
X76251904Y-72580476D01*
X75442380Y-72580476D01*
X75537619Y-72151904D02*
X75490000Y-72104285D01*
X75442380Y-72009047D01*
X75442380Y-71770952D01*
X75490000Y-71675714D01*
X75537619Y-71628095D01*
X75632857Y-71580476D01*
X75728095Y-71580476D01*
X75870952Y-71628095D01*
X76442380Y-72199523D01*
X76442380Y-71580476D01*
X55237142Y-66492380D02*
X54903809Y-66016190D01*
X54665714Y-66492380D02*
X54665714Y-65492380D01*
X55046666Y-65492380D01*
X55141904Y-65540000D01*
X55189523Y-65587619D01*
X55237142Y-65682857D01*
X55237142Y-65825714D01*
X55189523Y-65920952D01*
X55141904Y-65968571D01*
X55046666Y-66016190D01*
X54665714Y-66016190D01*
X55570476Y-65492380D02*
X56189523Y-65492380D01*
X55856190Y-65873333D01*
X55999047Y-65873333D01*
X56094285Y-65920952D01*
X56141904Y-65968571D01*
X56189523Y-66063809D01*
X56189523Y-66301904D01*
X56141904Y-66397142D01*
X56094285Y-66444761D01*
X55999047Y-66492380D01*
X55713333Y-66492380D01*
X55618095Y-66444761D01*
X55570476Y-66397142D01*
X56522857Y-65492380D02*
X57141904Y-65492380D01*
X56808571Y-65873333D01*
X56951428Y-65873333D01*
X57046666Y-65920952D01*
X57094285Y-65968571D01*
X57141904Y-66063809D01*
X57141904Y-66301904D01*
X57094285Y-66397142D01*
X57046666Y-66444761D01*
X56951428Y-66492380D01*
X56665714Y-66492380D01*
X56570476Y-66444761D01*
X56522857Y-66397142D01*
X76033333Y-66397142D02*
X75985714Y-66444761D01*
X75842857Y-66492380D01*
X75747619Y-66492380D01*
X75604761Y-66444761D01*
X75509523Y-66349523D01*
X75461904Y-66254285D01*
X75414285Y-66063809D01*
X75414285Y-65920952D01*
X75461904Y-65730476D01*
X75509523Y-65635238D01*
X75604761Y-65540000D01*
X75747619Y-65492380D01*
X75842857Y-65492380D01*
X75985714Y-65540000D01*
X76033333Y-65587619D01*
X76414285Y-65587619D02*
X76461904Y-65540000D01*
X76557142Y-65492380D01*
X76795238Y-65492380D01*
X76890476Y-65540000D01*
X76938095Y-65587619D01*
X76985714Y-65682857D01*
X76985714Y-65778095D01*
X76938095Y-65920952D01*
X76366666Y-66492380D01*
X76985714Y-66492380D01*
X52559047Y-146668571D02*
X52701904Y-146716190D01*
X52749523Y-146763809D01*
X52797142Y-146859047D01*
X52797142Y-147001904D01*
X52749523Y-147097142D01*
X52701904Y-147144761D01*
X52606666Y-147192380D01*
X52225714Y-147192380D01*
X52225714Y-146192380D01*
X52559047Y-146192380D01*
X52654285Y-146240000D01*
X52701904Y-146287619D01*
X52749523Y-146382857D01*
X52749523Y-146478095D01*
X52701904Y-146573333D01*
X52654285Y-146620952D01*
X52559047Y-146668571D01*
X52225714Y-146668571D01*
X53749523Y-147192380D02*
X53178095Y-147192380D01*
X53463809Y-147192380D02*
X53463809Y-146192380D01*
X53368571Y-146335238D01*
X53273333Y-146430476D01*
X53178095Y-146478095D01*
X54368571Y-146192380D02*
X54463809Y-146192380D01*
X54559047Y-146240000D01*
X54606666Y-146287619D01*
X54654285Y-146382857D01*
X54701904Y-146573333D01*
X54701904Y-146811428D01*
X54654285Y-147001904D01*
X54606666Y-147097142D01*
X54559047Y-147144761D01*
X54463809Y-147192380D01*
X54368571Y-147192380D01*
X54273333Y-147144761D01*
X54225714Y-147097142D01*
X54178095Y-147001904D01*
X54130476Y-146811428D01*
X54130476Y-146573333D01*
X54178095Y-146382857D01*
X54225714Y-146287619D01*
X54273333Y-146240000D01*
X54368571Y-146192380D01*
X230635238Y-146668571D02*
X230778095Y-146716190D01*
X230825714Y-146763809D01*
X230873333Y-146859047D01*
X230873333Y-147001904D01*
X230825714Y-147097142D01*
X230778095Y-147144761D01*
X230682857Y-147192380D01*
X230301904Y-147192380D01*
X230301904Y-146192380D01*
X230635238Y-146192380D01*
X230730476Y-146240000D01*
X230778095Y-146287619D01*
X230825714Y-146382857D01*
X230825714Y-146478095D01*
X230778095Y-146573333D01*
X230730476Y-146620952D01*
X230635238Y-146668571D01*
X230301904Y-146668571D01*
X231444761Y-146620952D02*
X231349523Y-146573333D01*
X231301904Y-146525714D01*
X231254285Y-146430476D01*
X231254285Y-146382857D01*
X231301904Y-146287619D01*
X231349523Y-146240000D01*
X231444761Y-146192380D01*
X231635238Y-146192380D01*
X231730476Y-146240000D01*
X231778095Y-146287619D01*
X231825714Y-146382857D01*
X231825714Y-146430476D01*
X231778095Y-146525714D01*
X231730476Y-146573333D01*
X231635238Y-146620952D01*
X231444761Y-146620952D01*
X231349523Y-146668571D01*
X231301904Y-146716190D01*
X231254285Y-146811428D01*
X231254285Y-147001904D01*
X231301904Y-147097142D01*
X231349523Y-147144761D01*
X231444761Y-147192380D01*
X231635238Y-147192380D01*
X231730476Y-147144761D01*
X231778095Y-147097142D01*
X231825714Y-147001904D01*
X231825714Y-146811428D01*
X231778095Y-146716190D01*
X231730476Y-146668571D01*
X231635238Y-146620952D01*
X230635238Y-131348571D02*
X230778095Y-131396190D01*
X230825714Y-131443809D01*
X230873333Y-131539047D01*
X230873333Y-131681904D01*
X230825714Y-131777142D01*
X230778095Y-131824761D01*
X230682857Y-131872380D01*
X230301904Y-131872380D01*
X230301904Y-130872380D01*
X230635238Y-130872380D01*
X230730476Y-130920000D01*
X230778095Y-130967619D01*
X230825714Y-131062857D01*
X230825714Y-131158095D01*
X230778095Y-131253333D01*
X230730476Y-131300952D01*
X230635238Y-131348571D01*
X230301904Y-131348571D01*
X231206666Y-130872380D02*
X231873333Y-130872380D01*
X231444761Y-131872380D01*
X230635238Y-60968571D02*
X230778095Y-61016190D01*
X230825714Y-61063809D01*
X230873333Y-61159047D01*
X230873333Y-61301904D01*
X230825714Y-61397142D01*
X230778095Y-61444761D01*
X230682857Y-61492380D01*
X230301904Y-61492380D01*
X230301904Y-60492380D01*
X230635238Y-60492380D01*
X230730476Y-60540000D01*
X230778095Y-60587619D01*
X230825714Y-60682857D01*
X230825714Y-60778095D01*
X230778095Y-60873333D01*
X230730476Y-60920952D01*
X230635238Y-60968571D01*
X230301904Y-60968571D01*
X231730476Y-60492380D02*
X231540000Y-60492380D01*
X231444761Y-60540000D01*
X231397142Y-60587619D01*
X231301904Y-60730476D01*
X231254285Y-60920952D01*
X231254285Y-61301904D01*
X231301904Y-61397142D01*
X231349523Y-61444761D01*
X231444761Y-61492380D01*
X231635238Y-61492380D01*
X231730476Y-61444761D01*
X231778095Y-61397142D01*
X231825714Y-61301904D01*
X231825714Y-61063809D01*
X231778095Y-60968571D01*
X231730476Y-60920952D01*
X231635238Y-60873333D01*
X231444761Y-60873333D01*
X231349523Y-60920952D01*
X231301904Y-60968571D01*
X231254285Y-61063809D01*
X230635238Y-45568571D02*
X230778095Y-45616190D01*
X230825714Y-45663809D01*
X230873333Y-45759047D01*
X230873333Y-45901904D01*
X230825714Y-45997142D01*
X230778095Y-46044761D01*
X230682857Y-46092380D01*
X230301904Y-46092380D01*
X230301904Y-45092380D01*
X230635238Y-45092380D01*
X230730476Y-45140000D01*
X230778095Y-45187619D01*
X230825714Y-45282857D01*
X230825714Y-45378095D01*
X230778095Y-45473333D01*
X230730476Y-45520952D01*
X230635238Y-45568571D01*
X230301904Y-45568571D01*
X231778095Y-45092380D02*
X231301904Y-45092380D01*
X231254285Y-45568571D01*
X231301904Y-45520952D01*
X231397142Y-45473333D01*
X231635238Y-45473333D01*
X231730476Y-45520952D01*
X231778095Y-45568571D01*
X231825714Y-45663809D01*
X231825714Y-45901904D01*
X231778095Y-45997142D01*
X231730476Y-46044761D01*
X231635238Y-46092380D01*
X231397142Y-46092380D01*
X231301904Y-46044761D01*
X231254285Y-45997142D01*
X53035238Y-60968571D02*
X53178095Y-61016190D01*
X53225714Y-61063809D01*
X53273333Y-61159047D01*
X53273333Y-61301904D01*
X53225714Y-61397142D01*
X53178095Y-61444761D01*
X53082857Y-61492380D01*
X52701904Y-61492380D01*
X52701904Y-60492380D01*
X53035238Y-60492380D01*
X53130476Y-60540000D01*
X53178095Y-60587619D01*
X53225714Y-60682857D01*
X53225714Y-60778095D01*
X53178095Y-60873333D01*
X53130476Y-60920952D01*
X53035238Y-60968571D01*
X52701904Y-60968571D01*
X54130476Y-60825714D02*
X54130476Y-61492380D01*
X53892380Y-60444761D02*
X53654285Y-61159047D01*
X54273333Y-61159047D01*
X53035238Y-45568571D02*
X53178095Y-45616190D01*
X53225714Y-45663809D01*
X53273333Y-45759047D01*
X53273333Y-45901904D01*
X53225714Y-45997142D01*
X53178095Y-46044761D01*
X53082857Y-46092380D01*
X52701904Y-46092380D01*
X52701904Y-45092380D01*
X53035238Y-45092380D01*
X53130476Y-45140000D01*
X53178095Y-45187619D01*
X53225714Y-45282857D01*
X53225714Y-45378095D01*
X53178095Y-45473333D01*
X53130476Y-45520952D01*
X53035238Y-45568571D01*
X52701904Y-45568571D01*
X53606666Y-45092380D02*
X54225714Y-45092380D01*
X53892380Y-45473333D01*
X54035238Y-45473333D01*
X54130476Y-45520952D01*
X54178095Y-45568571D01*
X54225714Y-45663809D01*
X54225714Y-45901904D01*
X54178095Y-45997142D01*
X54130476Y-46044761D01*
X54035238Y-46092380D01*
X53749523Y-46092380D01*
X53654285Y-46044761D01*
X53606666Y-45997142D01*
X162388571Y-89344761D02*
X162436190Y-89201904D01*
X162483809Y-89154285D01*
X162579047Y-89106666D01*
X162721904Y-89106666D01*
X162817142Y-89154285D01*
X162864761Y-89201904D01*
X162912380Y-89297142D01*
X162912380Y-89678095D01*
X161912380Y-89678095D01*
X161912380Y-89344761D01*
X161960000Y-89249523D01*
X162007619Y-89201904D01*
X162102857Y-89154285D01*
X162198095Y-89154285D01*
X162293333Y-89201904D01*
X162340952Y-89249523D01*
X162388571Y-89344761D01*
X162388571Y-89678095D01*
X162007619Y-88725714D02*
X161960000Y-88678095D01*
X161912380Y-88582857D01*
X161912380Y-88344761D01*
X161960000Y-88249523D01*
X162007619Y-88201904D01*
X162102857Y-88154285D01*
X162198095Y-88154285D01*
X162340952Y-88201904D01*
X162912380Y-88773333D01*
X162912380Y-88154285D01*
X136988571Y-89344761D02*
X137036190Y-89201904D01*
X137083809Y-89154285D01*
X137179047Y-89106666D01*
X137321904Y-89106666D01*
X137417142Y-89154285D01*
X137464761Y-89201904D01*
X137512380Y-89297142D01*
X137512380Y-89678095D01*
X136512380Y-89678095D01*
X136512380Y-89344761D01*
X136560000Y-89249523D01*
X136607619Y-89201904D01*
X136702857Y-89154285D01*
X136798095Y-89154285D01*
X136893333Y-89201904D01*
X136940952Y-89249523D01*
X136988571Y-89344761D01*
X136988571Y-89678095D01*
X137512380Y-88154285D02*
X137512380Y-88725714D01*
X137512380Y-88440000D02*
X136512380Y-88440000D01*
X136655238Y-88535238D01*
X136750476Y-88630476D01*
X136798095Y-88725714D01*
X128199805Y-134214795D02*
X128341809Y-134264900D01*
X128579868Y-134269055D01*
X128675923Y-134223106D01*
X128724366Y-134176325D01*
X128773640Y-134081932D01*
X128775302Y-133986709D01*
X128729352Y-133890654D01*
X128682572Y-133842211D01*
X128588179Y-133792937D01*
X128398563Y-133742001D01*
X128304170Y-133692727D01*
X128257390Y-133644284D01*
X128211440Y-133548230D01*
X128213102Y-133453006D01*
X128262376Y-133358614D01*
X128310819Y-133311833D01*
X128406874Y-133265883D01*
X128644933Y-133270039D01*
X128786937Y-133320144D01*
X129121051Y-133278349D02*
X129341657Y-134282352D01*
X129544570Y-133571500D01*
X129722552Y-134289001D01*
X129978063Y-133293308D01*
X130787463Y-133307437D02*
X130597016Y-133304112D01*
X130500962Y-133350062D01*
X130452519Y-133396843D01*
X130354802Y-133538016D01*
X130303866Y-133727632D01*
X130297217Y-134108526D01*
X130343167Y-134204581D01*
X130389948Y-134253024D01*
X130484340Y-134302298D01*
X130674787Y-134305622D01*
X130770842Y-134259672D01*
X130819285Y-134212892D01*
X130868559Y-134118499D01*
X130872714Y-133880440D01*
X130826765Y-133784386D01*
X130779984Y-133735943D01*
X130685591Y-133686669D01*
X130495144Y-133683345D01*
X130399089Y-133729294D01*
X130350647Y-133776075D01*
X130301373Y-133870467D01*
X153599805Y-134214795D02*
X153741809Y-134264900D01*
X153979868Y-134269055D01*
X154075923Y-134223106D01*
X154124366Y-134176325D01*
X154173640Y-134081932D01*
X154175302Y-133986709D01*
X154129352Y-133890654D01*
X154082572Y-133842211D01*
X153988179Y-133792937D01*
X153798563Y-133742001D01*
X153704170Y-133692727D01*
X153657390Y-133644284D01*
X153611440Y-133548230D01*
X153613102Y-133453006D01*
X153662376Y-133358614D01*
X153710819Y-133311833D01*
X153806874Y-133265883D01*
X154044933Y-133270039D01*
X154186937Y-133320144D01*
X154521051Y-133278349D02*
X154741657Y-134282352D01*
X154944570Y-133571500D01*
X155122552Y-134289001D01*
X155378063Y-133293308D01*
X156235075Y-133308268D02*
X155758957Y-133299957D01*
X155703035Y-133775244D01*
X155751478Y-133728463D01*
X155847532Y-133682513D01*
X156085591Y-133686669D01*
X156179984Y-133735943D01*
X156226765Y-133784386D01*
X156272714Y-133880440D01*
X156268559Y-134118499D01*
X156219285Y-134212892D01*
X156170842Y-134259672D01*
X156074787Y-134305622D01*
X155836728Y-134301467D01*
X155742336Y-134252193D01*
X155695555Y-134203750D01*
X153606666Y-44854761D02*
X153749523Y-44902380D01*
X153987619Y-44902380D01*
X154082857Y-44854761D01*
X154130476Y-44807142D01*
X154178095Y-44711904D01*
X154178095Y-44616666D01*
X154130476Y-44521428D01*
X154082857Y-44473809D01*
X153987619Y-44426190D01*
X153797142Y-44378571D01*
X153701904Y-44330952D01*
X153654285Y-44283333D01*
X153606666Y-44188095D01*
X153606666Y-44092857D01*
X153654285Y-43997619D01*
X153701904Y-43950000D01*
X153797142Y-43902380D01*
X154035238Y-43902380D01*
X154178095Y-43950000D01*
X154511428Y-43902380D02*
X154749523Y-44902380D01*
X154940000Y-44188095D01*
X155130476Y-44902380D01*
X155368571Y-43902380D01*
X156178095Y-44235714D02*
X156178095Y-44902380D01*
X155940000Y-43854761D02*
X155701904Y-44569047D01*
X156320952Y-44569047D01*
X128206666Y-44854761D02*
X128349523Y-44902380D01*
X128587619Y-44902380D01*
X128682857Y-44854761D01*
X128730476Y-44807142D01*
X128778095Y-44711904D01*
X128778095Y-44616666D01*
X128730476Y-44521428D01*
X128682857Y-44473809D01*
X128587619Y-44426190D01*
X128397142Y-44378571D01*
X128301904Y-44330952D01*
X128254285Y-44283333D01*
X128206666Y-44188095D01*
X128206666Y-44092857D01*
X128254285Y-43997619D01*
X128301904Y-43950000D01*
X128397142Y-43902380D01*
X128635238Y-43902380D01*
X128778095Y-43950000D01*
X129111428Y-43902380D02*
X129349523Y-44902380D01*
X129540000Y-44188095D01*
X129730476Y-44902380D01*
X129968571Y-43902380D01*
X130254285Y-43902380D02*
X130873333Y-43902380D01*
X130540000Y-44283333D01*
X130682857Y-44283333D01*
X130778095Y-44330952D01*
X130825714Y-44378571D01*
X130873333Y-44473809D01*
X130873333Y-44711904D01*
X130825714Y-44807142D01*
X130778095Y-44854761D01*
X130682857Y-44902380D01*
X130397142Y-44902380D01*
X130301904Y-44854761D01*
X130254285Y-44807142D01*
X95654761Y-90233333D02*
X95702380Y-90090476D01*
X95702380Y-89852380D01*
X95654761Y-89757142D01*
X95607142Y-89709523D01*
X95511904Y-89661904D01*
X95416666Y-89661904D01*
X95321428Y-89709523D01*
X95273809Y-89757142D01*
X95226190Y-89852380D01*
X95178571Y-90042857D01*
X95130952Y-90138095D01*
X95083333Y-90185714D01*
X94988095Y-90233333D01*
X94892857Y-90233333D01*
X94797619Y-90185714D01*
X94750000Y-90138095D01*
X94702380Y-90042857D01*
X94702380Y-89804761D01*
X94750000Y-89661904D01*
X94702380Y-89328571D02*
X95702380Y-89090476D01*
X94988095Y-88900000D01*
X95702380Y-88709523D01*
X94702380Y-88471428D01*
X95702380Y-87566666D02*
X95702380Y-88138095D01*
X95702380Y-87852380D02*
X94702380Y-87852380D01*
X94845238Y-87947619D01*
X94940476Y-88042857D01*
X94988095Y-88138095D01*
X89352380Y-89542857D02*
X88876190Y-89876190D01*
X89352380Y-90114285D02*
X88352380Y-90114285D01*
X88352380Y-89733333D01*
X88400000Y-89638095D01*
X88447619Y-89590476D01*
X88542857Y-89542857D01*
X88685714Y-89542857D01*
X88780952Y-89590476D01*
X88828571Y-89638095D01*
X88876190Y-89733333D01*
X88876190Y-90114285D01*
X88352380Y-89209523D02*
X88352380Y-88590476D01*
X88733333Y-88923809D01*
X88733333Y-88780952D01*
X88780952Y-88685714D01*
X88828571Y-88638095D01*
X88923809Y-88590476D01*
X89161904Y-88590476D01*
X89257142Y-88638095D01*
X89304761Y-88685714D01*
X89352380Y-88780952D01*
X89352380Y-89066666D01*
X89304761Y-89161904D01*
X89257142Y-89209523D01*
X88352380Y-87685714D02*
X88352380Y-88161904D01*
X88828571Y-88209523D01*
X88780952Y-88161904D01*
X88733333Y-88066666D01*
X88733333Y-87828571D01*
X88780952Y-87733333D01*
X88828571Y-87685714D01*
X88923809Y-87638095D01*
X89161904Y-87638095D01*
X89257142Y-87685714D01*
X89304761Y-87733333D01*
X89352380Y-87828571D01*
X89352380Y-88066666D01*
X89304761Y-88161904D01*
X89257142Y-88209523D01*
X42465714Y-78906666D02*
X42941904Y-78906666D01*
X42370476Y-79192380D02*
X42703809Y-78192380D01*
X43037142Y-79192380D01*
X43894285Y-79192380D02*
X43322857Y-79192380D01*
X43608571Y-79192380D02*
X43608571Y-78192380D01*
X43513333Y-78335238D01*
X43418095Y-78430476D01*
X43322857Y-78478095D01*
X236053333Y-75287142D02*
X236005714Y-75334761D01*
X235862857Y-75382380D01*
X235767619Y-75382380D01*
X235624761Y-75334761D01*
X235529523Y-75239523D01*
X235481904Y-75144285D01*
X235434285Y-74953809D01*
X235434285Y-74810952D01*
X235481904Y-74620476D01*
X235529523Y-74525238D01*
X235624761Y-74430000D01*
X235767619Y-74382380D01*
X235862857Y-74382380D01*
X236005714Y-74430000D01*
X236053333Y-74477619D01*
X237005714Y-75382380D02*
X236434285Y-75382380D01*
X236720000Y-75382380D02*
X236720000Y-74382380D01*
X236624761Y-74525238D01*
X236529523Y-74620476D01*
X236434285Y-74668095D01*
X205573333Y-101957142D02*
X205525714Y-102004761D01*
X205382857Y-102052380D01*
X205287619Y-102052380D01*
X205144761Y-102004761D01*
X205049523Y-101909523D01*
X205001904Y-101814285D01*
X204954285Y-101623809D01*
X204954285Y-101480952D01*
X205001904Y-101290476D01*
X205049523Y-101195238D01*
X205144761Y-101100000D01*
X205287619Y-101052380D01*
X205382857Y-101052380D01*
X205525714Y-101100000D01*
X205573333Y-101147619D01*
X205906666Y-101052380D02*
X206525714Y-101052380D01*
X206192380Y-101433333D01*
X206335238Y-101433333D01*
X206430476Y-101480952D01*
X206478095Y-101528571D01*
X206525714Y-101623809D01*
X206525714Y-101861904D01*
X206478095Y-101957142D01*
X206430476Y-102004761D01*
X206335238Y-102052380D01*
X206049523Y-102052380D01*
X205954285Y-102004761D01*
X205906666Y-101957142D01*
X48093333Y-112117142D02*
X48045714Y-112164761D01*
X47902857Y-112212380D01*
X47807619Y-112212380D01*
X47664761Y-112164761D01*
X47569523Y-112069523D01*
X47521904Y-111974285D01*
X47474285Y-111783809D01*
X47474285Y-111640952D01*
X47521904Y-111450476D01*
X47569523Y-111355238D01*
X47664761Y-111260000D01*
X47807619Y-111212380D01*
X47902857Y-111212380D01*
X48045714Y-111260000D01*
X48093333Y-111307619D01*
X48950476Y-111545714D02*
X48950476Y-112212380D01*
X48712380Y-111164761D02*
X48474285Y-111879047D01*
X49093333Y-111879047D01*
X158583333Y-76557142D02*
X158535714Y-76604761D01*
X158392857Y-76652380D01*
X158297619Y-76652380D01*
X158154761Y-76604761D01*
X158059523Y-76509523D01*
X158011904Y-76414285D01*
X157964285Y-76223809D01*
X157964285Y-76080952D01*
X158011904Y-75890476D01*
X158059523Y-75795238D01*
X158154761Y-75700000D01*
X158297619Y-75652380D01*
X158392857Y-75652380D01*
X158535714Y-75700000D01*
X158583333Y-75747619D01*
X159488095Y-75652380D02*
X159011904Y-75652380D01*
X158964285Y-76128571D01*
X159011904Y-76080952D01*
X159107142Y-76033333D01*
X159345238Y-76033333D01*
X159440476Y-76080952D01*
X159488095Y-76128571D01*
X159535714Y-76223809D01*
X159535714Y-76461904D01*
X159488095Y-76557142D01*
X159440476Y-76604761D01*
X159345238Y-76652380D01*
X159107142Y-76652380D01*
X159011904Y-76604761D01*
X158964285Y-76557142D01*
X125563333Y-101957142D02*
X125515714Y-102004761D01*
X125372857Y-102052380D01*
X125277619Y-102052380D01*
X125134761Y-102004761D01*
X125039523Y-101909523D01*
X124991904Y-101814285D01*
X124944285Y-101623809D01*
X124944285Y-101480952D01*
X124991904Y-101290476D01*
X125039523Y-101195238D01*
X125134761Y-101100000D01*
X125277619Y-101052380D01*
X125372857Y-101052380D01*
X125515714Y-101100000D01*
X125563333Y-101147619D01*
X126420476Y-101052380D02*
X126230000Y-101052380D01*
X126134761Y-101100000D01*
X126087142Y-101147619D01*
X125991904Y-101290476D01*
X125944285Y-101480952D01*
X125944285Y-101861904D01*
X125991904Y-101957142D01*
X126039523Y-102004761D01*
X126134761Y-102052380D01*
X126325238Y-102052380D01*
X126420476Y-102004761D01*
X126468095Y-101957142D01*
X126515714Y-101861904D01*
X126515714Y-101623809D01*
X126468095Y-101528571D01*
X126420476Y-101480952D01*
X126325238Y-101433333D01*
X126134761Y-101433333D01*
X126039523Y-101480952D01*
X125991904Y-101528571D01*
X125944285Y-101623809D01*
X175093333Y-84177142D02*
X175045714Y-84224761D01*
X174902857Y-84272380D01*
X174807619Y-84272380D01*
X174664761Y-84224761D01*
X174569523Y-84129523D01*
X174521904Y-84034285D01*
X174474285Y-83843809D01*
X174474285Y-83700952D01*
X174521904Y-83510476D01*
X174569523Y-83415238D01*
X174664761Y-83320000D01*
X174807619Y-83272380D01*
X174902857Y-83272380D01*
X175045714Y-83320000D01*
X175093333Y-83367619D01*
X175426666Y-83272380D02*
X176093333Y-83272380D01*
X175664761Y-84272380D01*
X95702380Y-71286666D02*
X95226190Y-71620000D01*
X95702380Y-71858095D02*
X94702380Y-71858095D01*
X94702380Y-71477142D01*
X94750000Y-71381904D01*
X94797619Y-71334285D01*
X94892857Y-71286666D01*
X95035714Y-71286666D01*
X95130952Y-71334285D01*
X95178571Y-71381904D01*
X95226190Y-71477142D01*
X95226190Y-71858095D01*
X95702380Y-70334285D02*
X95702380Y-70905714D01*
X95702380Y-70620000D02*
X94702380Y-70620000D01*
X94845238Y-70715238D01*
X94940476Y-70810476D01*
X94988095Y-70905714D01*
X85542380Y-71286666D02*
X85066190Y-71620000D01*
X85542380Y-71858095D02*
X84542380Y-71858095D01*
X84542380Y-71477142D01*
X84590000Y-71381904D01*
X84637619Y-71334285D01*
X84732857Y-71286666D01*
X84875714Y-71286666D01*
X84970952Y-71334285D01*
X85018571Y-71381904D01*
X85066190Y-71477142D01*
X85066190Y-71858095D01*
X84637619Y-70905714D02*
X84590000Y-70858095D01*
X84542380Y-70762857D01*
X84542380Y-70524761D01*
X84590000Y-70429523D01*
X84637619Y-70381904D01*
X84732857Y-70334285D01*
X84828095Y-70334285D01*
X84970952Y-70381904D01*
X85542380Y-70953333D01*
X85542380Y-70334285D01*
X88082380Y-71286666D02*
X87606190Y-71620000D01*
X88082380Y-71858095D02*
X87082380Y-71858095D01*
X87082380Y-71477142D01*
X87130000Y-71381904D01*
X87177619Y-71334285D01*
X87272857Y-71286666D01*
X87415714Y-71286666D01*
X87510952Y-71334285D01*
X87558571Y-71381904D01*
X87606190Y-71477142D01*
X87606190Y-71858095D01*
X87082380Y-70953333D02*
X87082380Y-70334285D01*
X87463333Y-70667619D01*
X87463333Y-70524761D01*
X87510952Y-70429523D01*
X87558571Y-70381904D01*
X87653809Y-70334285D01*
X87891904Y-70334285D01*
X87987142Y-70381904D01*
X88034761Y-70429523D01*
X88082380Y-70524761D01*
X88082380Y-70810476D01*
X88034761Y-70905714D01*
X87987142Y-70953333D01*
X98242380Y-71286666D02*
X97766190Y-71620000D01*
X98242380Y-71858095D02*
X97242380Y-71858095D01*
X97242380Y-71477142D01*
X97290000Y-71381904D01*
X97337619Y-71334285D01*
X97432857Y-71286666D01*
X97575714Y-71286666D01*
X97670952Y-71334285D01*
X97718571Y-71381904D01*
X97766190Y-71477142D01*
X97766190Y-71858095D01*
X97575714Y-70429523D02*
X98242380Y-70429523D01*
X97194761Y-70667619D02*
X97909047Y-70905714D01*
X97909047Y-70286666D01*
X100782380Y-71286666D02*
X100306190Y-71620000D01*
X100782380Y-71858095D02*
X99782380Y-71858095D01*
X99782380Y-71477142D01*
X99830000Y-71381904D01*
X99877619Y-71334285D01*
X99972857Y-71286666D01*
X100115714Y-71286666D01*
X100210952Y-71334285D01*
X100258571Y-71381904D01*
X100306190Y-71477142D01*
X100306190Y-71858095D01*
X99782380Y-70381904D02*
X99782380Y-70858095D01*
X100258571Y-70905714D01*
X100210952Y-70858095D01*
X100163333Y-70762857D01*
X100163333Y-70524761D01*
X100210952Y-70429523D01*
X100258571Y-70381904D01*
X100353809Y-70334285D01*
X100591904Y-70334285D01*
X100687142Y-70381904D01*
X100734761Y-70429523D01*
X100782380Y-70524761D01*
X100782380Y-70762857D01*
X100734761Y-70858095D01*
X100687142Y-70905714D01*
X93162380Y-71286666D02*
X92686190Y-71620000D01*
X93162380Y-71858095D02*
X92162380Y-71858095D01*
X92162380Y-71477142D01*
X92210000Y-71381904D01*
X92257619Y-71334285D01*
X92352857Y-71286666D01*
X92495714Y-71286666D01*
X92590952Y-71334285D01*
X92638571Y-71381904D01*
X92686190Y-71477142D01*
X92686190Y-71858095D01*
X92162380Y-70429523D02*
X92162380Y-70620000D01*
X92210000Y-70715238D01*
X92257619Y-70762857D01*
X92400476Y-70858095D01*
X92590952Y-70905714D01*
X92971904Y-70905714D01*
X93067142Y-70858095D01*
X93114761Y-70810476D01*
X93162380Y-70715238D01*
X93162380Y-70524761D01*
X93114761Y-70429523D01*
X93067142Y-70381904D01*
X92971904Y-70334285D01*
X92733809Y-70334285D01*
X92638571Y-70381904D01*
X92590952Y-70429523D01*
X92543333Y-70524761D01*
X92543333Y-70715238D01*
X92590952Y-70810476D01*
X92638571Y-70858095D01*
X92733809Y-70905714D01*
X83002380Y-71286666D02*
X82526190Y-71620000D01*
X83002380Y-71858095D02*
X82002380Y-71858095D01*
X82002380Y-71477142D01*
X82050000Y-71381904D01*
X82097619Y-71334285D01*
X82192857Y-71286666D01*
X82335714Y-71286666D01*
X82430952Y-71334285D01*
X82478571Y-71381904D01*
X82526190Y-71477142D01*
X82526190Y-71858095D01*
X82002380Y-70953333D02*
X82002380Y-70286666D01*
X83002380Y-70715238D01*
X90622380Y-71286666D02*
X90146190Y-71620000D01*
X90622380Y-71858095D02*
X89622380Y-71858095D01*
X89622380Y-71477142D01*
X89670000Y-71381904D01*
X89717619Y-71334285D01*
X89812857Y-71286666D01*
X89955714Y-71286666D01*
X90050952Y-71334285D01*
X90098571Y-71381904D01*
X90146190Y-71477142D01*
X90146190Y-71858095D01*
X90050952Y-70715238D02*
X90003333Y-70810476D01*
X89955714Y-70858095D01*
X89860476Y-70905714D01*
X89812857Y-70905714D01*
X89717619Y-70858095D01*
X89670000Y-70810476D01*
X89622380Y-70715238D01*
X89622380Y-70524761D01*
X89670000Y-70429523D01*
X89717619Y-70381904D01*
X89812857Y-70334285D01*
X89860476Y-70334285D01*
X89955714Y-70381904D01*
X90003333Y-70429523D01*
X90050952Y-70524761D01*
X90050952Y-70715238D01*
X90098571Y-70810476D01*
X90146190Y-70858095D01*
X90241428Y-70905714D01*
X90431904Y-70905714D01*
X90527142Y-70858095D01*
X90574761Y-70810476D01*
X90622380Y-70715238D01*
X90622380Y-70524761D01*
X90574761Y-70429523D01*
X90527142Y-70381904D01*
X90431904Y-70334285D01*
X90241428Y-70334285D01*
X90146190Y-70381904D01*
X90098571Y-70429523D01*
X90050952Y-70524761D01*
X197302380Y-71286666D02*
X196826190Y-71620000D01*
X197302380Y-71858095D02*
X196302380Y-71858095D01*
X196302380Y-71477142D01*
X196350000Y-71381904D01*
X196397619Y-71334285D01*
X196492857Y-71286666D01*
X196635714Y-71286666D01*
X196730952Y-71334285D01*
X196778571Y-71381904D01*
X196826190Y-71477142D01*
X196826190Y-71858095D01*
X197302380Y-70810476D02*
X197302380Y-70620000D01*
X197254761Y-70524761D01*
X197207142Y-70477142D01*
X197064285Y-70381904D01*
X196873809Y-70334285D01*
X196492857Y-70334285D01*
X196397619Y-70381904D01*
X196350000Y-70429523D01*
X196302380Y-70524761D01*
X196302380Y-70715238D01*
X196350000Y-70810476D01*
X196397619Y-70858095D01*
X196492857Y-70905714D01*
X196730952Y-70905714D01*
X196826190Y-70858095D01*
X196873809Y-70810476D01*
X196921428Y-70715238D01*
X196921428Y-70524761D01*
X196873809Y-70429523D01*
X196826190Y-70381904D01*
X196730952Y-70334285D01*
X187142380Y-71762857D02*
X186666190Y-72096190D01*
X187142380Y-72334285D02*
X186142380Y-72334285D01*
X186142380Y-71953333D01*
X186190000Y-71858095D01*
X186237619Y-71810476D01*
X186332857Y-71762857D01*
X186475714Y-71762857D01*
X186570952Y-71810476D01*
X186618571Y-71858095D01*
X186666190Y-71953333D01*
X186666190Y-72334285D01*
X187142380Y-70810476D02*
X187142380Y-71381904D01*
X187142380Y-71096190D02*
X186142380Y-71096190D01*
X186285238Y-71191428D01*
X186380476Y-71286666D01*
X186428095Y-71381904D01*
X186142380Y-70191428D02*
X186142380Y-70096190D01*
X186190000Y-70000952D01*
X186237619Y-69953333D01*
X186332857Y-69905714D01*
X186523333Y-69858095D01*
X186761428Y-69858095D01*
X186951904Y-69905714D01*
X187047142Y-69953333D01*
X187094761Y-70000952D01*
X187142380Y-70096190D01*
X187142380Y-70191428D01*
X187094761Y-70286666D01*
X187047142Y-70334285D01*
X186951904Y-70381904D01*
X186761428Y-70429523D01*
X186523333Y-70429523D01*
X186332857Y-70381904D01*
X186237619Y-70334285D01*
X186190000Y-70286666D01*
X186142380Y-70191428D01*
X189682380Y-71762857D02*
X189206190Y-72096190D01*
X189682380Y-72334285D02*
X188682380Y-72334285D01*
X188682380Y-71953333D01*
X188730000Y-71858095D01*
X188777619Y-71810476D01*
X188872857Y-71762857D01*
X189015714Y-71762857D01*
X189110952Y-71810476D01*
X189158571Y-71858095D01*
X189206190Y-71953333D01*
X189206190Y-72334285D01*
X189682380Y-70810476D02*
X189682380Y-71381904D01*
X189682380Y-71096190D02*
X188682380Y-71096190D01*
X188825238Y-71191428D01*
X188920476Y-71286666D01*
X188968095Y-71381904D01*
X189682380Y-69858095D02*
X189682380Y-70429523D01*
X189682380Y-70143809D02*
X188682380Y-70143809D01*
X188825238Y-70239047D01*
X188920476Y-70334285D01*
X188968095Y-70429523D01*
X199842380Y-71762857D02*
X199366190Y-72096190D01*
X199842380Y-72334285D02*
X198842380Y-72334285D01*
X198842380Y-71953333D01*
X198890000Y-71858095D01*
X198937619Y-71810476D01*
X199032857Y-71762857D01*
X199175714Y-71762857D01*
X199270952Y-71810476D01*
X199318571Y-71858095D01*
X199366190Y-71953333D01*
X199366190Y-72334285D01*
X199842380Y-70810476D02*
X199842380Y-71381904D01*
X199842380Y-71096190D02*
X198842380Y-71096190D01*
X198985238Y-71191428D01*
X199080476Y-71286666D01*
X199128095Y-71381904D01*
X198937619Y-70429523D02*
X198890000Y-70381904D01*
X198842380Y-70286666D01*
X198842380Y-70048571D01*
X198890000Y-69953333D01*
X198937619Y-69905714D01*
X199032857Y-69858095D01*
X199128095Y-69858095D01*
X199270952Y-69905714D01*
X199842380Y-70477142D01*
X199842380Y-69858095D01*
X202382380Y-71762857D02*
X201906190Y-72096190D01*
X202382380Y-72334285D02*
X201382380Y-72334285D01*
X201382380Y-71953333D01*
X201430000Y-71858095D01*
X201477619Y-71810476D01*
X201572857Y-71762857D01*
X201715714Y-71762857D01*
X201810952Y-71810476D01*
X201858571Y-71858095D01*
X201906190Y-71953333D01*
X201906190Y-72334285D01*
X202382380Y-70810476D02*
X202382380Y-71381904D01*
X202382380Y-71096190D02*
X201382380Y-71096190D01*
X201525238Y-71191428D01*
X201620476Y-71286666D01*
X201668095Y-71381904D01*
X201382380Y-70477142D02*
X201382380Y-69858095D01*
X201763333Y-70191428D01*
X201763333Y-70048571D01*
X201810952Y-69953333D01*
X201858571Y-69905714D01*
X201953809Y-69858095D01*
X202191904Y-69858095D01*
X202287142Y-69905714D01*
X202334761Y-69953333D01*
X202382380Y-70048571D01*
X202382380Y-70334285D01*
X202334761Y-70429523D01*
X202287142Y-70477142D01*
X194762380Y-71762857D02*
X194286190Y-72096190D01*
X194762380Y-72334285D02*
X193762380Y-72334285D01*
X193762380Y-71953333D01*
X193810000Y-71858095D01*
X193857619Y-71810476D01*
X193952857Y-71762857D01*
X194095714Y-71762857D01*
X194190952Y-71810476D01*
X194238571Y-71858095D01*
X194286190Y-71953333D01*
X194286190Y-72334285D01*
X194762380Y-70810476D02*
X194762380Y-71381904D01*
X194762380Y-71096190D02*
X193762380Y-71096190D01*
X193905238Y-71191428D01*
X194000476Y-71286666D01*
X194048095Y-71381904D01*
X194095714Y-69953333D02*
X194762380Y-69953333D01*
X193714761Y-70191428D02*
X194429047Y-70429523D01*
X194429047Y-69810476D01*
X184602380Y-71762857D02*
X184126190Y-72096190D01*
X184602380Y-72334285D02*
X183602380Y-72334285D01*
X183602380Y-71953333D01*
X183650000Y-71858095D01*
X183697619Y-71810476D01*
X183792857Y-71762857D01*
X183935714Y-71762857D01*
X184030952Y-71810476D01*
X184078571Y-71858095D01*
X184126190Y-71953333D01*
X184126190Y-72334285D01*
X184602380Y-70810476D02*
X184602380Y-71381904D01*
X184602380Y-71096190D02*
X183602380Y-71096190D01*
X183745238Y-71191428D01*
X183840476Y-71286666D01*
X183888095Y-71381904D01*
X183602380Y-69905714D02*
X183602380Y-70381904D01*
X184078571Y-70429523D01*
X184030952Y-70381904D01*
X183983333Y-70286666D01*
X183983333Y-70048571D01*
X184030952Y-69953333D01*
X184078571Y-69905714D01*
X184173809Y-69858095D01*
X184411904Y-69858095D01*
X184507142Y-69905714D01*
X184554761Y-69953333D01*
X184602380Y-70048571D01*
X184602380Y-70286666D01*
X184554761Y-70381904D01*
X184507142Y-70429523D01*
X192222380Y-71762857D02*
X191746190Y-72096190D01*
X192222380Y-72334285D02*
X191222380Y-72334285D01*
X191222380Y-71953333D01*
X191270000Y-71858095D01*
X191317619Y-71810476D01*
X191412857Y-71762857D01*
X191555714Y-71762857D01*
X191650952Y-71810476D01*
X191698571Y-71858095D01*
X191746190Y-71953333D01*
X191746190Y-72334285D01*
X192222380Y-70810476D02*
X192222380Y-71381904D01*
X192222380Y-71096190D02*
X191222380Y-71096190D01*
X191365238Y-71191428D01*
X191460476Y-71286666D01*
X191508095Y-71381904D01*
X191222380Y-69953333D02*
X191222380Y-70143809D01*
X191270000Y-70239047D01*
X191317619Y-70286666D01*
X191460476Y-70381904D01*
X191650952Y-70429523D01*
X192031904Y-70429523D01*
X192127142Y-70381904D01*
X192174761Y-70334285D01*
X192222380Y-70239047D01*
X192222380Y-70048571D01*
X192174761Y-69953333D01*
X192127142Y-69905714D01*
X192031904Y-69858095D01*
X191793809Y-69858095D01*
X191698571Y-69905714D01*
X191650952Y-69953333D01*
X191603333Y-70048571D01*
X191603333Y-70239047D01*
X191650952Y-70334285D01*
X191698571Y-70381904D01*
X191793809Y-70429523D01*
X189682380Y-107322857D02*
X189206190Y-107656190D01*
X189682380Y-107894285D02*
X188682380Y-107894285D01*
X188682380Y-107513333D01*
X188730000Y-107418095D01*
X188777619Y-107370476D01*
X188872857Y-107322857D01*
X189015714Y-107322857D01*
X189110952Y-107370476D01*
X189158571Y-107418095D01*
X189206190Y-107513333D01*
X189206190Y-107894285D01*
X189682380Y-106370476D02*
X189682380Y-106941904D01*
X189682380Y-106656190D02*
X188682380Y-106656190D01*
X188825238Y-106751428D01*
X188920476Y-106846666D01*
X188968095Y-106941904D01*
X188682380Y-106037142D02*
X188682380Y-105370476D01*
X189682380Y-105799047D01*
X199842380Y-107322857D02*
X199366190Y-107656190D01*
X199842380Y-107894285D02*
X198842380Y-107894285D01*
X198842380Y-107513333D01*
X198890000Y-107418095D01*
X198937619Y-107370476D01*
X199032857Y-107322857D01*
X199175714Y-107322857D01*
X199270952Y-107370476D01*
X199318571Y-107418095D01*
X199366190Y-107513333D01*
X199366190Y-107894285D01*
X199842380Y-106370476D02*
X199842380Y-106941904D01*
X199842380Y-106656190D02*
X198842380Y-106656190D01*
X198985238Y-106751428D01*
X199080476Y-106846666D01*
X199128095Y-106941904D01*
X199270952Y-105799047D02*
X199223333Y-105894285D01*
X199175714Y-105941904D01*
X199080476Y-105989523D01*
X199032857Y-105989523D01*
X198937619Y-105941904D01*
X198890000Y-105894285D01*
X198842380Y-105799047D01*
X198842380Y-105608571D01*
X198890000Y-105513333D01*
X198937619Y-105465714D01*
X199032857Y-105418095D01*
X199080476Y-105418095D01*
X199175714Y-105465714D01*
X199223333Y-105513333D01*
X199270952Y-105608571D01*
X199270952Y-105799047D01*
X199318571Y-105894285D01*
X199366190Y-105941904D01*
X199461428Y-105989523D01*
X199651904Y-105989523D01*
X199747142Y-105941904D01*
X199794761Y-105894285D01*
X199842380Y-105799047D01*
X199842380Y-105608571D01*
X199794761Y-105513333D01*
X199747142Y-105465714D01*
X199651904Y-105418095D01*
X199461428Y-105418095D01*
X199366190Y-105465714D01*
X199318571Y-105513333D01*
X199270952Y-105608571D01*
X197302380Y-107322857D02*
X196826190Y-107656190D01*
X197302380Y-107894285D02*
X196302380Y-107894285D01*
X196302380Y-107513333D01*
X196350000Y-107418095D01*
X196397619Y-107370476D01*
X196492857Y-107322857D01*
X196635714Y-107322857D01*
X196730952Y-107370476D01*
X196778571Y-107418095D01*
X196826190Y-107513333D01*
X196826190Y-107894285D01*
X197302380Y-106370476D02*
X197302380Y-106941904D01*
X197302380Y-106656190D02*
X196302380Y-106656190D01*
X196445238Y-106751428D01*
X196540476Y-106846666D01*
X196588095Y-106941904D01*
X197302380Y-105894285D02*
X197302380Y-105703809D01*
X197254761Y-105608571D01*
X197207142Y-105560952D01*
X197064285Y-105465714D01*
X196873809Y-105418095D01*
X196492857Y-105418095D01*
X196397619Y-105465714D01*
X196350000Y-105513333D01*
X196302380Y-105608571D01*
X196302380Y-105799047D01*
X196350000Y-105894285D01*
X196397619Y-105941904D01*
X196492857Y-105989523D01*
X196730952Y-105989523D01*
X196826190Y-105941904D01*
X196873809Y-105894285D01*
X196921428Y-105799047D01*
X196921428Y-105608571D01*
X196873809Y-105513333D01*
X196826190Y-105465714D01*
X196730952Y-105418095D01*
X187142380Y-107322857D02*
X186666190Y-107656190D01*
X187142380Y-107894285D02*
X186142380Y-107894285D01*
X186142380Y-107513333D01*
X186190000Y-107418095D01*
X186237619Y-107370476D01*
X186332857Y-107322857D01*
X186475714Y-107322857D01*
X186570952Y-107370476D01*
X186618571Y-107418095D01*
X186666190Y-107513333D01*
X186666190Y-107894285D01*
X186237619Y-106941904D02*
X186190000Y-106894285D01*
X186142380Y-106799047D01*
X186142380Y-106560952D01*
X186190000Y-106465714D01*
X186237619Y-106418095D01*
X186332857Y-106370476D01*
X186428095Y-106370476D01*
X186570952Y-106418095D01*
X187142380Y-106989523D01*
X187142380Y-106370476D01*
X186142380Y-105751428D02*
X186142380Y-105656190D01*
X186190000Y-105560952D01*
X186237619Y-105513333D01*
X186332857Y-105465714D01*
X186523333Y-105418095D01*
X186761428Y-105418095D01*
X186951904Y-105465714D01*
X187047142Y-105513333D01*
X187094761Y-105560952D01*
X187142380Y-105656190D01*
X187142380Y-105751428D01*
X187094761Y-105846666D01*
X187047142Y-105894285D01*
X186951904Y-105941904D01*
X186761428Y-105989523D01*
X186523333Y-105989523D01*
X186332857Y-105941904D01*
X186237619Y-105894285D01*
X186190000Y-105846666D01*
X186142380Y-105751428D01*
X184602380Y-107322857D02*
X184126190Y-107656190D01*
X184602380Y-107894285D02*
X183602380Y-107894285D01*
X183602380Y-107513333D01*
X183650000Y-107418095D01*
X183697619Y-107370476D01*
X183792857Y-107322857D01*
X183935714Y-107322857D01*
X184030952Y-107370476D01*
X184078571Y-107418095D01*
X184126190Y-107513333D01*
X184126190Y-107894285D01*
X183697619Y-106941904D02*
X183650000Y-106894285D01*
X183602380Y-106799047D01*
X183602380Y-106560952D01*
X183650000Y-106465714D01*
X183697619Y-106418095D01*
X183792857Y-106370476D01*
X183888095Y-106370476D01*
X184030952Y-106418095D01*
X184602380Y-106989523D01*
X184602380Y-106370476D01*
X184602380Y-105418095D02*
X184602380Y-105989523D01*
X184602380Y-105703809D02*
X183602380Y-105703809D01*
X183745238Y-105799047D01*
X183840476Y-105894285D01*
X183888095Y-105989523D01*
X192222380Y-107322857D02*
X191746190Y-107656190D01*
X192222380Y-107894285D02*
X191222380Y-107894285D01*
X191222380Y-107513333D01*
X191270000Y-107418095D01*
X191317619Y-107370476D01*
X191412857Y-107322857D01*
X191555714Y-107322857D01*
X191650952Y-107370476D01*
X191698571Y-107418095D01*
X191746190Y-107513333D01*
X191746190Y-107894285D01*
X191317619Y-106941904D02*
X191270000Y-106894285D01*
X191222380Y-106799047D01*
X191222380Y-106560952D01*
X191270000Y-106465714D01*
X191317619Y-106418095D01*
X191412857Y-106370476D01*
X191508095Y-106370476D01*
X191650952Y-106418095D01*
X192222380Y-106989523D01*
X192222380Y-106370476D01*
X191317619Y-105989523D02*
X191270000Y-105941904D01*
X191222380Y-105846666D01*
X191222380Y-105608571D01*
X191270000Y-105513333D01*
X191317619Y-105465714D01*
X191412857Y-105418095D01*
X191508095Y-105418095D01*
X191650952Y-105465714D01*
X192222380Y-106037142D01*
X192222380Y-105418095D01*
X202382380Y-107322857D02*
X201906190Y-107656190D01*
X202382380Y-107894285D02*
X201382380Y-107894285D01*
X201382380Y-107513333D01*
X201430000Y-107418095D01*
X201477619Y-107370476D01*
X201572857Y-107322857D01*
X201715714Y-107322857D01*
X201810952Y-107370476D01*
X201858571Y-107418095D01*
X201906190Y-107513333D01*
X201906190Y-107894285D01*
X201477619Y-106941904D02*
X201430000Y-106894285D01*
X201382380Y-106799047D01*
X201382380Y-106560952D01*
X201430000Y-106465714D01*
X201477619Y-106418095D01*
X201572857Y-106370476D01*
X201668095Y-106370476D01*
X201810952Y-106418095D01*
X202382380Y-106989523D01*
X202382380Y-106370476D01*
X201382380Y-106037142D02*
X201382380Y-105418095D01*
X201763333Y-105751428D01*
X201763333Y-105608571D01*
X201810952Y-105513333D01*
X201858571Y-105465714D01*
X201953809Y-105418095D01*
X202191904Y-105418095D01*
X202287142Y-105465714D01*
X202334761Y-105513333D01*
X202382380Y-105608571D01*
X202382380Y-105894285D01*
X202334761Y-105989523D01*
X202287142Y-106037142D01*
X194762380Y-107322857D02*
X194286190Y-107656190D01*
X194762380Y-107894285D02*
X193762380Y-107894285D01*
X193762380Y-107513333D01*
X193810000Y-107418095D01*
X193857619Y-107370476D01*
X193952857Y-107322857D01*
X194095714Y-107322857D01*
X194190952Y-107370476D01*
X194238571Y-107418095D01*
X194286190Y-107513333D01*
X194286190Y-107894285D01*
X193857619Y-106941904D02*
X193810000Y-106894285D01*
X193762380Y-106799047D01*
X193762380Y-106560952D01*
X193810000Y-106465714D01*
X193857619Y-106418095D01*
X193952857Y-106370476D01*
X194048095Y-106370476D01*
X194190952Y-106418095D01*
X194762380Y-106989523D01*
X194762380Y-106370476D01*
X194095714Y-105513333D02*
X194762380Y-105513333D01*
X193714761Y-105751428D02*
X194429047Y-105989523D01*
X194429047Y-105370476D01*
X88082380Y-107322857D02*
X87606190Y-107656190D01*
X88082380Y-107894285D02*
X87082380Y-107894285D01*
X87082380Y-107513333D01*
X87130000Y-107418095D01*
X87177619Y-107370476D01*
X87272857Y-107322857D01*
X87415714Y-107322857D01*
X87510952Y-107370476D01*
X87558571Y-107418095D01*
X87606190Y-107513333D01*
X87606190Y-107894285D01*
X87177619Y-106941904D02*
X87130000Y-106894285D01*
X87082380Y-106799047D01*
X87082380Y-106560952D01*
X87130000Y-106465714D01*
X87177619Y-106418095D01*
X87272857Y-106370476D01*
X87368095Y-106370476D01*
X87510952Y-106418095D01*
X88082380Y-106989523D01*
X88082380Y-106370476D01*
X87082380Y-105465714D02*
X87082380Y-105941904D01*
X87558571Y-105989523D01*
X87510952Y-105941904D01*
X87463333Y-105846666D01*
X87463333Y-105608571D01*
X87510952Y-105513333D01*
X87558571Y-105465714D01*
X87653809Y-105418095D01*
X87891904Y-105418095D01*
X87987142Y-105465714D01*
X88034761Y-105513333D01*
X88082380Y-105608571D01*
X88082380Y-105846666D01*
X88034761Y-105941904D01*
X87987142Y-105989523D01*
X98242380Y-107322857D02*
X97766190Y-107656190D01*
X98242380Y-107894285D02*
X97242380Y-107894285D01*
X97242380Y-107513333D01*
X97290000Y-107418095D01*
X97337619Y-107370476D01*
X97432857Y-107322857D01*
X97575714Y-107322857D01*
X97670952Y-107370476D01*
X97718571Y-107418095D01*
X97766190Y-107513333D01*
X97766190Y-107894285D01*
X97337619Y-106941904D02*
X97290000Y-106894285D01*
X97242380Y-106799047D01*
X97242380Y-106560952D01*
X97290000Y-106465714D01*
X97337619Y-106418095D01*
X97432857Y-106370476D01*
X97528095Y-106370476D01*
X97670952Y-106418095D01*
X98242380Y-106989523D01*
X98242380Y-106370476D01*
X97242380Y-105513333D02*
X97242380Y-105703809D01*
X97290000Y-105799047D01*
X97337619Y-105846666D01*
X97480476Y-105941904D01*
X97670952Y-105989523D01*
X98051904Y-105989523D01*
X98147142Y-105941904D01*
X98194761Y-105894285D01*
X98242380Y-105799047D01*
X98242380Y-105608571D01*
X98194761Y-105513333D01*
X98147142Y-105465714D01*
X98051904Y-105418095D01*
X97813809Y-105418095D01*
X97718571Y-105465714D01*
X97670952Y-105513333D01*
X97623333Y-105608571D01*
X97623333Y-105799047D01*
X97670952Y-105894285D01*
X97718571Y-105941904D01*
X97813809Y-105989523D01*
X95702380Y-107322857D02*
X95226190Y-107656190D01*
X95702380Y-107894285D02*
X94702380Y-107894285D01*
X94702380Y-107513333D01*
X94750000Y-107418095D01*
X94797619Y-107370476D01*
X94892857Y-107322857D01*
X95035714Y-107322857D01*
X95130952Y-107370476D01*
X95178571Y-107418095D01*
X95226190Y-107513333D01*
X95226190Y-107894285D01*
X94797619Y-106941904D02*
X94750000Y-106894285D01*
X94702380Y-106799047D01*
X94702380Y-106560952D01*
X94750000Y-106465714D01*
X94797619Y-106418095D01*
X94892857Y-106370476D01*
X94988095Y-106370476D01*
X95130952Y-106418095D01*
X95702380Y-106989523D01*
X95702380Y-106370476D01*
X94702380Y-106037142D02*
X94702380Y-105370476D01*
X95702380Y-105799047D01*
X85542380Y-107322857D02*
X85066190Y-107656190D01*
X85542380Y-107894285D02*
X84542380Y-107894285D01*
X84542380Y-107513333D01*
X84590000Y-107418095D01*
X84637619Y-107370476D01*
X84732857Y-107322857D01*
X84875714Y-107322857D01*
X84970952Y-107370476D01*
X85018571Y-107418095D01*
X85066190Y-107513333D01*
X85066190Y-107894285D01*
X84637619Y-106941904D02*
X84590000Y-106894285D01*
X84542380Y-106799047D01*
X84542380Y-106560952D01*
X84590000Y-106465714D01*
X84637619Y-106418095D01*
X84732857Y-106370476D01*
X84828095Y-106370476D01*
X84970952Y-106418095D01*
X85542380Y-106989523D01*
X85542380Y-106370476D01*
X84970952Y-105799047D02*
X84923333Y-105894285D01*
X84875714Y-105941904D01*
X84780476Y-105989523D01*
X84732857Y-105989523D01*
X84637619Y-105941904D01*
X84590000Y-105894285D01*
X84542380Y-105799047D01*
X84542380Y-105608571D01*
X84590000Y-105513333D01*
X84637619Y-105465714D01*
X84732857Y-105418095D01*
X84780476Y-105418095D01*
X84875714Y-105465714D01*
X84923333Y-105513333D01*
X84970952Y-105608571D01*
X84970952Y-105799047D01*
X85018571Y-105894285D01*
X85066190Y-105941904D01*
X85161428Y-105989523D01*
X85351904Y-105989523D01*
X85447142Y-105941904D01*
X85494761Y-105894285D01*
X85542380Y-105799047D01*
X85542380Y-105608571D01*
X85494761Y-105513333D01*
X85447142Y-105465714D01*
X85351904Y-105418095D01*
X85161428Y-105418095D01*
X85066190Y-105465714D01*
X85018571Y-105513333D01*
X84970952Y-105608571D01*
X83002380Y-107322857D02*
X82526190Y-107656190D01*
X83002380Y-107894285D02*
X82002380Y-107894285D01*
X82002380Y-107513333D01*
X82050000Y-107418095D01*
X82097619Y-107370476D01*
X82192857Y-107322857D01*
X82335714Y-107322857D01*
X82430952Y-107370476D01*
X82478571Y-107418095D01*
X82526190Y-107513333D01*
X82526190Y-107894285D01*
X82097619Y-106941904D02*
X82050000Y-106894285D01*
X82002380Y-106799047D01*
X82002380Y-106560952D01*
X82050000Y-106465714D01*
X82097619Y-106418095D01*
X82192857Y-106370476D01*
X82288095Y-106370476D01*
X82430952Y-106418095D01*
X83002380Y-106989523D01*
X83002380Y-106370476D01*
X83002380Y-105894285D02*
X83002380Y-105703809D01*
X82954761Y-105608571D01*
X82907142Y-105560952D01*
X82764285Y-105465714D01*
X82573809Y-105418095D01*
X82192857Y-105418095D01*
X82097619Y-105465714D01*
X82050000Y-105513333D01*
X82002380Y-105608571D01*
X82002380Y-105799047D01*
X82050000Y-105894285D01*
X82097619Y-105941904D01*
X82192857Y-105989523D01*
X82430952Y-105989523D01*
X82526190Y-105941904D01*
X82573809Y-105894285D01*
X82621428Y-105799047D01*
X82621428Y-105608571D01*
X82573809Y-105513333D01*
X82526190Y-105465714D01*
X82430952Y-105418095D01*
X90622380Y-107322857D02*
X90146190Y-107656190D01*
X90622380Y-107894285D02*
X89622380Y-107894285D01*
X89622380Y-107513333D01*
X89670000Y-107418095D01*
X89717619Y-107370476D01*
X89812857Y-107322857D01*
X89955714Y-107322857D01*
X90050952Y-107370476D01*
X90098571Y-107418095D01*
X90146190Y-107513333D01*
X90146190Y-107894285D01*
X89622380Y-106989523D02*
X89622380Y-106370476D01*
X90003333Y-106703809D01*
X90003333Y-106560952D01*
X90050952Y-106465714D01*
X90098571Y-106418095D01*
X90193809Y-106370476D01*
X90431904Y-106370476D01*
X90527142Y-106418095D01*
X90574761Y-106465714D01*
X90622380Y-106560952D01*
X90622380Y-106846666D01*
X90574761Y-106941904D01*
X90527142Y-106989523D01*
X89622380Y-105751428D02*
X89622380Y-105656190D01*
X89670000Y-105560952D01*
X89717619Y-105513333D01*
X89812857Y-105465714D01*
X90003333Y-105418095D01*
X90241428Y-105418095D01*
X90431904Y-105465714D01*
X90527142Y-105513333D01*
X90574761Y-105560952D01*
X90622380Y-105656190D01*
X90622380Y-105751428D01*
X90574761Y-105846666D01*
X90527142Y-105894285D01*
X90431904Y-105941904D01*
X90241428Y-105989523D01*
X90003333Y-105989523D01*
X89812857Y-105941904D01*
X89717619Y-105894285D01*
X89670000Y-105846666D01*
X89622380Y-105751428D01*
X100782380Y-107322857D02*
X100306190Y-107656190D01*
X100782380Y-107894285D02*
X99782380Y-107894285D01*
X99782380Y-107513333D01*
X99830000Y-107418095D01*
X99877619Y-107370476D01*
X99972857Y-107322857D01*
X100115714Y-107322857D01*
X100210952Y-107370476D01*
X100258571Y-107418095D01*
X100306190Y-107513333D01*
X100306190Y-107894285D01*
X99782380Y-106989523D02*
X99782380Y-106370476D01*
X100163333Y-106703809D01*
X100163333Y-106560952D01*
X100210952Y-106465714D01*
X100258571Y-106418095D01*
X100353809Y-106370476D01*
X100591904Y-106370476D01*
X100687142Y-106418095D01*
X100734761Y-106465714D01*
X100782380Y-106560952D01*
X100782380Y-106846666D01*
X100734761Y-106941904D01*
X100687142Y-106989523D01*
X100782380Y-105418095D02*
X100782380Y-105989523D01*
X100782380Y-105703809D02*
X99782380Y-105703809D01*
X99925238Y-105799047D01*
X100020476Y-105894285D01*
X100068095Y-105989523D01*
X93162380Y-107322857D02*
X92686190Y-107656190D01*
X93162380Y-107894285D02*
X92162380Y-107894285D01*
X92162380Y-107513333D01*
X92210000Y-107418095D01*
X92257619Y-107370476D01*
X92352857Y-107322857D01*
X92495714Y-107322857D01*
X92590952Y-107370476D01*
X92638571Y-107418095D01*
X92686190Y-107513333D01*
X92686190Y-107894285D01*
X92162380Y-106989523D02*
X92162380Y-106370476D01*
X92543333Y-106703809D01*
X92543333Y-106560952D01*
X92590952Y-106465714D01*
X92638571Y-106418095D01*
X92733809Y-106370476D01*
X92971904Y-106370476D01*
X93067142Y-106418095D01*
X93114761Y-106465714D01*
X93162380Y-106560952D01*
X93162380Y-106846666D01*
X93114761Y-106941904D01*
X93067142Y-106989523D01*
X92257619Y-105989523D02*
X92210000Y-105941904D01*
X92162380Y-105846666D01*
X92162380Y-105608571D01*
X92210000Y-105513333D01*
X92257619Y-105465714D01*
X92352857Y-105418095D01*
X92448095Y-105418095D01*
X92590952Y-105465714D01*
X93162380Y-106037142D01*
X93162380Y-105418095D01*
X67937142Y-112212380D02*
X67603809Y-111736190D01*
X67365714Y-112212380D02*
X67365714Y-111212380D01*
X67746666Y-111212380D01*
X67841904Y-111260000D01*
X67889523Y-111307619D01*
X67937142Y-111402857D01*
X67937142Y-111545714D01*
X67889523Y-111640952D01*
X67841904Y-111688571D01*
X67746666Y-111736190D01*
X67365714Y-111736190D01*
X68270476Y-111212380D02*
X68889523Y-111212380D01*
X68556190Y-111593333D01*
X68699047Y-111593333D01*
X68794285Y-111640952D01*
X68841904Y-111688571D01*
X68889523Y-111783809D01*
X68889523Y-112021904D01*
X68841904Y-112117142D01*
X68794285Y-112164761D01*
X68699047Y-112212380D01*
X68413333Y-112212380D01*
X68318095Y-112164761D01*
X68270476Y-112117142D01*
X69746666Y-111545714D02*
X69746666Y-112212380D01*
X69508571Y-111164761D02*
X69270476Y-111879047D01*
X69889523Y-111879047D01*
X152979523Y-61412380D02*
X152646190Y-60936190D01*
X152408095Y-61412380D02*
X152408095Y-60412380D01*
X152789047Y-60412380D01*
X152884285Y-60460000D01*
X152931904Y-60507619D01*
X152979523Y-60602857D01*
X152979523Y-60745714D01*
X152931904Y-60840952D01*
X152884285Y-60888571D01*
X152789047Y-60936190D01*
X152408095Y-60936190D01*
X153408095Y-61412380D02*
X153408095Y-60412380D01*
X153979523Y-61412380D01*
X153979523Y-60412380D01*
X154979523Y-61412380D02*
X154408095Y-61412380D01*
X154693809Y-61412380D02*
X154693809Y-60412380D01*
X154598571Y-60555238D01*
X154503333Y-60650476D01*
X154408095Y-60698095D01*
X130119523Y-117292380D02*
X129786190Y-116816190D01*
X129548095Y-117292380D02*
X129548095Y-116292380D01*
X129929047Y-116292380D01*
X130024285Y-116340000D01*
X130071904Y-116387619D01*
X130119523Y-116482857D01*
X130119523Y-116625714D01*
X130071904Y-116720952D01*
X130024285Y-116768571D01*
X129929047Y-116816190D01*
X129548095Y-116816190D01*
X130548095Y-117292380D02*
X130548095Y-116292380D01*
X131119523Y-117292380D01*
X131119523Y-116292380D01*
X131548095Y-116387619D02*
X131595714Y-116340000D01*
X131690952Y-116292380D01*
X131929047Y-116292380D01*
X132024285Y-116340000D01*
X132071904Y-116387619D01*
X132119523Y-116482857D01*
X132119523Y-116578095D01*
X132071904Y-116720952D01*
X131500476Y-117292380D01*
X132119523Y-117292380D01*
X179649523Y-80462380D02*
X179316190Y-79986190D01*
X179078095Y-80462380D02*
X179078095Y-79462380D01*
X179459047Y-79462380D01*
X179554285Y-79510000D01*
X179601904Y-79557619D01*
X179649523Y-79652857D01*
X179649523Y-79795714D01*
X179601904Y-79890952D01*
X179554285Y-79938571D01*
X179459047Y-79986190D01*
X179078095Y-79986190D01*
X180078095Y-80462380D02*
X180078095Y-79462380D01*
X180649523Y-80462380D01*
X180649523Y-79462380D01*
X181030476Y-79462380D02*
X181649523Y-79462380D01*
X181316190Y-79843333D01*
X181459047Y-79843333D01*
X181554285Y-79890952D01*
X181601904Y-79938571D01*
X181649523Y-80033809D01*
X181649523Y-80271904D01*
X181601904Y-80367142D01*
X181554285Y-80414761D01*
X181459047Y-80462380D01*
X181173333Y-80462380D01*
X181078095Y-80414761D01*
X181030476Y-80367142D01*
X108354761Y-90233333D02*
X108402380Y-90090476D01*
X108402380Y-89852380D01*
X108354761Y-89757142D01*
X108307142Y-89709523D01*
X108211904Y-89661904D01*
X108116666Y-89661904D01*
X108021428Y-89709523D01*
X107973809Y-89757142D01*
X107926190Y-89852380D01*
X107878571Y-90042857D01*
X107830952Y-90138095D01*
X107783333Y-90185714D01*
X107688095Y-90233333D01*
X107592857Y-90233333D01*
X107497619Y-90185714D01*
X107450000Y-90138095D01*
X107402380Y-90042857D01*
X107402380Y-89804761D01*
X107450000Y-89661904D01*
X107402380Y-89328571D02*
X108402380Y-89090476D01*
X107688095Y-88900000D01*
X108402380Y-88709523D01*
X107402380Y-88471428D01*
X107497619Y-88138095D02*
X107450000Y-88090476D01*
X107402380Y-87995238D01*
X107402380Y-87757142D01*
X107450000Y-87661904D01*
X107497619Y-87614285D01*
X107592857Y-87566666D01*
X107688095Y-87566666D01*
X107830952Y-87614285D01*
X108402380Y-88185714D01*
X108402380Y-87566666D01*
X234188095Y-70572380D02*
X234188095Y-71381904D01*
X234235714Y-71477142D01*
X234283333Y-71524761D01*
X234378571Y-71572380D01*
X234569047Y-71572380D01*
X234664285Y-71524761D01*
X234711904Y-71477142D01*
X234759523Y-71381904D01*
X234759523Y-70572380D01*
X235759523Y-71572380D02*
X235188095Y-71572380D01*
X235473809Y-71572380D02*
X235473809Y-70572380D01*
X235378571Y-70715238D01*
X235283333Y-70810476D01*
X235188095Y-70858095D01*
X208788095Y-104862380D02*
X208788095Y-105671904D01*
X208835714Y-105767142D01*
X208883333Y-105814761D01*
X208978571Y-105862380D01*
X209169047Y-105862380D01*
X209264285Y-105814761D01*
X209311904Y-105767142D01*
X209359523Y-105671904D01*
X209359523Y-104862380D01*
X209740476Y-104862380D02*
X210359523Y-104862380D01*
X210026190Y-105243333D01*
X210169047Y-105243333D01*
X210264285Y-105290952D01*
X210311904Y-105338571D01*
X210359523Y-105433809D01*
X210359523Y-105671904D01*
X210311904Y-105767142D01*
X210264285Y-105814761D01*
X210169047Y-105862380D01*
X209883333Y-105862380D01*
X209788095Y-105814761D01*
X209740476Y-105767142D01*
X154178095Y-71842380D02*
X154178095Y-72651904D01*
X154225714Y-72747142D01*
X154273333Y-72794761D01*
X154368571Y-72842380D01*
X154559047Y-72842380D01*
X154654285Y-72794761D01*
X154701904Y-72747142D01*
X154749523Y-72651904D01*
X154749523Y-71842380D01*
X155701904Y-71842380D02*
X155225714Y-71842380D01*
X155178095Y-72318571D01*
X155225714Y-72270952D01*
X155320952Y-72223333D01*
X155559047Y-72223333D01*
X155654285Y-72270952D01*
X155701904Y-72318571D01*
X155749523Y-72413809D01*
X155749523Y-72651904D01*
X155701904Y-72747142D01*
X155654285Y-72794761D01*
X155559047Y-72842380D01*
X155320952Y-72842380D01*
X155225714Y-72794761D01*
X155178095Y-72747142D01*
X128778095Y-104862380D02*
X128778095Y-105671904D01*
X128825714Y-105767142D01*
X128873333Y-105814761D01*
X128968571Y-105862380D01*
X129159047Y-105862380D01*
X129254285Y-105814761D01*
X129301904Y-105767142D01*
X129349523Y-105671904D01*
X129349523Y-104862380D01*
X130254285Y-104862380D02*
X130063809Y-104862380D01*
X129968571Y-104910000D01*
X129920952Y-104957619D01*
X129825714Y-105100476D01*
X129778095Y-105290952D01*
X129778095Y-105671904D01*
X129825714Y-105767142D01*
X129873333Y-105814761D01*
X129968571Y-105862380D01*
X130159047Y-105862380D01*
X130254285Y-105814761D01*
X130301904Y-105767142D01*
X130349523Y-105671904D01*
X130349523Y-105433809D01*
X130301904Y-105338571D01*
X130254285Y-105290952D01*
X130159047Y-105243333D01*
X129968571Y-105243333D01*
X129873333Y-105290952D01*
X129825714Y-105338571D01*
X129778095Y-105433809D01*
X175768095Y-88352380D02*
X175768095Y-89161904D01*
X175815714Y-89257142D01*
X175863333Y-89304761D01*
X175958571Y-89352380D01*
X176149047Y-89352380D01*
X176244285Y-89304761D01*
X176291904Y-89257142D01*
X176339523Y-89161904D01*
X176339523Y-88352380D01*
X176720476Y-88352380D02*
X177387142Y-88352380D01*
X176958571Y-89352380D01*
M02*
