M48
; DRILL file {KiCad (5.1.4)-1} date 8/6/2020 10:09:21 PM
; FORMAT={2:4/ absolute / inch / suppress trailing zeros}
; #@! TF.CreationDate,2020-08-06T22:09:21-04:00
; #@! TF.GenerationSoftware,Kicad,Pcbnew,(5.1.4)-1
; #@! TF.FileFunction,NonPlated,1,2,NPTH
FMAT,2
INCH,LZ
T1C0.0709
%
G90
G05
T1
X021039Y-047213
X021039Y-019244
X021039Y-022787
X021039Y-013213
X021039Y-016756
X090961Y-053244
X090961Y-056787
X050961Y-033244
X050961Y-036787
X090961Y-019244
X090961Y-022787
X090961Y-013213
X090961Y-016756
X021039Y-050756
X090961Y-047213
X090961Y-050756
X021039Y-053244
X021039Y-056787
X060961Y-033244
X060961Y-036787
T0
M30
