M48
; DRILL file {KiCad (5.1.4)-1} date 8/6/2020 9:16:34 PM
; FORMAT={2:4/ absolute / inch / suppress trailing zeros}
; #@! TF.CreationDate,2020-08-06T21:16:34-04:00
; #@! TF.GenerationSoftware,Kicad,Pcbnew,(5.1.4)-1
; #@! TF.FileFunction,NonPlated,1,2,NPTH
FMAT,2
INCH,LZ
T1C0.0709
%
G90
G05
T1
X016039Y-047213
X016039Y-019244
X016039Y-022787
X016039Y-013213
X016039Y-016756
X085961Y-053244
X085961Y-056787
X045961Y-033244
X045961Y-036787
X085961Y-019244
X085961Y-022787
X085961Y-013213
X085961Y-016756
X016039Y-050756
X085961Y-047213
X085961Y-050756
X016039Y-053244
X016039Y-056787
X055961Y-033244
X055961Y-036787
T0
M30
