M48
; DRILL file {KiCad (5.1.4)-1} date 8/6/2020 10:09:21 PM
; FORMAT={2:4/ absolute / inch / suppress trailing zeros}
; #@! TF.CreationDate,2020-08-06T22:09:21-04:00
; #@! TF.GenerationSoftware,Kicad,Pcbnew,(5.1.4)-1
; #@! TF.FileFunction,Plated,1,2,PTH
FMAT,2
INCH,LZ
T1C0.0157
T2C0.0197
T3C0.0315
T4C0.0354
T5C0.0394
T6C0.0472
T7C0.0591
T8C0.1260
%
G90
G05
T1
X018Y-033
X018Y-034
X018Y-035
X0185Y-0335
X0185Y-0345
X019Y-013
X019Y-015
X019Y-017
X019Y-019
X019Y-021
X019Y-023
X019Y-033
X019Y-034
X019Y-047
X019Y-049
X019Y-051
X019Y-053
X019Y-055
X019Y-057
X0195Y-0135
X0195Y-0145
X0195Y-0155
X0195Y-0165
X0195Y-0195
X0195Y-0205
X0195Y-0215
X0195Y-0225
X0195Y-0335
X0195Y-0535
X0195Y-0545
X0195Y-0555
X0195Y-0565
X02Y-013
X02Y-014
X02Y-015
X02Y-017
X02Y-019
X02Y-02
X02Y-021
X02Y-023
X02Y-028
X02Y-029
X02Y-033
X02Y-034
X02Y-037
X02Y-047
X02Y-0485
X02Y-0495
X02Y-0505
X02Y-053
X02Y-055
X02Y-056
X02Y-057
X0205Y-0145
X0205Y-0155
X0205Y-0205
X0205Y-0215
X0205Y-0285
X0205Y-0335
X0205Y-0365
X0205Y-049
X0205Y-05
X0205Y-0545
X0205Y-0555
X021Y-015
X021Y-021
X021Y-028
X021Y-029
X021Y-033
X021Y-034
X021Y-036
X021Y-037
X021Y-0485
X021Y-0495
X021Y-055
X0215Y-0145
X0215Y-0155
X0215Y-0205
X0215Y-0215
X0215Y-0285
X0215Y-0365
X0215Y-049
X0215Y-05
X0215Y-0545
X0215Y-0555
X022Y-013
X022Y-014
X022Y-015
X022Y-017
X022Y-019
X022Y-033
X022Y-034
X022Y-036
X022Y-037
X022Y-040551
X022Y-053
X022Y-055
X022Y-056
X022Y-057
X0225Y-0135
X0225Y-0145
X0225Y-0155
X0225Y-0165
X0225Y-0195
X0225Y-0205
X0225Y-0215
X0225Y-0225
X0225Y-0275
X0225Y-0285
X0225Y-0325
X0225Y-0335
X0225Y-0365
X0225Y-042
X0225Y-0535
X0225Y-0545
X0225Y-0555
X0225Y-0565
X023Y-013
X023Y-015
X023Y-017
X023Y-019
X023Y-021
X023Y-023
X023Y-033
X023Y-034
X023Y-036
X023Y-053
X023Y-055
X023Y-057
X0235Y-0185
X0235Y-028
X0235Y-0515
X0245Y-0195
X0245Y-0405
X0245Y-049
X025Y-018
X025Y-0335
X025Y-0365
X0255Y-02
X0255Y-034
X0255Y-036
X0255Y-0485
X026Y-0175
X026Y-0335
X026Y-0365
X026Y-039449
X026Y-052
X0265Y-014
X0265Y-015
X0265Y-0165
X0265Y-0205
X0265Y-034
X0265Y-036
X0265Y-051
X0265Y-053
X0265Y-054
X0265Y-055
X0265Y-056
X027Y-0145
X027Y-016
X027Y-017
X027Y-0335
X027Y-0365
X027Y-039
X027Y-0525
X027Y-0535
X027Y-0545
X027Y-0555
X0275Y-014
X0275Y-015
X0275Y-0165
X0275Y-019
X0275Y-031
X0275Y-036
X0275Y-0505
X0275Y-053
X0275Y-054
X0275Y-055
X0275Y-056
X028Y-0145
X028Y-016
X028Y-021
X028Y-035
X028Y-0365
X028Y-0385
X028Y-0415
X028Y-0535
X028Y-0545
X028Y-0555
X0285Y-014
X0285Y-015
X0285Y-0165
X0285Y-0215
X0285Y-05
X0285Y-053
X0285Y-054
X0285Y-055
X0285Y-056
X029Y-0145
X029Y-016
X029Y-021
X029Y-034
X029Y-036
X029Y-0535
X029Y-0545
X029Y-0555
X0295Y-014
X0295Y-015
X0295Y-0165
X0295Y-0215
X0295Y-0335
X0295Y-0365
X0295Y-0495
X0295Y-053
X0295Y-054
X0295Y-055
X0295Y-056
X03Y-0145
X03Y-016
X03Y-021
X03Y-034
X03Y-0535
X03Y-0545
X03Y-0555
X0305Y-014
X0305Y-015
X0305Y-0165
X0305Y-0215
X0305Y-0335
X0305Y-0365
X0305Y-053
X0305Y-054
X0305Y-055
X0305Y-056
X031Y-0145
X031Y-016
X031Y-021
X031Y-034
X031Y-0535
X031Y-0545
X031Y-0555
X0315Y-014
X0315Y-015
X0315Y-0165
X0315Y-0215
X0315Y-0335
X0315Y-0365
X0315Y-053
X0315Y-054
X0315Y-055
X0315Y-056
X032Y-0145
X032Y-016
X032Y-021
X032Y-034
X032Y-0535
X032Y-0545
X032Y-0555
X0325Y-014
X0325Y-0165
X0325Y-0215
X0325Y-024
X0325Y-025
X0325Y-026
X0325Y-0335
X0325Y-0365
X0325Y-056
X033Y-016
X033Y-0235
X033Y-0245
X033Y-0255
X033Y-029
X033Y-0405
X0335Y-014
X0335Y-023551
X0335Y-0285
X0335Y-0415
X0335Y-056
X034Y-0245
X034Y-0255
X0345Y-014
X0345Y-024
X0345Y-056
X035Y-018
X035Y-0245
X035Y-0255
X035Y-032
X0355Y-014
X0355Y-025
X0355Y-0455
X0355Y-056
X036Y-0175
X036Y-0245
X036Y-0255
X0365Y-014
X0365Y-025
X0365Y-0255
X0365Y-046449
X0365Y-056
X037Y-0245
X037Y-052
X0375Y-014
X0375Y-025
X0375Y-056
X038Y-0245
X0385Y-014
X0385Y-0245
X0385Y-056
X039Y-017
X039Y-0525
X039Y-0535
X0395Y-014
X0395Y-025
X0395Y-046
X0395Y-0485
X0395Y-052
X0395Y-053
X0395Y-054
X0395Y-056
X04Y-0145
X04Y-0155
X04Y-0165
X04Y-0175
X04Y-021
X04Y-049
X04Y-0525
X04Y-0535
X04Y-0545
X04Y-0555
X0405Y-014
X0405Y-015
X0405Y-016
X0405Y-017
X0405Y-018
X0405Y-0215
X0405Y-0485
X0405Y-052
X0405Y-053
X0405Y-054
X0405Y-055
X0405Y-056
X041Y-0145
X041Y-0155
X041Y-0165
X041Y-0175
X041Y-021
X041Y-049
X041Y-0525
X041Y-0535
X041Y-0545
X041Y-0555
X0415Y-014
X0415Y-015
X0415Y-016
X0415Y-017
X0415Y-018
X0415Y-0215
X0415Y-0485
X0415Y-052
X0415Y-053
X0415Y-054
X0415Y-055
X0415Y-056
X042Y-0145
X042Y-0155
X042Y-0165
X042Y-0175
X042Y-021
X042Y-049
X042Y-0525
X042Y-0535
X042Y-0545
X042Y-0555
X0425Y-014
X0425Y-015
X0425Y-016
X0425Y-017
X0425Y-018
X0425Y-0215
X0425Y-0485
X0425Y-052
X0425Y-053
X0425Y-054
X0425Y-055
X0425Y-056
X043Y-0145
X043Y-0155
X043Y-0165
X043Y-0175
X043Y-021
X043Y-049
X043Y-0525
X043Y-0535
X043Y-0545
X043Y-0555
X0435Y-014
X0435Y-015
X0435Y-016
X0435Y-017
X0435Y-018
X0435Y-0215
X0435Y-0485
X0435Y-052
X0435Y-053
X0435Y-054
X0435Y-055
X0435Y-056
X044Y-0145
X044Y-0155
X044Y-0165
X044Y-0175
X044Y-021
X044Y-049
X044Y-0525
X044Y-0535
X044Y-0545
X044Y-0555
X0445Y-014
X0445Y-015
X0445Y-016
X0445Y-017
X0445Y-018
X0445Y-0215
X0445Y-0485
X0445Y-052
X0445Y-053
X0445Y-054
X0445Y-055
X0445Y-056
X045Y-0145
X045Y-0155
X045Y-0165
X045Y-0175
X045Y-021
X045Y-049
X045Y-0525
X045Y-0535
X045Y-0545
X045Y-0555
X0455Y-014
X0455Y-015
X0455Y-016
X0455Y-017
X0455Y-018
X0455Y-0215
X0455Y-0485
X0455Y-052
X0455Y-053
X0455Y-054
X0455Y-055
X0455Y-056
X0485Y-0325
X049Y-035
X049Y-037
X0495Y-0345
X0495Y-0355
X0495Y-0365
X05Y-03325
X05Y-035
X05Y-036
X05Y-037
X0505Y-0345
X0505Y-0355
X051Y-035
X051Y-036
X0515Y-0345
X0515Y-0355
X052Y-03325
X052Y-035
X052Y-036
X052Y-037
X0525Y-0385
X0545Y-0325
X055Y-028
X0565Y-039
X057Y-0315
X057Y-042
X0585Y-039
X059Y-035
X059Y-037
X0595Y-0345
X0595Y-0355
X0595Y-0365
X0595Y-0385
X0595Y-042
X05975Y-03325
X06Y-0325
X06Y-035
X06Y-036
X06Y-037
X0605Y-0345
X0605Y-0355
X061Y-035
X0615Y-0345
X0615Y-0355
X062Y-03325
X062Y-035
X062Y-036
X062Y-037
X0625Y-0345
X0625Y-0355
X0625Y-0365
X063Y-035
X063Y-037
X0665Y-014
X0665Y-015
X0665Y-016
X0665Y-017
X0665Y-018
X0665Y-021
X0665Y-0485
X0665Y-053
X0665Y-054
X0665Y-055
X0665Y-056
X067Y-0145
X067Y-0155
X067Y-0165
X067Y-0175
X067Y-0215
X067Y-049
X067Y-0525
X067Y-0535
X067Y-0545
X067Y-0555
X0675Y-014
X0675Y-015
X0675Y-016
X0675Y-017
X0675Y-018
X0675Y-021
X0675Y-0485
X0675Y-053
X0675Y-054
X0675Y-055
X0675Y-056
X068Y-0145
X068Y-0155
X068Y-0165
X068Y-0175
X068Y-0215
X068Y-049
X068Y-0525
X068Y-0535
X068Y-0545
X068Y-0555
X0685Y-014
X0685Y-015
X0685Y-016
X0685Y-017
X0685Y-018
X0685Y-021
X0685Y-0485
X0685Y-053
X0685Y-054
X0685Y-055
X0685Y-056
X069Y-0145
X069Y-0155
X069Y-0165
X069Y-0175
X069Y-0215
X069Y-049
X069Y-0525
X069Y-0535
X069Y-0545
X069Y-0555
X0695Y-014
X0695Y-015
X0695Y-016
X0695Y-017
X0695Y-0185
X0695Y-0485
X0695Y-053
X0695Y-054
X0695Y-055
X0695Y-056
X07Y-0145
X07Y-0155
X07Y-0165
X07Y-0175
X07Y-021
X07Y-049
X07Y-0525
X07Y-0535
X07Y-0545
X07Y-0555
X0705Y-014
X0705Y-015
X0705Y-016
X0705Y-017
X0705Y-0215
X0705Y-0485
X0705Y-053
X0705Y-054
X0705Y-055
X0705Y-056
X071Y-0145
X071Y-0155
X071Y-0165
X071Y-019
X071Y-021
X071Y-022
X071Y-048
X071Y-049
X071Y-0525
X071Y-0535
X071Y-0545
X071Y-0555
X0715Y-014
X0715Y-015
X0715Y-016
X0715Y-0185
X0715Y-0215
X0715Y-0515
X0715Y-053
X0715Y-054
X0715Y-055
X0715Y-056
X072Y-0145
X072Y-0155
X072Y-018
X072Y-019
X072Y-021
X072Y-022
X072Y-048
X072Y-049
X072Y-0525
X072Y-0535
X072Y-0545
X072Y-0555
X0725Y-014
X0725Y-0175
X0725Y-0185
X0725Y-0215
X0725Y-026
X0725Y-045
X0725Y-056
X073Y-017
X073Y-018
X073Y-019
X0735Y-014
X0735Y-023551
X0735Y-0445
X0735Y-056
X0745Y-014
X0745Y-024
X0745Y-042
X0745Y-056
X0755Y-014
X0755Y-0395
X0755Y-0455
X0755Y-056
X076Y-038
X0765Y-014
X0765Y-0255
X0765Y-039
X0765Y-046449
X0765Y-056
X0775Y-014
X0775Y-0385
X0775Y-044
X0775Y-056
X0785Y-014
X0785Y-0245
X0785Y-056
X079Y-0505
X079Y-0515
X079Y-0525
X079Y-0535
X0795Y-014
X0795Y-025
X0795Y-046
X0795Y-048
X0795Y-05
X0795Y-051
X0795Y-052
X0795Y-053
X0795Y-054
X0795Y-056
X08Y-0145
X08Y-0155
X08Y-0165
X08Y-0175
X08Y-0185
X08Y-0195
X08Y-0205
X08Y-0215
X08Y-0485
X08Y-0495
X08Y-0505
X08Y-0515
X08Y-0525
X08Y-0535
X08Y-0545
X08Y-0555
X0805Y-014
X0805Y-015
X0805Y-016
X0805Y-017
X0805Y-018
X0805Y-019
X0805Y-02
X0805Y-021
X0805Y-022
X0805Y-048
X0805Y-049
X0805Y-05
X0805Y-051
X0805Y-052
X0805Y-053
X0805Y-054
X0805Y-055
X0805Y-056
X081Y-0145
X081Y-0155
X081Y-0165
X081Y-0175
X081Y-0185
X081Y-0195
X081Y-0205
X081Y-0215
X081Y-0485
X081Y-0495
X081Y-0505
X081Y-0515
X081Y-0525
X081Y-0535
X081Y-0545
X081Y-0555
X0815Y-014
X0815Y-015
X0815Y-016
X0815Y-017
X0815Y-018
X0815Y-019
X0815Y-02
X0815Y-021
X0815Y-022
X0815Y-048
X0815Y-049
X0815Y-05
X0815Y-051
X0815Y-052
X0815Y-053
X0815Y-054
X0815Y-055
X0815Y-056
X082Y-0145
X082Y-0155
X082Y-0165
X082Y-0175
X082Y-0185
X082Y-0195
X082Y-0205
X082Y-0215
X082Y-0485
X082Y-0495
X082Y-0505
X082Y-0515
X082Y-0525
X082Y-0535
X082Y-0545
X082Y-0555
X0825Y-014
X0825Y-015
X0825Y-016
X0825Y-017
X0825Y-018
X0825Y-019
X0825Y-02
X0825Y-021
X0825Y-022
X0825Y-049
X0825Y-05
X0825Y-051
X0825Y-052
X0825Y-053
X0825Y-054
X0825Y-055
X0825Y-056
X083Y-0145
X083Y-0155
X083Y-0165
X083Y-0175
X083Y-0185
X083Y-0195
X083Y-0205
X083Y-0215
X083Y-0495
X083Y-0505
X083Y-0515
X083Y-0525
X083Y-0535
X083Y-0545
X083Y-0555
X0835Y-014
X0835Y-015
X0835Y-016
X0835Y-017
X0835Y-018
X0835Y-019
X0835Y-02
X0835Y-021
X0835Y-022
X0835Y-048
X0835Y-05
X0835Y-051
X0835Y-052
X0835Y-053
X0835Y-054
X0835Y-055
X0835Y-056
X084Y-0145
X084Y-0155
X084Y-0165
X084Y-0175
X084Y-0185
X084Y-0195
X084Y-0205
X084Y-0215
X084Y-0485
X084Y-0505
X084Y-0515
X084Y-0525
X084Y-0535
X084Y-0545
X084Y-0555
X0845Y-014
X0845Y-015
X0845Y-016
X0845Y-017
X0845Y-018
X0845Y-019
X0845Y-02
X0845Y-021
X0845Y-022
X0845Y-048
X0845Y-049
X0845Y-051
X0845Y-052
X0845Y-053
X0845Y-054
X0845Y-055
X0845Y-056
X085Y-0145
X085Y-0155
X085Y-0165
X085Y-0175
X085Y-0185
X085Y-0195
X085Y-0205
X085Y-0215
X085Y-0315
X085Y-042449
X085Y-0485
X085Y-0495
X085Y-0515
X085Y-0525
X085Y-0535
X085Y-0545
X085Y-0555
X0855Y-014
X0855Y-015
X0855Y-016
X0855Y-017
X0855Y-018
X0855Y-019
X0855Y-02
X0855Y-021
X0855Y-048
X0855Y-049
X0855Y-05
X0855Y-052
X0855Y-053
X0855Y-054
X0855Y-055
X0855Y-056
X086Y-042
X087Y-031
X087Y-0415
X087Y-042
X088Y-042
X0885Y-0415
X089Y-013
X089Y-015
X089Y-017
X089Y-019
X089Y-021
X089Y-023
X089Y-028
X089Y-041
X089Y-042
X089Y-047
X089Y-049
X089Y-051
X089Y-053
X089Y-055
X089Y-057
X0895Y-0135
X0895Y-0145
X0895Y-0155
X0895Y-0165
X0895Y-0195
X0895Y-0205
X0895Y-0215
X0895Y-0225
X0895Y-0285
X0895Y-0415
X0895Y-0475
X0895Y-0485
X0895Y-0495
X0895Y-0505
X0895Y-0535
X0895Y-0545
X0895Y-0555
X0895Y-0565
X09Y-013
X09Y-014
X09Y-015
X09Y-017
X09Y-019
X09Y-02
X09Y-021
X09Y-023
X09Y-028
X09Y-029
X09Y-041
X09Y-042
X09Y-047
X09Y-049
X09Y-05
X09Y-051
X09Y-053
X09Y-055
X09Y-056
X09Y-057
X0905Y-0145
X0905Y-0155
X0905Y-0205
X0905Y-0215
X0905Y-0285
X0905Y-0415
X0905Y-0485
X0905Y-0495
X0905Y-0545
X0905Y-0555
X091Y-015
X091Y-021
X091Y-028
X091Y-029
X091Y-041
X091Y-042
X091Y-049
X091Y-055
X0915Y-0145
X0915Y-0155
X0915Y-0205
X0915Y-0215
X0915Y-0485
X0915Y-0495
X0915Y-0545
X0915Y-0555
X092Y-013
X092Y-014
X092Y-015
X092Y-017
X092Y-019
X092Y-02
X092Y-021
X092Y-023
X092Y-047
X092Y-049
X092Y-05
X092Y-051
X092Y-053
X092Y-055
X092Y-056
X092Y-057
X0925Y-0135
X0925Y-0145
X0925Y-0155
X0925Y-0165
X0925Y-0195
X0925Y-0205
X0925Y-0215
X0925Y-0225
X0925Y-0475
X0925Y-0485
X0925Y-0495
X0925Y-0505
X0925Y-0535
X0925Y-0545
X0925Y-0555
X0925Y-0565
X093Y-013
X093Y-017
X093Y-019
X093Y-023
X093Y-047
X093Y-049
X093Y-051
X093Y-053
X093Y-055
X093Y-057
T2
X016055Y-012
X016332Y-011332
X016332Y-012668
X017Y-011055
X017Y-012945
X017668Y-011332
X017668Y-012668
X017945Y-012
X094055Y-012
X094332Y-011332
X094332Y-012668
X095Y-011055
X095Y-012945
X095668Y-011332
X095668Y-012668
X095945Y-012
X094055Y-058
X094332Y-057332
X094332Y-058668
X095Y-057055
X095Y-058945
X095668Y-057332
X095668Y-058668
X095945Y-058
X016055Y-058
X016332Y-057332
X016332Y-058668
X017Y-057055
X017Y-058945
X017668Y-057332
X017668Y-058668
X017945Y-058
T3
X0505Y-04
X051484Y-04
X0385Y-023
X0385Y-027
X052Y-047
X053Y-047
X054Y-047
X055Y-047
X056Y-047
X057Y-047
X058Y-047
X059Y-047
X06Y-047
X0765Y-043
X0765Y-047
X060516Y-03
X0615Y-03
X0325Y-043
X0325Y-047
X0395Y-023
X0395Y-027
X0345Y-043
X0345Y-047
X0745Y-023
X0745Y-027
X052Y-023
X053Y-023
X054Y-023
X055Y-023
X056Y-023
X057Y-023
X058Y-023
X059Y-023
X06Y-023
X0725Y-023
X0725Y-027
X0365Y-023
X0365Y-027
X039Y-034213
X039Y-035
X039Y-035787
X0365Y-043
X0365Y-047
X0775Y-023
X0775Y-027
X0725Y-043
X0725Y-047
X0395Y-043
X0395Y-047
X02Y-027
X02Y-03
X021Y-027
X021Y-03
X022Y-027
X022Y-03
X023Y-027
X023Y-03
X024Y-027
X024Y-03
X025Y-027
X025Y-03
X026Y-027
X026Y-03
X027Y-027
X027Y-03
X028Y-027
X028Y-03
X029Y-027
X029Y-03
X0375Y-023
X0375Y-027
X0745Y-043
X0745Y-047
X084Y-027
X084Y-03
X085Y-027
X085Y-03
X086Y-027
X086Y-03
X087Y-027
X087Y-03
X088Y-027
X088Y-03
X089Y-027
X089Y-03
X09Y-027
X09Y-03
X091Y-027
X091Y-03
X0735Y-023
X0735Y-027
X092Y-029016
X092Y-03
X036Y-033
X036Y-037
X07Y-0325
X07Y-033484
X071Y-0325
X072Y-0325
X073Y-0325
X074Y-0325
X075Y-0325
X076Y-0325
X077Y-0325
X078Y-0325
X079Y-0325
X0335Y-023
X0335Y-027
X071Y-0335
X071Y-0365
X072Y-0335
X072Y-0365
X073Y-0335
X073Y-0365
X074Y-0335
X074Y-0365
X075Y-0335
X075Y-0365
X076Y-0335
X076Y-0365
X077Y-0335
X077Y-0365
X078Y-0335
X078Y-0365
X0785Y-023
X0785Y-027
X044Y-034213
X044Y-035
X044Y-035787
X0755Y-023
X0755Y-027
X023Y-026
X027Y-026
X022Y-044
X026Y-044
X0785Y-043
X0785Y-047
X0375Y-043
X0375Y-047
X0735Y-043
X0735Y-047
X020016Y-044
X021Y-044
X0755Y-043
X0755Y-047
X0795Y-043
X0795Y-047
X0355Y-043
X0355Y-047
X082Y-04
X082984Y-04
X0335Y-043
X0335Y-047
X0345Y-023
X0345Y-027
X0385Y-043
X0385Y-047
X084Y-04
X084Y-043
X085Y-04
X085Y-043
X086Y-04
X086Y-043
X087Y-04
X087Y-043
X088Y-04
X088Y-043
X089Y-04
X089Y-043
X09Y-04
X09Y-043
X091Y-04
X091Y-043
X0355Y-023
X0355Y-027
X0525Y-027
X0525Y-03
X0535Y-027
X0535Y-03
X0545Y-027
X0545Y-03
X0555Y-027
X0555Y-03
X0565Y-027
X0565Y-03
X0575Y-027
X0575Y-03
X0585Y-027
X0585Y-03
X0595Y-027
X0595Y-03
X0765Y-023
X0765Y-027
X02Y-04
X02Y-043
X021Y-04
X021Y-043
X022Y-04
X022Y-043
X023Y-04
X023Y-043
X024Y-04
X024Y-043
X025Y-04
X025Y-043
X026Y-04
X026Y-043
X027Y-04
X027Y-043
X028Y-04
X028Y-043
X029Y-04
X029Y-043
X0325Y-023
X0325Y-027
X0775Y-043
X0775Y-047
X028Y-026
X028984Y-026
X0525Y-04
X0525Y-043
X0535Y-04
X0535Y-043
X0545Y-04
X0545Y-043
X0555Y-04
X0555Y-043
X0565Y-04
X0565Y-043
X0575Y-04
X0575Y-043
X0585Y-04
X0585Y-043
X0595Y-04
X0595Y-043
X018Y-032
X018Y-038
X019Y-032
X019Y-038
X02Y-032
X02Y-038
X021Y-032
X021Y-038
X022Y-032
X022Y-038
X023Y-032
X023Y-038
X024Y-032
X024Y-038
X025Y-032
X025Y-038
X026Y-032
X026Y-038
X027Y-032
X027Y-038
X028Y-032
X028Y-038
X029Y-032
X029Y-038
X03Y-032
X03Y-038
X031Y-032
X031Y-038
X032Y-032
X032Y-038
X0795Y-023
X0795Y-027
T4
X05Y-015
X050291Y-014291
X050291Y-015709
X051Y-014
X051Y-016
X051709Y-014291
X051709Y-015709
X052Y-015
X06Y-055
X060291Y-054291
X060291Y-055709
X061Y-054
X061Y-056
X061709Y-054291
X061709Y-055709
X062Y-055
X06Y-015
X060291Y-014291
X060291Y-015709
X061Y-014
X061Y-016
X061709Y-014291
X061709Y-015709
X062Y-015
X05Y-055
X050291Y-054291
X050291Y-055709
X051Y-054
X051Y-056
X051709Y-054291
X051709Y-055709
X052Y-055
T5
X033Y-049
X033Y-055
X034Y-049
X034Y-055
X035Y-049
X035Y-055
X036Y-049
X036Y-055
X037Y-049
X037Y-055
X038Y-049
X038Y-055
X039Y-049
X039Y-055
X033Y-015
X033Y-021
X034Y-015
X034Y-021
X035Y-015
X035Y-021
X036Y-015
X036Y-021
X037Y-015
X037Y-021
X038Y-015
X038Y-021
X039Y-015
X039Y-021
X073Y-049
X073Y-055
X074Y-049
X074Y-055
X075Y-049
X075Y-055
X076Y-049
X076Y-055
X077Y-049
X077Y-055
X078Y-049
X078Y-055
X079Y-049
X079Y-055
X073Y-015
X073Y-021
X074Y-015
X074Y-021
X075Y-015
X075Y-021
X076Y-015
X076Y-021
X077Y-015
X077Y-021
X078Y-015
X078Y-021
X079Y-015
X079Y-021
T6
X018579Y-054031
X018579Y-056
X0235Y-054031
X0235Y-056
X0585Y-034031
X0585Y-036
X063421Y-034031
X063421Y-036
X018579Y-020031
X018579Y-022
X0235Y-020031
X0235Y-022
X018579Y-014
X018579Y-015969
X0235Y-014
X0235Y-015969
X0885Y-054031
X0885Y-056
X093421Y-054031
X093421Y-056
X0485Y-034031
X0485Y-036
X053421Y-034031
X053421Y-036
X0885Y-020031
X0885Y-022
X093421Y-020031
X093421Y-022
X0885Y-014
X0885Y-015969
X093421Y-014
X093421Y-015969
X018579Y-048
X018579Y-049969
X0235Y-048
X0235Y-049969
X0885Y-048
X0885Y-049969
X093421Y-048
X093421Y-049969
T7
X039Y-033386
X039Y-036614
X044Y-033386
X044Y-036614
T8
X017Y-012
X095Y-012
X095Y-058
X017Y-058
T0
M30
