M48
; DRILL file {KiCad (5.1.4)-1} date 8/6/2020 9:16:34 PM
; FORMAT={2:4/ absolute / inch / suppress trailing zeros}
; #@! TF.CreationDate,2020-08-06T21:16:34-04:00
; #@! TF.GenerationSoftware,Kicad,Pcbnew,(5.1.4)-1
; #@! TF.FileFunction,Plated,1,2,PTH
FMAT,2
INCH,LZ
T1C0.0157
T2C0.0197
T3C0.0315
T4C0.0354
T5C0.0394
T6C0.0472
T7C0.0591
T8C0.1260
%
G90
G05
T1
X013Y-033
X013Y-034
X013Y-035
X0135Y-0335
X0135Y-0345
X014Y-013
X014Y-015
X014Y-017
X014Y-019
X014Y-021
X014Y-023
X014Y-033
X014Y-034
X014Y-047
X014Y-049
X014Y-051
X014Y-053
X014Y-055
X014Y-057
X0145Y-0135
X0145Y-0145
X0145Y-0155
X0145Y-0165
X0145Y-0195
X0145Y-0205
X0145Y-0215
X0145Y-0225
X0145Y-0335
X0145Y-0405
X0145Y-0515
X0145Y-0535
X0145Y-0545
X0145Y-0555
X0145Y-0565
X015Y-013
X015Y-014
X015Y-015
X015Y-017
X015Y-019
X015Y-02
X015Y-021
X015Y-023
X015Y-028
X015Y-029
X015Y-033
X015Y-034
X015Y-037
X015Y-047
X015Y-0485
X015Y-0495
X015Y-0505
X015Y-053
X015Y-055
X015Y-056
X015Y-057
X0155Y-0145
X0155Y-0155
X0155Y-0205
X0155Y-0215
X0155Y-0285
X0155Y-0335
X0155Y-0365
X0155Y-049
X0155Y-05
X0155Y-0545
X0155Y-0555
X016Y-015
X016Y-021
X016Y-028
X016Y-029
X016Y-033
X016Y-034
X016Y-036
X016Y-037
X016Y-0485
X016Y-0495
X016Y-055
X0165Y-0145
X0165Y-0155
X0165Y-0205
X0165Y-0215
X0165Y-0285
X0165Y-0365
X0165Y-0415
X0165Y-049
X0165Y-05
X0165Y-0545
X0165Y-0555
X017Y-013
X017Y-014
X017Y-015
X017Y-017
X017Y-019
X017Y-033
X017Y-034
X017Y-036
X017Y-037
X017Y-051
X017Y-053
X017Y-055
X017Y-056
X017Y-057
X0175Y-0135
X0175Y-0145
X0175Y-0155
X0175Y-0165
X0175Y-0195
X0175Y-0205
X0175Y-0215
X0175Y-0225
X0175Y-0275
X0175Y-0285
X0175Y-0325
X0175Y-0335
X0175Y-0365
X0175Y-042
X0175Y-049
X0175Y-0535
X0175Y-0545
X0175Y-0555
X0175Y-0565
X018Y-013
X018Y-015
X018Y-017
X018Y-019
X018Y-021
X018Y-023
X018Y-033
X018Y-034
X018Y-036
X018Y-0405
X018Y-053
X018Y-055
X018Y-057
X0185Y-0185
X0185Y-028
X019Y-0415
X0195Y-0195
X0195Y-0425
X0195Y-0485
X02Y-018
X02Y-0335
X02Y-0365
X02Y-042449
X02Y-0495
X0205Y-02
X0205Y-034
X0205Y-036
X0205Y-053
X021Y-0175
X021Y-0335
X021Y-0365
X021Y-039449
X021Y-0415
X021Y-0525
X0215Y-014
X0215Y-015
X0215Y-0165
X0215Y-0205
X0215Y-034
X0215Y-036
X0215Y-0425
X0215Y-0505
X0215Y-054
X0215Y-055
X0215Y-056
X022Y-0145
X022Y-016
X022Y-017
X022Y-0335
X022Y-0365
X022Y-039
X022Y-041
X022Y-0525
X022Y-0535
X022Y-0545
X022Y-0555
X0225Y-014
X0225Y-015
X0225Y-0165
X0225Y-019
X0225Y-031
X0225Y-036
X0225Y-0415
X0225Y-05
X0225Y-054
X0225Y-055
X0225Y-056
X023Y-0145
X023Y-016
X023Y-021
X023Y-035
X023Y-0365
X023Y-0385
X023Y-0415
X023Y-0525
X023Y-0535
X023Y-0545
X023Y-0555
X0235Y-014
X0235Y-015
X0235Y-0165
X0235Y-0215
X0235Y-054
X0235Y-055
X0235Y-056
X024Y-0145
X024Y-016
X024Y-021
X024Y-034
X024Y-036
X024Y-0525
X024Y-0535
X024Y-0545
X024Y-0555
X0245Y-014
X0245Y-015
X0245Y-0165
X0245Y-0215
X0245Y-0335
X0245Y-0365
X0245Y-054
X0245Y-055
X0245Y-056
X025Y-0145
X025Y-016
X025Y-021
X025Y-034
X025Y-0525
X025Y-0535
X025Y-0545
X025Y-0555
X0255Y-014
X0255Y-015
X0255Y-0165
X0255Y-0215
X0255Y-0335
X0255Y-0365
X0255Y-054
X0255Y-055
X0255Y-056
X026Y-0145
X026Y-016
X026Y-021
X026Y-034
X026Y-0525
X026Y-0535
X026Y-0545
X026Y-0555
X0265Y-014
X0265Y-015
X0265Y-0165
X0265Y-0215
X0265Y-0335
X0265Y-0365
X0265Y-054
X0265Y-055
X0265Y-056
X027Y-0145
X027Y-016
X027Y-021
X027Y-034
X027Y-0525
X027Y-0535
X027Y-0545
X027Y-0555
X0275Y-014
X0275Y-0165
X0275Y-0215
X0275Y-024
X0275Y-025
X0275Y-026
X0275Y-0335
X0275Y-0365
X0275Y-056
X028Y-016
X028Y-0235
X028Y-0245
X028Y-0255
X028Y-029
X028Y-0405
X0285Y-014
X0285Y-023551
X0285Y-0285
X0285Y-0415
X0285Y-056
X029Y-0245
X029Y-0255
X0295Y-014
X0295Y-024
X0295Y-056
X03Y-018
X03Y-0245
X03Y-0255
X03Y-032
X0305Y-014
X0305Y-025
X0305Y-0455
X0305Y-056
X031Y-0175
X031Y-0245
X031Y-0255
X0315Y-014
X0315Y-025
X0315Y-0255
X0315Y-046449
X0315Y-056
X032Y-0245
X0325Y-014
X0325Y-025
X0325Y-056
X033Y-0245
X0335Y-014
X0335Y-0245
X0335Y-056
X034Y-017
X0345Y-014
X0345Y-025
X0345Y-046
X0345Y-0485
X0345Y-0495
X0345Y-053
X0345Y-054
X0345Y-056
X035Y-0145
X035Y-0155
X035Y-0165
X035Y-0175
X035Y-021
X035Y-049
X035Y-0525
X035Y-0535
X035Y-0545
X035Y-0555
X0355Y-014
X0355Y-015
X0355Y-016
X0355Y-017
X0355Y-018
X0355Y-0215
X0355Y-0485
X0355Y-0495
X0355Y-053
X0355Y-054
X0355Y-055
X0355Y-056
X036Y-0145
X036Y-0155
X036Y-0165
X036Y-0175
X036Y-021
X036Y-049
X036Y-0525
X036Y-0535
X036Y-0545
X036Y-0555
X0365Y-014
X0365Y-015
X0365Y-016
X0365Y-017
X0365Y-018
X0365Y-0215
X0365Y-0485
X0365Y-0495
X0365Y-053
X0365Y-054
X0365Y-055
X0365Y-056
X037Y-0145
X037Y-0155
X037Y-0165
X037Y-0175
X037Y-021
X037Y-049
X037Y-0525
X037Y-0535
X037Y-0545
X037Y-0555
X0375Y-014
X0375Y-015
X0375Y-016
X0375Y-017
X0375Y-018
X0375Y-0215
X0375Y-0485
X0375Y-0495
X0375Y-053
X0375Y-054
X0375Y-055
X0375Y-056
X038Y-0145
X038Y-0155
X038Y-0165
X038Y-0175
X038Y-021
X038Y-049
X038Y-0525
X038Y-0535
X038Y-0545
X038Y-0555
X0385Y-014
X0385Y-015
X0385Y-016
X0385Y-017
X0385Y-018
X0385Y-0215
X0385Y-0485
X0385Y-0495
X0385Y-053
X0385Y-054
X0385Y-055
X0385Y-056
X039Y-0145
X039Y-0155
X039Y-0165
X039Y-0175
X039Y-021
X039Y-049
X039Y-0525
X039Y-0535
X039Y-0545
X039Y-0555
X0395Y-014
X0395Y-015
X0395Y-016
X0395Y-017
X0395Y-018
X0395Y-0215
X0395Y-0485
X0395Y-0495
X0395Y-053
X0395Y-054
X0395Y-055
X0395Y-056
X04Y-0145
X04Y-0155
X04Y-0165
X04Y-0175
X04Y-021
X04Y-049
X04Y-0525
X04Y-0535
X04Y-0545
X04Y-0555
X0405Y-014
X0405Y-015
X0405Y-016
X0405Y-017
X0405Y-018
X0405Y-0215
X0405Y-0485
X0405Y-0495
X0405Y-053
X0405Y-054
X0405Y-055
X0405Y-056
X0435Y-0325
X044Y-035
X044Y-037
X0445Y-0345
X0445Y-0355
X0445Y-0365
X045Y-03325
X045Y-035
X045Y-036
X045Y-037
X0455Y-0345
X0455Y-0355
X046Y-035
X046Y-036
X0465Y-0345
X0465Y-0355
X047Y-03325
X047Y-035
X047Y-036
X047Y-037
X0475Y-0385
X0495Y-0325
X05Y-028
X0515Y-039
X052Y-0315
X052Y-042
X0535Y-039
X054Y-035
X054Y-037
X0545Y-0345
X0545Y-0355
X0545Y-0365
X0545Y-0385
X0545Y-042
X05475Y-03325
X055Y-0325
X055Y-035
X055Y-036
X055Y-037
X0555Y-0345
X0555Y-0355
X056Y-035
X0565Y-0345
X0565Y-0355
X057Y-03325
X057Y-035
X057Y-036
X057Y-037
X0575Y-0345
X0575Y-0355
X0575Y-0365
X058Y-035
X058Y-037
X0615Y-014
X0615Y-015
X0615Y-016
X0615Y-017
X0615Y-018
X0615Y-021
X0615Y-049
X0615Y-053
X0615Y-054
X0615Y-055
X0615Y-056
X062Y-0145
X062Y-0155
X062Y-0165
X062Y-0175
X062Y-0215
X062Y-0485
X062Y-0495
X062Y-0525
X062Y-0535
X062Y-0545
X062Y-0555
X0625Y-014
X0625Y-015
X0625Y-016
X0625Y-017
X0625Y-018
X0625Y-021
X0625Y-049
X0625Y-053
X0625Y-054
X0625Y-055
X0625Y-056
X063Y-0145
X063Y-0155
X063Y-0165
X063Y-0175
X063Y-0215
X063Y-0485
X063Y-0495
X063Y-0525
X063Y-0535
X063Y-0545
X063Y-0555
X0635Y-014
X0635Y-015
X0635Y-016
X0635Y-017
X0635Y-018
X0635Y-021
X0635Y-049
X0635Y-053
X0635Y-054
X0635Y-055
X0635Y-056
X064Y-0145
X064Y-0155
X064Y-0165
X064Y-0175
X064Y-0215
X064Y-0485
X064Y-0495
X064Y-0525
X064Y-0535
X064Y-0545
X064Y-0555
X0645Y-014
X0645Y-015
X0645Y-016
X0645Y-017
X0645Y-0185
X0645Y-049
X0645Y-053
X0645Y-054
X0645Y-055
X0645Y-056
X065Y-0145
X065Y-0155
X065Y-0165
X065Y-0175
X065Y-021
X065Y-0485
X065Y-0495
X065Y-0525
X065Y-0535
X065Y-0545
X065Y-0555
X0655Y-014
X0655Y-015
X0655Y-016
X0655Y-017
X0655Y-0215
X0655Y-049
X0655Y-053
X0655Y-054
X0655Y-055
X0655Y-056
X066Y-0145
X066Y-0155
X066Y-0165
X066Y-019
X066Y-021
X066Y-022
X066Y-048
X066Y-0485
X066Y-0495
X066Y-0525
X066Y-0535
X066Y-0545
X066Y-0555
X0665Y-014
X0665Y-015
X0665Y-016
X0665Y-0185
X0665Y-0215
X0665Y-052
X0665Y-053
X0665Y-054
X0665Y-055
X0665Y-056
X067Y-0145
X067Y-0155
X067Y-018
X067Y-019
X067Y-021
X067Y-022
X067Y-048
X067Y-049
X067Y-0525
X067Y-0535
X067Y-0545
X067Y-0555
X0675Y-014
X0675Y-0175
X0675Y-0185
X0675Y-0215
X0675Y-026
X0675Y-045
X0675Y-056
X068Y-017
X068Y-018
X068Y-019
X0685Y-014
X0685Y-023551
X0685Y-0445
X0685Y-056
X0695Y-014
X0695Y-024
X0695Y-042
X0695Y-056
X0705Y-014
X0705Y-0395
X0705Y-0455
X0705Y-056
X071Y-038
X0715Y-014
X0715Y-0255
X0715Y-039
X0715Y-046449
X0715Y-056
X0725Y-014
X0725Y-0385
X0725Y-044
X0725Y-056
X0735Y-014
X0735Y-0245
X0735Y-056
X074Y-0505
X074Y-0515
X074Y-0525
X074Y-0535
X0745Y-014
X0745Y-025
X0745Y-046
X0745Y-048
X0745Y-05
X0745Y-051
X0745Y-052
X0745Y-053
X0745Y-054
X0745Y-056
X075Y-0145
X075Y-0155
X075Y-0165
X075Y-0175
X075Y-0185
X075Y-0195
X075Y-0205
X075Y-0215
X075Y-0485
X075Y-0495
X075Y-0505
X075Y-0515
X075Y-0525
X075Y-0535
X075Y-0545
X075Y-0555
X0755Y-014
X0755Y-015
X0755Y-016
X0755Y-017
X0755Y-018
X0755Y-019
X0755Y-02
X0755Y-021
X0755Y-022
X0755Y-048
X0755Y-049
X0755Y-05
X0755Y-051
X0755Y-052
X0755Y-053
X0755Y-054
X0755Y-055
X0755Y-056
X076Y-0145
X076Y-0155
X076Y-0165
X076Y-0175
X076Y-0185
X076Y-0195
X076Y-0205
X076Y-0215
X076Y-0485
X076Y-0495
X076Y-0505
X076Y-0515
X076Y-0525
X076Y-0535
X076Y-0545
X076Y-0555
X0765Y-014
X0765Y-015
X0765Y-016
X0765Y-017
X0765Y-018
X0765Y-019
X0765Y-02
X0765Y-021
X0765Y-022
X0765Y-048
X0765Y-049
X0765Y-05
X0765Y-051
X0765Y-052
X0765Y-053
X0765Y-054
X0765Y-055
X0765Y-056
X077Y-0145
X077Y-0155
X077Y-0165
X077Y-0175
X077Y-0185
X077Y-0195
X077Y-0205
X077Y-0215
X077Y-0485
X077Y-0495
X077Y-0505
X077Y-0515
X077Y-0525
X077Y-0535
X077Y-0545
X077Y-0555
X0775Y-014
X0775Y-015
X0775Y-016
X0775Y-017
X0775Y-018
X0775Y-019
X0775Y-02
X0775Y-021
X0775Y-022
X0775Y-049
X0775Y-05
X0775Y-051
X0775Y-052
X0775Y-053
X0775Y-054
X0775Y-055
X0775Y-056
X078Y-0145
X078Y-0155
X078Y-0165
X078Y-0175
X078Y-0185
X078Y-0195
X078Y-0205
X078Y-0215
X078Y-0495
X078Y-0505
X078Y-0515
X078Y-0525
X078Y-0535
X078Y-0545
X078Y-0555
X0785Y-014
X0785Y-015
X0785Y-016
X0785Y-017
X0785Y-018
X0785Y-019
X0785Y-02
X0785Y-021
X0785Y-022
X0785Y-048
X0785Y-05
X0785Y-051
X0785Y-052
X0785Y-053
X0785Y-054
X0785Y-055
X0785Y-056
X079Y-0145
X079Y-0155
X079Y-0165
X079Y-0175
X079Y-0185
X079Y-0195
X079Y-0205
X079Y-0215
X079Y-0485
X079Y-0505
X079Y-0515
X079Y-0525
X079Y-0535
X079Y-0545
X079Y-0555
X0795Y-014
X0795Y-015
X0795Y-016
X0795Y-017
X0795Y-018
X0795Y-019
X0795Y-02
X0795Y-021
X0795Y-022
X0795Y-048
X0795Y-049
X0795Y-051
X0795Y-052
X0795Y-053
X0795Y-054
X0795Y-055
X0795Y-056
X08Y-0145
X08Y-0155
X08Y-0165
X08Y-0175
X08Y-0185
X08Y-0195
X08Y-0205
X08Y-0215
X08Y-0315
X08Y-042449
X08Y-0485
X08Y-0495
X08Y-0515
X08Y-0525
X08Y-0535
X08Y-0545
X08Y-0555
X0805Y-014
X0805Y-015
X0805Y-016
X0805Y-017
X0805Y-018
X0805Y-019
X0805Y-02
X0805Y-021
X0805Y-048
X0805Y-049
X0805Y-05
X0805Y-052
X0805Y-053
X0805Y-054
X0805Y-055
X0805Y-056
X081Y-042
X082Y-031
X082Y-0415
X082Y-042
X083Y-042
X0835Y-0415
X084Y-013
X084Y-015
X084Y-017
X084Y-019
X084Y-021
X084Y-023
X084Y-028
X084Y-041
X084Y-042
X084Y-047
X084Y-049
X084Y-051
X084Y-053
X084Y-055
X084Y-057
X0845Y-0135
X0845Y-0145
X0845Y-0155
X0845Y-0165
X0845Y-0195
X0845Y-0205
X0845Y-0215
X0845Y-0225
X0845Y-0285
X0845Y-0415
X0845Y-0475
X0845Y-0485
X0845Y-0495
X0845Y-0505
X0845Y-0535
X0845Y-0545
X0845Y-0555
X0845Y-0565
X085Y-013
X085Y-014
X085Y-015
X085Y-017
X085Y-019
X085Y-02
X085Y-021
X085Y-023
X085Y-028
X085Y-029
X085Y-041
X085Y-042
X085Y-047
X085Y-049
X085Y-05
X085Y-051
X085Y-053
X085Y-055
X085Y-056
X085Y-057
X0855Y-0145
X0855Y-0155
X0855Y-0205
X0855Y-0215
X0855Y-0285
X0855Y-0415
X0855Y-0485
X0855Y-0495
X0855Y-0545
X0855Y-0555
X086Y-015
X086Y-021
X086Y-028
X086Y-029
X086Y-041
X086Y-042
X086Y-049
X086Y-055
X0865Y-0145
X0865Y-0155
X0865Y-0205
X0865Y-0215
X0865Y-0485
X0865Y-0495
X0865Y-0545
X0865Y-0555
X087Y-013
X087Y-014
X087Y-015
X087Y-017
X087Y-019
X087Y-02
X087Y-021
X087Y-023
X087Y-047
X087Y-049
X087Y-05
X087Y-051
X087Y-053
X087Y-055
X087Y-056
X087Y-057
X0875Y-0135
X0875Y-0145
X0875Y-0155
X0875Y-0165
X0875Y-0195
X0875Y-0205
X0875Y-0215
X0875Y-0225
X0875Y-0475
X0875Y-0485
X0875Y-0495
X0875Y-0505
X0875Y-0535
X0875Y-0545
X0875Y-0555
X0875Y-0565
X088Y-013
X088Y-017
X088Y-019
X088Y-023
X088Y-047
X088Y-049
X088Y-051
X088Y-053
X088Y-055
X088Y-057
T2
X011055Y-012
X011332Y-011332
X011332Y-012668
X012Y-011055
X012Y-012945
X012668Y-011332
X012668Y-012668
X012945Y-012
X089055Y-012
X089332Y-011332
X089332Y-012668
X09Y-011055
X09Y-012945
X090668Y-011332
X090668Y-012668
X090945Y-012
X089055Y-058
X089332Y-057332
X089332Y-058668
X09Y-057055
X09Y-058945
X090668Y-057332
X090668Y-058668
X090945Y-058
X011055Y-058
X011332Y-057332
X011332Y-058668
X012Y-057055
X012Y-058945
X012668Y-057332
X012668Y-058668
X012945Y-058
T3
X017Y-044
X021Y-044
X0735Y-043
X0735Y-047
X0325Y-043
X0325Y-047
X0685Y-043
X0685Y-047
X015016Y-044
X016Y-044
X0705Y-043
X0705Y-047
X0745Y-043
X0745Y-047
X0305Y-043
X0305Y-047
X077Y-04
X077984Y-04
X0285Y-043
X0285Y-047
X0295Y-023
X0295Y-027
X0335Y-043
X0335Y-047
X079Y-04
X079Y-043
X08Y-04
X08Y-043
X081Y-04
X081Y-043
X082Y-04
X082Y-043
X083Y-04
X083Y-043
X084Y-04
X084Y-043
X085Y-04
X085Y-043
X086Y-04
X086Y-043
X0305Y-023
X0305Y-027
X0475Y-027
X0475Y-03
X0485Y-027
X0485Y-03
X0495Y-027
X0495Y-03
X0505Y-027
X0505Y-03
X0515Y-027
X0515Y-03
X0525Y-027
X0525Y-03
X0535Y-027
X0535Y-03
X0545Y-027
X0545Y-03
X0715Y-023
X0715Y-027
X0275Y-023
X0275Y-027
X0725Y-043
X0725Y-047
X023Y-026
X023984Y-026
X0475Y-04
X0475Y-043
X0485Y-04
X0485Y-043
X0495Y-04
X0495Y-043
X0505Y-04
X0505Y-043
X0515Y-04
X0515Y-043
X0525Y-04
X0525Y-043
X0535Y-04
X0535Y-043
X0545Y-04
X0545Y-043
X013Y-032
X013Y-038
X014Y-032
X014Y-038
X015Y-032
X015Y-038
X016Y-032
X016Y-038
X017Y-032
X017Y-038
X018Y-032
X018Y-038
X019Y-032
X019Y-038
X02Y-032
X02Y-038
X021Y-032
X021Y-038
X022Y-032
X022Y-038
X023Y-032
X023Y-038
X024Y-032
X024Y-038
X025Y-032
X025Y-038
X026Y-032
X026Y-038
X027Y-032
X027Y-038
X0745Y-023
X0745Y-027
X015Y-04
X015Y-043
X016Y-04
X016Y-043
X017Y-04
X017Y-043
X018Y-04
X018Y-043
X019Y-04
X019Y-043
X02Y-04
X02Y-043
X021Y-04
X021Y-043
X022Y-04
X022Y-043
X023Y-04
X023Y-043
X024Y-04
X024Y-043
X0455Y-04
X046484Y-04
X0335Y-023
X0335Y-027
X047Y-047
X048Y-047
X049Y-047
X05Y-047
X051Y-047
X052Y-047
X053Y-047
X054Y-047
X055Y-047
X0715Y-043
X0715Y-047
X015Y-027
X015Y-03
X016Y-027
X016Y-03
X017Y-027
X017Y-03
X018Y-027
X018Y-03
X019Y-027
X019Y-03
X02Y-027
X02Y-03
X021Y-027
X021Y-03
X022Y-027
X022Y-03
X023Y-027
X023Y-03
X024Y-027
X024Y-03
X055516Y-03
X0565Y-03
X0275Y-043
X0275Y-047
X0345Y-023
X0345Y-027
X0295Y-043
X0295Y-047
X0695Y-023
X0695Y-027
X047Y-023
X048Y-023
X049Y-023
X05Y-023
X051Y-023
X052Y-023
X053Y-023
X054Y-023
X055Y-023
X0675Y-023
X0675Y-027
X0315Y-023
X0315Y-027
X034Y-034213
X034Y-035
X034Y-035787
X0315Y-043
X0315Y-047
X0725Y-023
X0725Y-027
X0675Y-043
X0675Y-047
X0345Y-043
X0345Y-047
X0325Y-023
X0325Y-027
X0695Y-043
X0695Y-047
X079Y-027
X079Y-03
X08Y-027
X08Y-03
X081Y-027
X081Y-03
X082Y-027
X082Y-03
X083Y-027
X083Y-03
X084Y-027
X084Y-03
X085Y-027
X085Y-03
X086Y-027
X086Y-03
X0685Y-023
X0685Y-027
X087Y-029016
X087Y-03
X031Y-033
X031Y-037
X065Y-0325
X065Y-033484
X066Y-0325
X067Y-0325
X068Y-0325
X069Y-0325
X07Y-0325
X071Y-0325
X072Y-0325
X073Y-0325
X074Y-0325
X0285Y-023
X0285Y-027
X066Y-0335
X066Y-0365
X067Y-0335
X067Y-0365
X068Y-0335
X068Y-0365
X069Y-0335
X069Y-0365
X07Y-0335
X07Y-0365
X071Y-0335
X071Y-0365
X072Y-0335
X072Y-0365
X073Y-0335
X073Y-0365
X0735Y-023
X0735Y-027
X039Y-034213
X039Y-035
X039Y-035787
X0705Y-023
X0705Y-027
X018Y-026
X022Y-026
T4
X045Y-015
X045291Y-014291
X045291Y-015709
X046Y-014
X046Y-016
X046709Y-014291
X046709Y-015709
X047Y-015
X055Y-055
X055291Y-054291
X055291Y-055709
X056Y-054
X056Y-056
X056709Y-054291
X056709Y-055709
X057Y-055
X055Y-015
X055291Y-014291
X055291Y-015709
X056Y-014
X056Y-016
X056709Y-014291
X056709Y-015709
X057Y-015
X045Y-055
X045291Y-054291
X045291Y-055709
X046Y-054
X046Y-056
X046709Y-054291
X046709Y-055709
X047Y-055
T5
X028Y-049
X028Y-055
X029Y-049
X029Y-055
X03Y-049
X03Y-055
X031Y-049
X031Y-055
X032Y-049
X032Y-055
X033Y-049
X033Y-055
X034Y-049
X034Y-055
X028Y-015
X028Y-021
X029Y-015
X029Y-021
X03Y-015
X03Y-021
X031Y-015
X031Y-021
X032Y-015
X032Y-021
X033Y-015
X033Y-021
X034Y-015
X034Y-021
X068Y-049
X068Y-055
X069Y-049
X069Y-055
X07Y-049
X07Y-055
X071Y-049
X071Y-055
X072Y-049
X072Y-055
X073Y-049
X073Y-055
X074Y-049
X074Y-055
X068Y-015
X068Y-021
X069Y-015
X069Y-021
X07Y-015
X07Y-021
X071Y-015
X071Y-021
X072Y-015
X072Y-021
X073Y-015
X073Y-021
X074Y-015
X074Y-021
T6
X013579Y-020031
X013579Y-022
X0185Y-020031
X0185Y-022
X013579Y-014
X013579Y-015969
X0185Y-014
X0185Y-015969
X0835Y-054031
X0835Y-056
X088421Y-054031
X088421Y-056
X0435Y-034031
X0435Y-036
X048421Y-034031
X048421Y-036
X0835Y-020031
X0835Y-022
X088421Y-020031
X088421Y-022
X0835Y-014
X0835Y-015969
X088421Y-014
X088421Y-015969
X013579Y-048
X013579Y-049969
X0185Y-048
X0185Y-049969
X0835Y-048
X0835Y-049969
X088421Y-048
X088421Y-049969
X013579Y-054031
X013579Y-056
X0185Y-054031
X0185Y-056
X0535Y-034031
X0535Y-036
X058421Y-034031
X058421Y-036
T7
X034Y-033386
X034Y-036614
X039Y-033386
X039Y-036614
T8
X012Y-012
X09Y-012
X09Y-058
X012Y-058
T0
M30
